<svg xmlns="http://www.w3.org/2000/svg" xmlns:xlink="http://www.w3.org/1999/xlink" width="500" zoomAndPan="magnify" viewBox="0 0 375 374.999991" height="500" preserveAspectRatio="xMidYMid meet" version="1.0"><defs><g/><clipPath id="4b4a9f4cb3"><path d="M 51 160 L 89 160 L 89 196 L 51 196 Z M 51 160 " clip-rule="nonzero"/></clipPath><clipPath id="17af7ddf9f"><path d="M 33.984375 184.683594 L 62.550781 141.53125 L 105.703125 170.097656 L 77.136719 213.25 Z M 33.984375 184.683594 " clip-rule="nonzero"/></clipPath><clipPath id="0ee274c5cf"><path d="M 33.984375 184.683594 L 62.550781 141.53125 L 105.703125 170.097656 L 77.136719 213.25 Z M 33.984375 184.683594 " clip-rule="nonzero"/></clipPath><clipPath id="1b7bfcf7fd"><path d="M 74 170 L 77 170 L 77 173 L 74 173 Z M 74 170 " clip-rule="nonzero"/></clipPath><clipPath id="b3e1aab598"><path d="M 33.984375 184.683594 L 62.550781 141.53125 L 105.703125 170.097656 L 77.136719 213.25 Z M 33.984375 184.683594 " clip-rule="nonzero"/></clipPath><clipPath id="cb1e535fbb"><path d="M 33.984375 184.683594 L 62.550781 141.53125 L 105.703125 170.097656 L 77.136719 213.25 Z M 33.984375 184.683594 " clip-rule="nonzero"/></clipPath><clipPath id="54822d0a8a"><path d="M 79 170 L 83 170 L 83 174 L 79 174 Z M 79 170 " clip-rule="nonzero"/></clipPath><clipPath id="1a9deacaaa"><path d="M 33.984375 184.683594 L 62.550781 141.53125 L 105.703125 170.097656 L 77.136719 213.25 Z M 33.984375 184.683594 " clip-rule="nonzero"/></clipPath><clipPath id="8431370660"><path d="M 33.984375 184.683594 L 62.550781 141.53125 L 105.703125 170.097656 L 77.136719 213.25 Z M 33.984375 184.683594 " clip-rule="nonzero"/></clipPath><clipPath id="afe41de106"><path d="M 80 174 L 83 174 L 83 177 L 80 177 Z M 80 174 " clip-rule="nonzero"/></clipPath><clipPath id="051c4855fb"><path d="M 33.984375 184.683594 L 62.550781 141.53125 L 105.703125 170.097656 L 77.136719 213.25 Z M 33.984375 184.683594 " clip-rule="nonzero"/></clipPath><clipPath id="611887df9c"><path d="M 33.984375 184.683594 L 62.550781 141.53125 L 105.703125 170.097656 L 77.136719 213.25 Z M 33.984375 184.683594 " clip-rule="nonzero"/></clipPath><clipPath id="2ea57b388d"><path d="M 75 175 L 78 175 L 78 178 L 75 178 Z M 75 175 " clip-rule="nonzero"/></clipPath><clipPath id="ac05d4ff84"><path d="M 33.984375 184.683594 L 62.550781 141.53125 L 105.703125 170.097656 L 77.136719 213.25 Z M 33.984375 184.683594 " clip-rule="nonzero"/></clipPath><clipPath id="0f17ad4414"><path d="M 33.984375 184.683594 L 62.550781 141.53125 L 105.703125 170.097656 L 77.136719 213.25 Z M 33.984375 184.683594 " clip-rule="nonzero"/></clipPath><clipPath id="3d3ab55e8e"><path d="M 57 179 L 59 179 L 59 182 L 57 182 Z M 57 179 " clip-rule="nonzero"/></clipPath><clipPath id="b976c43bea"><path d="M 33.984375 184.683594 L 62.550781 141.53125 L 105.703125 170.097656 L 77.136719 213.25 Z M 33.984375 184.683594 " clip-rule="nonzero"/></clipPath><clipPath id="3dfbd696f7"><path d="M 33.984375 184.683594 L 62.550781 141.53125 L 105.703125 170.097656 L 77.136719 213.25 Z M 33.984375 184.683594 " clip-rule="nonzero"/></clipPath><clipPath id="6ccb8b87ad"><path d="M 55 175 L 59 175 L 59 179 L 55 179 Z M 55 175 " clip-rule="nonzero"/></clipPath><clipPath id="b8c50fe49e"><path d="M 33.984375 184.683594 L 62.550781 141.53125 L 105.703125 170.097656 L 77.136719 213.25 Z M 33.984375 184.683594 " clip-rule="nonzero"/></clipPath><clipPath id="b4e8488ce0"><path d="M 33.984375 184.683594 L 62.550781 141.53125 L 105.703125 170.097656 L 77.136719 213.25 Z M 33.984375 184.683594 " clip-rule="nonzero"/></clipPath><clipPath id="e9ce949475"><path d="M 62 178 L 64 178 L 64 180 L 62 180 Z M 62 178 " clip-rule="nonzero"/></clipPath><clipPath id="d76665334d"><path d="M 33.984375 184.683594 L 62.550781 141.53125 L 105.703125 170.097656 L 77.136719 213.25 Z M 33.984375 184.683594 " clip-rule="nonzero"/></clipPath><clipPath id="50152487bc"><path d="M 33.984375 184.683594 L 62.550781 141.53125 L 105.703125 170.097656 L 77.136719 213.25 Z M 33.984375 184.683594 " clip-rule="nonzero"/></clipPath><clipPath id="848a9c937f"><path d="M 60 173 L 64 173 L 64 176 L 60 176 Z M 60 173 " clip-rule="nonzero"/></clipPath><clipPath id="414a080826"><path d="M 33.984375 184.683594 L 62.550781 141.53125 L 105.703125 170.097656 L 77.136719 213.25 Z M 33.984375 184.683594 " clip-rule="nonzero"/></clipPath><clipPath id="0286adad00"><path d="M 33.984375 184.683594 L 62.550781 141.53125 L 105.703125 170.097656 L 77.136719 213.25 Z M 33.984375 184.683594 " clip-rule="nonzero"/></clipPath><clipPath id="d50841a9ce"><path d="M 111.257812 182.796875 L 131.507812 182.796875 L 131.507812 203.796875 L 111.257812 203.796875 Z M 111.257812 182.796875 " clip-rule="nonzero"/></clipPath><clipPath id="90c5721f26"><path d="M 145.476562 153.304688 L 195.726562 153.304688 L 195.726562 203.554688 L 145.476562 203.554688 Z M 145.476562 153.304688 " clip-rule="nonzero"/></clipPath><clipPath id="4ac827e323"><path d="M 311.394531 109.148438 L 327.894531 109.148438 L 327.894531 125.648438 L 311.394531 125.648438 Z M 311.394531 109.148438 " clip-rule="nonzero"/></clipPath></defs><rect x="-37.5" width="450" fill="#ffffff" y="-37.499999" height="449.999989" fill-opacity="1"/><rect x="-37.5" width="450" fill="#0400b8" y="-37.499999" height="449.999989" fill-opacity="1"/><g fill="#ffffff" fill-opacity="1"><g transform="translate(43.344453, 204.820812)"><g><path d="M -2.09375 0 L 15.734375 -65.1875 L 21.640625 -34.09375 L 28.453125 -34.09375 L 19.703125 -79.421875 L 48.0625 -79.421875 L 63.46875 0 L 35.171875 0 L 29.90625 -26.953125 L 23.09375 -26.953125 L 28.34375 0 Z M -2.09375 0 "/></g></g></g><g clip-path="url(#4b4a9f4cb3)"><g clip-path="url(#17af7ddf9f)"><g clip-path="url(#0ee274c5cf)"><path fill="#0400b8" d="M 66.082031 160.136719 C 66.082031 160.136719 66.078125 160.136719 66.078125 160.136719 C 64.75 160.761719 63.546875 161.582031 64.09375 166.824219 C 64.265625 168.480469 64.613281 170.558594 65.070312 172.816406 C 65.070312 172.816406 58.21875 176.195312 58.21875 176.195312 C 58.21875 176.195312 51.003906 179.757812 51.003906 179.757812 C 51.167969 180.5 51.328125 181.242188 51.492188 181.984375 C 56.441406 180.816406 61.390625 179.648438 66.335938 178.480469 C 66.335938 178.480469 66.339844 178.480469 66.339844 178.480469 C 67.332031 182.558594 68.480469 186.582031 69.433594 189.335938 C 69.5625 189.703125 69.6875 190.050781 69.808594 190.375 C 69.808594 190.375 66.582031 192.054688 66.582031 192.054688 C 66.582031 192.054688 62.71875 194.070312 62.71875 194.070312 C 62.816406 194.503906 62.910156 194.941406 63.003906 195.375 C 65.730469 194.726562 68.453125 194.074219 71.179688 193.421875 C 71.921875 194.359375 72.257812 194.566406 73.105469 194.746094 C 73.859375 194.238281 74.035156 194.015625 74.390625 192.769531 C 77.152344 192.304688 79.917969 191.839844 82.679688 191.375 C 82.597656 190.9375 82.511719 190.496094 82.429688 190.058594 C 82.429688 190.058594 78.085938 189.714844 78.085938 189.714844 C 78.085938 189.714844 74.460938 189.425781 74.460938 189.425781 C 74.445312 189.082031 74.425781 188.714844 74.398438 188.324219 C 74.203125 185.417969 73.6875 181.265625 73.011719 177.121094 C 78.023438 176.265625 83.035156 175.40625 88.046875 174.550781 C 87.90625 173.804688 87.765625 173.054688 87.625 172.308594 C 87.625 172.308594 79.589844 171.847656 79.589844 171.847656 C 79.589844 171.847656 71.964844 171.410156 71.964844 171.410156 C 71.5 169.160156 71.011719 167.109375 70.523438 165.515625 C 68.980469 160.480469 67.550781 160.191406 66.085938 160.136719 C 66.082031 160.136719 66.082031 160.132812 66.082031 160.136719 " fill-opacity="1" fill-rule="nonzero"/></g></g></g><g clip-path="url(#1b7bfcf7fd)"><g clip-path="url(#b3e1aab598)"><g clip-path="url(#cb1e535fbb)"><path fill="#0400b8" d="M 76.570312 171.246094 C 76.460938 170.707031 76.195312 170.308594 75.972656 170.351562 C 75.972656 170.351562 74.367188 170.679688 74.367188 170.679688 C 74.144531 170.722656 74.054688 171.199219 74.164062 171.738281 C 74.164062 171.738281 74.191406 171.875 74.191406 171.875 C 74.300781 172.414062 74.570312 172.816406 74.792969 172.773438 C 74.792969 172.773438 76.398438 172.445312 76.398438 172.445312 C 76.617188 172.398438 76.707031 171.925781 76.597656 171.386719 C 76.597656 171.386719 76.570312 171.246094 76.570312 171.246094 " fill-opacity="1" fill-rule="nonzero"/></g></g></g><g clip-path="url(#54822d0a8a)"><g clip-path="url(#1a9deacaaa)"><g clip-path="url(#8431370660)"><path fill="#0400b8" d="M 82.101562 171.84375 C 81.992188 171.300781 81.722656 170.902344 81.503906 170.945312 C 81.503906 170.945312 79.894531 171.273438 79.894531 171.273438 C 79.675781 171.316406 79.585938 171.792969 79.695312 172.332031 C 79.695312 172.332031 79.722656 172.46875 79.722656 172.46875 C 79.832031 173.007812 80.101562 173.410156 80.320312 173.367188 C 80.320312 173.367188 81.929688 173.039062 81.929688 173.039062 C 82.148438 172.996094 82.238281 172.519531 82.128906 171.980469 C 82.128906 171.980469 82.101562 171.84375 82.101562 171.84375 " fill-opacity="1" fill-rule="nonzero"/></g></g></g><g clip-path="url(#afe41de106)"><g clip-path="url(#051c4855fb)"><g clip-path="url(#611887df9c)"><path fill="#0400b8" d="M 82.226562 175.476562 C 82.28125 175.753906 82.238281 175.992188 82.125 176.015625 C 82.125 176.015625 81.304688 176.183594 81.304688 176.183594 C 81.191406 176.207031 81.054688 176 81 175.726562 C 81 175.726562 80.988281 175.65625 80.988281 175.65625 C 80.929688 175.382812 80.976562 175.140625 81.089844 175.117188 C 81.089844 175.117188 81.90625 174.949219 81.90625 174.949219 C 82.019531 174.925781 82.15625 175.132812 82.210938 175.40625 C 82.210938 175.40625 82.226562 175.476562 82.226562 175.476562 " fill-opacity="1" fill-rule="nonzero"/></g></g></g><g clip-path="url(#2ea57b388d)"><g clip-path="url(#ac05d4ff84)"><g clip-path="url(#0f17ad4414)"><path fill="#0400b8" d="M 77.035156 176.246094 C 77.09375 176.546875 77.042969 176.8125 76.921875 176.835938 C 76.921875 176.835938 76.023438 177.019531 76.023438 177.019531 C 75.902344 177.042969 75.753906 176.820312 75.691406 176.519531 C 75.691406 176.519531 75.675781 176.441406 75.675781 176.441406 C 75.613281 176.140625 75.664062 175.875 75.789062 175.851562 C 75.789062 175.851562 76.683594 175.667969 76.683594 175.667969 C 76.808594 175.644531 76.957031 175.867188 77.019531 176.167969 C 77.019531 176.167969 77.035156 176.246094 77.035156 176.246094 " fill-opacity="1" fill-rule="nonzero"/></g></g></g><g clip-path="url(#3d3ab55e8e)"><g clip-path="url(#b976c43bea)"><g clip-path="url(#3dfbd696f7)"><path fill="#0400b8" d="M 57.210938 180.566406 C 57.265625 180.839844 57.402344 181.042969 57.515625 181.023438 C 57.515625 181.023438 58.335938 180.855469 58.335938 180.855469 C 58.445312 180.832031 58.492188 180.589844 58.4375 180.316406 C 58.4375 180.316406 58.421875 180.246094 58.421875 180.246094 C 58.367188 179.972656 58.230469 179.765625 58.117188 179.789062 C 58.117188 179.789062 57.300781 179.957031 57.300781 179.957031 C 57.1875 179.980469 57.140625 180.21875 57.195312 180.496094 C 57.195312 180.496094 57.210938 180.566406 57.210938 180.566406 " fill-opacity="1" fill-rule="nonzero"/></g></g></g><g clip-path="url(#6ccb8b87ad)"><g clip-path="url(#b8c50fe49e)"><g clip-path="url(#b4e8488ce0)"><path fill="#0400b8" d="M 55.90625 177.171875 C 55.796875 176.632812 55.886719 176.15625 56.105469 176.113281 C 56.105469 176.113281 57.714844 175.785156 57.714844 175.785156 C 57.933594 175.742188 58.203125 176.140625 58.3125 176.679688 C 58.3125 176.679688 58.339844 176.820312 58.339844 176.820312 C 58.449219 177.359375 58.359375 177.832031 58.140625 177.878906 C 58.140625 177.878906 56.53125 178.207031 56.53125 178.207031 C 56.3125 178.25 56.042969 177.847656 55.933594 177.308594 C 55.933594 177.308594 55.90625 177.171875 55.90625 177.171875 " fill-opacity="1" fill-rule="nonzero"/></g></g></g><g clip-path="url(#e9ce949475)"><g clip-path="url(#d76665334d)"><g clip-path="url(#50152487bc)"><path fill="#0400b8" d="M 62.261719 179.25 C 62.324219 179.550781 62.472656 179.777344 62.597656 179.75 C 62.597656 179.75 63.492188 179.566406 63.492188 179.566406 C 63.617188 179.542969 63.664062 179.277344 63.605469 178.976562 C 63.605469 178.976562 63.589844 178.902344 63.589844 178.902344 C 63.527344 178.601562 63.378906 178.375 63.253906 178.402344 C 63.253906 178.402344 62.359375 178.582031 62.359375 178.582031 C 62.234375 178.609375 62.1875 178.871094 62.246094 179.175781 C 62.246094 179.175781 62.261719 179.25 62.261719 179.25 " fill-opacity="1" fill-rule="nonzero"/></g></g></g><g clip-path="url(#848a9c937f)"><g clip-path="url(#414a080826)"><g clip-path="url(#0286adad00)"><path fill="#0400b8" d="M 60.734375 174.46875 C 60.625 173.929688 60.714844 173.453125 60.9375 173.410156 C 60.9375 173.410156 62.542969 173.082031 62.542969 173.082031 C 62.765625 173.039062 63.03125 173.441406 63.140625 173.980469 C 63.140625 173.980469 63.171875 174.117188 63.171875 174.117188 C 63.28125 174.65625 63.191406 175.132812 62.96875 175.175781 C 62.96875 175.175781 61.363281 175.503906 61.363281 175.503906 C 61.140625 175.546875 60.875 175.148438 60.765625 174.605469 C 60.765625 174.605469 60.734375 174.46875 60.734375 174.46875 " fill-opacity="1" fill-rule="nonzero"/></g></g></g><g fill="#ffffff" fill-opacity="1"><g transform="translate(107.887169, 204.000887)"><g><path d="M 2.6875 0 L 2.6875 -60.25 L 24.109375 -60.25 L 24.109375 0 Z M 2.6875 0 "/></g></g></g><g clip-path="url(#d50841a9ce)"><path fill="#0400b8" d="M 129.871094 194.09375 L 127.796875 194.09375 L 127.796875 193.59375 C 127.796875 193.015625 127.328125 192.546875 126.75 192.546875 L 124.328125 192.546875 C 123.746094 192.546875 123.277344 193.015625 123.277344 193.59375 L 123.277344 194.09375 L 122.691406 194.09375 L 122.691406 188.4375 C 122.691406 187.183594 121.671875 186.167969 120.417969 186.167969 L 119.777344 186.167969 L 119.777344 184.246094 C 120.09375 184.195312 120.335938 183.921875 120.335938 183.59375 L 120.335938 183.46875 C 120.335938 183.105469 120.039062 182.808594 119.675781 182.808594 L 114.277344 182.808594 C 113.910156 182.808594 113.613281 183.105469 113.613281 183.46875 L 113.613281 183.59375 C 113.613281 183.921875 113.855469 184.195312 114.171875 184.246094 L 114.171875 186.167969 L 113.53125 186.167969 C 112.277344 186.167969 111.257812 187.183594 111.257812 188.4375 L 111.257812 199.90625 C 111.257812 200.851562 111.84375 201.664062 112.667969 202.007812 L 112.667969 202.808594 C 112.667969 203.207031 112.988281 203.53125 113.386719 203.53125 C 113.785156 203.53125 114.105469 203.207031 114.105469 202.808594 L 114.105469 202.179688 L 119.722656 202.179688 C 119.804688 202.925781 120.4375 203.507812 121.203125 203.507812 L 129.871094 203.507812 C 130.691406 203.507812 131.359375 202.839844 131.359375 202.015625 L 131.359375 195.585938 C 131.359375 194.761719 130.691406 194.09375 129.871094 194.09375 Z M 128.796875 194.421875 L 128.796875 203.179688 L 122.277344 203.179688 L 122.277344 194.421875 Z M 126.722656 194.09375 L 124.351562 194.09375 L 124.351562 193.890625 C 124.351562 193.691406 124.511719 193.53125 124.710938 193.53125 L 126.367188 193.53125 C 126.5625 193.53125 126.722656 193.691406 126.722656 193.890625 Z M 123.605469 193.59375 C 123.605469 193.199219 123.929688 192.875 124.328125 192.875 L 126.75 192.875 C 127.144531 192.875 127.46875 193.199219 127.46875 193.59375 L 127.46875 194.09375 L 127.050781 194.09375 L 127.050781 193.890625 C 127.050781 193.511719 126.742188 193.203125 126.367188 193.203125 L 124.710938 193.203125 C 124.332031 193.203125 124.023438 193.511719 124.023438 193.890625 L 124.023438 194.09375 L 123.605469 194.09375 Z M 119.011719 186.167969 L 119.011719 184.253906 L 119.449219 184.253906 L 119.449219 186.167969 Z M 118.652344 186.167969 L 118.363281 185.78125 C 118.222656 185.59375 118.015625 185.488281 117.796875 185.488281 L 116.152344 185.488281 C 115.933594 185.488281 115.726562 185.59375 115.585938 185.78125 L 115.296875 186.167969 L 115.265625 186.167969 L 115.265625 184.253906 L 118.683594 184.253906 L 118.683594 186.167969 Z M 118.242188 186.167969 L 115.707031 186.167969 L 115.851562 185.976562 C 115.925781 185.875 116.039062 185.816406 116.152344 185.816406 L 117.796875 185.816406 C 117.910156 185.816406 118.023438 185.875 118.097656 185.976562 Z M 113.941406 183.59375 L 113.941406 183.46875 C 113.941406 183.285156 114.09375 183.136719 114.277344 183.136719 L 119.675781 183.136719 C 119.855469 183.136719 120.007812 183.285156 120.007812 183.46875 L 120.007812 183.59375 C 120.007812 183.777344 119.855469 183.925781 119.675781 183.925781 L 114.277344 183.925781 C 114.09375 183.925781 113.941406 183.777344 113.941406 183.59375 Z M 114.503906 184.253906 L 114.9375 184.253906 L 114.9375 186.167969 L 114.503906 186.167969 Z M 111.589844 199.90625 L 111.589844 188.4375 C 111.589844 187.367188 112.460938 186.496094 113.53125 186.496094 L 120.417969 186.496094 C 121.488281 186.496094 122.359375 187.367188 122.359375 188.4375 L 122.359375 194.09375 L 121.351562 194.09375 L 121.351562 188.210938 C 121.351562 187.855469 121.066406 187.570312 120.710938 187.570312 C 120.359375 187.570312 120.074219 187.855469 120.074219 188.210938 L 120.074219 194.617188 C 119.851562 194.878906 119.714844 195.214844 119.714844 195.585938 L 119.714844 201.847656 L 113.53125 201.847656 C 112.460938 201.847656 111.589844 200.976562 111.589844 199.90625 Z M 120.402344 194.332031 L 120.402344 188.210938 C 120.402344 188.039062 120.542969 187.898438 120.710938 187.898438 C 120.882812 187.898438 121.023438 188.039062 121.023438 188.210938 L 121.023438 194.105469 C 120.796875 194.136719 120.585938 194.214844 120.402344 194.332031 Z M 113.777344 202.808594 C 113.777344 203.027344 113.601562 203.203125 113.386719 203.203125 C 113.171875 203.203125 112.996094 203.027344 112.996094 202.808594 L 112.996094 202.113281 C 113.167969 202.152344 113.347656 202.179688 113.53125 202.179688 L 113.777344 202.179688 Z M 120.042969 202.050781 C 120.046875 202.039062 120.050781 202.027344 120.050781 202.011719 C 120.050781 201.996094 120.046875 201.984375 120.042969 201.96875 L 120.042969 195.585938 C 120.042969 195.347656 120.113281 195.128906 120.238281 194.945312 C 120.328125 194.945312 120.402344 194.871094 120.402344 194.78125 L 120.402344 194.746094 C 120.597656 194.558594 120.859375 194.441406 121.144531 194.425781 C 121.160156 194.429688 121.171875 194.433594 121.1875 194.433594 C 121.207031 194.433594 121.226562 194.429688 121.242188 194.421875 L 121.949219 194.421875 L 121.949219 203.179688 L 121.203125 203.179688 C 120.574219 203.179688 120.0625 202.675781 120.042969 202.050781 Z M 131.03125 202.015625 C 131.03125 202.65625 130.511719 203.179688 129.871094 203.179688 L 129.128906 203.179688 L 129.128906 194.421875 L 129.871094 194.421875 C 130.511719 194.421875 131.03125 194.945312 131.03125 195.585938 Z M 131.03125 202.015625 " fill-opacity="1" fill-rule="nonzero"/></g><path fill="#0400b8" d="M 116.921875 200.570312 L 117.027344 200.570312 C 117.351562 200.570312 117.613281 200.308594 117.613281 199.984375 L 117.613281 188.15625 C 117.613281 187.832031 117.351562 187.570312 117.027344 187.570312 L 116.921875 187.570312 C 116.597656 187.570312 116.335938 187.832031 116.335938 188.15625 L 116.335938 199.984375 C 116.335938 200.308594 116.597656 200.570312 116.921875 200.570312 Z M 116.664062 188.15625 C 116.664062 188.015625 116.78125 187.898438 116.921875 187.898438 L 117.027344 187.898438 C 117.167969 187.898438 117.285156 188.015625 117.285156 188.15625 L 117.285156 199.984375 C 117.285156 200.128906 117.167969 200.242188 117.027344 200.242188 L 116.921875 200.242188 C 116.78125 200.242188 116.664062 200.128906 116.664062 199.984375 Z M 116.664062 188.15625 " fill-opacity="1" fill-rule="nonzero"/><path fill="#0400b8" d="M 115.003906 200.570312 L 115.109375 200.570312 C 115.429688 200.570312 115.695312 200.308594 115.695312 199.984375 L 115.695312 188.15625 C 115.695312 187.832031 115.429688 187.570312 115.109375 187.570312 L 115.003906 187.570312 C 114.679688 187.570312 114.417969 187.832031 114.417969 188.15625 L 114.417969 199.984375 C 114.417969 200.308594 114.679688 200.570312 115.003906 200.570312 Z M 114.746094 188.15625 C 114.746094 188.015625 114.863281 187.898438 115.003906 187.898438 L 115.109375 187.898438 C 115.25 187.898438 115.363281 188.015625 115.363281 188.15625 L 115.363281 199.984375 C 115.363281 200.128906 115.25 200.242188 115.109375 200.242188 L 115.003906 200.242188 C 114.863281 200.242188 114.746094 200.128906 114.746094 199.984375 Z M 114.746094 188.15625 " fill-opacity="1" fill-rule="nonzero"/><path fill="#0400b8" d="M 113.773438 199.984375 L 113.773438 188.15625 C 113.773438 187.832031 113.511719 187.570312 113.1875 187.570312 L 113.082031 187.570312 C 112.761719 187.570312 112.5 187.832031 112.5 188.15625 L 112.5 199.984375 C 112.5 200.308594 112.761719 200.570312 113.082031 200.570312 L 113.1875 200.570312 C 113.511719 200.570312 113.773438 200.308594 113.773438 199.984375 Z M 113.445312 199.984375 C 113.445312 200.128906 113.332031 200.242188 113.1875 200.242188 L 113.082031 200.242188 C 112.941406 200.242188 112.828125 200.128906 112.828125 199.984375 L 112.828125 188.15625 C 112.828125 188.015625 112.941406 187.898438 113.082031 187.898438 L 113.1875 187.898438 C 113.332031 187.898438 113.445312 188.015625 113.445312 188.15625 Z M 113.445312 199.984375 " fill-opacity="1" fill-rule="nonzero"/><path fill="#0400b8" d="M 118.742188 200.570312 L 118.847656 200.570312 C 119.167969 200.570312 119.433594 200.308594 119.433594 199.984375 L 119.433594 188.15625 C 119.433594 187.832031 119.167969 187.570312 118.847656 187.570312 L 118.742188 187.570312 C 118.417969 187.570312 118.15625 187.832031 118.15625 188.15625 L 118.15625 199.984375 C 118.15625 200.308594 118.417969 200.570312 118.742188 200.570312 Z M 118.484375 188.15625 C 118.484375 188.015625 118.597656 187.898438 118.742188 187.898438 L 118.847656 187.898438 C 118.988281 187.898438 119.101562 188.015625 119.101562 188.15625 L 119.101562 199.984375 C 119.101562 200.128906 118.988281 200.242188 118.847656 200.242188 L 118.742188 200.242188 C 118.597656 200.242188 118.484375 200.128906 118.484375 199.984375 Z M 118.484375 188.15625 " fill-opacity="1" fill-rule="nonzero"/><g fill="#ffffff" fill-opacity="1"><g transform="translate(136.970108, 204.994483)"><g><path d="M 48.875 0 L 36.453125 -48.546875 L 39.546875 -60.25 L 53.40625 -60.25 L 68.671875 0 Z M -1.59375 0 L 8.4375 -38.703125 L 18.375 0 Z M 23.546875 0 L 11.078125 -48.546875 L 14.171875 -60.25 L 28.03125 -60.25 L 43.375 0 Z M 23.546875 0 "/></g></g></g><g clip-path="url(#90c5721f26)"><path fill="#0400b8" d="M 170.589844 153.304688 C 163.882812 153.304688 157.578125 155.917969 152.832031 160.660156 C 148.089844 165.40625 145.476562 171.710938 145.476562 178.417969 C 145.476562 185.128906 148.089844 191.433594 152.832031 196.175781 C 157.578125 200.921875 163.882812 203.535156 170.589844 203.535156 C 177.300781 203.535156 183.605469 200.921875 188.351562 196.175781 C 193.09375 191.433594 195.707031 185.128906 195.707031 178.417969 C 195.707031 171.710938 193.09375 165.40625 188.351562 160.660156 C 183.605469 155.917969 177.300781 153.304688 170.589844 153.304688 Z M 156.210938 159.023438 C 156.191406 159.070312 156.167969 159.121094 156.148438 159.15625 C 156.085938 159.257812 155.882812 159.464844 155.882812 159.464844 L 155.605469 159.488281 C 155.804688 159.332031 156.007812 159.175781 156.210938 159.027344 Z M 146.566406 180.910156 C 146.621094 180.984375 146.675781 181.050781 146.734375 181.097656 C 146.980469 181.289062 146.980469 181.234375 147.28125 181.421875 C 147.578125 181.613281 148.667969 181.777344 148.667969 181.777344 L 149.210938 181.777344 L 150.191406 182.511719 C 150.191406 182.511719 150.574219 182.484375 150.65625 182.511719 C 150.734375 182.539062 151.226562 183.21875 151.226562 183.21875 L 151.660156 183.21875 L 152.125 183.683594 L 152.503906 183.710938 L 152.757812 183.503906 L 153.042969 183.800781 L 153.136719 184.152344 L 153.144531 184.371094 L 153.167969 184.757812 L 152.796875 185.21875 L 152.554688 185.511719 L 152.554688 186.839844 L 153.167969 187.574219 L 153.488281 188.523438 L 153.511719 188.597656 L 153.695312 189.023438 L 154.308594 189.496094 L 154.839844 189.902344 C 154.839844 189.902344 154.941406 190.210938 154.941406 190.394531 C 154.941406 190.578125 154.921875 190.945312 154.921875 190.945312 L 154.859375 191.515625 L 154.65625 192.71875 C 154.65625 192.71875 154.515625 193.761719 154.472656 194.089844 C 154.429688 194.414062 154.246094 195.046875 154.246094 195.046875 C 154.246094 195.046875 154.085938 195.621094 154.023438 195.863281 C 154.015625 195.894531 154.007812 195.925781 154 195.957031 C 149.914062 192.089844 147.171875 186.8125 146.566406 180.910156 Z M 170.589844 202.574219 C 164.96875 202.574219 159.792969 200.644531 155.683594 197.410156 L 155.738281 197.292969 L 155.832031 197.105469 L 156.042969 196.679688 L 156.269531 196.351562 L 156.269531 196.046875 L 156.902344 195.457031 L 157.472656 195.046875 C 157.472656 195.046875 157.8125 194.859375 157.953125 194.667969 C 157.988281 194.621094 158.007812 194.578125 158.015625 194.535156 C 158.046875 194.3125 158.015625 194.171875 158.015625 194.167969 L 158.574219 193.863281 C 158.574219 193.863281 158.964844 193.863281 159.25 193.636719 C 159.320312 193.582031 159.378906 193.515625 159.425781 193.445312 C 159.5625 193.234375 159.597656 193.003906 159.597656 193.003906 L 160.210938 191.761719 C 160.214844 191.757812 160.558594 191.492188 160.863281 191.25 C 161.167969 191.003906 161.148438 191.128906 161.269531 191.046875 C 161.394531 190.964844 161.78125 190.738281 161.78125 190.738281 C 161.78125 190.738281 162.171875 190.167969 162.171875 190.167969 L 162.394531 189.390625 C 162.394531 189.390625 162.355469 188.757812 162.375 188.59375 C 162.375 188.585938 162.378906 188.574219 162.382812 188.566406 C 162.449219 188.453125 162.824219 188.59375 162.824219 188.59375 L 163.476562 186.734375 L 163.128906 186.53125 C 163.128906 186.53125 162.070312 186.289062 161.761719 186.183594 C 161.457031 186.082031 160.703125 185.839844 160.703125 185.839844 L 160.089844 185.644531 L 159.804688 185.214844 L 159.539062 184.652344 C 159.539062 184.652344 158.824219 184.265625 158.515625 184.183594 C 158.210938 184.101562 157.78125 183.960938 157.78125 183.960938 C 157.78125 183.960938 157.515625 183.675781 157.476562 183.570312 C 157.433594 183.46875 156.800781 183.226562 156.800781 183.226562 L 155.554688 183.054688 L 154.890625 182.84375 L 154.636719 182.695312 L 154.046875 182.90625 L 153.574219 183.292969 L 153.324219 183.519531 L 153.1875 183.621094 L 153.144531 183.65625 L 152.984375 183.402344 L 152.546875 183.273438 C 152.546875 183.273438 152.511719 183.410156 152.476562 183.460938 C 152.46875 183.476562 152.460938 183.484375 152.453125 183.484375 C 152.414062 183.492188 152.242188 183.457031 152.242188 183.457031 C 152.242188 183.457031 152.050781 183.3125 151.96875 183.265625 C 151.890625 183.21875 151.828125 183.164062 151.828125 183.164062 L 151.644531 182.871094 L 151.628906 182.578125 L 151.664062 182.144531 C 151.664062 182.035156 151.675781 181.835938 151.675781 181.835938 C 151.675781 181.835938 151.234375 181.753906 151.113281 181.753906 C 150.992188 181.753906 150.65625 181.746094 150.636719 181.746094 C 150.617188 181.746094 150.554688 181.835938 150.554688 181.660156 C 150.554688 181.480469 150.617188 181.136719 150.617188 181.136719 L 150.699219 180.753906 L 150.820312 180.5 L 150.707031 180.335938 L 150.308594 180.417969 L 150.0625 180.847656 L 149.789062 181.019531 L 149.246094 181.070312 L 149.023438 181.019531 C 149.023438 181.019531 148.796875 180.886719 148.746094 180.816406 C 148.695312 180.742188 148.585938 180.367188 148.585938 180.367188 C 148.585938 180.367188 148.441406 179.898438 148.441406 179.734375 C 148.441406 179.570312 148.421875 179.34375 148.453125 179.234375 C 148.480469 179.121094 148.492188 179.007812 148.59375 178.820312 C 148.691406 178.636719 148.8125 178.457031 148.816406 178.449219 C 148.820312 178.445312 149 178.285156 149.105469 178.273438 C 149.207031 178.265625 149.480469 178.234375 149.480469 178.234375 C 149.480469 178.234375 149.941406 178.242188 150.011719 178.265625 C 150.082031 178.285156 150.398438 178.285156 150.398438 178.285156 L 150.535156 178.242188 L 150.851562 178.152344 C 150.851562 178.152344 151.125 178.050781 151.371094 178.171875 C 151.613281 178.296875 151.71875 178.265625 151.796875 178.480469 C 151.878906 178.691406 151.992188 178.875 151.992188 178.875 C 151.992188 178.875 152.105469 178.96875 152.1875 179.121094 C 152.269531 179.273438 152.554688 179.265625 152.554688 179.265625 L 152.554688 179.261719 L 152.269531 178.527344 L 152.226562 178.089844 L 152.535156 177.398438 L 153.011719 177.214844 L 153.71875 176.785156 L 153.3125 175.910156 L 153.964844 175.40625 L 154.425781 175.082031 L 154.753906 175.351562 L 154.917969 174.710938 L 155.363281 174.222656 C 155.363281 174.222656 155.664062 174.113281 155.707031 174.113281 C 155.726562 174.113281 155.769531 174.195312 155.808594 174.277344 L 155.925781 174.613281 L 156.292969 174.648438 L 156.390625 174.371094 L 156.796875 174.332031 L 157.296875 174.40625 L 157.332031 174.164062 L 157.523438 174 L 157.472656 173.859375 L 157.230469 173.839844 L 156.402344 173.5 L 156.359375 173.324219 L 156.578125 172.777344 L 157.039062 172.519531 L 157.394531 172.328125 L 158.039062 172.210938 C 158.039062 172.210938 157.945312 172.738281 157.957031 172.859375 C 157.960938 172.875 157.953125 172.890625 157.945312 172.902344 C 157.863281 173 157.503906 173.050781 157.503906 173.050781 L 157.652344 173.40625 L 158.558594 173.589844 C 158.558594 173.589844 159.136719 173.78125 159.164062 173.742188 C 159.1875 173.699219 159.21875 173.238281 159.21875 173.238281 L 158.59375 172.464844 L 158.292969 172.054688 L 158.046875 171.210938 L 157.121094 170.070312 L 156.945312 169.824219 L 156.433594 168.925781 L 155.84375 169.15625 C 155.84375 169.15625 155.25 169.363281 155.167969 169.320312 C 155.085938 169.277344 154.761719 168.300781 154.761719 168.300781 L 153.863281 167.972656 C 153.863281 167.972656 153.394531 167.789062 153.25 168.015625 C 153.105469 168.238281 152.964844 168.585938 152.964844 168.75 C 152.964844 168.914062 153.085938 169.363281 153.085938 169.363281 L 153.128906 169.8125 L 153.046875 170.1875 L 153.128906 170.421875 C 153.128906 170.421875 152.820312 170.933594 152.800781 171.054688 C 152.78125 171.179688 152.578125 171.464844 152.535156 171.546875 C 152.492188 171.625 151.699219 170.972656 151.699219 170.972656 L 151.085938 170.359375 L 149.964844 169.953125 C 149.964844 169.953125 149.78125 169.808594 149.578125 169.585938 C 149.371094 169.359375 148.945312 168.925781 148.945312 168.925781 L 149.679688 167.871094 C 149.679688 167.871094 150.023438 167.496094 150.164062 167.292969 C 150.183594 167.261719 150.199219 167.238281 150.210938 167.21875 C 150.253906 167.128906 150.25 166.957031 150.300781 166.878906 C 150.34375 166.808594 150.425781 166.8125 150.617188 167.015625 C 151.027344 167.441406 151.1875 167.484375 151.332031 167.523438 C 151.476562 167.566406 151.742188 167.625 151.742188 167.625 L 151.984375 167.28125 C 151.984375 167.28125 151.984375 167.277344 151.984375 167.277344 L 151.925781 166.320312 C 151.925781 166.320312 151.929688 166.316406 151.933594 166.308594 C 151.953125 166.285156 151.992188 166.171875 152.007812 165.707031 C 152.027344 165.101562 152.105469 164.617188 152.109375 164.605469 C 152.113281 164.605469 152.703125 164.707031 153.046875 164.789062 C 153.394531 164.871094 153.84375 164.726562 154.046875 165.011719 C 154.246094 165.289062 154.457031 166.503906 154.378906 166.65625 C 154.378906 166.660156 154.375 166.664062 154.371094 166.667969 C 154.367188 166.671875 154.359375 166.675781 154.355469 166.683594 C 154.285156 166.777344 154.371094 166.972656 154.371094 166.972656 L 154.78125 167.382812 L 155.742188 167.566406 L 156.234375 167.441406 L 155.601562 166.6875 L 155.886719 166.566406 L 156.253906 166.585938 L 156.355469 165.769531 C 156.355469 165.769531 156.027344 165.238281 155.785156 165.15625 C 155.539062 165.074219 155.234375 164.664062 155.234375 164.664062 C 155.234375 164.664062 154.4375 163.847656 154.273438 163.746094 C 154.109375 163.644531 153.703125 163.320312 153.703125 163.320312 L 153.171875 162.378906 L 152.558594 162.5 L 152.460938 162.480469 C 153.121094 161.730469 153.824219 161.023438 154.570312 160.363281 C 154.730469 160.4375 154.8125 160.496094 154.863281 160.582031 C 154.925781 160.6875 155.027344 160.890625 155.027344 160.890625 C 155.027344 160.890625 155.027344 161.175781 155.253906 161.195312 C 155.476562 161.214844 155.761719 161.175781 155.761719 161.175781 L 156.417969 161.132812 C 156.417969 161.132812 156.601562 161.074219 156.824219 161.195312 C 157.050781 161.316406 157.355469 161.398438 157.355469 161.398438 L 157.722656 161.746094 C 157.722656 161.746094 157.84375 161.789062 157.925781 161.953125 C 158.007812 162.113281 158.027344 161.847656 158.109375 162.320312 C 158.191406 162.789062 158.273438 163.054688 158.273438 163.054688 C 158.273438 163.054688 158.335938 163.378906 158.375 163.523438 C 158.417969 163.664062 158.519531 163.789062 158.519531 163.789062 L 159.007812 163.828125 C 159.007812 163.828125 159.191406 163.851562 159.214844 163.929688 C 159.234375 164.011719 159.273438 164.195312 159.273438 164.257812 C 159.273438 164.273438 159.273438 164.285156 159.265625 164.296875 C 159.25 164.328125 159.214844 164.339844 159.152344 164.339844 C 159.070312 164.339844 158.703125 164.359375 158.703125 164.359375 L 158.722656 164.769531 L 158.867188 164.890625 L 159.234375 164.910156 C 159.234375 164.910156 159.316406 165.035156 159.316406 165.117188 C 159.316406 165.15625 159.308594 165.183594 159.292969 165.207031 C 159.277344 165.234375 159.253906 165.257812 159.214844 165.300781 C 159.132812 165.378906 158.886719 165.726562 158.886719 165.726562 C 158.886719 165.726562 158.878906 165.695312 158.875 165.707031 C 158.871094 165.714844 158.867188 165.746094 158.867188 165.851562 C 158.867188 166.074219 158.824219 166.136719 158.949219 166.484375 C 159.070312 166.832031 159.132812 167.117188 159.132812 167.117188 C 159.132812 167.117188 159.292969 167.441406 159.335938 167.523438 C 159.375 167.605469 159.457031 167.648438 159.601562 167.914062 C 159.742188 168.179688 159.988281 168.503906 159.988281 168.503906 L 160.234375 168.6875 C 160.234375 168.6875 160.316406 168.730469 160.398438 168.6875 C 160.476562 168.648438 160.660156 168.546875 160.660156 168.546875 C 160.660156 168.546875 160.765625 169.097656 161.152344 168.871094 L 161.480469 168.054688 L 161.480469 167.667969 C 161.488281 167.664062 161.808594 167.464844 161.902344 167.332031 C 161.917969 167.3125 161.925781 167.296875 161.929688 167.28125 C 161.949219 167.160156 162.070312 166.78125 162.070312 166.769531 L 162.539062 166.523438 L 162.867188 166.523438 L 163.113281 166.300781 L 163.664062 165.890625 L 164.171875 165.625 L 164.722656 165.421875 L 165.910156 164.890625 L 166.417969 164.441406 C 166.417969 164.441406 166.421875 164.441406 166.421875 164.441406 L 165.644531 164.320312 L 165.644531 163.890625 L 166.011719 164.136719 L 166.316406 163.890625 C 166.316406 163.890625 166.320312 163.890625 166.320312 163.890625 L 166.421875 163.257812 L 166.542969 162.769531 L 166.871094 162.238281 L 167.074219 161.277344 L 166.992188 160.765625 L 166.769531 160.417969 L 166.707031 159.910156 C 166.707031 159.910156 166.6875 159.480469 166.746094 159.359375 C 166.808594 159.234375 167.054688 158.867188 167.074219 158.808594 C 167.078125 158.800781 167.085938 158.785156 167.097656 158.769531 C 167.1875 158.640625 167.488281 158.292969 167.542969 158.277344 C 167.605469 158.257812 168.175781 157.847656 168.175781 157.847656 C 168.175781 157.847656 167.972656 157.582031 167.871094 157.582031 C 167.769531 157.582031 166.992188 157.847656 166.992188 157.847656 L 166.605469 157.992188 C 166.605469 157.992188 166.460938 158.050781 166.257812 157.929688 C 166.054688 157.804688 165.769531 157.4375 165.769531 157.4375 L 165.746094 157.070312 L 165.929688 156.929688 L 164.910156 156.929688 C 164.910156 156.929688 164.03125 157.113281 163.910156 156.929688 C 163.785156 156.746094 163.644531 156.335938 163.644531 156.335938 C 163.644531 156.335938 163.09375 156.214844 162.910156 156.296875 C 162.726562 156.378906 161.910156 156.929688 161.910156 156.929688 L 161.746094 156.886719 L 160.910156 157.09375 L 160.253906 157.050781 L 159.417969 157.050781 L 159.261719 157.09375 C 162.640625 155.289062 166.5 154.261719 170.597656 154.261719 C 177.042969 154.261719 182.90625 156.800781 187.242188 160.929688 C 187.148438 161 187.070312 161.046875 186.957031 161.105469 C 186.835938 161.175781 186.679688 161.1875 186.679688 161.1875 C 186.679688 161.1875 186.183594 161.195312 186.109375 161.214844 C 186.03125 161.234375 185.917969 161.261719 185.917969 161.261719 C 185.917969 161.261719 185.6875 161.34375 185.597656 161.421875 C 185.511719 161.496094 185.335938 161.628906 185.332031 161.628906 C 185.332031 161.628906 185.296875 161.855469 185.195312 161.992188 C 185.09375 162.128906 185.007812 162.195312 185.007812 162.195312 C 185.007812 162.195312 184.882812 162.308594 184.773438 162.40625 C 184.679688 162.488281 184.507812 162.542969 184.433594 162.636719 C 184.421875 162.648438 184.414062 162.664062 184.40625 162.679688 C 184.359375 162.800781 184.339844 162.871094 184.265625 163.039062 C 184.191406 163.210938 184.136719 163.304688 184.121094 163.375 C 184.109375 163.441406 184.082031 163.550781 184.082031 163.550781 C 184.082031 163.550781 184.046875 163.671875 184.066406 163.753906 C 184.085938 163.835938 184.113281 164.007812 184.195312 164.101562 C 184.277344 164.195312 184.613281 164.265625 184.613281 164.265625 L 184.746094 164.285156 C 184.746094 164.285156 184.953125 164.304688 185.027344 164.324219 C 185.101562 164.347656 185.265625 164.359375 185.265625 164.359375 C 185.265625 164.359375 185.265625 164.359375 185.261719 164.359375 C 185.265625 164.359375 185.265625 164.359375 185.265625 164.359375 C 185.265625 164.359375 184.964844 164.078125 184.945312 164.058594 C 184.925781 164.039062 184.871094 163.867188 184.871094 163.867188 L 184.808594 163.570312 L 184.808594 163.390625 L 184.835938 163.203125 L 185.011719 162.972656 L 185.304688 162.617188 C 185.304688 162.617188 185.53125 162.378906 185.613281 162.285156 C 185.695312 162.191406 185.871094 162.039062 185.871094 162.039062 L 186.277344 161.773438 C 186.277344 161.773438 186.414062 161.671875 186.558594 161.625 C 186.699219 161.578125 186.90625 161.488281 187.054688 161.453125 C 187.203125 161.421875 187.402344 161.386719 187.539062 161.324219 C 187.5625 161.316406 187.585938 161.304688 187.613281 161.289062 C 188.265625 161.941406 188.878906 162.625 189.457031 163.34375 L 189.410156 163.359375 L 189.285156 163.625 L 189.265625 163.871094 L 189.304688 164.277344 L 189.386719 164.402344 L 189.796875 164.972656 C 189.777344 164.96875 189.507812 164.933594 189.410156 164.972656 C 189.402344 164.976562 189.398438 164.980469 189.390625 164.984375 C 189.320312 165.0625 189.410156 165.402344 189.410156 165.402344 L 189.226562 165.910156 L 188.960938 165.929688 L 188.960938 164.257812 L 188.859375 163.625 L 188.960938 163.257812 C 188.960938 163.257812 188.621094 162.828125 188.566406 162.816406 C 188.511719 162.800781 188.183594 162.9375 188.183594 162.9375 L 187.992188 163.457031 C 187.992188 163.457031 187.734375 163.984375 187.734375 164.199219 L 187.734375 164.667969 C 187.734375 164.667969 187.925781 165.046875 187.964844 165.089844 C 187.972656 165.097656 187.96875 165.109375 187.960938 165.125 C 187.914062 165.199219 187.734375 165.332031 187.734375 165.332031 L 186.945312 164.898438 L 186.429688 164.726562 L 186.164062 164.542969 L 185.65625 164.492188 L 185.660156 164.492188 L 185.65625 164.492188 C 185.65625 164.492188 186.019531 164.789062 186.019531 164.789062 L 186.019531 165.195312 L 185.753906 165.175781 L 185.386719 165.15625 L 185.058594 165.296875 L 184.613281 165.441406 L 184.46875 165.054688 L 183.875 165.378906 L 183.425781 165.746094 L 183.222656 165.890625 L 182.632812 166.195312 L 182.386719 165.910156 L 182.632812 165.480469 C 182.632812 165.480469 182.34375 165.238281 182.285156 165.238281 C 182.222656 165.238281 182.121094 165.359375 182.121094 165.359375 L 182.121094 165.910156 L 181.976562 166.339844 L 181.597656 166.359375 L 181.285156 166.5625 C 181.285156 166.5625 181.28125 166.566406 181.28125 166.566406 L 181.28125 166.992188 L 180.445312 166.789062 L 180.609375 167.15625 L 180.507812 167.441406 L 180.324219 167.421875 L 179.957031 166.871094 L 179.835938 166.707031 L 179.792969 166.363281 C 179.804688 166.363281 180.261719 166.421875 180.324219 166.421875 L 180.628906 166.421875 C 180.628906 166.421875 180.976562 166.402344 181.058594 166.382812 C 181.140625 166.359375 181.507812 166.21875 181.570312 166.175781 C 181.574219 166.175781 181.574219 166.171875 181.578125 166.164062 C 181.625 166.089844 181.570312 165.746094 181.570312 165.746094 L 180.753906 165.296875 L 180.140625 165.074219 L 179.894531 164.949219 L 179.488281 164.707031 L 179.203125 164.582031 L 178.894531 164.359375 C 178.894531 164.359375 178.609375 164.316406 178.546875 164.316406 L 178.34375 164.316406 L 177.875 164.195312 C 177.875 164.195312 176.996094 164.359375 176.914062 164.378906 C 176.832031 164.398438 176.34375 164.5625 176.34375 164.5625 L 175.933594 164.707031 L 175.546875 164.992188 L 175.117188 165.582031 L 174.933594 165.726562 L 174.445312 167.011719 L 173.8125 167.503906 L 173.445312 167.664062 L 173.078125 167.808594 C 173.078125 167.808594 173.074219 167.808594 173.074219 167.808594 L 172.871094 168.542969 L 172.933594 168.910156 L 173.074219 169.605469 L 173.238281 169.726562 C 173.238281 169.726562 173.585938 169.503906 173.6875 169.410156 C 173.789062 169.320312 174.15625 169.410156 174.15625 169.410156 L 174.441406 169.808594 C 174.441406 169.808594 174.648438 170.15625 174.6875 170.175781 C 174.726562 170.199219 174.6875 170.53125 174.6875 170.542969 L 174.402344 170.542969 L 174.257812 170.503906 L 174.097656 169.953125 L 173.769531 170.054688 L 173.523438 170.257812 L 173.667969 170.890625 L 173.605469 171.238281 L 173.238281 171.460938 L 172.566406 171.953125 L 172.175781 171.933594 L 171.832031 171.890625 L 171.769531 171.300781 L 171.054688 170.769531 L 170.820312 169.953125 L 170.929688 169.800781 L 170.933594 169.796875 L 170.707031 169.410156 L 170.390625 169.554688 C 170.390625 169.554688 170.15625 169.605469 170.125 169.605469 C 170.125 169.605469 170.121094 169.605469 170.121094 169.609375 C 170.089844 169.65625 170.042969 170.035156 170.054688 170.074219 C 170.0625 170.117188 170.152344 170.546875 170.15625 170.554688 L 169.992188 170.636719 L 169.542969 171.003906 L 169.308594 171.238281 L 169.378906 171.535156 L 169.238281 172.015625 L 169.675781 172.046875 L 169.929688 171.933594 L 170.136719 171.839844 L 170.148438 171.492188 L 170.148438 171.199219 L 170.390625 171.199219 L 170.390625 171.003906 L 170.71875 171.003906 L 170.800781 171.136719 L 170.820312 171.503906 L 170.59375 171.503906 L 170.472656 171.882812 L 170.59375 172.046875 L 170.871094 172.148438 L 170.390625 172.402344 L 170.390625 172.605469 L 170.707031 172.503906 L 170.953125 172.472656 L 171.421875 172.390625 L 171.890625 172.246094 L 171.972656 172.613281 L 171.59375 172.855469 L 171.441406 172.816406 L 171.171875 172.761719 C 171.171875 172.761719 171.167969 172.761719 171.167969 172.761719 L 171.144531 173.089844 L 170.613281 173.019531 L 170.570312 173.238281 L 171.085938 173.457031 L 171.441406 173.890625 L 171.371094 174.273438 L 171.320312 174.5625 L 171.238281 174.71875 L 171.199219 174.734375 L 170.957031 174.757812 L 170.753906 174.757812 L 170.425781 174.769531 L 169.992188 174.691406 L 169.753906 174.667969 L 169.519531 174.769531 L 169.421875 174.875 C 169.421875 174.875 169.421875 174.878906 169.421875 174.878906 C 169.421875 174.878906 169.492188 175.046875 169.507812 175.050781 C 169.523438 175.054688 169.511719 175.25 169.511719 175.25 L 169.539062 175.515625 L 169.523438 175.734375 L 169.375 175.976562 L 169.503906 176.085938 L 169.519531 176.300781 L 169.457031 176.464844 L 169.652344 176.519531 L 169.84375 176.460938 L 169.929688 176.476562 L 170.121094 176.625 L 170.191406 176.8125 L 170.21875 176.882812 L 170.074219 176.871094 L 169.789062 177.238281 L 169.339844 177.585938 L 169.214844 177.953125 L 169.214844 178.300781 L 168.726562 178.628906 L 168.359375 178.9375 L 167.972656 179.261719 L 167.746094 179.75 L 167.378906 180.304688 L 167.542969 180.8125 L 167.707031 181.242188 L 167.582031 181.527344 L 167.542969 181.855469 L 167.601562 182.140625 L 167.519531 182.507812 L 167.765625 182.773438 L 168.113281 183.160156 L 168.335938 183.363281 C 168.335938 183.363281 168.519531 183.652344 168.519531 183.734375 C 168.519531 183.8125 168.785156 183.957031 168.847656 183.996094 C 168.910156 184.039062 169.441406 184.46875 169.441406 184.46875 L 169.726562 184.550781 L 169.929688 184.550781 L 170.3125 184.40625 L 171.6875 184.527344 L 172.238281 184.40625 L 173.074219 184.671875 L 173.808594 184.917969 L 173.742188 186.003906 L 174.421875 186.898438 L 174.789062 187.671875 L 174.789062 188.449219 L 174.539062 189.019531 C 174.539062 189.019531 174.421875 189.777344 174.402344 189.878906 C 174.382812 189.980469 174.667969 190.613281 174.667969 190.613281 L 175.054688 191.550781 C 175.054688 191.550781 175.15625 191.960938 175.199219 192.0625 C 175.238281 192.164062 175.585938 192.714844 175.585938 192.714844 L 175.871094 193.207031 L 175.933594 193.695312 C 175.933594 193.695312 176.136719 194.085938 176.257812 194.085938 C 176.382812 194.085938 177.484375 193.960938 177.484375 193.960938 L 178.402344 193.574219 L 178.914062 193.023438 L 179.464844 192 L 179.566406 191.613281 L 179.871094 191.511719 C 179.871094 191.511719 179.875 191.511719 179.875 191.511719 L 180.058594 190.941406 L 179.933594 190.410156 L 180.363281 190.082031 L 181.058594 189.550781 L 181.300781 189.347656 C 181.300781 189.347656 181.304688 189.347656 181.304688 189.347656 L 181.304688 187.980469 L 181.058594 187.488281 L 181.039062 186.9375 L 181.304688 186.304688 L 181.933594 185.734375 L 182.671875 184.917969 L 183.242188 184.53125 L 183.550781 183.917969 L 183.773438 183 L 183.773438 182.773438 L 182.710938 183.019531 L 182.222656 183.019531 L 181.792969 182.671875 C 181.792969 182.671875 181.609375 182.242188 181.546875 182.222656 C 181.488281 182.203125 181.304688 182.058594 181.304688 182.058594 L 180.730469 180.9375 L 180.386719 180.285156 L 179.835938 179.445312 L 179.628906 178.652344 L 179.914062 178.652344 L 180.179688 179.140625 L 180.628906 179.609375 L 180.894531 180.324219 L 181.363281 180.773438 C 181.363281 180.773438 181.710938 181.203125 181.792969 181.425781 C 181.875 181.652344 181.894531 181.734375 181.9375 181.875 C 181.976562 182.019531 182.078125 182.507812 182.078125 182.507812 L 182.28125 182.570312 L 182.976562 182.324219 L 183.34375 182.101562 L 183.671875 181.875 C 183.671875 181.875 184.261719 181.652344 184.386719 181.609375 C 184.507812 181.570312 184.917969 181.40625 184.957031 181.34375 C 185 181.285156 185.34375 180.898438 185.34375 180.898438 L 185.550781 180.609375 L 185.773438 180.285156 L 185.589844 179.792969 L 185.246094 179.609375 L 184.957031 179.46875 L 184.285156 179.792969 L 183.835938 179.671875 L 183.222656 178.941406 L 183.101562 178.464844 L 183.140625 178.335938 L 183.140625 178.332031 C 183.140625 178.332031 183.449219 178.304688 183.449219 178.304688 L 183.722656 178.515625 L 184.101562 178.875 L 184.386719 179.089844 L 184.886719 178.941406 L 185.164062 179.261719 L 185.621094 179.507812 L 186.429688 179.363281 L 186.9375 179.304688 L 187.714844 179.917969 L 187.917969 180.367188 L 188.59375 180.589844 L 188.898438 180.386719 L 188.980469 180.835938 L 189.144531 181.507812 L 189.328125 181.917969 L 189.429688 182.386719 L 190.105469 183.671875 C 190.105469 183.671875 190.222656 183.53125 190.316406 183.417969 C 190.34375 183.382812 190.371094 183.351562 190.390625 183.324219 C 190.46875 183.226562 190.664062 183.109375 190.675781 183.101562 L 190.589844 182.75 L 190.574219 182.675781 L 190.765625 182.296875 L 191.164062 181.511719 L 191.164062 181.507812 C 191.164062 181.507812 191.695312 181.265625 191.695312 181.265625 L 191.941406 181.058594 L 192.328125 180.507812 L 192.820312 180.285156 C 192.820312 180.285156 193.371094 180.632812 193.433594 180.632812 C 193.492188 180.632812 193.738281 180.835938 193.738281 180.835938 L 193.902344 181 L 194.023438 181.386719 L 194.148438 181.855469 L 194.25 181.796875 L 194.539062 181.613281 C 192.972656 193.425781 182.832031 202.570312 170.597656 202.570312 Z M 170.589844 202.574219 " fill-opacity="1" fill-rule="nonzero"/></g><path fill="#0400b8" d="M 183.320312 188.390625 C 183.320312 188.390625 183.015625 188.882812 183.015625 188.882812 L 182.882812 189.035156 C 182.882812 189.035156 182.757812 189.148438 182.605469 189.207031 C 182.453125 189.269531 182.300781 189.371094 182.300781 189.371094 C 182.300781 189.371094 182.226562 189.410156 182.15625 189.503906 C 182.132812 189.535156 182.113281 189.574219 182.09375 189.617188 C 182.023438 189.789062 182.035156 190.148438 182.035156 190.148438 L 182.113281 190.332031 L 181.921875 190.8125 L 181.921875 191.015625 L 182.019531 191.371094 L 182.113281 191.578125 L 182.882812 191.464844 L 182.921875 190.953125 L 183.085938 190.605469 C 183.085938 190.605469 183.167969 190.390625 183.179688 190.332031 C 183.1875 190.269531 183.257812 190.136719 183.289062 189.964844 C 183.320312 189.789062 183.414062 189.421875 183.414062 189.421875 L 183.496094 189.167969 C 183.496094 189.167969 183.546875 189.035156 183.546875 188.953125 C 183.546875 188.871094 183.484375 188.59375 183.484375 188.59375 Z M 183.320312 188.390625 " fill-opacity="1" fill-rule="nonzero"/><path fill="#0400b8" d="M 190.585938 182.75 C 190.644531 182.601562 190.703125 182.449219 190.757812 182.300781 L 190.570312 182.675781 Z M 190.585938 182.75 " fill-opacity="1" fill-rule="nonzero"/><path fill="#0400b8" d="M 183.347656 165.199219 C 183.449219 165.152344 183.648438 165.042969 183.648438 165.042969 C 183.648438 165.042969 183.574219 164.878906 183.53125 164.863281 C 183.492188 164.851562 183.363281 164.816406 183.363281 164.816406 L 183.179688 164.8125 L 183.175781 164.8125 L 183.054688 165.007812 L 183.144531 165.269531 C 183.144531 165.269531 183.246094 165.246094 183.347656 165.199219 Z M 183.347656 165.199219 " fill-opacity="1" fill-rule="nonzero"/><path fill="#0400b8" d="M 168.0625 167.199219 L 168.589844 167.039062 L 168.882812 166.839844 L 168.695312 166.554688 L 168.339844 166.21875 L 168.074219 166.167969 L 167.5625 166.410156 L 167.183594 166.449219 L 166.816406 166.230469 L 166.628906 166.148438 L 166.257812 166.347656 L 166.261719 166.347656 C 166.261719 166.347656 166.257812 166.347656 166.257812 166.347656 L 166.5625 166.597656 L 166.730469 167.125 L 166.816406 167.332031 C 166.816406 167.332031 167.003906 167.46875 167.066406 167.480469 C 167.128906 167.492188 167.320312 167.492188 167.320312 167.492188 C 167.320312 167.492188 167.75 167.429688 167.800781 167.375 C 167.851562 167.324219 168.0625 167.195312 168.0625 167.195312 Z M 168.0625 167.199219 " fill-opacity="1" fill-rule="nonzero"/><path fill="#ffffff" d="M 319.605469 117.242188 C 320.535156 117.242188 321.140625 116.738281 321.140625 115.8125 C 321.140625 114.882812 320.535156 114.4375 319.582031 114.4375 L 318.105469 114.4375 L 318.105469 117.242188 Z M 316.789062 113.234375 L 319.664062 113.234375 C 321.382812 113.234375 322.480469 114.152344 322.480469 115.789062 C 322.480469 117.027344 321.792969 117.804688 320.820312 118.148438 L 322.699219 121.253906 L 321.164062 121.253906 L 319.46875 118.421875 C 319.457031 118.414062 319.042969 118.421875 319.03125 118.421875 L 318.105469 118.421875 L 318.105469 121.253906 L 316.789062 121.253906 L 316.789062 113.234375 " fill-opacity="1" fill-rule="nonzero"/><g clip-path="url(#4ac827e323)"><path fill="#ffffff" d="M 319.484375 110.539062 C 318.582031 110.539062 317.703125 110.714844 316.875 111.0625 C 316.078125 111.402344 315.363281 111.882812 314.746094 112.5 C 314.128906 113.117188 313.648438 113.832031 313.308594 114.632812 C 312.960938 115.457031 312.78125 116.335938 312.78125 117.238281 C 312.78125 118.144531 312.960938 119.023438 313.308594 119.847656 C 313.648438 120.644531 314.128906 121.363281 314.746094 121.980469 C 315.363281 122.59375 316.078125 123.078125 316.875 123.414062 C 317.703125 123.765625 318.582031 123.941406 319.484375 123.941406 C 320.390625 123.941406 321.269531 123.765625 322.09375 123.414062 C 322.890625 123.078125 323.609375 122.59375 324.222656 121.980469 C 324.839844 121.363281 325.324219 120.644531 325.660156 119.847656 C 326.011719 119.023438 326.1875 118.144531 326.1875 117.238281 C 326.1875 116.335938 326.011719 115.457031 325.660156 114.632812 C 325.324219 113.832031 324.839844 113.117188 324.222656 112.5 C 323.609375 111.882812 322.890625 111.402344 322.09375 111.0625 C 321.269531 110.714844 320.390625 110.539062 319.484375 110.539062 Z M 319.484375 125.332031 C 318.394531 125.332031 317.332031 125.117188 316.335938 124.695312 C 315.371094 124.289062 314.507812 123.703125 313.765625 122.960938 C 313.019531 122.21875 312.4375 121.351562 312.03125 120.390625 C 311.609375 119.390625 311.394531 118.332031 311.394531 117.238281 C 311.394531 116.148438 311.609375 115.085938 312.03125 114.089844 C 312.4375 113.125 313.019531 112.261719 313.765625 111.519531 C 314.507812 110.773438 315.371094 110.191406 316.335938 109.785156 C 317.332031 109.363281 318.394531 109.148438 319.484375 109.148438 C 320.578125 109.148438 321.636719 109.363281 322.636719 109.785156 C 323.597656 110.191406 324.464844 110.773438 325.207031 111.519531 C 325.949219 112.261719 326.53125 113.125 326.941406 114.089844 C 327.363281 115.085938 327.578125 116.148438 327.578125 117.238281 C 327.578125 118.332031 327.363281 119.390625 326.941406 120.390625 C 326.53125 121.351562 325.949219 122.21875 325.207031 122.960938 C 324.464844 123.703125 323.597656 124.289062 322.636719 124.695312 C 321.636719 125.117188 320.578125 125.332031 319.484375 125.332031 " fill-opacity="1" fill-rule="nonzero"/></g><g fill="#ffffff" fill-opacity="1"><g transform="translate(276.027174, 204.164643)"><g><path d="M 24.515625 -59.875 L 41.140625 -59.875 L 41.140625 0 L 24.515625 0 Z M 19.84375 -42.890625 L 19.84375 0 C 13.894531 -0.59375 9.296875 -2.753906 6.046875 -6.484375 C 2.804688 -10.222656 1.1875 -15.226562 1.1875 -21.5 C 1.1875 -27.695312 2.820312 -32.675781 6.09375 -36.4375 C 9.363281 -40.195312 13.945312 -42.347656 19.84375 -42.890625 Z M 19.84375 -42.890625 "/></g></g></g><g fill="#ffffff" fill-opacity="1"><g transform="translate(209.47196, 204.135823)"><g><path d="M 31.921875 0 L 3.609375 0 L 3.609375 -80.84375 L 31.921875 -80.84375 Z M 34.265625 -80.84375 L 62.25 -80.84375 L 62.25 -49.6875 Z M 51.59375 -25.421875 L 33.9375 -42.078125 L 51.59375 -58.75 Z M 34.265625 0 L 62.6875 -36.40625 L 62.6875 0 Z M 34.265625 0 "/></g></g></g><g fill="#ffffff" fill-opacity="1"><g transform="translate(41.518923, 218.453237)"><g><path d="M 14.703125 -8.578125 L 16.203125 -8.578125 L 13.203125 0 L 11.484375 0 L 8.1875 -7.046875 L 4.90625 0 L 3.1875 0 L 0.1875 -8.578125 L 1.6875 -8.578125 L 4.09375 -1.734375 L 7.28125 -8.578125 L 9.109375 -8.578125 L 12.296875 -1.734375 Z M 14.703125 -8.578125 "/></g></g></g><g fill="#ffffff" fill-opacity="1"><g transform="translate(57.888579, 218.453237)"><g><path d="M 10.8125 -7.28125 L 3.234375 -7.28125 L 3.234375 -4.828125 L 9.921875 -4.828125 L 9.921875 -3.53125 L 3.234375 -3.53125 L 3.234375 -1.296875 L 10.8125 -1.296875 L 10.8125 0 L 1.765625 0 L 1.765625 -8.578125 L 10.8125 -8.578125 Z M 10.8125 -7.28125 "/></g></g></g><g fill="#ffffff" fill-opacity="1"><g transform="translate(69.558741, 218.453237)"><g/></g></g><g fill="#ffffff" fill-opacity="1"><g transform="translate(75.272406, 218.453237)"><g><path d="M 9.46875 0 L 8.625 -1.53125 L 2.59375 -1.53125 L 1.75 0 L 0.078125 0 L 4.78125 -8.53125 L 4.75 -8.578125 L 6.46875 -8.578125 L 6.453125 -8.53125 L 11.140625 0 Z M 3.375 -2.953125 L 7.828125 -2.953125 L 5.609375 -7.015625 Z M 3.375 -2.953125 "/></g></g></g><g fill="#ffffff" fill-opacity="1"><g transform="translate(86.471191, 218.453237)"><g><path d="M 1.765625 0 L 1.765625 -8.578125 L 3.234375 -8.578125 L 3.234375 0 Z M 1.765625 0 "/></g></g></g><g fill="#ffffff" fill-opacity="1"><g transform="translate(91.470649, 218.453237)"><g><path d="M 14.671875 -8.578125 L 14.671875 0 L 13.203125 0 L 13.203125 -6.796875 L 9.046875 -0.03125 L 9.0625 0 L 7.3125 0 L 7.328125 -0.03125 L 3.234375 -6.765625 L 3.234375 0 L 1.765625 0 L 1.765625 -8.578125 L 3.84375 -8.578125 L 8.1875 -1.421875 L 12.59375 -8.578125 Z M 14.671875 -8.578125 "/></g></g></g><g fill="#ffffff" fill-opacity="1"><g transform="translate(107.89744, 218.453237)"><g/></g></g><g fill="#ffffff" fill-opacity="1"><g transform="translate(113.611105, 218.453237)"><g><path d="M 10.8125 -7.28125 L 3.234375 -7.28125 L 3.234375 -4.78125 L 9.921875 -4.78125 L 9.921875 -3.46875 L 3.234375 -3.46875 L 3.234375 0 L 1.765625 0 L 1.765625 -8.578125 L 10.8125 -8.578125 Z M 10.8125 -7.28125 "/></g></g></g><g fill="#ffffff" fill-opacity="1"><g transform="translate(124.667044, 218.453237)"><g><path d="M 6.953125 0.140625 C 5.847656 0.140625 4.921875 0.0234375 4.171875 -0.203125 C 3.429688 -0.429688 2.835938 -0.742188 2.390625 -1.140625 C 1.953125 -1.535156 1.632812 -1.976562 1.4375 -2.46875 C 1.238281 -2.957031 1.140625 -3.457031 1.140625 -3.96875 L 1.140625 -4.609375 C 1.140625 -5.140625 1.238281 -5.648438 1.4375 -6.140625 C 1.632812 -6.640625 1.953125 -7.082031 2.390625 -7.46875 C 2.835938 -7.863281 3.429688 -8.175781 4.171875 -8.40625 C 4.921875 -8.644531 5.847656 -8.765625 6.953125 -8.765625 C 8.035156 -8.765625 8.945312 -8.648438 9.6875 -8.421875 C 10.4375 -8.203125 11.035156 -7.898438 11.484375 -7.515625 C 11.929688 -7.128906 12.253906 -6.691406 12.453125 -6.203125 C 12.648438 -5.710938 12.75 -5.195312 12.75 -4.65625 L 12.75 -4.03125 C 12.75 -3.53125 12.65625 -3.03125 12.46875 -2.53125 C 12.28125 -2.03125 11.96875 -1.578125 11.53125 -1.171875 C 11.09375 -0.773438 10.5 -0.457031 9.75 -0.21875 C 9.007812 0.0195312 8.078125 0.140625 6.953125 0.140625 Z M 6.953125 -1.28125 C 8.015625 -1.28125 8.859375 -1.390625 9.484375 -1.609375 C 10.117188 -1.835938 10.570312 -2.144531 10.84375 -2.53125 C 11.125 -2.914062 11.265625 -3.347656 11.265625 -3.828125 L 11.265625 -4.453125 C 11.265625 -4.992188 11.113281 -5.476562 10.8125 -5.90625 C 10.507812 -6.34375 10.039062 -6.6875 9.40625 -6.9375 C 8.769531 -7.195312 7.953125 -7.328125 6.953125 -7.328125 C 5.921875 -7.328125 5.085938 -7.207031 4.453125 -6.96875 C 3.816406 -6.738281 3.351562 -6.414062 3.0625 -6 C 2.769531 -5.59375 2.625 -5.128906 2.625 -4.609375 L 2.625 -3.96875 C 2.625 -3.46875 2.769531 -3.015625 3.0625 -2.609375 C 3.351562 -2.203125 3.816406 -1.878906 4.453125 -1.640625 C 5.085938 -1.398438 5.921875 -1.28125 6.953125 -1.28125 Z M 6.953125 -1.28125 "/></g></g></g><g fill="#ffffff" fill-opacity="1"><g transform="translate(138.551254, 218.453237)"><g><path d="M 11.921875 -6.078125 C 11.921875 -5.453125 11.796875 -4.976562 11.546875 -4.65625 C 11.304688 -4.34375 10.976562 -4.117188 10.5625 -3.984375 C 10.976562 -3.753906 11.28125 -3.457031 11.46875 -3.09375 C 11.65625 -2.726562 11.75 -2.320312 11.75 -1.875 L 11.75 -0.859375 C 11.75 -0.703125 11.753906 -0.550781 11.765625 -0.40625 C 11.785156 -0.269531 11.804688 -0.132812 11.828125 0 L 10.15625 0 C 10.132812 -0.132812 10.117188 -0.269531 10.109375 -0.40625 C 10.097656 -0.539062 10.09375 -0.671875 10.09375 -0.796875 L 10.09375 -1.765625 C 10.09375 -1.992188 10.070312 -2.222656 10.03125 -2.453125 C 10 -2.691406 9.878906 -2.894531 9.671875 -3.0625 C 9.472656 -3.226562 9.132812 -3.3125 8.65625 -3.3125 L 3.328125 -3.3125 L 3.328125 0 L 1.765625 0 L 1.765625 -8.578125 L 9.25 -8.578125 C 10.09375 -8.578125 10.75 -8.378906 11.21875 -7.984375 C 11.6875 -7.585938 11.921875 -7.003906 11.921875 -6.234375 Z M 3.328125 -4.84375 L 9.25 -4.84375 C 9.65625 -4.84375 9.953125 -4.960938 10.140625 -5.203125 C 10.335938 -5.453125 10.4375 -5.742188 10.4375 -6.078125 L 10.4375 -6.234375 C 10.4375 -6.378906 10.40625 -6.519531 10.34375 -6.65625 C 10.28125 -6.789062 10.160156 -6.90625 9.984375 -7 C 9.816406 -7.09375 9.570312 -7.140625 9.25 -7.140625 L 3.328125 -7.140625 Z M 3.328125 -4.84375 "/></g></g></g><g fill="#ffffff" fill-opacity="1"><g transform="translate(151.535561, 218.453237)"><g/></g></g><g fill="#ffffff" fill-opacity="1"><g transform="translate(157.249226, 218.453237)"><g><path d="M 8.953125 -8.578125 L 10.9375 -8.578125 L 6.171875 -3.140625 L 6.171875 0 L 4.71875 0 L 4.71875 -3.15625 L 4.484375 -3.4375 L 4.46875 -3.4375 L -0.03125 -8.578125 L 1.953125 -8.578125 L 5.46875 -4.5625 Z M 8.953125 -8.578125 "/></g></g></g><g fill="#ffffff" fill-opacity="1"><g transform="translate(168.16233, 218.453237)"><g><path d="M 6.953125 0.140625 C 5.847656 0.140625 4.921875 0.0234375 4.171875 -0.203125 C 3.429688 -0.429688 2.835938 -0.742188 2.390625 -1.140625 C 1.953125 -1.535156 1.632812 -1.976562 1.4375 -2.46875 C 1.238281 -2.957031 1.140625 -3.457031 1.140625 -3.96875 L 1.140625 -4.609375 C 1.140625 -5.140625 1.238281 -5.648438 1.4375 -6.140625 C 1.632812 -6.640625 1.953125 -7.082031 2.390625 -7.46875 C 2.835938 -7.863281 3.429688 -8.175781 4.171875 -8.40625 C 4.921875 -8.644531 5.847656 -8.765625 6.953125 -8.765625 C 8.035156 -8.765625 8.945312 -8.648438 9.6875 -8.421875 C 10.4375 -8.203125 11.035156 -7.898438 11.484375 -7.515625 C 11.929688 -7.128906 12.253906 -6.691406 12.453125 -6.203125 C 12.648438 -5.710938 12.75 -5.195312 12.75 -4.65625 L 12.75 -4.03125 C 12.75 -3.53125 12.65625 -3.03125 12.46875 -2.53125 C 12.28125 -2.03125 11.96875 -1.578125 11.53125 -1.171875 C 11.09375 -0.773438 10.5 -0.457031 9.75 -0.21875 C 9.007812 0.0195312 8.078125 0.140625 6.953125 0.140625 Z M 6.953125 -1.28125 C 8.015625 -1.28125 8.859375 -1.390625 9.484375 -1.609375 C 10.117188 -1.835938 10.570312 -2.144531 10.84375 -2.53125 C 11.125 -2.914062 11.265625 -3.347656 11.265625 -3.828125 L 11.265625 -4.453125 C 11.265625 -4.992188 11.113281 -5.476562 10.8125 -5.90625 C 10.507812 -6.34375 10.039062 -6.6875 9.40625 -6.9375 C 8.769531 -7.195312 7.953125 -7.328125 6.953125 -7.328125 C 5.921875 -7.328125 5.085938 -7.207031 4.453125 -6.96875 C 3.816406 -6.738281 3.351562 -6.414062 3.0625 -6 C 2.769531 -5.59375 2.625 -5.128906 2.625 -4.609375 L 2.625 -3.96875 C 2.625 -3.46875 2.769531 -3.015625 3.0625 -2.609375 C 3.351562 -2.203125 3.816406 -1.878906 4.453125 -1.640625 C 5.085938 -1.398438 5.921875 -1.28125 6.953125 -1.28125 Z M 6.953125 -1.28125 "/></g></g></g><g fill="#ffffff" fill-opacity="1"><g transform="translate(182.046541, 218.453237)"><g><path d="M 6.46875 0.140625 C 5.351562 0.140625 4.445312 0.0234375 3.75 -0.203125 C 3.0625 -0.429688 2.53125 -0.742188 2.15625 -1.140625 C 1.78125 -1.535156 1.519531 -1.976562 1.375 -2.46875 C 1.226562 -2.957031 1.15625 -3.457031 1.15625 -3.96875 L 1.234375 -8.546875 L 2.8125 -8.546875 L 2.8125 -3.96875 C 2.8125 -3.46875 2.9375 -3.019531 3.1875 -2.625 C 3.4375 -2.238281 3.828125 -1.9375 4.359375 -1.71875 C 4.890625 -1.5 5.59375 -1.390625 6.46875 -1.390625 C 7.363281 -1.390625 8.078125 -1.492188 8.609375 -1.703125 C 9.140625 -1.910156 9.519531 -2.207031 9.75 -2.59375 C 9.988281 -2.988281 10.109375 -3.445312 10.109375 -3.96875 L 10.171875 -8.546875 L 11.765625 -8.546875 L 11.765625 -4.171875 C 11.765625 -3.628906 11.695312 -3.097656 11.5625 -2.578125 C 11.425781 -2.066406 11.171875 -1.609375 10.796875 -1.203125 C 10.421875 -0.796875 9.882812 -0.46875 9.1875 -0.21875 C 8.5 0.0195312 7.59375 0.140625 6.46875 0.140625 Z M 6.46875 0.140625 "/></g></g></g><g fill="#ffffff" fill-opacity="1"><g transform="translate(195.045131, 218.453237)"><g><path d="M 11.921875 -6.078125 C 11.921875 -5.453125 11.796875 -4.976562 11.546875 -4.65625 C 11.304688 -4.34375 10.976562 -4.117188 10.5625 -3.984375 C 10.976562 -3.753906 11.28125 -3.457031 11.46875 -3.09375 C 11.65625 -2.726562 11.75 -2.320312 11.75 -1.875 L 11.75 -0.859375 C 11.75 -0.703125 11.753906 -0.550781 11.765625 -0.40625 C 11.785156 -0.269531 11.804688 -0.132812 11.828125 0 L 10.15625 0 C 10.132812 -0.132812 10.117188 -0.269531 10.109375 -0.40625 C 10.097656 -0.539062 10.09375 -0.671875 10.09375 -0.796875 L 10.09375 -1.765625 C 10.09375 -1.992188 10.070312 -2.222656 10.03125 -2.453125 C 10 -2.691406 9.878906 -2.894531 9.671875 -3.0625 C 9.472656 -3.226562 9.132812 -3.3125 8.65625 -3.3125 L 3.328125 -3.3125 L 3.328125 0 L 1.765625 0 L 1.765625 -8.578125 L 9.25 -8.578125 C 10.09375 -8.578125 10.75 -8.378906 11.21875 -7.984375 C 11.6875 -7.585938 11.921875 -7.003906 11.921875 -6.234375 Z M 3.328125 -4.84375 L 9.25 -4.84375 C 9.65625 -4.84375 9.953125 -4.960938 10.140625 -5.203125 C 10.335938 -5.453125 10.4375 -5.742188 10.4375 -6.078125 L 10.4375 -6.234375 C 10.4375 -6.378906 10.40625 -6.519531 10.34375 -6.65625 C 10.28125 -6.789062 10.160156 -6.90625 9.984375 -7 C 9.816406 -7.09375 9.570312 -7.140625 9.25 -7.140625 L 3.328125 -7.140625 Z M 3.328125 -4.84375 "/></g></g></g><g fill="#ffffff" fill-opacity="1"><g transform="translate(208.029438, 218.453237)"><g/></g></g><g fill="#ffffff" fill-opacity="1"><g transform="translate(213.743103, 218.453237)"><g><path d="M 10.8125 -7.28125 L 3.234375 -7.28125 L 3.234375 -4.828125 L 9.921875 -4.828125 L 9.921875 -3.53125 L 3.234375 -3.53125 L 3.234375 -1.296875 L 10.8125 -1.296875 L 10.8125 0 L 1.765625 0 L 1.765625 -8.578125 L 10.8125 -8.578125 Z M 10.8125 -7.28125 "/></g></g></g><g fill="#ffffff" fill-opacity="1"><g transform="translate(225.413265, 218.453237)"><g><path d="M 6.8125 -8.578125 C 7.863281 -8.578125 8.742188 -8.503906 9.453125 -8.359375 C 10.160156 -8.210938 10.722656 -8.003906 11.140625 -7.734375 C 11.566406 -7.460938 11.882812 -7.15625 12.09375 -6.8125 C 12.300781 -6.46875 12.4375 -6.09375 12.5 -5.6875 C 12.570312 -5.289062 12.609375 -4.878906 12.609375 -4.453125 L 12.609375 -3.828125 C 12.609375 -3.429688 12.570312 -3.046875 12.5 -2.671875 C 12.4375 -2.296875 12.300781 -1.941406 12.09375 -1.609375 C 11.882812 -1.285156 11.566406 -1.003906 11.140625 -0.765625 C 10.722656 -0.523438 10.160156 -0.335938 9.453125 -0.203125 C 8.742188 -0.0664062 7.863281 0 6.8125 0 L 1.765625 0 L 1.765625 -8.578125 Z M 11.125 -3.828125 L 11.125 -4.453125 C 11.125 -4.835938 11.078125 -5.191406 10.984375 -5.515625 C 10.898438 -5.847656 10.71875 -6.132812 10.4375 -6.375 C 10.15625 -6.625 9.726562 -6.8125 9.15625 -6.9375 C 8.582031 -7.070312 7.800781 -7.140625 6.8125 -7.140625 L 3.234375 -7.140625 L 3.234375 -1.421875 L 6.8125 -1.421875 C 7.832031 -1.421875 8.632812 -1.476562 9.21875 -1.59375 C 9.8125 -1.707031 10.242188 -1.875 10.515625 -2.09375 C 10.785156 -2.3125 10.953125 -2.566406 11.015625 -2.859375 C 11.085938 -3.148438 11.125 -3.472656 11.125 -3.828125 Z M 11.125 -3.828125 "/></g></g></g><g fill="#ffffff" fill-opacity="1"><g transform="translate(239.154629, 218.453237)"><g><path d="M 6.46875 0.140625 C 5.351562 0.140625 4.445312 0.0234375 3.75 -0.203125 C 3.0625 -0.429688 2.53125 -0.742188 2.15625 -1.140625 C 1.78125 -1.535156 1.519531 -1.976562 1.375 -2.46875 C 1.226562 -2.957031 1.15625 -3.457031 1.15625 -3.96875 L 1.234375 -8.546875 L 2.8125 -8.546875 L 2.8125 -3.96875 C 2.8125 -3.46875 2.9375 -3.019531 3.1875 -2.625 C 3.4375 -2.238281 3.828125 -1.9375 4.359375 -1.71875 C 4.890625 -1.5 5.59375 -1.390625 6.46875 -1.390625 C 7.363281 -1.390625 8.078125 -1.492188 8.609375 -1.703125 C 9.140625 -1.910156 9.519531 -2.207031 9.75 -2.59375 C 9.988281 -2.988281 10.109375 -3.445312 10.109375 -3.96875 L 10.171875 -8.546875 L 11.765625 -8.546875 L 11.765625 -4.171875 C 11.765625 -3.628906 11.695312 -3.097656 11.5625 -2.578125 C 11.425781 -2.066406 11.171875 -1.609375 10.796875 -1.203125 C 10.421875 -0.796875 9.882812 -0.46875 9.1875 -0.21875 C 8.5 0.0195312 7.59375 0.140625 6.46875 0.140625 Z M 6.46875 0.140625 "/></g></g></g><g fill="#ffffff" fill-opacity="1"><g transform="translate(252.153232, 218.453237)"><g><path d="M 6.953125 0.140625 C 5.847656 0.140625 4.921875 0.0234375 4.171875 -0.203125 C 3.429688 -0.441406 2.835938 -0.757812 2.390625 -1.15625 C 1.953125 -1.5625 1.632812 -2.019531 1.4375 -2.53125 C 1.238281 -3.050781 1.140625 -3.59375 1.140625 -4.15625 L 1.140625 -4.453125 C 1.140625 -5.015625 1.238281 -5.550781 1.4375 -6.0625 C 1.632812 -6.582031 1.953125 -7.046875 2.390625 -7.453125 C 2.835938 -7.859375 3.429688 -8.175781 4.171875 -8.40625 C 4.921875 -8.644531 5.847656 -8.765625 6.953125 -8.765625 C 8.148438 -8.765625 9.164062 -8.609375 10 -8.296875 C 10.84375 -7.992188 11.488281 -7.59375 11.9375 -7.09375 C 12.394531 -6.59375 12.644531 -6.054688 12.6875 -5.484375 L 11.09375 -5.484375 C 11.039062 -5.816406 10.832031 -6.125 10.46875 -6.40625 C 10.113281 -6.6875 9.632812 -6.910156 9.03125 -7.078125 C 8.4375 -7.242188 7.742188 -7.328125 6.953125 -7.328125 C 5.921875 -7.328125 5.085938 -7.207031 4.453125 -6.96875 C 3.816406 -6.726562 3.351562 -6.390625 3.0625 -5.953125 C 2.769531 -5.523438 2.625 -5.023438 2.625 -4.453125 L 2.625 -4.15625 C 2.625 -3.59375 2.769531 -3.09375 3.0625 -2.65625 C 3.351562 -2.226562 3.816406 -1.890625 4.453125 -1.640625 C 5.085938 -1.398438 5.921875 -1.28125 6.953125 -1.28125 C 7.835938 -1.28125 8.5625 -1.363281 9.125 -1.53125 C 9.695312 -1.695312 10.140625 -1.925781 10.453125 -2.21875 C 10.765625 -2.507812 10.972656 -2.84375 11.078125 -3.21875 L 12.671875 -3.21875 C 12.578125 -2.613281 12.328125 -2.054688 11.921875 -1.546875 C 11.515625 -1.035156 10.90625 -0.625 10.09375 -0.3125 C 9.289062 -0.0078125 8.242188 0.140625 6.953125 0.140625 Z M 6.953125 0.140625 "/></g></g></g><g fill="#ffffff" fill-opacity="1"><g transform="translate(266.008863, 218.453237)"><g><path d="M 9.46875 0 L 8.625 -1.53125 L 2.59375 -1.53125 L 1.75 0 L 0.078125 0 L 4.78125 -8.53125 L 4.75 -8.578125 L 6.46875 -8.578125 L 6.453125 -8.53125 L 11.140625 0 Z M 3.375 -2.953125 L 7.828125 -2.953125 L 5.609375 -7.015625 Z M 3.375 -2.953125 "/></g></g></g><g fill="#ffffff" fill-opacity="1"><g transform="translate(277.207636, 218.453237)"><g><path d="M 9.765625 -8.578125 L 9.765625 -7.171875 L 5.59375 -7.171875 L 5.59375 0 L 4.125 0 L 4.125 -7.171875 L -0.046875 -7.171875 L -0.046875 -8.578125 Z M 9.765625 -8.578125 "/></g></g></g><g fill="#ffffff" fill-opacity="1"><g transform="translate(286.906579, 218.453237)"><g><path d="M 1.765625 0 L 1.765625 -8.578125 L 3.234375 -8.578125 L 3.234375 0 Z M 1.765625 0 "/></g></g></g><g fill="#ffffff" fill-opacity="1"><g transform="translate(291.906037, 218.453237)"><g><path d="M 6.953125 0.140625 C 5.847656 0.140625 4.921875 0.0234375 4.171875 -0.203125 C 3.429688 -0.429688 2.835938 -0.742188 2.390625 -1.140625 C 1.953125 -1.535156 1.632812 -1.976562 1.4375 -2.46875 C 1.238281 -2.957031 1.140625 -3.457031 1.140625 -3.96875 L 1.140625 -4.609375 C 1.140625 -5.140625 1.238281 -5.648438 1.4375 -6.140625 C 1.632812 -6.640625 1.953125 -7.082031 2.390625 -7.46875 C 2.835938 -7.863281 3.429688 -8.175781 4.171875 -8.40625 C 4.921875 -8.644531 5.847656 -8.765625 6.953125 -8.765625 C 8.035156 -8.765625 8.945312 -8.648438 9.6875 -8.421875 C 10.4375 -8.203125 11.035156 -7.898438 11.484375 -7.515625 C 11.929688 -7.128906 12.253906 -6.691406 12.453125 -6.203125 C 12.648438 -5.710938 12.75 -5.195312 12.75 -4.65625 L 12.75 -4.03125 C 12.75 -3.53125 12.65625 -3.03125 12.46875 -2.53125 C 12.28125 -2.03125 11.96875 -1.578125 11.53125 -1.171875 C 11.09375 -0.773438 10.5 -0.457031 9.75 -0.21875 C 9.007812 0.0195312 8.078125 0.140625 6.953125 0.140625 Z M 6.953125 -1.28125 C 8.015625 -1.28125 8.859375 -1.390625 9.484375 -1.609375 C 10.117188 -1.835938 10.570312 -2.144531 10.84375 -2.53125 C 11.125 -2.914062 11.265625 -3.347656 11.265625 -3.828125 L 11.265625 -4.453125 C 11.265625 -4.992188 11.113281 -5.476562 10.8125 -5.90625 C 10.507812 -6.34375 10.039062 -6.6875 9.40625 -6.9375 C 8.769531 -7.195312 7.953125 -7.328125 6.953125 -7.328125 C 5.921875 -7.328125 5.085938 -7.207031 4.453125 -6.96875 C 3.816406 -6.738281 3.351562 -6.414062 3.0625 -6 C 2.769531 -5.59375 2.625 -5.128906 2.625 -4.609375 L 2.625 -3.96875 C 2.625 -3.46875 2.769531 -3.015625 3.0625 -2.609375 C 3.351562 -2.203125 3.816406 -1.878906 4.453125 -1.640625 C 5.085938 -1.398438 5.921875 -1.28125 6.953125 -1.28125 Z M 6.953125 -1.28125 "/></g></g></g><g fill="#ffffff" fill-opacity="1"><g transform="translate(305.790236, 218.453237)"><g><path d="M 9.984375 -8.578125 L 11.4375 -8.578125 L 11.4375 0 L 9.484375 0 L 3.234375 -6.953125 L 3.234375 0 L 1.765625 0 L 1.765625 -8.578125 L 3.703125 -8.578125 L 9.984375 -1.609375 Z M 9.984375 -8.578125 "/></g></g></g></svg>