<svg xmlns="http://www.w3.org/2000/svg" xmlns:xlink="http://www.w3.org/1999/xlink" width="500" zoomAndPan="magnify" viewBox="0 0 375 374.999991" height="500" preserveAspectRatio="xMidYMid meet" version="1.0"><defs><g/><clipPath id="42050e8928"><path d="M 51 160 L 89 160 L 89 196 L 51 196 Z M 51 160 " clip-rule="nonzero"/></clipPath><clipPath id="f6fb787bac"><path d="M 33.984375 184.683594 L 62.550781 141.53125 L 105.703125 170.097656 L 77.136719 213.25 Z M 33.984375 184.683594 " clip-rule="nonzero"/></clipPath><clipPath id="43c374930a"><path d="M 33.984375 184.683594 L 62.550781 141.53125 L 105.703125 170.097656 L 77.136719 213.25 Z M 33.984375 184.683594 " clip-rule="nonzero"/></clipPath><clipPath id="30a6765f56"><path d="M 74 170 L 77 170 L 77 173 L 74 173 Z M 74 170 " clip-rule="nonzero"/></clipPath><clipPath id="27d7f128e4"><path d="M 33.984375 184.683594 L 62.550781 141.53125 L 105.703125 170.097656 L 77.136719 213.25 Z M 33.984375 184.683594 " clip-rule="nonzero"/></clipPath><clipPath id="5e0550dd9f"><path d="M 33.984375 184.683594 L 62.550781 141.53125 L 105.703125 170.097656 L 77.136719 213.25 Z M 33.984375 184.683594 " clip-rule="nonzero"/></clipPath><clipPath id="92a32ff467"><path d="M 79 170 L 83 170 L 83 174 L 79 174 Z M 79 170 " clip-rule="nonzero"/></clipPath><clipPath id="4812750af6"><path d="M 33.984375 184.683594 L 62.550781 141.53125 L 105.703125 170.097656 L 77.136719 213.25 Z M 33.984375 184.683594 " clip-rule="nonzero"/></clipPath><clipPath id="e8d404cdce"><path d="M 33.984375 184.683594 L 62.550781 141.53125 L 105.703125 170.097656 L 77.136719 213.25 Z M 33.984375 184.683594 " clip-rule="nonzero"/></clipPath><clipPath id="a1c44dc1b9"><path d="M 80 174 L 83 174 L 83 177 L 80 177 Z M 80 174 " clip-rule="nonzero"/></clipPath><clipPath id="24bb4bbc19"><path d="M 33.984375 184.683594 L 62.550781 141.53125 L 105.703125 170.097656 L 77.136719 213.25 Z M 33.984375 184.683594 " clip-rule="nonzero"/></clipPath><clipPath id="643f879b04"><path d="M 33.984375 184.683594 L 62.550781 141.53125 L 105.703125 170.097656 L 77.136719 213.25 Z M 33.984375 184.683594 " clip-rule="nonzero"/></clipPath><clipPath id="0199bea397"><path d="M 75 175 L 78 175 L 78 178 L 75 178 Z M 75 175 " clip-rule="nonzero"/></clipPath><clipPath id="399204109c"><path d="M 33.984375 184.683594 L 62.550781 141.53125 L 105.703125 170.097656 L 77.136719 213.25 Z M 33.984375 184.683594 " clip-rule="nonzero"/></clipPath><clipPath id="a28858e139"><path d="M 33.984375 184.683594 L 62.550781 141.53125 L 105.703125 170.097656 L 77.136719 213.25 Z M 33.984375 184.683594 " clip-rule="nonzero"/></clipPath><clipPath id="e47dc21131"><path d="M 57 179 L 59 179 L 59 182 L 57 182 Z M 57 179 " clip-rule="nonzero"/></clipPath><clipPath id="15c6c6700e"><path d="M 33.984375 184.683594 L 62.550781 141.53125 L 105.703125 170.097656 L 77.136719 213.25 Z M 33.984375 184.683594 " clip-rule="nonzero"/></clipPath><clipPath id="18c9c44b0d"><path d="M 33.984375 184.683594 L 62.550781 141.53125 L 105.703125 170.097656 L 77.136719 213.25 Z M 33.984375 184.683594 " clip-rule="nonzero"/></clipPath><clipPath id="e1b051df22"><path d="M 55 175 L 59 175 L 59 179 L 55 179 Z M 55 175 " clip-rule="nonzero"/></clipPath><clipPath id="5c07ec7d7a"><path d="M 33.984375 184.683594 L 62.550781 141.53125 L 105.703125 170.097656 L 77.136719 213.25 Z M 33.984375 184.683594 " clip-rule="nonzero"/></clipPath><clipPath id="e033a602d1"><path d="M 33.984375 184.683594 L 62.550781 141.53125 L 105.703125 170.097656 L 77.136719 213.25 Z M 33.984375 184.683594 " clip-rule="nonzero"/></clipPath><clipPath id="40e6329086"><path d="M 62 178 L 64 178 L 64 180 L 62 180 Z M 62 178 " clip-rule="nonzero"/></clipPath><clipPath id="898a838464"><path d="M 33.984375 184.683594 L 62.550781 141.53125 L 105.703125 170.097656 L 77.136719 213.25 Z M 33.984375 184.683594 " clip-rule="nonzero"/></clipPath><clipPath id="c0634eeb5c"><path d="M 33.984375 184.683594 L 62.550781 141.53125 L 105.703125 170.097656 L 77.136719 213.25 Z M 33.984375 184.683594 " clip-rule="nonzero"/></clipPath><clipPath id="ba20bbc798"><path d="M 60 173 L 64 173 L 64 176 L 60 176 Z M 60 173 " clip-rule="nonzero"/></clipPath><clipPath id="5f4d634ee8"><path d="M 33.984375 184.683594 L 62.550781 141.53125 L 105.703125 170.097656 L 77.136719 213.25 Z M 33.984375 184.683594 " clip-rule="nonzero"/></clipPath><clipPath id="966213f306"><path d="M 33.984375 184.683594 L 62.550781 141.53125 L 105.703125 170.097656 L 77.136719 213.25 Z M 33.984375 184.683594 " clip-rule="nonzero"/></clipPath><clipPath id="1ff4d14927"><path d="M 112.757812 183.585938 L 133 183.585938 L 133 204.585938 L 112.757812 204.585938 Z M 112.757812 183.585938 " clip-rule="nonzero"/></clipPath><clipPath id="5bc3d5956e"><path d="M 148.070312 153.304688 L 198.320312 153.304688 L 198.320312 203.554688 L 148.070312 203.554688 Z M 148.070312 153.304688 " clip-rule="nonzero"/></clipPath></defs><rect x="-37.5" width="450" fill="#ffffff" y="-37.499999" height="449.999989" fill-opacity="1"/><rect x="-37.5" width="450" fill="#ffffff" y="-37.499999" height="449.999989" fill-opacity="1"/><g fill="#4441c2" fill-opacity="1"><g transform="translate(43.344453, 204.820819)"><g><path d="M -2.09375 0 L 15.734375 -65.1875 L 21.640625 -34.09375 L 28.453125 -34.09375 L 19.703125 -79.421875 L 48.0625 -79.421875 L 63.46875 0 L 35.171875 0 L 29.90625 -26.953125 L 23.09375 -26.953125 L 28.34375 0 Z M -2.09375 0 "/></g></g></g><g clip-path="url(#42050e8928)"><g clip-path="url(#f6fb787bac)"><g clip-path="url(#43c374930a)"><path fill="#ffffff" d="M 66.082031 160.136719 C 66.082031 160.136719 66.078125 160.136719 66.078125 160.136719 C 64.75 160.761719 63.546875 161.582031 64.09375 166.824219 C 64.265625 168.480469 64.613281 170.558594 65.070312 172.816406 C 65.070312 172.816406 58.21875 176.195312 58.21875 176.195312 C 58.21875 176.195312 51.003906 179.757812 51.003906 179.757812 C 51.167969 180.5 51.328125 181.242188 51.492188 181.984375 C 56.441406 180.816406 61.390625 179.648438 66.335938 178.480469 C 66.335938 178.480469 66.339844 178.480469 66.339844 178.480469 C 67.332031 182.558594 68.480469 186.582031 69.433594 189.335938 C 69.5625 189.703125 69.6875 190.050781 69.808594 190.375 C 69.808594 190.375 66.582031 192.054688 66.582031 192.054688 C 66.582031 192.054688 62.71875 194.070312 62.71875 194.070312 C 62.816406 194.503906 62.910156 194.941406 63.003906 195.375 C 65.730469 194.726562 68.453125 194.074219 71.179688 193.421875 C 71.921875 194.359375 72.257812 194.566406 73.105469 194.746094 C 73.859375 194.238281 74.035156 194.015625 74.390625 192.769531 C 77.152344 192.304688 79.917969 191.839844 82.679688 191.375 C 82.597656 190.9375 82.511719 190.496094 82.429688 190.058594 C 82.429688 190.058594 78.085938 189.714844 78.085938 189.714844 C 78.085938 189.714844 74.460938 189.425781 74.460938 189.425781 C 74.445312 189.082031 74.425781 188.714844 74.398438 188.324219 C 74.203125 185.417969 73.6875 181.265625 73.011719 177.121094 C 78.023438 176.265625 83.035156 175.40625 88.046875 174.550781 C 87.90625 173.804688 87.765625 173.054688 87.625 172.308594 C 87.625 172.308594 79.589844 171.847656 79.589844 171.847656 C 79.589844 171.847656 71.964844 171.410156 71.964844 171.410156 C 71.5 169.160156 71.011719 167.109375 70.523438 165.515625 C 68.980469 160.480469 67.550781 160.191406 66.085938 160.136719 C 66.082031 160.136719 66.082031 160.132812 66.082031 160.136719 " fill-opacity="1" fill-rule="nonzero"/></g></g></g><g clip-path="url(#30a6765f56)"><g clip-path="url(#27d7f128e4)"><g clip-path="url(#5e0550dd9f)"><path fill="#ffffff" d="M 76.570312 171.246094 C 76.460938 170.707031 76.195312 170.308594 75.972656 170.351562 C 75.972656 170.351562 74.367188 170.679688 74.367188 170.679688 C 74.144531 170.722656 74.054688 171.199219 74.164062 171.738281 C 74.164062 171.738281 74.191406 171.875 74.191406 171.875 C 74.300781 172.414062 74.570312 172.816406 74.792969 172.773438 C 74.792969 172.773438 76.398438 172.445312 76.398438 172.445312 C 76.617188 172.398438 76.707031 171.925781 76.597656 171.386719 C 76.597656 171.386719 76.570312 171.246094 76.570312 171.246094 " fill-opacity="1" fill-rule="nonzero"/></g></g></g><g clip-path="url(#92a32ff467)"><g clip-path="url(#4812750af6)"><g clip-path="url(#e8d404cdce)"><path fill="#ffffff" d="M 82.101562 171.84375 C 81.992188 171.300781 81.722656 170.902344 81.503906 170.945312 C 81.503906 170.945312 79.894531 171.273438 79.894531 171.273438 C 79.675781 171.316406 79.585938 171.792969 79.695312 172.332031 C 79.695312 172.332031 79.722656 172.46875 79.722656 172.46875 C 79.832031 173.007812 80.101562 173.410156 80.320312 173.367188 C 80.320312 173.367188 81.929688 173.039062 81.929688 173.039062 C 82.148438 172.996094 82.238281 172.519531 82.128906 171.980469 C 82.128906 171.980469 82.101562 171.84375 82.101562 171.84375 " fill-opacity="1" fill-rule="nonzero"/></g></g></g><g clip-path="url(#a1c44dc1b9)"><g clip-path="url(#24bb4bbc19)"><g clip-path="url(#643f879b04)"><path fill="#ffffff" d="M 82.226562 175.476562 C 82.28125 175.753906 82.238281 175.992188 82.125 176.015625 C 82.125 176.015625 81.304688 176.183594 81.304688 176.183594 C 81.191406 176.207031 81.054688 176 81 175.726562 C 81 175.726562 80.988281 175.65625 80.988281 175.65625 C 80.929688 175.382812 80.976562 175.140625 81.089844 175.117188 C 81.089844 175.117188 81.90625 174.949219 81.90625 174.949219 C 82.019531 174.925781 82.15625 175.132812 82.210938 175.40625 C 82.210938 175.40625 82.226562 175.476562 82.226562 175.476562 " fill-opacity="1" fill-rule="nonzero"/></g></g></g><g clip-path="url(#0199bea397)"><g clip-path="url(#399204109c)"><g clip-path="url(#a28858e139)"><path fill="#ffffff" d="M 77.035156 176.246094 C 77.09375 176.546875 77.042969 176.8125 76.921875 176.835938 C 76.921875 176.835938 76.023438 177.019531 76.023438 177.019531 C 75.902344 177.042969 75.753906 176.820312 75.691406 176.519531 C 75.691406 176.519531 75.675781 176.441406 75.675781 176.441406 C 75.613281 176.140625 75.664062 175.875 75.789062 175.851562 C 75.789062 175.851562 76.683594 175.667969 76.683594 175.667969 C 76.808594 175.644531 76.957031 175.867188 77.019531 176.167969 C 77.019531 176.167969 77.035156 176.246094 77.035156 176.246094 " fill-opacity="1" fill-rule="nonzero"/></g></g></g><g clip-path="url(#e47dc21131)"><g clip-path="url(#15c6c6700e)"><g clip-path="url(#18c9c44b0d)"><path fill="#ffffff" d="M 57.210938 180.566406 C 57.265625 180.839844 57.402344 181.042969 57.515625 181.023438 C 57.515625 181.023438 58.335938 180.855469 58.335938 180.855469 C 58.445312 180.832031 58.492188 180.589844 58.4375 180.316406 C 58.4375 180.316406 58.421875 180.246094 58.421875 180.246094 C 58.367188 179.972656 58.230469 179.765625 58.117188 179.789062 C 58.117188 179.789062 57.300781 179.957031 57.300781 179.957031 C 57.1875 179.980469 57.140625 180.21875 57.195312 180.496094 C 57.195312 180.496094 57.210938 180.566406 57.210938 180.566406 " fill-opacity="1" fill-rule="nonzero"/></g></g></g><g clip-path="url(#e1b051df22)"><g clip-path="url(#5c07ec7d7a)"><g clip-path="url(#e033a602d1)"><path fill="#ffffff" d="M 55.90625 177.171875 C 55.796875 176.632812 55.886719 176.15625 56.105469 176.113281 C 56.105469 176.113281 57.714844 175.785156 57.714844 175.785156 C 57.933594 175.742188 58.203125 176.140625 58.3125 176.679688 C 58.3125 176.679688 58.339844 176.820312 58.339844 176.820312 C 58.449219 177.359375 58.359375 177.832031 58.140625 177.878906 C 58.140625 177.878906 56.53125 178.207031 56.53125 178.207031 C 56.3125 178.25 56.042969 177.847656 55.933594 177.308594 C 55.933594 177.308594 55.90625 177.171875 55.90625 177.171875 " fill-opacity="1" fill-rule="nonzero"/></g></g></g><g clip-path="url(#40e6329086)"><g clip-path="url(#898a838464)"><g clip-path="url(#c0634eeb5c)"><path fill="#ffffff" d="M 62.261719 179.25 C 62.324219 179.550781 62.472656 179.777344 62.597656 179.75 C 62.597656 179.75 63.492188 179.566406 63.492188 179.566406 C 63.617188 179.542969 63.664062 179.277344 63.605469 178.976562 C 63.605469 178.976562 63.589844 178.902344 63.589844 178.902344 C 63.527344 178.601562 63.378906 178.375 63.253906 178.402344 C 63.253906 178.402344 62.359375 178.582031 62.359375 178.582031 C 62.234375 178.609375 62.1875 178.871094 62.246094 179.175781 C 62.246094 179.175781 62.261719 179.25 62.261719 179.25 " fill-opacity="1" fill-rule="nonzero"/></g></g></g><g clip-path="url(#ba20bbc798)"><g clip-path="url(#5f4d634ee8)"><g clip-path="url(#966213f306)"><path fill="#ffffff" d="M 60.734375 174.46875 C 60.625 173.929688 60.714844 173.453125 60.9375 173.410156 C 60.9375 173.410156 62.542969 173.082031 62.542969 173.082031 C 62.765625 173.039062 63.03125 173.441406 63.140625 173.980469 C 63.140625 173.980469 63.171875 174.117188 63.171875 174.117188 C 63.28125 174.65625 63.191406 175.132812 62.96875 175.175781 C 62.96875 175.175781 61.363281 175.503906 61.363281 175.503906 C 61.140625 175.546875 60.875 175.148438 60.765625 174.605469 C 60.765625 174.605469 60.734375 174.46875 60.734375 174.46875 " fill-opacity="1" fill-rule="nonzero"/></g></g></g><g fill="#4441c2" fill-opacity="1"><g transform="translate(107.887169, 204.000925)"><g><path d="M 2.6875 0 L 2.6875 -60.25 L 24.109375 -60.25 L 24.109375 0 Z M 2.6875 0 "/></g></g></g><g clip-path="url(#1ff4d14927)"><path fill="#ffffff" d="M 131.371094 194.882812 L 129.296875 194.882812 L 129.296875 194.382812 C 129.296875 193.804688 128.828125 193.335938 128.25 193.335938 L 125.828125 193.335938 C 125.246094 193.335938 124.777344 193.804688 124.777344 194.382812 L 124.777344 194.882812 L 124.191406 194.882812 L 124.191406 189.226562 C 124.191406 187.972656 123.171875 186.953125 121.917969 186.953125 L 121.277344 186.953125 L 121.277344 185.03125 C 121.59375 184.984375 121.835938 184.710938 121.835938 184.382812 L 121.835938 184.257812 C 121.835938 183.890625 121.539062 183.59375 121.175781 183.59375 L 115.777344 183.59375 C 115.410156 183.59375 115.113281 183.890625 115.113281 184.257812 L 115.113281 184.382812 C 115.113281 184.710938 115.355469 184.984375 115.671875 185.03125 L 115.671875 186.953125 L 115.03125 186.953125 C 113.777344 186.953125 112.757812 187.972656 112.757812 189.226562 L 112.757812 200.695312 C 112.757812 201.640625 113.34375 202.453125 114.167969 202.792969 L 114.167969 203.597656 C 114.167969 203.996094 114.488281 204.316406 114.886719 204.316406 C 115.285156 204.316406 115.605469 203.996094 115.605469 203.597656 L 115.605469 202.964844 L 121.222656 202.964844 C 121.304688 203.710938 121.9375 204.296875 122.703125 204.296875 L 131.371094 204.296875 C 132.191406 204.296875 132.859375 203.628906 132.859375 202.804688 L 132.859375 196.375 C 132.859375 195.550781 132.191406 194.882812 131.371094 194.882812 Z M 130.296875 195.210938 L 130.296875 203.96875 L 123.777344 203.96875 L 123.777344 195.210938 Z M 128.222656 194.882812 L 125.851562 194.882812 L 125.851562 194.679688 C 125.851562 194.480469 126.011719 194.320312 126.210938 194.320312 L 127.867188 194.320312 C 128.0625 194.320312 128.222656 194.480469 128.222656 194.679688 Z M 125.105469 194.382812 C 125.105469 193.984375 125.429688 193.664062 125.828125 193.664062 L 128.25 193.664062 C 128.644531 193.664062 128.96875 193.984375 128.96875 194.382812 L 128.96875 194.882812 L 128.550781 194.882812 L 128.550781 194.679688 C 128.550781 194.300781 128.242188 193.992188 127.867188 193.992188 L 126.210938 193.992188 C 125.832031 193.992188 125.523438 194.300781 125.523438 194.679688 L 125.523438 194.882812 L 125.105469 194.882812 Z M 120.511719 186.953125 L 120.511719 185.042969 L 120.949219 185.042969 L 120.949219 186.953125 Z M 120.152344 186.953125 L 119.863281 186.570312 C 119.722656 186.382812 119.515625 186.277344 119.296875 186.277344 L 117.652344 186.277344 C 117.433594 186.277344 117.226562 186.382812 117.085938 186.570312 L 116.796875 186.953125 L 116.765625 186.953125 L 116.765625 185.042969 L 120.183594 185.042969 L 120.183594 186.953125 Z M 119.742188 186.953125 L 117.207031 186.953125 L 117.351562 186.765625 C 117.425781 186.664062 117.539062 186.605469 117.652344 186.605469 L 119.296875 186.605469 C 119.410156 186.605469 119.523438 186.664062 119.597656 186.765625 Z M 115.441406 184.382812 L 115.441406 184.257812 C 115.441406 184.074219 115.59375 183.925781 115.777344 183.925781 L 121.175781 183.925781 C 121.355469 183.925781 121.507812 184.074219 121.507812 184.257812 L 121.507812 184.382812 C 121.507812 184.566406 121.355469 184.714844 121.175781 184.714844 L 115.777344 184.714844 C 115.59375 184.714844 115.441406 184.566406 115.441406 184.382812 Z M 116.003906 185.042969 L 116.4375 185.042969 L 116.4375 186.953125 L 116.003906 186.953125 Z M 113.089844 200.695312 L 113.089844 189.226562 C 113.089844 188.15625 113.960938 187.285156 115.03125 187.285156 L 121.917969 187.285156 C 122.988281 187.285156 123.859375 188.15625 123.859375 189.226562 L 123.859375 194.882812 L 122.851562 194.882812 L 122.851562 188.996094 C 122.851562 188.644531 122.566406 188.359375 122.210938 188.359375 C 121.859375 188.359375 121.574219 188.644531 121.574219 188.996094 L 121.574219 195.40625 C 121.351562 195.664062 121.214844 196.003906 121.214844 196.375 L 121.214844 202.636719 L 115.03125 202.636719 C 113.960938 202.636719 113.089844 201.765625 113.089844 200.695312 Z M 121.902344 195.117188 L 121.902344 188.996094 C 121.902344 188.828125 122.042969 188.6875 122.210938 188.6875 C 122.382812 188.6875 122.523438 188.828125 122.523438 188.996094 L 122.523438 194.894531 C 122.296875 194.921875 122.085938 195 121.902344 195.117188 Z M 115.277344 203.597656 C 115.277344 203.8125 115.101562 203.988281 114.886719 203.988281 C 114.671875 203.988281 114.496094 203.8125 114.496094 203.597656 L 114.496094 202.898438 C 114.667969 202.941406 114.847656 202.964844 115.03125 202.964844 L 115.277344 202.964844 Z M 121.542969 202.839844 C 121.546875 202.828125 121.550781 202.816406 121.550781 202.800781 C 121.550781 202.785156 121.546875 202.769531 121.542969 202.757812 L 121.542969 196.375 C 121.542969 196.136719 121.613281 195.914062 121.738281 195.730469 C 121.828125 195.730469 121.902344 195.660156 121.902344 195.566406 L 121.902344 195.535156 C 122.097656 195.347656 122.359375 195.230469 122.644531 195.214844 C 122.660156 195.21875 122.671875 195.222656 122.6875 195.222656 C 122.707031 195.222656 122.726562 195.21875 122.742188 195.210938 L 123.449219 195.210938 L 123.449219 203.96875 L 122.703125 203.96875 C 122.074219 203.96875 121.5625 203.464844 121.542969 202.839844 Z M 132.53125 202.804688 C 132.53125 203.445312 132.011719 203.96875 131.371094 203.96875 L 130.628906 203.96875 L 130.628906 195.210938 L 131.371094 195.210938 C 132.011719 195.210938 132.53125 195.734375 132.53125 196.375 Z M 132.53125 202.804688 " fill-opacity="1" fill-rule="nonzero"/></g><path fill="#ffffff" d="M 118.421875 201.359375 L 118.527344 201.359375 C 118.851562 201.359375 119.113281 201.097656 119.113281 200.773438 L 119.113281 188.945312 C 119.113281 188.621094 118.851562 188.359375 118.527344 188.359375 L 118.421875 188.359375 C 118.097656 188.359375 117.835938 188.621094 117.835938 188.945312 L 117.835938 200.773438 C 117.835938 201.097656 118.097656 201.359375 118.421875 201.359375 Z M 118.164062 188.945312 C 118.164062 188.804688 118.28125 188.6875 118.421875 188.6875 L 118.527344 188.6875 C 118.667969 188.6875 118.785156 188.804688 118.785156 188.945312 L 118.785156 200.773438 C 118.785156 200.914062 118.667969 201.03125 118.527344 201.03125 L 118.421875 201.03125 C 118.28125 201.03125 118.164062 200.914062 118.164062 200.773438 Z M 118.164062 188.945312 " fill-opacity="1" fill-rule="nonzero"/><path fill="#ffffff" d="M 116.503906 201.359375 L 116.609375 201.359375 C 116.929688 201.359375 117.195312 201.097656 117.195312 200.773438 L 117.195312 188.945312 C 117.195312 188.621094 116.929688 188.359375 116.609375 188.359375 L 116.503906 188.359375 C 116.179688 188.359375 115.917969 188.621094 115.917969 188.945312 L 115.917969 200.773438 C 115.917969 201.097656 116.179688 201.359375 116.503906 201.359375 Z M 116.246094 188.945312 C 116.246094 188.804688 116.363281 188.6875 116.503906 188.6875 L 116.609375 188.6875 C 116.75 188.6875 116.863281 188.804688 116.863281 188.945312 L 116.863281 200.773438 C 116.863281 200.914062 116.75 201.03125 116.609375 201.03125 L 116.503906 201.03125 C 116.363281 201.03125 116.246094 200.914062 116.246094 200.773438 Z M 116.246094 188.945312 " fill-opacity="1" fill-rule="nonzero"/><path fill="#ffffff" d="M 115.273438 200.773438 L 115.273438 188.945312 C 115.273438 188.621094 115.011719 188.359375 114.6875 188.359375 L 114.582031 188.359375 C 114.261719 188.359375 114 188.621094 114 188.945312 L 114 200.773438 C 114 201.097656 114.261719 201.359375 114.582031 201.359375 L 114.6875 201.359375 C 115.011719 201.359375 115.273438 201.097656 115.273438 200.773438 Z M 114.945312 200.773438 C 114.945312 200.914062 114.832031 201.03125 114.6875 201.03125 L 114.582031 201.03125 C 114.441406 201.03125 114.328125 200.914062 114.328125 200.773438 L 114.328125 188.945312 C 114.328125 188.804688 114.441406 188.6875 114.582031 188.6875 L 114.6875 188.6875 C 114.832031 188.6875 114.945312 188.804688 114.945312 188.945312 Z M 114.945312 200.773438 " fill-opacity="1" fill-rule="nonzero"/><path fill="#ffffff" d="M 120.242188 201.359375 L 120.347656 201.359375 C 120.667969 201.359375 120.933594 201.097656 120.933594 200.773438 L 120.933594 188.945312 C 120.933594 188.621094 120.667969 188.359375 120.347656 188.359375 L 120.242188 188.359375 C 119.917969 188.359375 119.65625 188.621094 119.65625 188.945312 L 119.65625 200.773438 C 119.65625 201.097656 119.917969 201.359375 120.242188 201.359375 Z M 119.984375 188.945312 C 119.984375 188.804688 120.097656 188.6875 120.242188 188.6875 L 120.347656 188.6875 C 120.488281 188.6875 120.601562 188.804688 120.601562 188.945312 L 120.601562 200.773438 C 120.601562 200.914062 120.488281 201.03125 120.347656 201.03125 L 120.242188 201.03125 C 120.097656 201.03125 119.984375 200.914062 119.984375 200.773438 Z M 119.984375 188.945312 " fill-opacity="1" fill-rule="nonzero"/><g fill="#4441c2" fill-opacity="1"><g transform="translate(136.970108, 204.994507)"><g><path d="M 48.875 0 L 36.453125 -48.546875 L 39.546875 -60.25 L 53.40625 -60.25 L 68.671875 0 Z M -1.59375 0 L 8.4375 -38.703125 L 18.375 0 Z M 23.546875 0 L 11.078125 -48.546875 L 14.171875 -60.25 L 28.03125 -60.25 L 43.375 0 Z M 23.546875 0 "/></g></g></g><g clip-path="url(#5bc3d5956e)"><path fill="#ffffff" d="M 173.195312 153.304688 C 166.484375 153.304688 160.171875 155.917969 155.425781 160.664062 C 150.683594 165.410156 148.070312 171.71875 148.070312 178.429688 C 148.070312 185.140625 150.683594 191.453125 155.425781 196.199219 C 160.171875 200.941406 166.480469 203.558594 173.195312 203.558594 C 179.90625 203.558594 186.214844 200.941406 190.960938 196.199219 C 195.707031 191.453125 198.320312 185.140625 198.320312 178.429688 C 198.320312 171.71875 195.707031 165.410156 190.960938 160.664062 C 186.214844 155.917969 179.90625 153.304688 173.195312 153.304688 Z M 158.804688 159.027344 C 158.785156 159.074219 158.765625 159.121094 158.742188 159.160156 C 158.679688 159.261719 158.476562 159.464844 158.476562 159.464844 L 158.203125 159.492188 C 158.402344 159.335938 158.601562 159.179688 158.804688 159.027344 Z M 149.15625 180.925781 C 149.210938 181 149.269531 181.066406 149.324219 181.109375 C 149.570312 181.300781 149.570312 181.246094 149.871094 181.4375 C 150.171875 181.628906 151.257812 181.789062 151.257812 181.789062 L 151.804688 181.789062 L 152.785156 182.527344 C 152.785156 182.527344 153.164062 182.5 153.246094 182.527344 C 153.328125 182.554688 153.820312 183.234375 153.820312 183.234375 L 154.253906 183.234375 L 154.71875 183.695312 L 155.097656 183.722656 L 155.351562 183.519531 L 155.636719 183.8125 L 155.734375 184.167969 L 155.738281 184.382812 L 155.761719 184.773438 L 155.390625 185.230469 L 155.148438 185.527344 L 155.148438 186.855469 L 155.761719 187.589844 L 156.082031 188.539062 L 156.109375 188.613281 L 156.292969 189.042969 L 156.902344 189.511719 L 157.433594 189.921875 C 157.433594 189.921875 157.539062 190.226562 157.539062 190.410156 C 157.539062 190.59375 157.515625 190.960938 157.515625 190.960938 L 157.457031 191.535156 L 157.25 192.738281 C 157.25 192.738281 157.109375 193.78125 157.066406 194.105469 C 157.027344 194.433594 156.84375 195.066406 156.84375 195.066406 C 156.84375 195.066406 156.679688 195.640625 156.617188 195.882812 C 156.609375 195.914062 156.601562 195.945312 156.59375 195.976562 C 152.503906 192.105469 149.765625 186.828125 149.15625 180.921875 Z M 173.195312 202.597656 C 167.570312 202.597656 162.386719 200.667969 158.277344 197.433594 L 158.332031 197.3125 L 158.425781 197.128906 L 158.640625 196.699219 L 158.863281 196.375 L 158.863281 196.066406 L 159.496094 195.476562 L 160.070312 195.066406 C 160.070312 195.066406 160.40625 194.878906 160.550781 194.6875 C 160.582031 194.640625 160.605469 194.597656 160.613281 194.554688 C 160.640625 194.332031 160.613281 194.191406 160.613281 194.1875 L 161.171875 193.882812 C 161.171875 193.882812 161.558594 193.882812 161.847656 193.65625 C 161.917969 193.601562 161.976562 193.535156 162.019531 193.464844 C 162.160156 193.253906 162.195312 193.023438 162.195312 193.023438 L 162.808594 191.777344 C 162.8125 191.773438 163.15625 191.511719 163.460938 191.265625 C 163.765625 191.023438 163.746094 191.144531 163.867188 191.0625 C 163.992188 190.980469 164.378906 190.757812 164.378906 190.757812 L 164.378906 190.753906 C 164.378906 190.753906 164.769531 190.183594 164.769531 190.183594 L 164.992188 189.40625 C 164.992188 189.40625 164.953125 188.773438 164.972656 188.609375 C 164.972656 188.601562 164.976562 188.589844 164.980469 188.585938 C 165.046875 188.46875 165.421875 188.613281 165.421875 188.613281 L 165.421875 188.609375 L 166.078125 186.75 L 165.730469 186.546875 C 165.730469 186.546875 164.667969 186.300781 164.359375 186.199219 C 164.054688 186.097656 163.296875 185.851562 163.296875 185.851562 L 162.6875 185.660156 L 162.398438 185.230469 L 162.136719 184.667969 C 162.136719 184.667969 161.421875 184.28125 161.113281 184.199219 C 160.808594 184.117188 160.378906 183.972656 160.378906 183.972656 C 160.378906 183.972656 160.113281 183.6875 160.070312 183.585938 C 160.03125 183.484375 159.398438 183.238281 159.398438 183.238281 L 158.152344 183.070312 L 157.484375 182.859375 L 157.234375 182.707031 L 156.640625 182.917969 L 156.171875 183.308594 L 155.917969 183.53125 L 155.78125 183.632812 L 155.738281 183.671875 L 155.578125 183.417969 L 155.140625 183.285156 C 155.140625 183.285156 155.140625 183.289062 155.140625 183.289062 C 155.140625 183.289062 155.105469 183.421875 155.070312 183.476562 C 155.0625 183.488281 155.054688 183.496094 155.046875 183.5 C 155.007812 183.503906 154.835938 183.472656 154.835938 183.472656 C 154.835938 183.472656 154.644531 183.328125 154.5625 183.28125 C 154.480469 183.234375 154.421875 183.179688 154.421875 183.179688 L 154.238281 182.886719 L 154.222656 182.59375 L 154.257812 182.15625 C 154.257812 182.046875 154.269531 181.851562 154.269531 181.851562 C 154.269531 181.851562 153.828125 181.769531 153.707031 181.769531 C 153.582031 181.769531 153.25 181.761719 153.230469 181.761719 C 153.207031 181.761719 153.148438 181.851562 153.148438 181.671875 C 153.148438 181.496094 153.207031 181.148438 153.207031 181.148438 L 153.289062 180.765625 L 153.414062 180.511719 L 153.300781 180.347656 L 152.902344 180.429688 L 152.65625 180.859375 L 152.382812 181.03125 L 151.839844 181.082031 L 151.613281 181.03125 C 151.613281 181.03125 151.390625 180.898438 151.339844 180.828125 C 151.289062 180.757812 151.175781 180.378906 151.175781 180.378906 C 151.175781 180.378906 151.035156 179.910156 151.035156 179.746094 C 151.035156 179.582031 151.011719 179.359375 151.042969 179.246094 C 151.074219 179.132812 151.085938 179.019531 151.1875 178.832031 C 151.285156 178.648438 151.402344 178.46875 151.410156 178.460938 C 151.410156 178.457031 151.59375 178.296875 151.695312 178.285156 C 151.796875 178.277344 152.074219 178.246094 152.074219 178.246094 C 152.074219 178.246094 152.535156 178.253906 152.605469 178.277344 C 152.675781 178.296875 152.992188 178.296875 152.992188 178.296875 L 153.125 178.253906 L 153.441406 178.164062 C 153.441406 178.164062 153.71875 178.0625 153.964844 178.183594 C 154.207031 178.304688 154.3125 178.277344 154.390625 178.492188 C 154.472656 178.703125 154.585938 178.890625 154.585938 178.890625 C 154.585938 178.890625 154.699219 178.980469 154.78125 179.132812 C 154.863281 179.285156 155.148438 179.277344 155.148438 179.277344 L 154.863281 178.539062 L 154.820312 178.101562 L 155.128906 177.40625 L 155.609375 177.222656 L 156.3125 176.796875 C 156.3125 176.796875 156.3125 176.792969 156.3125 176.792969 L 155.90625 175.917969 L 156.558594 175.417969 L 157.019531 175.089844 L 157.347656 175.363281 L 157.511719 174.722656 L 157.960938 174.230469 C 157.960938 174.230469 158.261719 174.125 158.300781 174.125 C 158.320312 174.125 158.363281 174.203125 158.40625 174.289062 L 158.523438 174.621094 L 158.886719 174.660156 C 158.886719 174.660156 158.890625 174.660156 158.890625 174.660156 L 158.984375 174.382812 L 159.390625 174.339844 L 159.890625 174.417969 L 159.890625 174.414062 C 159.890625 174.414062 159.894531 174.414062 159.894531 174.414062 L 159.925781 174.171875 L 160.121094 174.007812 L 160.070312 173.871094 L 159.828125 173.847656 L 158.996094 173.507812 L 158.957031 173.332031 L 159.171875 172.789062 L 159.636719 172.53125 L 159.988281 172.339844 L 160.632812 172.21875 C 160.632812 172.21875 160.542969 172.746094 160.554688 172.871094 C 160.554688 172.882812 160.550781 172.898438 160.539062 172.914062 C 160.457031 173.007812 160.101562 173.058594 160.101562 173.058594 C 160.101562 173.058594 160.097656 173.058594 160.097656 173.058594 L 160.246094 173.414062 L 161.15625 173.597656 C 161.15625 173.597656 161.730469 173.792969 161.757812 173.75 C 161.785156 173.710938 161.816406 173.246094 161.816406 173.246094 L 161.1875 172.472656 L 160.890625 172.066406 L 160.644531 171.21875 L 159.71875 170.078125 L 159.542969 169.832031 L 159.03125 168.933594 L 158.4375 169.164062 C 158.4375 169.164062 157.84375 169.367188 157.765625 169.328125 C 157.683594 169.285156 157.355469 168.304688 157.355469 168.304688 L 156.457031 167.980469 C 156.457031 167.980469 155.988281 167.796875 155.84375 168.019531 C 155.84375 168.019531 155.84375 168.019531 155.84375 168.023438 C 155.703125 168.246094 155.558594 168.59375 155.558594 168.757812 C 155.558594 168.921875 155.679688 169.371094 155.679688 169.371094 L 155.722656 169.820312 L 155.640625 170.195312 L 155.722656 170.429688 C 155.722656 170.429688 155.414062 170.941406 155.394531 171.066406 C 155.375 171.1875 155.171875 171.472656 155.128906 171.554688 C 155.085938 171.632812 154.292969 170.980469 154.292969 170.980469 L 153.679688 170.367188 L 152.558594 169.960938 C 152.558594 169.960938 152.375 169.816406 152.167969 169.59375 C 151.964844 169.367188 151.535156 168.933594 151.535156 168.933594 L 152.269531 167.878906 C 152.269531 167.878906 152.617188 167.503906 152.753906 167.300781 C 152.777344 167.269531 152.792969 167.246094 152.800781 167.222656 C 152.847656 167.136719 152.84375 166.964844 152.890625 166.882812 C 152.9375 166.816406 153.019531 166.820312 153.210938 167.019531 C 153.621094 167.449219 153.78125 167.488281 153.925781 167.53125 C 154.066406 167.570312 154.332031 167.632812 154.332031 167.632812 L 154.578125 167.285156 L 154.519531 166.324219 C 154.519531 166.324219 154.523438 166.324219 154.527344 166.316406 C 154.546875 166.289062 154.585938 166.179688 154.601562 165.710938 C 154.621094 165.109375 154.699219 164.625 154.703125 164.609375 C 154.707031 164.609375 155.296875 164.710938 155.640625 164.792969 C 155.988281 164.875 156.4375 164.734375 156.640625 165.019531 C 156.839844 165.296875 157.050781 166.511719 156.976562 166.660156 C 156.972656 166.667969 156.96875 166.671875 156.96875 166.671875 C 156.960938 166.675781 156.953125 166.683594 156.949219 166.691406 C 156.878906 166.78125 156.964844 166.980469 156.964844 166.980469 L 157.378906 167.386719 L 158.335938 167.570312 L 158.828125 167.449219 L 158.195312 166.691406 L 158.480469 166.570312 L 158.847656 166.589844 L 158.953125 165.773438 C 158.953125 165.773438 158.625 165.242188 158.378906 165.160156 C 158.136719 165.078125 157.828125 164.671875 157.828125 164.671875 C 157.828125 164.671875 157.03125 163.855469 156.867188 163.75 C 156.703125 163.648438 156.296875 163.324219 156.296875 163.324219 L 155.765625 162.382812 L 155.152344 162.507812 L 155.054688 162.484375 C 155.714844 161.734375 156.417969 161.027344 157.164062 160.367188 C 157.324219 160.441406 157.40625 160.5 157.460938 160.585938 C 157.519531 160.6875 157.621094 160.894531 157.621094 160.894531 C 157.621094 160.894531 157.621094 161.179688 157.847656 161.199219 C 158.070312 161.21875 158.359375 161.179688 158.359375 161.179688 L 159.011719 161.136719 C 159.011719 161.136719 159.195312 161.078125 159.421875 161.199219 C 159.644531 161.320312 159.953125 161.402344 159.953125 161.402344 L 160.320312 161.75 C 160.320312 161.75 160.441406 161.792969 160.523438 161.957031 C 160.605469 162.117188 160.625 161.851562 160.707031 162.324219 C 160.789062 162.792969 160.871094 163.058594 160.871094 163.058594 C 160.871094 163.058594 160.929688 163.382812 160.972656 163.527344 C 161.015625 163.671875 161.117188 163.792969 161.117188 163.792969 L 161.605469 163.835938 C 161.605469 163.835938 161.789062 163.855469 161.808594 163.9375 C 161.832031 164.019531 161.871094 164.203125 161.871094 164.261719 C 161.871094 164.277344 161.867188 164.292969 161.863281 164.300781 C 161.847656 164.332031 161.808594 164.34375 161.75 164.34375 C 161.667969 164.34375 161.300781 164.363281 161.300781 164.363281 L 161.300781 164.367188 L 161.320312 164.773438 L 161.460938 164.898438 L 161.832031 164.917969 C 161.832031 164.917969 161.910156 165.039062 161.910156 165.121094 C 161.910156 165.164062 161.90625 165.1875 161.890625 165.214844 C 161.875 165.238281 161.851562 165.265625 161.808594 165.304688 C 161.726562 165.386719 161.484375 165.734375 161.484375 165.734375 C 161.484375 165.734375 161.476562 165.699219 161.472656 165.710938 C 161.464844 165.71875 161.460938 165.753906 161.460938 165.855469 C 161.460938 166.082031 161.421875 166.144531 161.542969 166.488281 C 161.667969 166.835938 161.726562 167.121094 161.726562 167.121094 C 161.726562 167.121094 161.890625 167.449219 161.933594 167.53125 C 161.972656 167.613281 162.054688 167.65625 162.199219 167.917969 C 162.339844 168.183594 162.585938 168.511719 162.585938 168.511719 L 162.832031 168.695312 C 162.832031 168.695312 162.914062 168.738281 162.996094 168.695312 C 163.074219 168.65625 163.257812 168.554688 163.257812 168.554688 C 163.257812 168.554688 163.363281 169.105469 163.75 168.878906 L 164.078125 168.0625 L 164.078125 167.675781 C 164.085938 167.671875 164.40625 167.46875 164.5 167.339844 C 164.515625 167.320312 164.523438 167.300781 164.527344 167.285156 C 164.546875 167.164062 164.667969 166.785156 164.667969 166.777344 L 165.140625 166.53125 L 165.464844 166.53125 L 165.710938 166.304688 L 166.261719 165.898438 L 166.773438 165.632812 L 167.324219 165.429688 L 168.507812 164.898438 L 169.019531 164.449219 C 169.019531 164.449219 169.019531 164.445312 169.019531 164.445312 L 168.246094 164.324219 L 168.246094 163.898438 L 168.609375 164.140625 L 168.917969 163.894531 L 169.019531 163.261719 L 169.144531 162.773438 L 169.46875 162.242188 L 169.675781 161.28125 L 169.59375 160.769531 L 169.367188 160.421875 L 169.308594 159.914062 C 169.308594 159.914062 169.285156 159.484375 169.347656 159.359375 C 169.410156 159.238281 169.65625 158.871094 169.675781 158.808594 C 169.675781 158.800781 169.6875 158.789062 169.699219 158.769531 C 169.789062 158.640625 170.089844 158.296875 170.144531 158.28125 C 170.207031 158.257812 170.777344 157.851562 170.777344 157.851562 C 170.777344 157.851562 170.574219 157.585938 170.472656 157.585938 C 170.371094 157.585938 169.59375 157.851562 169.59375 157.851562 L 169.203125 157.992188 C 169.203125 157.992188 169.0625 158.054688 168.859375 157.929688 C 168.652344 157.808594 168.367188 157.441406 168.367188 157.441406 L 168.347656 157.074219 L 168.53125 156.929688 L 167.507812 156.929688 C 167.507812 156.929688 166.628906 157.117188 166.507812 156.929688 C 166.386719 156.746094 166.242188 156.339844 166.242188 156.339844 C 166.242188 156.339844 165.691406 156.214844 165.507812 156.296875 C 165.324219 156.378906 164.507812 156.929688 164.507812 156.929688 L 164.34375 156.890625 L 163.507812 157.09375 L 162.851562 157.054688 L 162.015625 157.054688 L 161.855469 157.097656 C 165.242188 155.289062 169.101562 154.261719 173.199219 154.261719 C 179.648438 154.261719 185.511719 156.800781 189.851562 160.933594 C 189.757812 161.003906 189.679688 161.046875 189.570312 161.109375 C 189.445312 161.179688 189.289062 161.191406 189.289062 161.191406 C 189.289062 161.191406 188.792969 161.199219 188.71875 161.21875 C 188.644531 161.238281 188.527344 161.265625 188.527344 161.265625 C 188.527344 161.265625 188.296875 161.347656 188.207031 161.425781 C 188.121094 161.496094 187.945312 161.632812 187.941406 161.632812 C 187.941406 161.632812 187.90625 161.859375 187.804688 161.996094 C 187.703125 162.132812 187.617188 162.199219 187.617188 162.199219 C 187.617188 162.199219 187.492188 162.3125 187.382812 162.410156 C 187.289062 162.492188 187.113281 162.546875 187.042969 162.640625 C 187.03125 162.652344 187.023438 162.667969 187.015625 162.683594 C 186.96875 162.804688 186.949219 162.875 186.875 163.042969 C 186.796875 163.214844 186.746094 163.308594 186.730469 163.378906 C 186.714844 163.445312 186.6875 163.554688 186.6875 163.554688 C 186.6875 163.554688 186.65625 163.675781 186.675781 163.757812 C 186.695312 163.839844 186.722656 164.011719 186.804688 164.105469 C 186.886719 164.203125 187.21875 164.269531 187.21875 164.269531 L 187.355469 164.289062 C 187.355469 164.289062 187.5625 164.3125 187.636719 164.332031 C 187.710938 164.351562 187.875 164.367188 187.875 164.367188 C 187.875 164.367188 187.871094 164.363281 187.871094 164.363281 C 187.871094 164.363281 187.875 164.363281 187.875 164.363281 C 187.875 164.363281 187.574219 164.085938 187.554688 164.0625 C 187.535156 164.042969 187.480469 163.875 187.480469 163.875 L 187.417969 163.574219 L 187.417969 163.398438 L 187.445312 163.207031 L 187.621094 162.976562 L 187.914062 162.621094 C 187.914062 162.621094 188.140625 162.382812 188.222656 162.289062 C 188.304688 162.195312 188.480469 162.042969 188.480469 162.042969 L 188.886719 161.777344 C 188.886719 161.777344 189.023438 161.675781 189.167969 161.628906 C 189.308594 161.582031 189.515625 161.492188 189.664062 161.457031 C 189.8125 161.425781 190.011719 161.390625 190.148438 161.328125 C 190.171875 161.320312 190.195312 161.308594 190.222656 161.292969 C 190.875 161.945312 191.492188 162.628906 192.066406 163.351562 L 192.019531 163.363281 L 191.898438 163.628906 L 191.875 163.875 L 191.917969 164.285156 L 192 164.40625 L 192.40625 164.976562 C 192.390625 164.976562 192.117188 164.9375 192.019531 164.976562 C 192.015625 164.980469 192.007812 164.984375 192.003906 164.988281 C 191.929688 165.066406 192.019531 165.40625 192.019531 165.40625 L 191.835938 165.917969 L 191.570312 165.9375 L 191.570312 164.261719 L 191.46875 163.628906 L 191.570312 163.261719 C 191.570312 163.261719 191.230469 162.832031 191.175781 162.820312 C 191.121094 162.804688 190.796875 162.941406 190.796875 162.941406 C 190.796875 162.941406 190.792969 162.941406 190.792969 162.941406 L 190.601562 163.460938 C 190.601562 163.460938 190.34375 163.992188 190.34375 164.203125 L 190.34375 164.671875 C 190.34375 164.671875 190.535156 165.054688 190.574219 165.09375 C 190.582031 165.101562 190.582031 165.117188 190.570312 165.132812 C 190.523438 165.203125 190.34375 165.339844 190.34375 165.339844 L 189.554688 164.902344 L 189.039062 164.734375 L 188.773438 164.546875 L 188.265625 164.496094 L 188.269531 164.5 L 188.265625 164.5 C 188.265625 164.5 188.628906 164.796875 188.628906 164.796875 L 188.628906 165.203125 L 188.363281 165.183594 L 187.996094 165.160156 L 187.667969 165.304688 L 187.21875 165.445312 L 187.078125 165.058594 L 186.484375 165.386719 L 186.035156 165.753906 L 185.832031 165.894531 L 185.238281 166.203125 L 184.992188 165.917969 L 185.238281 165.488281 C 185.238281 165.488281 184.953125 165.242188 184.890625 165.242188 C 184.832031 165.242188 184.726562 165.363281 184.726562 165.363281 C 184.726562 165.363281 184.726562 165.367188 184.726562 165.367188 L 184.726562 165.917969 L 184.585938 166.34375 L 184.203125 166.367188 L 183.890625 166.570312 L 183.890625 167 L 183.054688 166.796875 C 183.054688 166.796875 183.050781 166.796875 183.050781 166.796875 L 183.214844 167.164062 L 183.113281 167.449219 L 182.929688 167.429688 L 182.5625 166.878906 L 182.441406 166.714844 L 182.398438 166.367188 C 182.410156 166.367188 182.871094 166.429688 182.929688 166.429688 L 183.238281 166.429688 C 183.238281 166.429688 183.582031 166.410156 183.664062 166.386719 C 183.746094 166.367188 184.113281 166.222656 184.175781 166.183594 C 184.179688 166.179688 184.183594 166.175781 184.1875 166.171875 C 184.230469 166.097656 184.175781 165.753906 184.175781 165.753906 L 183.359375 165.304688 L 182.746094 165.078125 L 182.503906 164.957031 L 182.09375 164.710938 L 181.808594 164.589844 L 181.5 164.363281 C 181.5 164.363281 181.214844 164.324219 181.15625 164.324219 L 180.949219 164.324219 L 180.480469 164.199219 C 180.480469 164.199219 179.601562 164.363281 179.519531 164.382812 C 179.4375 164.40625 178.949219 164.566406 178.949219 164.566406 L 178.539062 164.710938 L 178.152344 164.996094 L 177.722656 165.589844 L 177.539062 165.730469 L 177.539062 165.734375 L 177.046875 167.019531 L 176.414062 167.507812 L 176.046875 167.671875 L 175.679688 167.816406 L 175.476562 168.550781 L 175.535156 168.917969 L 175.679688 169.613281 L 175.84375 169.734375 C 175.84375 169.734375 176.1875 169.511719 176.292969 169.417969 C 176.394531 169.328125 176.761719 169.417969 176.761719 169.417969 L 177.046875 169.816406 C 177.046875 169.816406 177.25 170.164062 177.292969 170.183594 C 177.332031 170.207031 177.292969 170.539062 177.292969 170.550781 L 177.007812 170.550781 L 176.863281 170.511719 L 176.699219 169.960938 L 176.375 170.0625 L 176.128906 170.265625 L 176.269531 170.898438 L 176.210938 171.246094 L 175.84375 171.472656 L 175.167969 171.960938 L 174.78125 171.941406 L 174.433594 171.898438 L 174.371094 171.308594 L 173.65625 170.777344 L 173.421875 169.960938 L 173.535156 169.808594 L 173.535156 169.804688 L 173.308594 169.417969 L 172.992188 169.5625 C 172.992188 169.5625 172.757812 169.613281 172.726562 169.613281 C 172.726562 169.613281 172.722656 169.613281 172.722656 169.617188 C 172.691406 169.664062 172.644531 170.042969 172.65625 170.082031 C 172.664062 170.125 172.753906 170.554688 172.757812 170.5625 L 172.59375 170.644531 L 172.144531 171.011719 L 171.910156 171.246094 L 171.980469 171.542969 L 171.839844 172.023438 L 172.277344 172.054688 L 172.535156 171.941406 L 172.738281 171.847656 L 172.75 171.5 L 172.75 171.207031 L 172.996094 171.207031 L 172.996094 171.011719 L 173.320312 171.011719 L 173.402344 171.144531 L 173.421875 171.511719 L 173.199219 171.511719 L 173.074219 171.890625 L 173.199219 172.054688 L 173.472656 172.15625 L 172.992188 172.410156 L 172.992188 172.617188 L 173.308594 172.511719 L 173.554688 172.484375 L 174.023438 172.402344 L 174.492188 172.253906 L 174.574219 172.621094 L 174.195312 172.867188 L 174.046875 172.824219 L 173.773438 172.769531 L 173.773438 172.773438 L 173.746094 173.097656 L 173.214844 173.027344 L 173.214844 173.03125 L 173.171875 173.25 L 173.691406 173.464844 L 174.042969 173.902344 L 173.972656 174.285156 L 173.921875 174.570312 L 173.839844 174.726562 L 173.800781 174.742188 L 173.558594 174.769531 L 173.355469 174.769531 L 173.027344 174.78125 L 172.59375 174.703125 L 172.355469 174.675781 L 172.121094 174.78125 L 172.023438 174.886719 C 172.023438 174.886719 172.09375 175.054688 172.109375 175.0625 C 172.125 175.066406 172.113281 175.261719 172.113281 175.261719 L 172.140625 175.527344 L 172.125 175.746094 L 171.976562 175.984375 L 172.105469 176.097656 L 172.121094 176.3125 L 172.058594 176.476562 L 172.253906 176.53125 L 172.445312 176.472656 L 172.535156 176.484375 L 172.722656 176.632812 L 172.792969 176.824219 L 172.820312 176.890625 L 172.675781 176.882812 L 172.390625 177.25 L 171.941406 177.597656 L 171.816406 177.964844 L 171.816406 178.3125 L 171.328125 178.640625 L 170.960938 178.949219 L 170.574219 179.273438 C 170.574219 179.273438 170.570312 179.273438 170.570312 179.273438 L 170.347656 179.765625 L 169.980469 180.316406 L 170.144531 180.828125 L 170.304688 181.253906 L 170.183594 181.542969 L 170.140625 181.867188 L 170.203125 182.152344 L 170.121094 182.519531 L 170.367188 182.785156 L 170.714844 183.175781 L 170.9375 183.378906 C 170.9375 183.378906 171.121094 183.664062 171.121094 183.746094 C 171.121094 183.828125 171.386719 183.972656 171.449219 184.011719 C 171.511719 184.054688 172.042969 184.480469 172.042969 184.480469 L 172.328125 184.5625 L 172.53125 184.5625 L 172.914062 184.421875 L 174.289062 184.542969 L 174.839844 184.421875 L 175.675781 184.6875 L 176.414062 184.929688 L 176.34375 186.019531 L 177.027344 186.914062 L 177.394531 187.6875 L 177.394531 188.464844 L 177.144531 189.039062 C 177.144531 189.039062 177.027344 189.792969 177.003906 189.894531 C 176.984375 189.996094 177.269531 190.628906 177.269531 190.628906 L 177.660156 191.570312 C 177.660156 191.570312 177.761719 191.980469 177.800781 192.082031 C 177.84375 192.183594 178.191406 192.734375 178.191406 192.734375 L 178.476562 193.226562 L 178.535156 193.714844 C 178.535156 193.714844 178.742188 194.101562 178.863281 194.101562 C 178.988281 194.101562 180.089844 193.980469 180.089844 193.980469 L 181.007812 193.59375 L 181.519531 193.042969 C 181.519531 193.042969 181.519531 193.039062 181.519531 193.039062 L 182.070312 192.019531 L 182.171875 191.632812 L 182.480469 191.53125 L 182.480469 191.527344 L 182.664062 190.957031 L 182.542969 190.425781 L 182.96875 190.101562 L 183.664062 189.570312 L 183.910156 189.367188 C 183.910156 189.367188 183.910156 189.363281 183.910156 189.363281 L 183.910156 187.996094 L 183.664062 187.503906 L 183.644531 186.953125 L 183.910156 186.320312 L 184.542969 185.75 L 185.277344 184.933594 L 185.851562 184.546875 L 185.851562 184.542969 L 186.15625 183.929688 L 186.382812 183.011719 L 186.382812 182.789062 L 185.320312 183.03125 L 184.828125 183.03125 L 184.402344 182.683594 C 184.402344 182.683594 184.21875 182.257812 184.15625 182.234375 C 184.09375 182.214844 183.910156 182.074219 183.910156 182.074219 L 183.339844 180.949219 L 182.992188 180.296875 L 182.441406 179.457031 L 182.238281 178.664062 L 182.523438 178.664062 L 182.789062 179.152344 L 183.238281 179.625 L 183.5 180.339844 L 183.972656 180.789062 C 183.972656 180.789062 184.320312 181.214844 184.402344 181.441406 C 184.480469 181.664062 184.503906 181.746094 184.542969 181.890625 C 184.585938 182.03125 184.6875 182.523438 184.6875 182.523438 L 184.890625 182.585938 L 185.585938 182.339844 L 185.953125 182.113281 L 186.28125 181.890625 C 186.28125 181.890625 186.871094 181.664062 186.996094 181.625 C 187.117188 181.582031 187.523438 181.417969 187.566406 181.359375 C 187.605469 181.296875 187.953125 180.910156 187.953125 180.910156 L 188.160156 180.625 L 188.160156 180.621094 L 188.382812 180.296875 L 188.199219 179.804688 L 187.855469 179.621094 L 187.566406 179.480469 L 186.894531 179.804688 L 186.445312 179.683594 L 185.832031 178.953125 L 185.710938 178.476562 L 185.75 178.347656 L 185.75 178.34375 C 185.75 178.34375 186.054688 178.316406 186.054688 178.316406 L 186.332031 178.527344 L 186.710938 178.886719 L 186.996094 179.101562 L 187.496094 178.953125 L 187.773438 179.273438 L 188.230469 179.519531 L 189.039062 179.378906 L 189.550781 179.316406 L 190.324219 179.929688 L 190.53125 180.378906 L 191.203125 180.601562 L 191.511719 180.398438 L 191.59375 180.847656 L 191.753906 181.523438 L 191.9375 181.929688 L 192.042969 182.402344 L 192.714844 183.6875 C 192.714844 183.6875 192.832031 183.542969 192.925781 183.433594 C 192.957031 183.398438 192.980469 183.363281 193 183.339844 C 193.082031 183.238281 193.277344 183.121094 193.285156 183.117188 L 193.203125 182.765625 L 193.183594 182.6875 L 193.375 182.308594 C 193.375 182.308594 193.375 182.3125 193.375 182.3125 L 193.777344 181.523438 C 193.777344 181.523438 194.308594 181.277344 194.308594 181.277344 L 194.554688 181.074219 L 194.941406 180.523438 L 195.433594 180.296875 C 195.433594 180.296875 195.984375 180.644531 196.042969 180.644531 C 196.105469 180.644531 196.351562 180.847656 196.351562 180.847656 L 196.515625 181.011719 L 196.636719 181.398438 L 196.757812 181.871094 L 196.863281 181.808594 L 197.152344 181.625 C 195.585938 193.445312 185.441406 202.59375 173.199219 202.59375 Z M 173.195312 202.597656 " fill-opacity="1" fill-rule="nonzero"/></g><path fill="#ffffff" d="M 185.929688 188.40625 L 185.929688 188.410156 C 185.929688 188.410156 185.621094 188.898438 185.621094 188.898438 L 185.488281 189.050781 C 185.488281 189.050781 185.367188 189.164062 185.214844 189.222656 C 185.0625 189.285156 184.90625 189.386719 184.90625 189.386719 C 184.90625 189.386719 184.832031 189.429688 184.765625 189.523438 C 184.742188 189.554688 184.71875 189.589844 184.703125 189.632812 C 184.632812 189.808594 184.640625 190.164062 184.640625 190.164062 L 184.722656 190.347656 L 184.527344 190.828125 L 184.527344 191.03125 L 184.625 191.390625 L 184.722656 191.59375 L 185.488281 191.480469 L 185.53125 190.96875 L 185.695312 190.625 C 185.695312 190.625 185.777344 190.410156 185.785156 190.347656 C 185.796875 190.285156 185.867188 190.152344 185.898438 189.980469 C 185.929688 189.804688 186.019531 189.4375 186.019531 189.4375 L 186.101562 189.183594 C 186.101562 189.183594 186.152344 189.050781 186.152344 188.96875 C 186.152344 188.886719 186.09375 188.613281 186.09375 188.613281 Z M 185.929688 188.40625 " fill-opacity="1" fill-rule="nonzero"/><path fill="#ffffff" d="M 193.199219 182.765625 C 193.257812 182.613281 193.316406 182.464844 193.371094 182.3125 L 193.179688 182.6875 Z M 193.199219 182.765625 " fill-opacity="1" fill-rule="nonzero"/><path fill="#ffffff" d="M 185.957031 165.203125 C 186.058594 165.15625 186.253906 165.046875 186.253906 165.046875 C 186.253906 165.046875 186.179688 164.882812 186.140625 164.871094 C 186.097656 164.855469 185.96875 164.824219 185.96875 164.824219 L 185.785156 164.816406 L 185.664062 165.015625 L 185.75 165.273438 C 185.75 165.273438 185.851562 165.253906 185.957031 165.203125 Z M 185.957031 165.203125 " fill-opacity="1" fill-rule="nonzero"/><path fill="#ffffff" d="M 170.664062 167.203125 L 171.191406 167.046875 L 171.484375 166.847656 L 171.296875 166.5625 L 170.9375 166.226562 L 170.675781 166.171875 L 170.160156 166.414062 L 169.785156 166.457031 L 169.417969 166.238281 L 169.226562 166.152344 L 168.859375 166.351562 L 169.164062 166.605469 L 169.332031 167.128906 L 169.414062 167.339844 C 169.414062 167.339844 169.605469 167.476562 169.667969 167.488281 C 169.730469 167.496094 169.917969 167.496094 169.917969 167.496094 C 169.917969 167.496094 170.351562 167.433594 170.402344 167.382812 C 170.453125 167.328125 170.664062 167.203125 170.664062 167.203125 Z M 170.664062 167.203125 " fill-opacity="1" fill-rule="nonzero"/><g fill="#f2632a" fill-opacity="1"><g transform="translate(277.524421, 204.164636)"><g><path d="M 24.515625 -59.875 L 41.140625 -59.875 L 41.140625 0 L 24.515625 0 Z M 19.84375 -42.890625 L 19.84375 0 C 13.894531 -0.59375 9.296875 -2.753906 6.046875 -6.484375 C 2.804688 -10.222656 1.1875 -15.226562 1.1875 -21.5 C 1.1875 -27.695312 2.820312 -32.675781 6.09375 -36.4375 C 9.363281 -40.195312 13.945312 -42.347656 19.84375 -42.890625 Z M 19.84375 -42.890625 "/></g></g></g><g fill="#f2632a" fill-opacity="1"><g transform="translate(208.72196, 204.135844)"><g><path d="M 31.921875 0 L 3.609375 0 L 3.609375 -80.84375 L 31.921875 -80.84375 Z M 34.265625 -80.84375 L 62.25 -80.84375 L 62.25 -49.6875 Z M 51.59375 -25.421875 L 33.9375 -42.078125 L 51.59375 -58.75 Z M 34.265625 0 L 62.6875 -36.40625 L 62.6875 0 Z M 34.265625 0 "/></g></g></g><g fill="#000000" fill-opacity="1"><g transform="translate(40.274901, 217.372114)"><g><path d="M 14.84375 -8.65625 L 16.359375 -8.65625 L 13.328125 0 L 11.59375 0 L 8.265625 -7.125 L 4.953125 0 L 3.21875 0 L 0.1875 -8.65625 L 1.703125 -8.65625 L 4.125 -1.75 L 7.34375 -8.65625 L 9.203125 -8.65625 L 12.421875 -1.75 Z M 14.84375 -8.65625 "/></g></g></g><g fill="#000000" fill-opacity="1"><g transform="translate(56.807744, 217.372114)"><g><path d="M 10.921875 -7.34375 L 3.265625 -7.34375 L 3.265625 -4.875 L 10.015625 -4.875 L 10.015625 -3.5625 L 3.265625 -3.5625 L 3.265625 -1.3125 L 10.921875 -1.3125 L 10.921875 0 L 1.796875 0 L 1.796875 -8.65625 L 10.921875 -8.65625 Z M 10.921875 -7.34375 "/></g></g></g><g fill="#000000" fill-opacity="1"><g transform="translate(68.59425, 217.372114)"><g/></g></g><g fill="#000000" fill-opacity="1"><g transform="translate(74.364872, 217.372114)"><g><path d="M 9.5625 0 L 8.703125 -1.546875 L 2.609375 -1.546875 L 1.765625 0 L 0.078125 0 L 4.828125 -8.625 L 4.796875 -8.65625 L 6.53125 -8.65625 L 6.515625 -8.625 L 11.25 0 Z M 3.40625 -2.984375 L 7.90625 -2.984375 L 5.65625 -7.09375 Z M 3.40625 -2.984375 "/></g></g></g><g fill="#000000" fill-opacity="1"><g transform="translate(85.675296, 217.372114)"><g><path d="M 1.796875 0 L 1.796875 -8.65625 L 3.265625 -8.65625 L 3.265625 0 Z M 1.796875 0 "/></g></g></g><g fill="#000000" fill-opacity="1"><g transform="translate(90.724588, 217.372114)"><g><path d="M 14.8125 -8.65625 L 14.8125 0 L 13.34375 0 L 13.34375 -6.859375 L 9.140625 -0.03125 L 9.15625 0 L 7.375 0 L 7.40625 -0.03125 L 3.265625 -6.828125 L 3.265625 0 L 1.796875 0 L 1.796875 -8.65625 L 3.890625 -8.65625 L 8.265625 -1.4375 L 12.71875 -8.65625 Z M 14.8125 -8.65625 "/></g></g></g><g fill="#000000" fill-opacity="1"><g transform="translate(107.315137, 217.372114)"><g/></g></g><g fill="#000000" fill-opacity="1"><g transform="translate(113.08576, 217.372114)"><g><path d="M 10.921875 -7.34375 L 3.265625 -7.34375 L 3.265625 -4.828125 L 10.015625 -4.828125 L 10.015625 -3.515625 L 3.265625 -3.515625 L 3.265625 0 L 1.796875 0 L 1.796875 -8.65625 L 10.921875 -8.65625 Z M 10.921875 -7.34375 "/></g></g></g><g fill="#000000" fill-opacity="1"><g transform="translate(124.251919, 217.372114)"><g><path d="M 7.015625 0.140625 C 5.898438 0.140625 4.96875 0.0234375 4.21875 -0.203125 C 3.46875 -0.429688 2.867188 -0.742188 2.421875 -1.140625 C 1.972656 -1.546875 1.648438 -1.992188 1.453125 -2.484375 C 1.253906 -2.984375 1.15625 -3.492188 1.15625 -4.015625 L 1.15625 -4.65625 C 1.15625 -5.1875 1.253906 -5.703125 1.453125 -6.203125 C 1.648438 -6.703125 1.972656 -7.148438 2.421875 -7.546875 C 2.867188 -7.941406 3.46875 -8.253906 4.21875 -8.484375 C 4.96875 -8.722656 5.898438 -8.84375 7.015625 -8.84375 C 8.109375 -8.84375 9.03125 -8.726562 9.78125 -8.5 C 10.539062 -8.28125 11.144531 -7.972656 11.59375 -7.578125 C 12.039062 -7.191406 12.363281 -6.75 12.5625 -6.25 C 12.769531 -5.757812 12.875 -5.242188 12.875 -4.703125 L 12.875 -4.078125 C 12.875 -3.566406 12.78125 -3.054688 12.59375 -2.546875 C 12.40625 -2.046875 12.085938 -1.59375 11.640625 -1.1875 C 11.203125 -0.78125 10.601562 -0.457031 9.84375 -0.21875 C 9.09375 0.0195312 8.148438 0.140625 7.015625 0.140625 Z M 7.015625 -1.296875 C 8.097656 -1.296875 8.957031 -1.410156 9.59375 -1.640625 C 10.226562 -1.867188 10.679688 -2.175781 10.953125 -2.5625 C 11.234375 -2.945312 11.375 -3.382812 11.375 -3.875 L 11.375 -4.5 C 11.375 -5.039062 11.222656 -5.53125 10.921875 -5.96875 C 10.617188 -6.40625 10.144531 -6.753906 9.5 -7.015625 C 8.851562 -7.273438 8.023438 -7.40625 7.015625 -7.40625 C 5.972656 -7.40625 5.128906 -7.285156 4.484375 -7.046875 C 3.847656 -6.804688 3.382812 -6.476562 3.09375 -6.0625 C 2.800781 -5.644531 2.65625 -5.175781 2.65625 -4.65625 L 2.65625 -4.015625 C 2.65625 -3.503906 2.800781 -3.039062 3.09375 -2.625 C 3.382812 -2.21875 3.847656 -1.894531 4.484375 -1.65625 C 5.128906 -1.414062 5.972656 -1.296875 7.015625 -1.296875 Z M 7.015625 -1.296875 "/></g></g></g><g fill="#000000" fill-opacity="1"><g transform="translate(138.274537, 217.372114)"><g><path d="M 12.046875 -6.140625 C 12.046875 -5.515625 11.921875 -5.039062 11.671875 -4.71875 C 11.421875 -4.394531 11.085938 -4.164062 10.671875 -4.03125 C 11.085938 -3.800781 11.390625 -3.5 11.578125 -3.125 C 11.773438 -2.75 11.875 -2.335938 11.875 -1.890625 L 11.875 -0.859375 C 11.875 -0.710938 11.878906 -0.566406 11.890625 -0.421875 C 11.898438 -0.273438 11.914062 -0.132812 11.9375 0 L 10.25 0 C 10.226562 -0.132812 10.210938 -0.269531 10.203125 -0.40625 C 10.191406 -0.550781 10.1875 -0.6875 10.1875 -0.8125 L 10.1875 -1.78125 C 10.1875 -2.007812 10.164062 -2.242188 10.125 -2.484375 C 10.09375 -2.722656 9.972656 -2.925781 9.765625 -3.09375 C 9.566406 -3.257812 9.222656 -3.34375 8.734375 -3.34375 L 3.359375 -3.34375 L 3.359375 0 L 1.796875 0 L 1.796875 -8.65625 L 9.34375 -8.65625 C 10.1875 -8.65625 10.847656 -8.457031 11.328125 -8.0625 C 11.804688 -7.664062 12.046875 -7.078125 12.046875 -6.296875 Z M 3.359375 -4.890625 L 9.34375 -4.890625 C 9.757812 -4.890625 10.0625 -5.007812 10.25 -5.25 C 10.445312 -5.5 10.546875 -5.796875 10.546875 -6.140625 L 10.546875 -6.296875 C 10.546875 -6.441406 10.515625 -6.582031 10.453125 -6.71875 C 10.390625 -6.863281 10.269531 -6.984375 10.09375 -7.078125 C 9.914062 -7.171875 9.664062 -7.21875 9.34375 -7.21875 L 3.359375 -7.21875 Z M 3.359375 -4.890625 "/></g></g></g><g fill="#000000" fill-opacity="1"><g transform="translate(151.388281, 217.372114)"><g/></g></g><g fill="#000000" fill-opacity="1"><g transform="translate(157.158904, 217.372114)"><g><path d="M 9.03125 -8.65625 L 11.046875 -8.65625 L 6.234375 -3.171875 L 6.234375 0 L 4.765625 0 L 4.765625 -3.1875 L 4.53125 -3.46875 L 4.515625 -3.46875 L -0.03125 -8.65625 L 1.984375 -8.65625 L 5.515625 -4.609375 Z M 9.03125 -8.65625 "/></g></g></g><g fill="#000000" fill-opacity="1"><g transform="translate(168.1808, 217.372114)"><g><path d="M 7.015625 0.140625 C 5.898438 0.140625 4.96875 0.0234375 4.21875 -0.203125 C 3.46875 -0.429688 2.867188 -0.742188 2.421875 -1.140625 C 1.972656 -1.546875 1.648438 -1.992188 1.453125 -2.484375 C 1.253906 -2.984375 1.15625 -3.492188 1.15625 -4.015625 L 1.15625 -4.65625 C 1.15625 -5.1875 1.253906 -5.703125 1.453125 -6.203125 C 1.648438 -6.703125 1.972656 -7.148438 2.421875 -7.546875 C 2.867188 -7.941406 3.46875 -8.253906 4.21875 -8.484375 C 4.96875 -8.722656 5.898438 -8.84375 7.015625 -8.84375 C 8.109375 -8.84375 9.03125 -8.726562 9.78125 -8.5 C 10.539062 -8.28125 11.144531 -7.972656 11.59375 -7.578125 C 12.039062 -7.191406 12.363281 -6.75 12.5625 -6.25 C 12.769531 -5.757812 12.875 -5.242188 12.875 -4.703125 L 12.875 -4.078125 C 12.875 -3.566406 12.78125 -3.054688 12.59375 -2.546875 C 12.40625 -2.046875 12.085938 -1.59375 11.640625 -1.1875 C 11.203125 -0.78125 10.601562 -0.457031 9.84375 -0.21875 C 9.09375 0.0195312 8.148438 0.140625 7.015625 0.140625 Z M 7.015625 -1.296875 C 8.097656 -1.296875 8.957031 -1.410156 9.59375 -1.640625 C 10.226562 -1.867188 10.679688 -2.175781 10.953125 -2.5625 C 11.234375 -2.945312 11.375 -3.382812 11.375 -3.875 L 11.375 -4.5 C 11.375 -5.039062 11.222656 -5.53125 10.921875 -5.96875 C 10.617188 -6.40625 10.144531 -6.753906 9.5 -7.015625 C 8.851562 -7.273438 8.023438 -7.40625 7.015625 -7.40625 C 5.972656 -7.40625 5.128906 -7.285156 4.484375 -7.046875 C 3.847656 -6.804688 3.382812 -6.476562 3.09375 -6.0625 C 2.800781 -5.644531 2.65625 -5.175781 2.65625 -4.65625 L 2.65625 -4.015625 C 2.65625 -3.503906 2.800781 -3.039062 3.09375 -2.625 C 3.382812 -2.21875 3.847656 -1.894531 4.484375 -1.65625 C 5.128906 -1.414062 5.972656 -1.296875 7.015625 -1.296875 Z M 7.015625 -1.296875 "/></g></g></g><g fill="#000000" fill-opacity="1"><g transform="translate(182.203418, 217.372114)"><g><path d="M 6.53125 0.140625 C 5.40625 0.140625 4.492188 0.0234375 3.796875 -0.203125 C 3.097656 -0.429688 2.554688 -0.742188 2.171875 -1.140625 C 1.796875 -1.546875 1.535156 -1.992188 1.390625 -2.484375 C 1.242188 -2.984375 1.171875 -3.492188 1.171875 -4.015625 L 1.234375 -8.640625 L 2.84375 -8.640625 L 2.84375 -4.015625 C 2.84375 -3.503906 2.96875 -3.050781 3.21875 -2.65625 C 3.46875 -2.257812 3.863281 -1.953125 4.40625 -1.734375 C 4.945312 -1.515625 5.65625 -1.40625 6.53125 -1.40625 C 7.4375 -1.40625 8.15625 -1.507812 8.6875 -1.71875 C 9.226562 -1.925781 9.613281 -2.226562 9.84375 -2.625 C 10.082031 -3.019531 10.203125 -3.484375 10.203125 -4.015625 L 10.28125 -8.640625 L 11.875 -8.640625 L 11.875 -4.21875 C 11.875 -3.664062 11.804688 -3.128906 11.671875 -2.609375 C 11.535156 -2.085938 11.28125 -1.617188 10.90625 -1.203125 C 10.53125 -0.796875 9.988281 -0.46875 9.28125 -0.21875 C 8.582031 0.0195312 7.664062 0.140625 6.53125 0.140625 Z M 6.53125 0.140625 "/></g></g></g><g fill="#000000" fill-opacity="1"><g transform="translate(195.331588, 217.372114)"><g><path d="M 12.046875 -6.140625 C 12.046875 -5.515625 11.921875 -5.039062 11.671875 -4.71875 C 11.421875 -4.394531 11.085938 -4.164062 10.671875 -4.03125 C 11.085938 -3.800781 11.390625 -3.5 11.578125 -3.125 C 11.773438 -2.75 11.875 -2.335938 11.875 -1.890625 L 11.875 -0.859375 C 11.875 -0.710938 11.878906 -0.566406 11.890625 -0.421875 C 11.898438 -0.273438 11.914062 -0.132812 11.9375 0 L 10.25 0 C 10.226562 -0.132812 10.210938 -0.269531 10.203125 -0.40625 C 10.191406 -0.550781 10.1875 -0.6875 10.1875 -0.8125 L 10.1875 -1.78125 C 10.1875 -2.007812 10.164062 -2.242188 10.125 -2.484375 C 10.09375 -2.722656 9.972656 -2.925781 9.765625 -3.09375 C 9.566406 -3.257812 9.222656 -3.34375 8.734375 -3.34375 L 3.359375 -3.34375 L 3.359375 0 L 1.796875 0 L 1.796875 -8.65625 L 9.34375 -8.65625 C 10.1875 -8.65625 10.847656 -8.457031 11.328125 -8.0625 C 11.804688 -7.664062 12.046875 -7.078125 12.046875 -6.296875 Z M 3.359375 -4.890625 L 9.34375 -4.890625 C 9.757812 -4.890625 10.0625 -5.007812 10.25 -5.25 C 10.445312 -5.5 10.546875 -5.796875 10.546875 -6.140625 L 10.546875 -6.296875 C 10.546875 -6.441406 10.515625 -6.582031 10.453125 -6.71875 C 10.390625 -6.863281 10.269531 -6.984375 10.09375 -7.078125 C 9.914062 -7.171875 9.664062 -7.21875 9.34375 -7.21875 L 3.359375 -7.21875 Z M 3.359375 -4.890625 "/></g></g></g><g fill="#000000" fill-opacity="1"><g transform="translate(208.445333, 217.372114)"><g/></g></g><g fill="#000000" fill-opacity="1"><g transform="translate(214.215955, 217.372114)"><g><path d="M 10.921875 -7.34375 L 3.265625 -7.34375 L 3.265625 -4.875 L 10.015625 -4.875 L 10.015625 -3.5625 L 3.265625 -3.5625 L 3.265625 -1.3125 L 10.921875 -1.3125 L 10.921875 0 L 1.796875 0 L 1.796875 -8.65625 L 10.921875 -8.65625 Z M 10.921875 -7.34375 "/></g></g></g><g fill="#000000" fill-opacity="1"><g transform="translate(226.002461, 217.372114)"><g><path d="M 6.875 -8.65625 C 7.9375 -8.65625 8.820312 -8.582031 9.53125 -8.4375 C 10.25 -8.289062 10.820312 -8.082031 11.25 -7.8125 C 11.675781 -7.539062 11.992188 -7.226562 12.203125 -6.875 C 12.421875 -6.53125 12.5625 -6.15625 12.625 -5.75 C 12.695312 -5.34375 12.734375 -4.925781 12.734375 -4.5 L 12.734375 -3.875 C 12.734375 -3.46875 12.695312 -3.070312 12.625 -2.6875 C 12.5625 -2.3125 12.421875 -1.957031 12.203125 -1.625 C 11.992188 -1.300781 11.675781 -1.015625 11.25 -0.765625 C 10.820312 -0.523438 10.25 -0.335938 9.53125 -0.203125 C 8.820312 -0.0664062 7.9375 0 6.875 0 L 1.796875 0 L 1.796875 -8.65625 Z M 11.234375 -3.875 L 11.234375 -4.5 C 11.234375 -4.882812 11.1875 -5.242188 11.09375 -5.578125 C 11.007812 -5.910156 10.828125 -6.195312 10.546875 -6.4375 C 10.265625 -6.6875 9.832031 -6.878906 9.25 -7.015625 C 8.664062 -7.148438 7.875 -7.21875 6.875 -7.21875 L 3.265625 -7.21875 L 3.265625 -1.4375 L 6.875 -1.4375 C 7.914062 -1.4375 8.726562 -1.492188 9.3125 -1.609375 C 9.90625 -1.734375 10.335938 -1.898438 10.609375 -2.109375 C 10.890625 -2.328125 11.0625 -2.582031 11.125 -2.875 C 11.195312 -3.175781 11.234375 -3.507812 11.234375 -3.875 Z M 11.234375 -3.875 "/></g></g></g><g fill="#000000" fill-opacity="1"><g transform="translate(239.880815, 217.372114)"><g><path d="M 6.53125 0.140625 C 5.40625 0.140625 4.492188 0.0234375 3.796875 -0.203125 C 3.097656 -0.429688 2.554688 -0.742188 2.171875 -1.140625 C 1.796875 -1.546875 1.535156 -1.992188 1.390625 -2.484375 C 1.242188 -2.984375 1.171875 -3.492188 1.171875 -4.015625 L 1.234375 -8.640625 L 2.84375 -8.640625 L 2.84375 -4.015625 C 2.84375 -3.503906 2.96875 -3.050781 3.21875 -2.65625 C 3.46875 -2.257812 3.863281 -1.953125 4.40625 -1.734375 C 4.945312 -1.515625 5.65625 -1.40625 6.53125 -1.40625 C 7.4375 -1.40625 8.15625 -1.507812 8.6875 -1.71875 C 9.226562 -1.925781 9.613281 -2.226562 9.84375 -2.625 C 10.082031 -3.019531 10.203125 -3.484375 10.203125 -4.015625 L 10.28125 -8.640625 L 11.875 -8.640625 L 11.875 -4.21875 C 11.875 -3.664062 11.804688 -3.128906 11.671875 -2.609375 C 11.535156 -2.085938 11.28125 -1.617188 10.90625 -1.203125 C 10.53125 -0.796875 9.988281 -0.46875 9.28125 -0.21875 C 8.582031 0.0195312 7.664062 0.140625 6.53125 0.140625 Z M 6.53125 0.140625 "/></g></g></g><g fill="#000000" fill-opacity="1"><g transform="translate(253.008985, 217.372114)"><g><path d="M 7.015625 0.140625 C 5.898438 0.140625 4.96875 0.0234375 4.21875 -0.203125 C 3.46875 -0.441406 2.867188 -0.765625 2.421875 -1.171875 C 1.972656 -1.585938 1.648438 -2.050781 1.453125 -2.5625 C 1.253906 -3.082031 1.15625 -3.628906 1.15625 -4.203125 L 1.15625 -4.5 C 1.15625 -5.070312 1.253906 -5.617188 1.453125 -6.140625 C 1.648438 -6.660156 1.972656 -7.125 2.421875 -7.53125 C 2.867188 -7.9375 3.46875 -8.253906 4.21875 -8.484375 C 4.96875 -8.722656 5.898438 -8.84375 7.015625 -8.84375 C 8.222656 -8.84375 9.25 -8.6875 10.09375 -8.375 C 10.945312 -8.070312 11.601562 -7.664062 12.0625 -7.15625 C 12.519531 -6.65625 12.769531 -6.117188 12.8125 -5.546875 L 11.203125 -5.546875 C 11.140625 -5.878906 10.925781 -6.1875 10.5625 -6.46875 C 10.207031 -6.757812 9.726562 -6.988281 9.125 -7.15625 C 8.519531 -7.320312 7.816406 -7.40625 7.015625 -7.40625 C 5.972656 -7.40625 5.128906 -7.28125 4.484375 -7.03125 C 3.847656 -6.789062 3.382812 -6.453125 3.09375 -6.015625 C 2.800781 -5.585938 2.65625 -5.082031 2.65625 -4.5 L 2.65625 -4.203125 C 2.65625 -3.628906 2.800781 -3.125 3.09375 -2.6875 C 3.382812 -2.25 3.847656 -1.90625 4.484375 -1.65625 C 5.128906 -1.414062 5.972656 -1.296875 7.015625 -1.296875 C 7.910156 -1.296875 8.644531 -1.378906 9.21875 -1.546875 C 9.789062 -1.710938 10.234375 -1.941406 10.546875 -2.234375 C 10.867188 -2.535156 11.082031 -2.875 11.1875 -3.25 L 12.796875 -3.25 C 12.691406 -2.644531 12.4375 -2.082031 12.03125 -1.5625 C 11.625 -1.050781 11.015625 -0.640625 10.203125 -0.328125 C 9.390625 -0.015625 8.328125 0.140625 7.015625 0.140625 Z M 7.015625 0.140625 "/></g></g></g><g fill="#000000" fill-opacity="1"><g transform="translate(267.002763, 217.372114)"><g><path d="M 9.5625 0 L 8.703125 -1.546875 L 2.609375 -1.546875 L 1.765625 0 L 0.078125 0 L 4.828125 -8.625 L 4.796875 -8.65625 L 6.53125 -8.65625 L 6.515625 -8.625 L 11.25 0 Z M 3.40625 -2.984375 L 7.90625 -2.984375 L 5.65625 -7.09375 Z M 3.40625 -2.984375 "/></g></g></g><g fill="#000000" fill-opacity="1"><g transform="translate(278.313186, 217.372114)"><g><path d="M 9.859375 -8.65625 L 9.859375 -7.25 L 5.640625 -7.25 L 5.640625 0 L 4.171875 0 L 4.171875 -7.25 L -0.046875 -7.25 L -0.046875 -8.65625 Z M 9.859375 -8.65625 "/></g></g></g><g fill="#000000" fill-opacity="1"><g transform="translate(288.108816, 217.372114)"><g><path d="M 1.796875 0 L 1.796875 -8.65625 L 3.265625 -8.65625 L 3.265625 0 Z M 1.796875 0 "/></g></g></g><g fill="#000000" fill-opacity="1"><g transform="translate(293.158096, 217.372114)"><g><path d="M 7.015625 0.140625 C 5.898438 0.140625 4.96875 0.0234375 4.21875 -0.203125 C 3.46875 -0.429688 2.867188 -0.742188 2.421875 -1.140625 C 1.972656 -1.546875 1.648438 -1.992188 1.453125 -2.484375 C 1.253906 -2.984375 1.15625 -3.492188 1.15625 -4.015625 L 1.15625 -4.65625 C 1.15625 -5.1875 1.253906 -5.703125 1.453125 -6.203125 C 1.648438 -6.703125 1.972656 -7.148438 2.421875 -7.546875 C 2.867188 -7.941406 3.46875 -8.253906 4.21875 -8.484375 C 4.96875 -8.722656 5.898438 -8.84375 7.015625 -8.84375 C 8.109375 -8.84375 9.03125 -8.726562 9.78125 -8.5 C 10.539062 -8.28125 11.144531 -7.972656 11.59375 -7.578125 C 12.039062 -7.191406 12.363281 -6.75 12.5625 -6.25 C 12.769531 -5.757812 12.875 -5.242188 12.875 -4.703125 L 12.875 -4.078125 C 12.875 -3.566406 12.78125 -3.054688 12.59375 -2.546875 C 12.40625 -2.046875 12.085938 -1.59375 11.640625 -1.1875 C 11.203125 -0.78125 10.601562 -0.457031 9.84375 -0.21875 C 9.09375 0.0195312 8.148438 0.140625 7.015625 0.140625 Z M 7.015625 -1.296875 C 8.097656 -1.296875 8.957031 -1.410156 9.59375 -1.640625 C 10.226562 -1.867188 10.679688 -2.175781 10.953125 -2.5625 C 11.234375 -2.945312 11.375 -3.382812 11.375 -3.875 L 11.375 -4.5 C 11.375 -5.039062 11.222656 -5.53125 10.921875 -5.96875 C 10.617188 -6.40625 10.144531 -6.753906 9.5 -7.015625 C 8.851562 -7.273438 8.023438 -7.40625 7.015625 -7.40625 C 5.972656 -7.40625 5.128906 -7.285156 4.484375 -7.046875 C 3.847656 -6.804688 3.382812 -6.476562 3.09375 -6.0625 C 2.800781 -5.644531 2.65625 -5.175781 2.65625 -4.65625 L 2.65625 -4.015625 C 2.65625 -3.503906 2.800781 -3.039062 3.09375 -2.625 C 3.382812 -2.21875 3.847656 -1.894531 4.484375 -1.65625 C 5.128906 -1.414062 5.972656 -1.296875 7.015625 -1.296875 Z M 7.015625 -1.296875 "/></g></g></g><g fill="#000000" fill-opacity="1"><g transform="translate(307.180725, 217.372114)"><g><path d="M 10.078125 -8.65625 L 11.546875 -8.65625 L 11.546875 0 L 9.578125 0 L 3.265625 -7.015625 L 3.265625 0 L 1.796875 0 L 1.796875 -8.65625 L 3.734375 -8.65625 L 10.078125 -1.625 Z M 10.078125 -8.65625 "/></g></g></g></svg>