<svg xmlns="http://www.w3.org/2000/svg" xmlns:xlink="http://www.w3.org/1999/xlink" width="500" zoomAndPan="magnify" viewBox="0 0 375 374.999991" height="500" preserveAspectRatio="xMidYMid meet" version="1.0"><defs><g/><clipPath id="085aa8e4b8"><path d="M 24 177 L 72 177 L 72 222 L 24 222 Z M 24 177 " clip-rule="nonzero"/></clipPath><clipPath id="3fd843d403"><path d="M 3.304688 208.425781 L 39.230469 154.148438 L 93.507812 190.078125 L 57.582031 244.355469 Z M 3.304688 208.425781 " clip-rule="nonzero"/></clipPath><clipPath id="1e6d950e2e"><path d="M 3.304688 208.425781 L 39.230469 154.148438 L 93.507812 190.078125 L 57.582031 244.355469 Z M 3.304688 208.425781 " clip-rule="nonzero"/></clipPath><clipPath id="7d4a0a54a2"><path d="M 53 190 L 57 190 L 57 194 L 53 194 Z M 53 190 " clip-rule="nonzero"/></clipPath><clipPath id="753c76c2f9"><path d="M 3.304688 208.425781 L 39.230469 154.148438 L 93.507812 190.078125 L 57.582031 244.355469 Z M 3.304688 208.425781 " clip-rule="nonzero"/></clipPath><clipPath id="7cc2d8c2b7"><path d="M 3.304688 208.425781 L 39.230469 154.148438 L 93.507812 190.078125 L 57.582031 244.355469 Z M 3.304688 208.425781 " clip-rule="nonzero"/></clipPath><clipPath id="7aaa113781"><path d="M 60 191 L 64 191 L 64 195 L 60 195 Z M 60 191 " clip-rule="nonzero"/></clipPath><clipPath id="9f37437715"><path d="M 3.304688 208.425781 L 39.230469 154.148438 L 93.507812 190.078125 L 57.582031 244.355469 Z M 3.304688 208.425781 " clip-rule="nonzero"/></clipPath><clipPath id="8a95b905b7"><path d="M 3.304688 208.425781 L 39.230469 154.148438 L 93.507812 190.078125 L 57.582031 244.355469 Z M 3.304688 208.425781 " clip-rule="nonzero"/></clipPath><clipPath id="8b6d95b494"><path d="M 62 196 L 65 196 L 65 198 L 62 198 Z M 62 196 " clip-rule="nonzero"/></clipPath><clipPath id="cbc16c6132"><path d="M 3.304688 208.425781 L 39.230469 154.148438 L 93.507812 190.078125 L 57.582031 244.355469 Z M 3.304688 208.425781 " clip-rule="nonzero"/></clipPath><clipPath id="c01c0b207d"><path d="M 3.304688 208.425781 L 39.230469 154.148438 L 93.507812 190.078125 L 57.582031 244.355469 Z M 3.304688 208.425781 " clip-rule="nonzero"/></clipPath><clipPath id="da5213e6c7"><path d="M 55 197 L 58 197 L 58 199 L 55 199 Z M 55 197 " clip-rule="nonzero"/></clipPath><clipPath id="d98be274d3"><path d="M 3.304688 208.425781 L 39.230469 154.148438 L 93.507812 190.078125 L 57.582031 244.355469 Z M 3.304688 208.425781 " clip-rule="nonzero"/></clipPath><clipPath id="c295a8594b"><path d="M 3.304688 208.425781 L 39.230469 154.148438 L 93.507812 190.078125 L 57.582031 244.355469 Z M 3.304688 208.425781 " clip-rule="nonzero"/></clipPath><clipPath id="c9db84ee45"><path d="M 32 202 L 35 202 L 35 204 L 32 204 Z M 32 202 " clip-rule="nonzero"/></clipPath><clipPath id="a699f12a63"><path d="M 3.304688 208.425781 L 39.230469 154.148438 L 93.507812 190.078125 L 57.582031 244.355469 Z M 3.304688 208.425781 " clip-rule="nonzero"/></clipPath><clipPath id="8643a2a47b"><path d="M 3.304688 208.425781 L 39.230469 154.148438 L 93.507812 190.078125 L 57.582031 244.355469 Z M 3.304688 208.425781 " clip-rule="nonzero"/></clipPath><clipPath id="16ce98c6e8"><path d="M 30 197 L 34 197 L 34 201 L 30 201 Z M 30 197 " clip-rule="nonzero"/></clipPath><clipPath id="ebf194d9cc"><path d="M 3.304688 208.425781 L 39.230469 154.148438 L 93.507812 190.078125 L 57.582031 244.355469 Z M 3.304688 208.425781 " clip-rule="nonzero"/></clipPath><clipPath id="befd41095b"><path d="M 3.304688 208.425781 L 39.230469 154.148438 L 93.507812 190.078125 L 57.582031 244.355469 Z M 3.304688 208.425781 " clip-rule="nonzero"/></clipPath><clipPath id="8e5a6bac2c"><path d="M 38 200 L 41 200 L 41 203 L 38 203 Z M 38 200 " clip-rule="nonzero"/></clipPath><clipPath id="694bdb81d7"><path d="M 3.304688 208.425781 L 39.230469 154.148438 L 93.507812 190.078125 L 57.582031 244.355469 Z M 3.304688 208.425781 " clip-rule="nonzero"/></clipPath><clipPath id="5df40788e2"><path d="M 3.304688 208.425781 L 39.230469 154.148438 L 93.507812 190.078125 L 57.582031 244.355469 Z M 3.304688 208.425781 " clip-rule="nonzero"/></clipPath><clipPath id="4594abb062"><path d="M 36 193 L 41 193 L 41 197 L 36 197 Z M 36 193 " clip-rule="nonzero"/></clipPath><clipPath id="e6d011b7eb"><path d="M 3.304688 208.425781 L 39.230469 154.148438 L 93.507812 190.078125 L 57.582031 244.355469 Z M 3.304688 208.425781 " clip-rule="nonzero"/></clipPath><clipPath id="d47dfbe99c"><path d="M 3.304688 208.425781 L 39.230469 154.148438 L 93.507812 190.078125 L 57.582031 244.355469 Z M 3.304688 208.425781 " clip-rule="nonzero"/></clipPath><clipPath id="8bbe4263a3"><path d="M 100.496094 206.054688 L 125.96875 206.054688 L 125.96875 232.464844 L 100.496094 232.464844 Z M 100.496094 206.054688 " clip-rule="nonzero"/></clipPath><clipPath id="051adb9fb2"><path d="M 143.539062 168.957031 L 206.742188 168.957031 L 206.742188 232.164062 L 143.539062 232.164062 Z M 143.539062 168.957031 " clip-rule="nonzero"/></clipPath><clipPath id="b3b6ffb030"><path d="M 352.226562 113.417969 L 372.980469 113.417969 L 372.980469 134 L 352.226562 134 Z M 352.226562 113.417969 " clip-rule="nonzero"/></clipPath></defs><rect x="-37.5" width="450" fill="#ffffff" y="-37.499999" height="449.999989" fill-opacity="1"/><rect x="-37.5" width="450" fill="#0400b8" y="-37.499999" height="449.999989" fill-opacity="1"/><g fill="#ffffff" fill-opacity="1"><g transform="translate(15.074833, 233.753457)"><g><path d="M -2.640625 0 L 19.796875 -82 L 27.21875 -42.890625 L 35.796875 -42.890625 L 24.78125 -99.890625 L 60.453125 -99.890625 L 79.828125 0 L 44.234375 0 L 37.625 -33.90625 L 29.046875 -33.90625 L 35.65625 0 Z M -2.640625 0 "/></g></g></g><g clip-path="url(#085aa8e4b8)"><g clip-path="url(#3fd843d403)"><g clip-path="url(#1e6d950e2e)"><path fill="#0400b8" d="M 43.671875 177.546875 C 43.671875 177.546875 43.667969 177.550781 43.667969 177.550781 C 41.996094 178.335938 40.484375 179.367188 41.175781 185.960938 C 41.390625 188.046875 41.828125 190.660156 42.398438 193.496094 C 42.398438 193.496094 33.785156 197.75 33.785156 197.75 C 33.785156 197.75 24.707031 202.226562 24.707031 202.226562 C 24.914062 203.164062 25.117188 204.097656 25.324219 205.03125 C 31.546875 203.5625 37.769531 202.09375 43.996094 200.621094 C 45.246094 205.75 46.6875 210.8125 47.890625 214.273438 C 48.050781 214.742188 48.210938 215.175781 48.359375 215.582031 C 48.359375 215.582031 44.304688 217.695312 44.304688 217.695312 C 44.304688 217.695312 39.445312 220.230469 39.445312 220.230469 C 39.5625 220.777344 39.683594 221.324219 39.804688 221.875 C 43.230469 221.054688 46.65625 220.234375 50.085938 219.414062 C 51.019531 220.597656 51.441406 220.855469 52.511719 221.082031 C 53.457031 220.441406 53.679688 220.164062 54.125 218.59375 C 57.601562 218.007812 61.074219 217.425781 64.550781 216.839844 C 64.445312 216.289062 64.339844 215.738281 64.238281 215.1875 C 64.238281 215.1875 58.773438 214.753906 58.773438 214.753906 C 58.773438 214.753906 54.214844 214.390625 54.214844 214.390625 C 54.195312 213.957031 54.167969 213.496094 54.136719 213.003906 C 53.890625 209.347656 53.238281 204.125 52.386719 198.914062 C 52.386719 198.914062 52.390625 198.914062 52.390625 198.914062 C 58.691406 197.835938 64.996094 196.757812 71.300781 195.679688 C 71.125 194.738281 70.945312 193.800781 70.769531 192.859375 C 70.769531 192.859375 60.667969 192.28125 60.667969 192.28125 C 60.667969 192.28125 51.074219 191.730469 51.074219 191.730469 C 50.492188 188.898438 49.871094 186.320312 49.257812 184.316406 C 47.316406 177.984375 45.523438 177.617188 43.679688 177.546875 C 43.675781 177.546875 43.675781 177.546875 43.671875 177.546875 " fill-opacity="1" fill-rule="nonzero"/></g></g></g><g clip-path="url(#7d4a0a54a2)"><g clip-path="url(#753c76c2f9)"><g clip-path="url(#7cc2d8c2b7)"><path fill="#0400b8" d="M 56.867188 191.527344 C 56.730469 190.847656 56.390625 190.34375 56.113281 190.398438 C 56.113281 190.398438 54.09375 190.808594 54.09375 190.808594 C 53.816406 190.867188 53.703125 191.460938 53.839844 192.140625 C 53.839844 192.140625 53.875 192.316406 53.875 192.316406 C 54.015625 192.992188 54.351562 193.5 54.628906 193.441406 C 54.628906 193.441406 56.648438 193.03125 56.648438 193.03125 C 56.925781 192.972656 57.039062 192.378906 56.902344 191.699219 C 56.902344 191.699219 56.867188 191.527344 56.867188 191.527344 " fill-opacity="1" fill-rule="nonzero"/></g></g></g><g clip-path="url(#7aaa113781)"><g clip-path="url(#9f37437715)"><g clip-path="url(#8a95b905b7)"><path fill="#0400b8" d="M 63.824219 192.273438 C 63.683594 191.59375 63.347656 191.089844 63.070312 191.144531 C 63.070312 191.144531 61.050781 191.558594 61.050781 191.558594 C 60.773438 191.613281 60.660156 192.210938 60.796875 192.890625 C 60.796875 192.890625 60.832031 193.0625 60.832031 193.0625 C 60.96875 193.742188 61.308594 194.246094 61.585938 194.191406 C 61.585938 194.191406 63.605469 193.777344 63.605469 193.777344 C 63.882812 193.722656 63.996094 193.125 63.859375 192.445312 C 63.859375 192.445312 63.824219 192.273438 63.824219 192.273438 " fill-opacity="1" fill-rule="nonzero"/></g></g></g><g clip-path="url(#8b6d95b494)"><g clip-path="url(#cbc16c6132)"><g clip-path="url(#c01c0b207d)"><path fill="#0400b8" d="M 63.980469 196.84375 C 64.050781 197.191406 63.992188 197.496094 63.851562 197.523438 C 63.851562 197.523438 62.820312 197.734375 62.820312 197.734375 C 62.679688 197.761719 62.507812 197.503906 62.4375 197.160156 C 62.4375 197.160156 62.421875 197.070312 62.421875 197.070312 C 62.351562 196.722656 62.40625 196.421875 62.550781 196.390625 C 62.550781 196.390625 63.578125 196.183594 63.578125 196.183594 C 63.71875 196.152344 63.890625 196.410156 63.960938 196.757812 C 63.960938 196.757812 63.980469 196.84375 63.980469 196.84375 " fill-opacity="1" fill-rule="nonzero"/></g></g></g><g clip-path="url(#da5213e6c7)"><g clip-path="url(#d98be274d3)"><g clip-path="url(#c295a8594b)"><path fill="#0400b8" d="M 57.449219 197.8125 C 57.527344 198.191406 57.460938 198.523438 57.308594 198.554688 C 57.308594 198.554688 56.179688 198.785156 56.179688 198.785156 C 56.027344 198.816406 55.835938 198.535156 55.761719 198.15625 C 55.761719 198.15625 55.742188 198.058594 55.742188 198.058594 C 55.664062 197.679688 55.726562 197.347656 55.882812 197.316406 C 55.882812 197.316406 57.007812 197.085938 57.007812 197.085938 C 57.164062 197.054688 57.351562 197.335938 57.429688 197.714844 C 57.429688 197.714844 57.449219 197.8125 57.449219 197.8125 " fill-opacity="1" fill-rule="nonzero"/></g></g></g><g clip-path="url(#c9db84ee45)"><g clip-path="url(#a699f12a63)"><g clip-path="url(#8643a2a47b)"><path fill="#0400b8" d="M 32.515625 203.246094 C 32.585938 203.589844 32.757812 203.847656 32.898438 203.820312 C 32.898438 203.820312 33.929688 203.609375 33.929688 203.609375 C 34.070312 203.582031 34.128906 203.277344 34.058594 202.929688 C 34.058594 202.929688 34.039062 202.84375 34.039062 202.84375 C 33.96875 202.496094 33.796875 202.242188 33.65625 202.269531 C 33.65625 202.269531 32.628906 202.476562 32.628906 202.476562 C 32.484375 202.507812 32.429688 202.8125 32.5 203.15625 C 32.5 203.15625 32.515625 203.246094 32.515625 203.246094 " fill-opacity="1" fill-rule="nonzero"/></g></g></g><g clip-path="url(#16ce98c6e8)"><g clip-path="url(#ebf194d9cc)"><g clip-path="url(#befd41095b)"><path fill="#0400b8" d="M 30.875 198.976562 C 30.738281 198.296875 30.851562 197.699219 31.128906 197.644531 C 31.128906 197.644531 33.148438 197.234375 33.148438 197.234375 C 33.425781 197.175781 33.761719 197.679688 33.902344 198.359375 C 33.902344 198.359375 33.9375 198.535156 33.9375 198.535156 C 34.074219 199.210938 33.960938 199.808594 33.683594 199.867188 C 33.683594 199.867188 31.664062 200.277344 31.664062 200.277344 C 31.386719 200.332031 31.046875 199.828125 30.910156 199.148438 C 30.910156 199.148438 30.875 198.976562 30.875 198.976562 " fill-opacity="1" fill-rule="nonzero"/></g></g></g><g clip-path="url(#8e5a6bac2c)"><g clip-path="url(#694bdb81d7)"><g clip-path="url(#5df40788e2)"><path fill="#0400b8" d="M 38.871094 201.589844 C 38.945312 201.96875 39.136719 202.25 39.289062 202.21875 C 39.289062 202.21875 40.417969 201.992188 40.417969 201.992188 C 40.570312 201.960938 40.636719 201.628906 40.558594 201.25 C 40.558594 201.25 40.539062 201.152344 40.539062 201.152344 C 40.460938 200.773438 40.273438 200.492188 40.117188 200.523438 C 40.117188 200.523438 38.992188 200.753906 38.992188 200.753906 C 38.835938 200.785156 38.773438 201.117188 38.851562 201.496094 C 38.851562 201.496094 38.871094 201.589844 38.871094 201.589844 " fill-opacity="1" fill-rule="nonzero"/></g></g></g><g clip-path="url(#4594abb062)"><g clip-path="url(#e6d011b7eb)"><g clip-path="url(#d47dfbe99c)"><path fill="#0400b8" d="M 36.949219 195.578125 C 36.8125 194.898438 36.925781 194.300781 37.203125 194.246094 C 37.203125 194.246094 39.222656 193.835938 39.222656 193.835938 C 39.5 193.777344 39.839844 194.28125 39.976562 194.960938 C 39.976562 194.960938 40.011719 195.136719 40.011719 195.136719 C 40.148438 195.8125 40.035156 196.410156 39.757812 196.464844 C 39.757812 196.464844 37.738281 196.878906 37.738281 196.878906 C 37.460938 196.933594 37.125 196.429688 36.984375 195.75 C 36.984375 195.75 36.949219 195.578125 36.949219 195.578125 " fill-opacity="1" fill-rule="nonzero"/></g></g></g><g fill="#ffffff" fill-opacity="1"><g transform="translate(96.256148, 232.722157)"><g><path d="M 3.375 0 L 3.375 -75.765625 L 30.328125 -75.765625 L 30.328125 0 Z M 3.375 0 "/></g></g></g><g clip-path="url(#8bbe4263a3)"><path fill="#0400b8" d="M 123.90625 220.261719 L 121.300781 220.261719 L 121.300781 219.632812 C 121.300781 218.90625 120.707031 218.3125 119.980469 218.3125 L 116.933594 218.3125 C 116.207031 218.3125 115.613281 218.90625 115.613281 219.632812 L 115.613281 220.261719 L 114.875 220.261719 L 114.875 213.148438 C 114.875 211.570312 113.59375 210.289062 112.019531 210.289062 L 111.210938 210.289062 L 111.210938 207.875 C 111.609375 207.8125 111.914062 207.46875 111.914062 207.054688 L 111.914062 206.898438 C 111.914062 206.4375 111.539062 206.066406 111.082031 206.066406 L 104.292969 206.066406 C 103.832031 206.066406 103.457031 206.4375 103.457031 206.898438 L 103.457031 207.054688 C 103.457031 207.46875 103.765625 207.8125 104.164062 207.875 L 104.164062 210.289062 L 103.355469 210.289062 C 101.78125 210.289062 100.496094 211.570312 100.496094 213.148438 L 100.496094 227.570312 C 100.496094 228.761719 101.230469 229.785156 102.269531 230.214844 L 102.269531 231.222656 C 102.269531 231.722656 102.675781 232.128906 103.171875 232.128906 C 103.671875 232.128906 104.078125 231.722656 104.078125 231.222656 L 104.078125 230.429688 L 111.144531 230.429688 C 111.246094 231.367188 112.042969 232.101562 113.007812 232.101562 L 123.90625 232.101562 C 124.941406 232.101562 125.78125 231.261719 125.78125 230.226562 L 125.78125 222.136719 C 125.78125 221.101562 124.941406 220.261719 123.90625 220.261719 Z M 122.558594 220.675781 L 122.558594 231.6875 L 114.355469 231.6875 L 114.355469 220.675781 Z M 119.945312 220.261719 L 116.964844 220.261719 L 116.964844 220.003906 C 116.964844 219.757812 117.167969 219.554688 117.414062 219.554688 L 119.5 219.554688 C 119.746094 219.554688 119.945312 219.757812 119.945312 220.003906 Z M 116.027344 219.632812 C 116.027344 219.132812 116.433594 218.726562 116.933594 218.726562 L 119.980469 218.726562 C 120.480469 218.726562 120.886719 219.132812 120.886719 219.632812 L 120.886719 220.261719 L 120.359375 220.261719 L 120.359375 220.003906 C 120.359375 219.527344 119.972656 219.140625 119.5 219.140625 L 117.414062 219.140625 C 116.941406 219.140625 116.554688 219.527344 116.554688 220.003906 L 116.554688 220.261719 L 116.027344 220.261719 Z M 110.25 210.289062 L 110.25 207.886719 L 110.796875 207.886719 L 110.796875 210.289062 Z M 109.796875 210.289062 L 109.429688 209.804688 C 109.257812 209.570312 108.996094 209.4375 108.71875 209.4375 L 106.652344 209.4375 C 106.375 209.4375 106.117188 209.570312 105.941406 209.804688 L 105.574219 210.289062 L 105.535156 210.289062 L 105.535156 207.886719 L 109.835938 207.886719 L 109.835938 210.289062 Z M 109.277344 210.289062 L 106.09375 210.289062 L 106.273438 210.054688 C 106.367188 209.925781 106.507812 209.851562 106.652344 209.851562 L 108.71875 209.851562 C 108.867188 209.851562 109.003906 209.925781 109.101562 210.054688 Z M 103.871094 207.054688 L 103.871094 206.898438 C 103.871094 206.667969 104.058594 206.480469 104.292969 206.480469 L 111.082031 206.480469 C 111.3125 206.480469 111.5 206.667969 111.5 206.898438 L 111.5 207.054688 C 111.5 207.285156 111.3125 207.472656 111.082031 207.472656 L 104.292969 207.472656 C 104.058594 207.472656 103.871094 207.285156 103.871094 207.054688 Z M 104.578125 207.886719 L 105.121094 207.886719 L 105.121094 210.289062 L 104.578125 210.289062 Z M 100.910156 227.570312 L 100.910156 213.148438 C 100.910156 211.800781 102.007812 210.703125 103.355469 210.703125 L 112.019531 210.703125 C 113.363281 210.703125 114.460938 211.800781 114.460938 213.148438 L 114.460938 220.261719 L 113.191406 220.261719 L 113.191406 212.859375 C 113.191406 212.417969 112.832031 212.054688 112.386719 212.054688 C 111.945312 212.054688 111.585938 212.417969 111.585938 212.859375 L 111.585938 220.917969 C 111.304688 221.246094 111.132812 221.671875 111.132812 222.136719 L 111.132812 230.015625 L 103.355469 230.015625 C 102.007812 230.015625 100.910156 228.917969 100.910156 227.570312 Z M 112 220.558594 L 112 212.859375 C 112 212.644531 112.171875 212.46875 112.386719 212.46875 C 112.601562 212.46875 112.777344 212.644531 112.777344 212.859375 L 112.777344 220.277344 C 112.492188 220.3125 112.230469 220.410156 112 220.558594 Z M 103.664062 231.222656 C 103.664062 231.496094 103.445312 231.714844 103.171875 231.714844 C 102.902344 231.714844 102.683594 231.496094 102.683594 231.222656 L 102.683594 230.347656 C 102.898438 230.398438 103.121094 230.429688 103.355469 230.429688 L 103.664062 230.429688 Z M 111.546875 230.269531 C 111.550781 230.253906 111.558594 230.238281 111.558594 230.222656 C 111.558594 230.203125 111.550781 230.183594 111.546875 230.164062 L 111.546875 222.136719 C 111.546875 221.839844 111.636719 221.5625 111.789062 221.328125 C 111.789062 221.328125 111.792969 221.332031 111.792969 221.332031 C 111.90625 221.332031 112 221.238281 112 221.125 L 112 221.082031 C 112.242188 220.847656 112.570312 220.699219 112.929688 220.679688 C 112.949219 220.683594 112.964844 220.691406 112.984375 220.691406 C 113.007812 220.691406 113.03125 220.683594 113.054688 220.675781 L 113.941406 220.675781 L 113.941406 231.6875 L 113.007812 231.6875 C 112.214844 231.6875 111.570312 231.054688 111.546875 230.269531 Z M 125.367188 230.226562 C 125.367188 231.03125 124.710938 231.6875 123.90625 231.6875 L 122.972656 231.6875 L 122.972656 220.675781 L 123.90625 220.675781 C 124.710938 220.675781 125.367188 221.332031 125.367188 222.136719 Z M 125.367188 230.226562 " fill-opacity="1" fill-rule="nonzero"/></g><path fill="#0400b8" d="M 107.621094 228.410156 L 107.753906 228.410156 C 108.160156 228.410156 108.488281 228.078125 108.488281 227.671875 L 108.488281 212.792969 C 108.488281 212.386719 108.160156 212.054688 107.753906 212.054688 L 107.621094 212.054688 C 107.214844 212.054688 106.882812 212.386719 106.882812 212.792969 L 106.882812 227.671875 C 106.882812 228.078125 107.214844 228.410156 107.621094 228.410156 Z M 107.296875 212.792969 C 107.296875 212.617188 107.441406 212.46875 107.621094 212.46875 L 107.753906 212.46875 C 107.929688 212.46875 108.074219 212.613281 108.074219 212.792969 L 108.074219 227.671875 C 108.074219 227.851562 107.929688 227.996094 107.753906 227.996094 L 107.621094 227.996094 C 107.441406 227.996094 107.296875 227.851562 107.296875 227.671875 Z M 107.296875 212.792969 " fill-opacity="1" fill-rule="nonzero"/><path fill="#0400b8" d="M 105.207031 228.410156 L 105.339844 228.410156 C 105.746094 228.410156 106.074219 228.078125 106.074219 227.671875 L 106.074219 212.792969 C 106.074219 212.386719 105.746094 212.054688 105.339844 212.054688 L 105.207031 212.054688 C 104.800781 212.054688 104.46875 212.386719 104.46875 212.792969 L 104.46875 227.671875 C 104.46875 228.078125 104.800781 228.410156 105.207031 228.410156 Z M 104.882812 212.792969 C 104.882812 212.617188 105.027344 212.46875 105.207031 212.46875 L 105.339844 212.46875 C 105.515625 212.46875 105.660156 212.613281 105.660156 212.792969 L 105.660156 227.671875 C 105.660156 227.851562 105.515625 227.996094 105.339844 227.996094 L 105.207031 227.996094 C 105.027344 227.996094 104.882812 227.851562 104.882812 227.671875 Z M 104.882812 212.792969 " fill-opacity="1" fill-rule="nonzero"/><path fill="#0400b8" d="M 103.660156 227.671875 L 103.660156 212.792969 C 103.660156 212.386719 103.332031 212.054688 102.925781 212.054688 L 102.792969 212.054688 C 102.386719 212.054688 102.054688 212.386719 102.054688 212.792969 L 102.054688 227.671875 C 102.054688 228.078125 102.386719 228.410156 102.792969 228.410156 L 102.925781 228.410156 C 103.332031 228.410156 103.660156 228.078125 103.660156 227.671875 Z M 103.246094 227.671875 C 103.246094 227.851562 103.101562 227.996094 102.925781 227.996094 L 102.792969 227.996094 C 102.613281 227.996094 102.46875 227.851562 102.46875 227.671875 L 102.46875 212.792969 C 102.46875 212.617188 102.613281 212.46875 102.792969 212.46875 L 102.925781 212.46875 C 103.101562 212.46875 103.246094 212.613281 103.246094 212.792969 Z M 103.246094 227.671875 " fill-opacity="1" fill-rule="nonzero"/><path fill="#0400b8" d="M 109.90625 228.410156 L 110.039062 228.410156 C 110.445312 228.410156 110.777344 228.078125 110.777344 227.671875 L 110.777344 212.792969 C 110.777344 212.386719 110.445312 212.054688 110.039062 212.054688 L 109.90625 212.054688 C 109.503906 212.054688 109.171875 212.386719 109.171875 212.792969 L 109.171875 227.671875 C 109.171875 228.078125 109.5 228.410156 109.90625 228.410156 Z M 109.585938 212.792969 C 109.585938 212.617188 109.730469 212.46875 109.90625 212.46875 L 110.039062 212.46875 C 110.21875 212.46875 110.363281 212.613281 110.363281 212.792969 L 110.363281 227.671875 C 110.363281 227.851562 110.21875 227.996094 110.039062 227.996094 L 109.90625 227.996094 C 109.730469 227.996094 109.585938 227.851562 109.585938 227.671875 Z M 109.585938 212.792969 " fill-opacity="1" fill-rule="nonzero"/><g fill="#ffffff" fill-opacity="1"><g transform="translate(132.836451, 233.971875)"><g><path d="M 61.484375 0 L 45.859375 -61.0625 L 49.75 -75.765625 L 67.171875 -75.765625 L 86.375 0 Z M -2 0 L 10.609375 -48.671875 L 23.109375 0 Z M 29.609375 0 L 13.9375 -61.0625 L 17.828125 -75.765625 L 35.25 -75.765625 L 54.5625 0 Z M 29.609375 0 "/></g></g></g><g clip-path="url(#051adb9fb2)"><path fill="#0400b8" d="M 175.125 168.957031 C 166.6875 168.957031 158.753906 172.242188 152.789062 178.210938 C 146.824219 184.175781 143.539062 192.109375 143.539062 200.546875 C 143.539062 208.984375 146.824219 216.914062 152.789062 222.882812 C 158.753906 228.847656 166.6875 232.132812 175.125 232.132812 C 183.5625 232.132812 191.496094 228.847656 197.460938 222.882812 C 203.425781 216.914062 206.714844 208.984375 206.714844 200.546875 C 206.714844 192.109375 203.425781 184.175781 197.460938 178.210938 C 191.496094 172.242188 183.5625 168.957031 175.125 168.957031 Z M 157.035156 176.152344 C 157.011719 176.210938 156.984375 176.269531 156.957031 176.316406 C 156.878906 176.445312 156.621094 176.703125 156.621094 176.703125 L 156.277344 176.738281 C 156.527344 176.539062 156.78125 176.34375 157.035156 176.152344 Z M 144.90625 203.679688 C 144.972656 203.773438 145.046875 203.855469 145.117188 203.914062 C 145.425781 204.152344 145.425781 204.085938 145.804688 204.324219 C 146.179688 204.5625 147.550781 204.769531 147.550781 204.769531 L 148.234375 204.769531 L 149.464844 205.695312 C 149.464844 205.695312 149.945312 205.660156 150.046875 205.695312 C 150.152344 205.726562 150.769531 206.585938 150.769531 206.585938 L 151.316406 206.585938 L 151.898438 207.167969 L 152.378906 207.199219 L 152.695312 206.941406 L 153.054688 207.3125 L 153.171875 207.757812 L 153.183594 208.03125 L 153.207031 208.519531 L 152.746094 209.097656 L 152.4375 209.46875 L 152.4375 211.136719 L 153.207031 212.0625 L 153.613281 213.253906 L 153.644531 213.347656 L 153.875 213.886719 L 154.644531 214.476562 L 155.3125 214.988281 C 155.3125 214.988281 155.441406 215.375 155.441406 215.605469 C 155.441406 215.835938 155.414062 216.300781 155.414062 216.300781 L 155.339844 217.019531 L 155.082031 218.535156 C 155.082031 218.535156 154.902344 219.84375 154.851562 220.253906 C 154.800781 220.664062 154.566406 221.460938 154.566406 221.460938 C 154.566406 221.460938 154.363281 222.179688 154.285156 222.488281 C 154.277344 222.527344 154.265625 222.566406 154.257812 222.605469 C 149.117188 217.738281 145.667969 211.101562 144.90625 203.679688 Z M 175.125 230.925781 C 168.054688 230.925781 161.539062 228.5 156.375 224.433594 L 156.441406 224.285156 L 156.558594 224.050781 L 156.828125 223.515625 L 157.109375 223.101562 L 157.109375 222.71875 L 157.90625 221.976562 L 158.625 221.460938 C 158.625 221.460938 159.050781 221.222656 159.230469 220.980469 C 159.269531 220.925781 159.300781 220.871094 159.308594 220.816406 C 159.34375 220.539062 159.308594 220.359375 159.308594 220.355469 L 160.011719 219.972656 C 160.011719 219.972656 160.5 219.972656 160.859375 219.6875 C 160.949219 219.617188 161.023438 219.53125 161.078125 219.445312 C 161.253906 219.179688 161.296875 218.890625 161.296875 218.890625 L 162.066406 217.324219 C 162.070312 217.320312 162.503906 216.988281 162.886719 216.683594 C 163.273438 216.375 163.246094 216.53125 163.402344 216.425781 C 163.554688 216.324219 164.042969 216.042969 164.042969 216.042969 L 164.046875 216.039062 C 164.046875 216.039062 164.535156 215.320312 164.535156 215.320312 L 164.816406 214.34375 C 164.816406 214.34375 164.765625 213.550781 164.789062 213.34375 C 164.792969 213.332031 164.796875 213.320312 164.800781 213.3125 C 164.882812 213.164062 165.355469 213.34375 165.355469 213.34375 L 166.175781 211.007812 L 165.742188 210.75 C 165.742188 210.75 164.40625 210.441406 164.019531 210.3125 C 163.636719 210.183594 162.683594 209.878906 162.683594 209.878906 L 161.914062 209.632812 L 161.554688 209.09375 L 161.222656 208.386719 C 161.222656 208.386719 160.324219 207.898438 159.9375 207.796875 C 159.550781 207.695312 159.011719 207.515625 159.011719 207.515625 C 159.011719 207.515625 158.679688 207.15625 158.628906 207.027344 C 158.578125 206.898438 157.78125 206.589844 157.78125 206.589844 L 156.214844 206.375 L 155.375 206.109375 L 155.058594 205.921875 L 154.3125 206.1875 L 153.722656 206.675781 L 153.40625 206.957031 L 153.234375 207.085938 L 153.183594 207.132812 L 152.976562 206.8125 L 152.429688 206.652344 C 152.429688 206.652344 152.386719 206.820312 152.339844 206.890625 C 152.332031 206.90625 152.320312 206.914062 152.3125 206.917969 C 152.257812 206.925781 152.046875 206.882812 152.046875 206.882812 C 152.046875 206.882812 151.804688 206.703125 151.703125 206.640625 C 151.601562 206.582031 151.523438 206.515625 151.523438 206.515625 L 151.292969 206.144531 L 151.277344 205.777344 L 151.320312 205.230469 C 151.320312 205.09375 151.335938 204.84375 151.335938 204.84375 C 151.335938 204.84375 150.777344 204.742188 150.625 204.742188 C 150.472656 204.742188 150.050781 204.734375 150.027344 204.734375 C 150 204.734375 149.921875 204.84375 149.921875 204.621094 C 149.921875 204.398438 150 203.960938 150 203.960938 L 150.101562 203.484375 L 150.257812 203.160156 L 150.117188 202.957031 L 149.613281 203.058594 L 149.304688 203.597656 L 148.960938 203.816406 L 148.277344 203.878906 L 147.996094 203.816406 C 147.996094 203.816406 147.714844 203.648438 147.648438 203.558594 C 147.585938 203.46875 147.445312 202.996094 147.445312 202.996094 C 147.445312 202.996094 147.265625 202.402344 147.265625 202.199219 C 147.265625 201.992188 147.238281 201.710938 147.277344 201.570312 C 147.316406 201.429688 147.328125 201.285156 147.457031 201.050781 C 147.582031 200.820312 147.730469 200.59375 147.738281 200.582031 C 147.738281 200.582031 147.96875 200.375 148.097656 200.363281 C 148.226562 200.351562 148.574219 200.3125 148.574219 200.3125 C 148.574219 200.3125 149.152344 200.324219 149.242188 200.351562 C 149.332031 200.375 149.730469 200.375 149.730469 200.375 L 149.894531 200.324219 L 150.292969 200.210938 C 150.292969 200.210938 150.640625 200.082031 150.949219 200.234375 C 151.257812 200.390625 151.386719 200.351562 151.488281 200.621094 C 151.589844 200.890625 151.730469 201.121094 151.730469 201.121094 C 151.730469 201.121094 151.875 201.238281 151.976562 201.429688 C 152.078125 201.621094 152.4375 201.609375 152.4375 201.609375 L 152.078125 200.683594 L 152.027344 200.132812 L 152.414062 199.261719 L 153.015625 199.027344 L 153.902344 198.488281 L 153.390625 197.390625 L 154.210938 196.757812 L 154.792969 196.347656 L 155.203125 196.6875 L 155.410156 195.882812 L 155.972656 195.265625 C 155.972656 195.265625 156.351562 195.128906 156.402344 195.128906 C 156.425781 195.128906 156.480469 195.230469 156.535156 195.339844 L 156.679688 195.757812 L 157.140625 195.804688 L 157.261719 195.457031 L 157.773438 195.402344 L 158.402344 195.5 L 158.402344 195.496094 L 158.445312 195.191406 L 158.6875 194.988281 C 158.6875 194.988281 158.6875 194.984375 158.6875 194.984375 L 158.625 194.8125 L 158.320312 194.785156 L 157.277344 194.359375 L 157.226562 194.136719 L 157.5 193.453125 L 158.078125 193.125 L 158.523438 192.886719 L 159.335938 192.734375 C 159.335938 192.734375 159.21875 193.398438 159.234375 193.554688 C 159.238281 193.574219 159.230469 193.589844 159.214844 193.609375 C 159.113281 193.726562 158.664062 193.792969 158.664062 193.792969 L 158.847656 194.242188 L 159.992188 194.46875 C 159.992188 194.46875 160.714844 194.714844 160.75 194.664062 C 160.75 194.664062 160.75 194.660156 160.75 194.660156 C 160.785156 194.609375 160.820312 194.027344 160.820312 194.027344 L 160.03125 193.054688 L 159.65625 192.542969 L 159.347656 191.480469 L 158.183594 190.042969 L 157.960938 189.734375 L 157.320312 188.605469 L 156.574219 188.894531 C 156.574219 188.894531 155.828125 189.152344 155.726562 189.101562 C 155.625 189.050781 155.214844 187.816406 155.214844 187.816406 L 154.082031 187.40625 C 154.082031 187.40625 153.492188 187.175781 153.3125 187.457031 C 153.3125 187.460938 153.3125 187.457031 153.3125 187.460938 C 153.132812 187.742188 152.953125 188.179688 152.953125 188.382812 C 152.953125 188.589844 153.109375 189.152344 153.109375 189.152344 L 153.160156 189.71875 L 153.058594 190.195312 L 153.160156 190.488281 C 153.160156 190.488281 152.773438 191.132812 152.75 191.285156 C 152.722656 191.4375 152.46875 191.796875 152.414062 191.898438 C 152.359375 192 151.363281 191.179688 151.363281 191.179688 L 150.59375 190.410156 L 149.179688 189.898438 C 149.179688 189.898438 148.949219 189.71875 148.691406 189.433594 C 148.4375 189.152344 147.898438 188.601562 147.898438 188.601562 L 148.820312 187.277344 C 148.820312 187.277344 149.253906 186.804688 149.429688 186.550781 C 149.457031 186.515625 149.476562 186.480469 149.488281 186.457031 C 149.542969 186.347656 149.539062 186.128906 149.601562 186.03125 C 149.65625 185.941406 149.761719 185.949219 150.003906 186.199219 C 150.515625 186.738281 150.722656 186.789062 150.902344 186.84375 C 151.082031 186.894531 151.414062 186.972656 151.414062 186.972656 L 151.722656 186.535156 L 151.648438 185.328125 C 151.648438 185.328125 151.652344 185.324219 151.660156 185.316406 C 151.679688 185.28125 151.730469 185.140625 151.75 184.554688 C 151.773438 183.796875 151.875 183.1875 151.878906 183.171875 C 151.886719 183.171875 152.625 183.300781 153.058594 183.402344 C 153.496094 183.503906 154.058594 183.324219 154.316406 183.683594 C 154.566406 184.03125 154.832031 185.558594 154.734375 185.75 C 154.730469 185.753906 154.726562 185.757812 154.726562 185.761719 C 154.714844 185.769531 154.710938 185.777344 154.703125 185.785156 C 154.613281 185.902344 154.722656 186.148438 154.722656 186.148438 L 155.242188 186.664062 L 156.449219 186.894531 L 157.066406 186.738281 L 156.269531 185.789062 L 156.628906 185.636719 L 157.089844 185.660156 L 157.21875 184.632812 C 157.21875 184.632812 156.808594 183.964844 156.5 183.863281 C 156.191406 183.761719 155.808594 183.246094 155.808594 183.246094 C 155.808594 183.246094 154.804688 182.21875 154.601562 182.089844 C 154.394531 181.960938 153.882812 181.550781 153.882812 181.550781 L 153.214844 180.371094 L 152.441406 180.523438 L 152.324219 180.496094 C 153.152344 179.554688 154.035156 178.667969 154.972656 177.832031 C 155.175781 177.929688 155.277344 178.003906 155.34375 178.113281 C 155.421875 178.242188 155.550781 178.496094 155.550781 178.496094 C 155.550781 178.496094 155.550781 178.855469 155.832031 178.882812 C 156.113281 178.910156 156.472656 178.855469 156.472656 178.855469 L 157.296875 178.804688 C 157.296875 178.804688 157.527344 178.726562 157.808594 178.882812 C 158.09375 179.035156 158.476562 179.140625 158.476562 179.140625 L 158.9375 179.574219 C 158.9375 179.574219 159.09375 179.628906 159.195312 179.832031 C 159.296875 180.039062 159.324219 179.703125 159.425781 180.292969 C 159.53125 180.886719 159.632812 181.21875 159.632812 181.21875 C 159.632812 181.21875 159.710938 181.628906 159.761719 181.808594 C 159.8125 181.988281 159.941406 182.144531 159.941406 182.144531 L 160.558594 182.195312 C 160.558594 182.195312 160.789062 182.21875 160.8125 182.324219 C 160.839844 182.425781 160.890625 182.65625 160.890625 182.734375 C 160.890625 182.753906 160.886719 182.769531 160.882812 182.78125 C 160.859375 182.820312 160.8125 182.835938 160.738281 182.835938 C 160.632812 182.835938 160.171875 182.859375 160.171875 182.859375 L 160.171875 182.863281 L 160.195312 183.375 L 160.375 183.53125 L 160.839844 183.554688 C 160.839844 183.554688 160.941406 183.710938 160.941406 183.8125 C 160.941406 183.863281 160.933594 183.894531 160.914062 183.929688 C 160.894531 183.960938 160.863281 183.992188 160.8125 184.042969 C 160.710938 184.144531 160.402344 184.582031 160.402344 184.582031 C 160.402344 184.582031 160.394531 184.539062 160.386719 184.554688 C 160.382812 184.566406 160.375 184.605469 160.375 184.738281 C 160.375 185.019531 160.324219 185.097656 160.480469 185.535156 C 160.632812 185.96875 160.710938 186.328125 160.710938 186.328125 C 160.710938 186.328125 160.914062 186.738281 160.96875 186.84375 C 161.019531 186.945312 161.121094 186.996094 161.300781 187.332031 C 161.480469 187.664062 161.789062 188.074219 161.789062 188.074219 L 162.097656 188.308594 C 162.097656 188.308594 162.199219 188.359375 162.300781 188.308594 C 162.40625 188.253906 162.636719 188.128906 162.636719 188.128906 C 162.636719 188.128906 162.765625 188.820312 163.253906 188.539062 L 163.253906 188.535156 L 163.664062 187.511719 L 163.664062 187.023438 C 163.671875 187.015625 164.078125 186.765625 164.195312 186.601562 C 164.214844 186.578125 164.226562 186.554688 164.230469 186.535156 C 164.253906 186.382812 164.40625 185.90625 164.410156 185.894531 L 165 185.585938 L 165.410156 185.585938 L 165.71875 185.304688 L 166.410156 184.789062 L 167.050781 184.457031 L 167.746094 184.199219 L 169.234375 183.53125 L 169.878906 182.964844 L 168.902344 182.8125 L 168.902344 182.273438 L 169.363281 182.582031 L 169.75 182.273438 L 169.878906 181.476562 L 170.035156 180.859375 L 170.445312 180.191406 L 170.703125 178.984375 L 170.597656 178.34375 L 170.316406 177.90625 L 170.238281 177.265625 C 170.238281 177.265625 170.214844 176.726562 170.289062 176.570312 C 170.367188 176.417969 170.675781 175.953125 170.703125 175.878906 C 170.703125 175.867188 170.714844 175.851562 170.730469 175.828125 C 170.84375 175.667969 171.222656 175.234375 171.292969 175.210938 C 171.367188 175.183594 172.085938 174.671875 172.085938 174.671875 C 172.085938 174.671875 172.089844 174.671875 172.089844 174.671875 C 172.089844 174.671875 171.832031 174.335938 171.703125 174.335938 C 171.574219 174.335938 170.597656 174.671875 170.597656 174.671875 L 170.109375 174.851562 C 170.109375 174.851562 169.929688 174.925781 169.675781 174.773438 C 169.417969 174.621094 169.058594 174.15625 169.058594 174.15625 L 169.03125 173.695312 L 169.261719 173.515625 L 167.976562 173.515625 C 167.976562 173.515625 166.875 173.746094 166.71875 173.515625 C 166.566406 173.285156 166.386719 172.773438 166.386719 172.773438 C 166.386719 172.773438 165.691406 172.617188 165.460938 172.71875 C 165.230469 172.824219 164.203125 173.515625 164.203125 173.515625 L 164 173.464844 L 162.945312 173.722656 L 162.125 173.667969 L 161.070312 173.667969 L 160.871094 173.722656 C 165.125 171.453125 169.980469 170.164062 175.132812 170.164062 C 183.238281 170.164062 190.613281 173.355469 196.066406 178.546875 C 195.953125 178.632812 195.851562 178.691406 195.710938 178.769531 C 195.558594 178.855469 195.359375 178.875 195.359375 178.875 C 195.359375 178.875 194.738281 178.882812 194.640625 178.90625 C 194.546875 178.933594 194.402344 178.96875 194.402344 178.96875 C 194.402344 178.96875 194.109375 179.070312 194 179.164062 C 193.890625 179.257812 193.671875 179.425781 193.667969 179.429688 C 193.667969 179.429688 193.621094 179.714844 193.496094 179.882812 C 193.367188 180.054688 193.257812 180.136719 193.257812 180.136719 C 193.257812 180.136719 193.101562 180.28125 192.964844 180.402344 C 192.84375 180.507812 192.625 180.574219 192.535156 180.691406 C 192.519531 180.710938 192.511719 180.730469 192.503906 180.746094 C 192.441406 180.902344 192.417969 180.988281 192.324219 181.203125 C 192.230469 181.414062 192.160156 181.535156 192.144531 181.621094 C 192.125 181.707031 192.09375 181.84375 192.09375 181.84375 C 192.09375 181.84375 192.050781 181.996094 192.074219 182.101562 C 192.101562 182.203125 192.132812 182.417969 192.238281 182.535156 C 192.339844 182.65625 192.757812 182.742188 192.757812 182.742188 L 192.929688 182.769531 C 192.929688 182.769531 193.1875 182.792969 193.28125 182.820312 C 193.375 182.84375 193.582031 182.863281 193.582031 182.863281 C 193.582031 182.863281 193.578125 182.859375 193.578125 182.859375 C 193.578125 182.859375 193.582031 182.859375 193.582031 182.859375 C 193.582031 182.859375 193.207031 182.511719 193.179688 182.484375 C 193.152344 182.457031 193.085938 182.242188 193.085938 182.242188 L 193.007812 181.867188 L 193.007812 181.644531 L 193.042969 181.40625 L 193.265625 181.117188 L 193.632812 180.671875 C 193.632812 180.671875 193.914062 180.371094 194.019531 180.25 C 194.121094 180.132812 194.34375 179.945312 194.34375 179.945312 L 194.855469 179.609375 C 194.855469 179.609375 195.027344 179.480469 195.207031 179.421875 C 195.386719 179.363281 195.644531 179.25 195.832031 179.207031 C 196.019531 179.164062 196.269531 179.121094 196.441406 179.046875 C 196.46875 179.03125 196.5 179.015625 196.53125 179 C 197.355469 179.816406 198.128906 180.679688 198.851562 181.585938 L 198.792969 181.605469 L 198.636719 181.9375 L 198.613281 182.246094 L 198.664062 182.761719 L 198.765625 182.914062 L 199.28125 183.632812 C 199.257812 183.628906 198.917969 183.582031 198.792969 183.632812 C 198.785156 183.636719 198.777344 183.640625 198.773438 183.648438 C 198.679688 183.742188 198.792969 184.171875 198.792969 184.171875 L 198.5625 184.8125 L 198.230469 184.839844 L 198.230469 182.734375 L 198.101562 181.9375 L 198.230469 181.476562 C 198.230469 181.476562 197.800781 180.9375 197.734375 180.917969 C 197.664062 180.902344 197.253906 181.074219 197.253906 181.074219 L 197.011719 181.722656 C 197.011719 181.722656 196.6875 182.390625 196.6875 182.65625 L 196.6875 183.25 C 196.6875 183.25 196.925781 183.726562 196.976562 183.777344 C 196.988281 183.789062 196.984375 183.804688 196.96875 183.828125 C 196.910156 183.917969 196.6875 184.085938 196.6875 184.085938 L 195.695312 183.539062 L 195.042969 183.324219 L 194.710938 183.09375 L 194.074219 183.027344 L 194.078125 183.03125 L 194.074219 183.03125 C 194.074219 183.03125 194.53125 183.402344 194.53125 183.402344 L 194.53125 183.914062 L 194.199219 183.890625 L 193.734375 183.863281 L 193.324219 184.042969 L 192.757812 184.222656 L 192.578125 183.734375 L 191.835938 184.144531 L 191.269531 184.605469 L 191.011719 184.785156 L 190.269531 185.171875 L 189.960938 184.8125 L 190.269531 184.273438 C 190.269531 184.273438 189.910156 183.964844 189.832031 183.964844 C 189.753906 183.964844 189.625 184.121094 189.625 184.121094 L 189.625 184.8125 L 189.445312 185.351562 L 188.96875 185.378906 L 188.574219 185.632812 C 188.574219 185.632812 188.574219 185.636719 188.574219 185.636719 L 188.574219 186.171875 L 187.519531 185.917969 L 187.726562 186.382812 L 187.597656 186.738281 L 187.367188 186.714844 L 186.90625 186.019531 L 186.75 185.816406 L 186.699219 185.378906 C 186.710938 185.382812 187.289062 185.457031 187.367188 185.457031 L 187.75 185.457031 C 187.75 185.457031 188.1875 185.429688 188.289062 185.40625 C 188.394531 185.378906 188.855469 185.199219 188.933594 185.148438 C 188.9375 185.144531 188.941406 185.140625 188.945312 185.132812 C 189 185.039062 188.933594 184.605469 188.933594 184.605469 L 187.90625 184.042969 L 187.136719 183.757812 L 186.828125 183.605469 L 186.316406 183.296875 L 185.953125 183.144531 L 185.570312 182.859375 C 185.570312 182.859375 185.210938 182.808594 185.132812 182.808594 L 184.875 182.808594 L 184.285156 182.65625 C 184.285156 182.65625 183.179688 182.859375 183.078125 182.886719 C 182.976562 182.910156 182.359375 183.117188 182.359375 183.117188 L 181.847656 183.296875 L 181.359375 183.65625 L 180.820312 184.402344 L 180.585938 184.582031 L 179.96875 186.199219 L 179.175781 186.8125 L 178.714844 187.019531 L 178.25 187.199219 L 177.992188 188.125 L 178.070312 188.585938 L 178.25 189.460938 L 178.453125 189.613281 C 178.453125 189.613281 178.890625 189.332031 179.019531 189.214844 C 179.148438 189.101562 179.609375 189.214844 179.609375 189.214844 L 179.96875 189.71875 C 179.96875 189.71875 180.226562 190.152344 180.277344 190.179688 C 180.328125 190.203125 180.277344 190.625 180.277344 190.640625 L 179.917969 190.640625 L 179.738281 190.589844 L 179.535156 189.894531 L 179.125 190.023438 L 178.816406 190.28125 C 178.816406 190.28125 178.8125 190.28125 178.8125 190.28125 L 178.992188 191.078125 L 178.917969 191.511719 L 178.457031 191.796875 L 177.609375 192.414062 L 177.121094 192.386719 L 176.683594 192.335938 L 176.605469 191.589844 L 175.707031 190.921875 L 175.414062 189.894531 L 175.554688 189.703125 L 175.269531 189.214844 L 174.875 189.394531 C 174.875 189.394531 174.578125 189.457031 174.539062 189.457031 C 174.539062 189.457031 174.535156 189.460938 174.53125 189.464844 C 174.492188 189.523438 174.4375 190.003906 174.449219 190.050781 C 174.460938 190.101562 174.574219 190.644531 174.578125 190.652344 L 174.371094 190.753906 L 173.808594 191.21875 L 173.511719 191.511719 L 173.601562 191.886719 L 173.421875 192.488281 L 173.972656 192.527344 L 174.292969 192.386719 L 174.550781 192.269531 C 174.550781 192.269531 174.554688 192.269531 174.554688 192.269531 L 174.566406 191.832031 L 174.566406 191.460938 L 174.875 191.460938 L 174.875 191.21875 L 175.285156 191.21875 L 175.386719 191.386719 L 175.414062 191.847656 L 175.128906 191.847656 L 174.976562 192.324219 L 175.128906 192.527344 L 175.476562 192.65625 L 174.875 192.976562 C 174.875 192.976562 174.871094 192.976562 174.871094 192.976562 L 174.871094 193.234375 L 175.269531 193.105469 L 175.578125 193.066406 L 176.167969 192.964844 L 176.761719 192.78125 L 176.863281 193.242188 L 176.382812 193.550781 L 176.195312 193.496094 L 175.855469 193.429688 C 175.855469 193.429688 175.851562 193.429688 175.851562 193.429688 L 175.820312 193.839844 L 175.152344 193.753906 L 175.152344 193.757812 L 175.097656 194.03125 L 175.75 194.304688 L 176.195312 194.851562 L 176.105469 195.332031 L 176.039062 195.691406 L 175.9375 195.890625 L 175.886719 195.910156 L 175.585938 195.941406 L 175.328125 195.941406 L 174.917969 195.957031 L 174.371094 195.859375 L 174.070312 195.828125 L 173.773438 195.957031 L 173.652344 196.089844 C 173.652344 196.089844 173.742188 196.304688 173.761719 196.308594 C 173.78125 196.316406 173.769531 196.558594 173.769531 196.558594 L 173.800781 196.894531 L 173.78125 197.171875 L 173.59375 197.472656 L 173.753906 197.613281 L 173.773438 197.882812 L 173.699219 198.089844 L 173.941406 198.160156 L 174.1875 198.082031 L 174.292969 198.101562 L 174.53125 198.285156 L 174.621094 198.523438 L 174.65625 198.609375 L 174.476562 198.601562 L 174.117188 199.0625 L 173.550781 199.5 L 173.394531 199.960938 L 173.394531 200.398438 L 172.78125 200.808594 L 172.316406 201.199219 L 171.832031 201.605469 C 171.832031 201.605469 171.828125 201.605469 171.828125 201.605469 L 171.546875 202.222656 L 171.085938 202.914062 L 171.289062 203.558594 L 171.496094 204.097656 L 171.339844 204.457031 L 171.289062 204.867188 L 171.367188 205.226562 L 171.261719 205.6875 L 171.570312 206.023438 L 172.007812 206.511719 L 172.289062 206.765625 C 172.289062 206.765625 172.519531 207.125 172.519531 207.230469 C 172.519531 207.332031 172.855469 207.511719 172.933594 207.5625 C 173.007812 207.613281 173.675781 208.152344 173.675781 208.152344 L 174.035156 208.257812 L 174.292969 208.257812 L 174.773438 208.078125 L 176.503906 208.230469 L 177.195312 208.078125 L 178.25 208.410156 L 179.171875 208.71875 L 179.085938 210.085938 L 179.941406 211.210938 L 180.40625 212.183594 L 180.40625 213.160156 L 180.089844 213.878906 C 180.089844 213.878906 179.941406 214.832031 179.917969 214.957031 C 179.890625 215.085938 180.25 215.882812 180.25 215.882812 L 180.738281 217.0625 C 180.738281 217.0625 180.867188 217.578125 180.917969 217.707031 C 180.96875 217.835938 181.40625 218.527344 181.40625 218.527344 L 181.765625 219.144531 L 181.84375 219.761719 C 181.84375 219.761719 182.101562 220.25 182.253906 220.25 C 182.410156 220.25 183.792969 220.09375 183.792969 220.09375 L 184.949219 219.605469 L 185.59375 218.914062 L 186.285156 217.628906 L 186.414062 217.140625 L 186.796875 217.015625 L 186.796875 217.011719 C 186.796875 217.011719 186.800781 217.011719 186.800781 217.011719 L 187.03125 216.292969 L 186.878906 215.625 L 187.414062 215.214844 L 188.289062 214.550781 L 188.597656 214.292969 L 188.597656 212.570312 L 188.289062 211.953125 L 188.265625 211.261719 L 188.597656 210.464844 L 189.394531 209.746094 L 190.316406 208.71875 L 191.035156 208.234375 L 191.035156 208.230469 C 191.035156 208.230469 191.039062 208.230469 191.039062 208.230469 L 191.421875 207.460938 L 191.707031 206.304688 L 191.707031 206.023438 L 190.371094 206.332031 L 189.753906 206.332031 L 189.214844 205.894531 C 189.214844 205.894531 188.984375 205.355469 188.90625 205.328125 C 188.832031 205.304688 188.597656 205.125 188.597656 205.125 L 187.878906 203.710938 L 187.445312 202.890625 L 186.75 201.835938 L 186.492188 200.835938 L 186.851562 200.835938 L 187.1875 201.453125 L 187.75 202.042969 L 188.085938 202.941406 L 188.675781 203.507812 C 188.675781 203.507812 189.113281 204.046875 189.214844 204.328125 C 189.316406 204.613281 189.34375 204.714844 189.394531 204.894531 C 189.445312 205.074219 189.574219 205.691406 189.574219 205.691406 L 189.832031 205.765625 L 190.703125 205.460938 L 191.164062 205.175781 L 191.578125 204.894531 C 191.578125 204.894531 192.320312 204.609375 192.476562 204.558594 C 192.628906 204.507812 193.144531 204.304688 193.195312 204.226562 C 193.246094 204.148438 193.683594 203.660156 193.683594 203.660156 L 193.9375 203.300781 C 193.9375 203.300781 193.941406 203.300781 193.941406 203.300781 L 194.222656 202.890625 L 193.992188 202.273438 L 193.554688 202.042969 L 193.195312 201.863281 L 192.347656 202.273438 L 191.785156 202.121094 L 191.015625 201.203125 L 190.859375 200.605469 L 190.910156 200.4375 C 190.910156 200.4375 191.296875 200.398438 191.296875 200.398438 L 191.640625 200.667969 L 192.117188 201.117188 L 192.476562 201.386719 L 193.105469 201.203125 L 193.453125 201.605469 L 194.03125 201.914062 L 195.046875 201.734375 L 195.6875 201.660156 L 196.664062 202.429688 L 196.921875 202.992188 L 197.769531 203.277344 L 198.152344 203.019531 L 198.253906 203.585938 L 198.460938 204.433594 L 198.691406 204.945312 L 198.820312 205.535156 L 199.667969 207.152344 C 199.667969 207.152344 199.816406 206.976562 199.933594 206.832031 C 199.96875 206.789062 200.003906 206.746094 200.027344 206.71875 C 200.128906 206.59375 200.375 206.441406 200.386719 206.4375 L 200.28125 205.992188 L 200.257812 205.898438 L 200.5 205.421875 C 200.5 205.421875 200.5 205.421875 200.5 205.425781 L 201.003906 204.433594 C 201.003906 204.433594 201.671875 204.125 201.671875 204.125 L 201.980469 203.867188 L 202.46875 203.175781 L 203.082031 202.890625 C 203.082031 202.890625 203.777344 203.328125 203.851562 203.328125 C 203.929688 203.328125 204.238281 203.585938 204.238281 203.585938 L 204.445312 203.789062 L 204.597656 204.277344 L 204.753906 204.867188 L 204.882812 204.792969 L 205.246094 204.5625 C 203.273438 219.421875 190.523438 230.925781 175.132812 230.925781 Z M 175.125 230.925781 " fill-opacity="1" fill-rule="nonzero"/></g><path fill="#0400b8" d="M 191.136719 213.089844 C 191.136719 213.089844 190.75 213.703125 190.75 213.703125 L 190.582031 213.898438 C 190.582031 213.898438 190.429688 214.039062 190.238281 214.117188 C 190.042969 214.191406 189.851562 214.320312 189.851562 214.320312 C 189.851562 214.320312 189.757812 214.371094 189.671875 214.488281 C 189.644531 214.527344 189.617188 214.574219 189.59375 214.628906 C 189.503906 214.847656 189.515625 215.296875 189.515625 215.296875 L 189.621094 215.527344 L 189.375 216.132812 L 189.375 216.390625 L 189.496094 216.839844 L 189.621094 217.09375 L 190.582031 216.953125 L 190.636719 216.3125 L 190.839844 215.875 C 190.839844 215.875 190.945312 215.605469 190.957031 215.527344 C 190.96875 215.449219 191.058594 215.285156 191.097656 215.066406 C 191.136719 214.847656 191.25 214.386719 191.25 214.386719 L 191.355469 214.0625 C 191.355469 214.0625 191.417969 213.898438 191.417969 213.792969 C 191.417969 213.691406 191.339844 213.34375 191.339844 213.34375 Z M 191.136719 213.089844 " fill-opacity="1" fill-rule="nonzero"/><path fill="#0400b8" d="M 200.273438 205.992188 C 200.347656 205.804688 200.421875 205.617188 200.492188 205.425781 L 200.253906 205.898438 Z M 200.273438 205.992188 " fill-opacity="1" fill-rule="nonzero"/><path fill="#0400b8" d="M 191.167969 183.917969 C 191.296875 183.859375 191.546875 183.722656 191.546875 183.722656 C 191.546875 183.722656 191.546875 183.71875 191.546875 183.71875 C 191.546875 183.71875 191.453125 183.515625 191.402344 183.496094 C 191.351562 183.480469 191.1875 183.4375 191.1875 183.4375 L 190.957031 183.429688 L 190.800781 183.679688 L 190.914062 184.003906 C 190.914062 184.003906 191.039062 183.976562 191.167969 183.917969 Z M 191.167969 183.917969 " fill-opacity="1" fill-rule="nonzero"/><path fill="#0400b8" d="M 171.945312 186.429688 L 172.605469 186.234375 L 172.976562 185.980469 L 172.738281 185.625 L 172.289062 185.203125 L 171.960938 185.136719 L 171.3125 185.441406 L 170.839844 185.492188 L 170.375 185.214844 L 170.140625 185.109375 L 169.675781 185.359375 C 169.675781 185.359375 169.675781 185.363281 169.675781 185.363281 L 170.058594 185.679688 L 170.269531 186.339844 L 170.375 186.601562 C 170.375 186.601562 170.613281 186.773438 170.691406 186.785156 C 170.769531 186.800781 171.007812 186.800781 171.007812 186.800781 C 171.007812 186.800781 171.550781 186.722656 171.617188 186.65625 C 171.679688 186.589844 171.945312 186.429688 171.945312 186.429688 Z M 171.945312 186.429688 " fill-opacity="1" fill-rule="nonzero"/><path fill="#ffffff" d="M 362.554688 123.601562 C 363.722656 123.601562 364.484375 122.964844 364.484375 121.800781 C 364.484375 120.632812 363.722656 120.070312 362.523438 120.070312 L 360.667969 120.070312 L 360.667969 123.601562 Z M 359.011719 118.558594 L 362.625 118.558594 C 364.785156 118.558594 366.167969 119.710938 366.167969 121.769531 C 366.167969 123.328125 365.304688 124.304688 364.082031 124.738281 L 366.445312 128.640625 L 364.511719 128.640625 L 362.382812 125.082031 C 362.367188 125.070312 361.847656 125.082031 361.832031 125.082031 L 360.667969 125.082031 L 360.667969 128.640625 L 359.011719 128.640625 L 359.011719 118.558594 " fill-opacity="1" fill-rule="nonzero"/><g clip-path="url(#b3b6ffb030)"><path fill="#ffffff" d="M 362.402344 115.164062 C 361.265625 115.164062 360.160156 115.386719 359.121094 115.828125 C 358.117188 116.25 357.214844 116.859375 356.441406 117.632812 C 355.667969 118.40625 355.058594 119.308594 354.632812 120.3125 C 354.195312 121.351562 353.972656 122.457031 353.972656 123.59375 C 353.972656 124.734375 354.195312 125.835938 354.632812 126.875 C 355.058594 127.878906 355.667969 128.78125 356.441406 129.554688 C 357.214844 130.328125 358.117188 130.9375 359.121094 131.363281 C 360.160156 131.800781 361.265625 132.023438 362.402344 132.023438 C 363.542969 132.023438 364.644531 131.800781 365.683594 131.363281 C 366.6875 130.9375 367.589844 130.328125 368.363281 129.554688 C 369.136719 128.78125 369.746094 127.878906 370.171875 126.875 C 370.609375 125.835938 370.832031 124.734375 370.832031 123.59375 C 370.832031 122.457031 370.609375 121.351562 370.171875 120.3125 C 369.746094 119.308594 369.136719 118.40625 368.363281 117.632812 C 367.589844 116.859375 366.6875 116.25 365.683594 115.828125 C 364.644531 115.386719 363.542969 115.164062 362.402344 115.164062 Z M 362.402344 133.773438 C 361.027344 133.773438 359.695312 133.503906 358.441406 132.972656 C 357.230469 132.457031 356.140625 131.726562 355.207031 130.789062 C 354.273438 129.855469 353.539062 128.769531 353.027344 127.554688 C 352.496094 126.300781 352.226562 124.96875 352.226562 123.59375 C 352.226562 122.222656 352.496094 120.886719 353.027344 119.632812 C 353.539062 118.421875 354.273438 117.332031 355.207031 116.398438 C 356.140625 115.464844 357.230469 114.730469 358.441406 114.21875 C 359.695312 113.6875 361.027344 113.417969 362.402344 113.417969 C 363.777344 113.417969 365.109375 113.6875 366.363281 114.21875 C 367.578125 114.730469 368.664062 115.464844 369.597656 116.398438 C 370.535156 117.332031 371.265625 118.421875 371.78125 119.632812 C 372.3125 120.886719 372.578125 122.222656 372.578125 123.59375 C 372.578125 124.96875 372.3125 126.300781 371.78125 127.554688 C 371.265625 128.769531 370.535156 129.855469 369.597656 130.789062 C 368.664062 131.726562 367.578125 132.457031 366.363281 132.972656 C 365.109375 133.503906 363.777344 133.773438 362.402344 133.773438 " fill-opacity="1" fill-rule="nonzero"/></g><g fill="#ffffff" fill-opacity="1"><g transform="translate(309.628021, 232.928115)"><g><path d="M 30.84375 -75.3125 L 51.75 -75.3125 L 51.75 0 L 30.84375 0 Z M 24.953125 -53.953125 L 24.953125 0 C 17.472656 -0.75 11.691406 -3.472656 7.609375 -8.171875 C 3.523438 -12.867188 1.484375 -19.160156 1.484375 -27.046875 C 1.484375 -34.835938 3.539062 -41.097656 7.65625 -45.828125 C 11.769531 -50.554688 17.535156 -53.265625 24.953125 -53.953125 Z M 24.953125 -53.953125 "/></g></g></g><g fill="#ffffff" fill-opacity="1"><g transform="translate(227.360409, 232.891847)"><g><path d="M 40.140625 0 L 4.53125 0 L 4.53125 -101.671875 L 40.140625 -101.671875 Z M 43.09375 -101.671875 L 78.296875 -101.671875 L 78.296875 -62.484375 Z M 64.890625 -31.96875 L 42.6875 -52.9375 L 64.890625 -73.890625 Z M 43.09375 0 L 78.84375 -45.78125 L 78.84375 0 Z M 43.09375 0 "/></g></g></g><g fill="#ffffff" fill-opacity="1"><g transform="translate(11.519916, 250.723951)"><g><path d="M 18.625 -10.875 L 20.53125 -10.875 L 16.734375 0 L 14.546875 0 L 10.390625 -8.9375 L 6.21875 0 L 4.046875 0 L 0.234375 -10.875 L 2.140625 -10.875 L 5.1875 -2.1875 L 9.21875 -10.875 L 11.546875 -10.875 L 15.59375 -2.1875 Z M 18.625 -10.875 "/></g></g></g><g fill="#ffffff" fill-opacity="1"><g transform="translate(32.282755, 250.723951)"><g><path d="M 13.703125 -9.21875 L 4.09375 -9.21875 L 4.09375 -6.125 L 12.578125 -6.125 L 12.578125 -4.484375 L 4.09375 -4.484375 L 4.09375 -1.65625 L 13.703125 -1.65625 L 13.703125 0 L 2.25 0 L 2.25 -10.875 L 13.703125 -10.875 Z M 13.703125 -9.21875 "/></g></g></g><g fill="#ffffff" fill-opacity="1"><g transform="translate(47.08488, 250.723951)"><g/></g></g><g fill="#ffffff" fill-opacity="1"><g transform="translate(54.331943, 250.723951)"><g><path d="M 12 0 L 10.921875 -1.9375 L 3.28125 -1.9375 L 2.21875 0 L 0.09375 0 L 6.046875 -10.828125 L 6.015625 -10.875 L 8.1875 -10.875 L 8.171875 -10.828125 L 14.125 0 Z M 4.28125 -3.75 L 9.9375 -3.75 L 7.109375 -8.90625 Z M 4.28125 -3.75 "/></g></g></g><g fill="#ffffff" fill-opacity="1"><g transform="translate(68.536185, 250.723951)"><g><path d="M 2.25 0 L 2.25 -10.875 L 4.09375 -10.875 L 4.09375 0 Z M 2.25 0 "/></g></g></g><g fill="#ffffff" fill-opacity="1"><g transform="translate(74.877367, 250.723951)"><g><path d="M 18.59375 -10.875 L 18.59375 0 L 16.75 0 L 16.75 -8.609375 L 11.46875 -0.03125 L 11.484375 0 L 9.265625 0 L 9.296875 -0.03125 L 4.09375 -8.578125 L 4.09375 0 L 2.25 0 L 2.25 -10.875 L 4.875 -10.875 L 10.390625 -1.8125 L 15.96875 -10.875 Z M 18.59375 -10.875 "/></g></g></g><g fill="#ffffff" fill-opacity="1"><g transform="translate(95.712674, 250.723951)"><g/></g></g><g fill="#ffffff" fill-opacity="1"><g transform="translate(102.959737, 250.723951)"><g><path d="M 13.703125 -9.21875 L 4.09375 -9.21875 L 4.09375 -6.046875 L 12.578125 -6.046875 L 12.578125 -4.40625 L 4.09375 -4.40625 L 4.09375 0 L 2.25 0 L 2.25 -10.875 L 13.703125 -10.875 Z M 13.703125 -9.21875 "/></g></g></g><g fill="#ffffff" fill-opacity="1"><g transform="translate(116.982797, 250.723951)"><g><path d="M 8.8125 0.1875 C 7.40625 0.1875 6.226562 0.0390625 5.28125 -0.25 C 4.34375 -0.539062 3.59375 -0.9375 3.03125 -1.4375 C 2.46875 -1.9375 2.0625 -2.5 1.8125 -3.125 C 1.570312 -3.75 1.453125 -4.382812 1.453125 -5.03125 L 1.453125 -5.84375 C 1.453125 -6.507812 1.570312 -7.15625 1.8125 -7.78125 C 2.0625 -8.414062 2.46875 -8.976562 3.03125 -9.46875 C 3.59375 -9.96875 4.34375 -10.363281 5.28125 -10.65625 C 6.226562 -10.957031 7.40625 -11.109375 8.8125 -11.109375 C 10.1875 -11.109375 11.34375 -10.96875 12.28125 -10.6875 C 13.226562 -10.40625 13.984375 -10.019531 14.546875 -9.53125 C 15.117188 -9.039062 15.53125 -8.484375 15.78125 -7.859375 C 16.039062 -7.234375 16.171875 -6.582031 16.171875 -5.90625 L 16.171875 -5.109375 C 16.171875 -4.472656 16.050781 -3.835938 15.8125 -3.203125 C 15.570312 -2.578125 15.175781 -2.003906 14.625 -1.484375 C 14.070312 -0.972656 13.320312 -0.566406 12.375 -0.265625 C 11.425781 0.0351562 10.238281 0.1875 8.8125 0.1875 Z M 8.8125 -1.625 C 10.164062 -1.625 11.238281 -1.765625 12.03125 -2.046875 C 12.832031 -2.335938 13.40625 -2.726562 13.75 -3.21875 C 14.101562 -3.707031 14.28125 -4.253906 14.28125 -4.859375 L 14.28125 -5.65625 C 14.28125 -6.332031 14.085938 -6.941406 13.703125 -7.484375 C 13.328125 -8.035156 12.734375 -8.472656 11.921875 -8.796875 C 11.117188 -9.128906 10.082031 -9.296875 8.8125 -9.296875 C 7.5 -9.296875 6.441406 -9.144531 5.640625 -8.84375 C 4.835938 -8.539062 4.25 -8.128906 3.875 -7.609375 C 3.507812 -7.085938 3.328125 -6.5 3.328125 -5.84375 L 3.328125 -5.03125 C 3.328125 -4.394531 3.507812 -3.816406 3.875 -3.296875 C 4.25 -2.785156 4.835938 -2.378906 5.640625 -2.078125 C 6.441406 -1.773438 7.5 -1.625 8.8125 -1.625 Z M 8.8125 -1.625 "/></g></g></g><g fill="#ffffff" fill-opacity="1"><g transform="translate(134.593163, 250.723951)"><g><path d="M 15.109375 -7.703125 C 15.109375 -6.921875 14.953125 -6.328125 14.640625 -5.921875 C 14.328125 -5.515625 13.910156 -5.226562 13.390625 -5.0625 C 13.921875 -4.769531 14.304688 -4.390625 14.546875 -3.921875 C 14.785156 -3.453125 14.90625 -2.9375 14.90625 -2.375 L 14.90625 -1.09375 C 14.90625 -0.894531 14.910156 -0.703125 14.921875 -0.515625 C 14.941406 -0.335938 14.960938 -0.164062 14.984375 0 L 12.875 0 C 12.84375 -0.164062 12.820312 -0.335938 12.8125 -0.515625 C 12.800781 -0.691406 12.796875 -0.859375 12.796875 -1.015625 L 12.796875 -2.234375 C 12.796875 -2.523438 12.769531 -2.820312 12.71875 -3.125 C 12.675781 -3.425781 12.523438 -3.679688 12.265625 -3.890625 C 12.015625 -4.097656 11.582031 -4.203125 10.96875 -4.203125 L 4.21875 -4.203125 L 4.21875 0 L 2.25 0 L 2.25 -10.875 L 11.734375 -10.875 C 12.796875 -10.875 13.625 -10.625 14.21875 -10.125 C 14.8125 -9.625 15.109375 -8.882812 15.109375 -7.90625 Z M 4.21875 -6.140625 L 11.734375 -6.140625 C 12.242188 -6.140625 12.617188 -6.289062 12.859375 -6.59375 C 13.109375 -6.90625 13.234375 -7.273438 13.234375 -7.703125 L 13.234375 -7.90625 C 13.234375 -8.082031 13.191406 -8.257812 13.109375 -8.4375 C 13.035156 -8.613281 12.890625 -8.757812 12.671875 -8.875 C 12.453125 -9 12.140625 -9.0625 11.734375 -9.0625 L 4.21875 -9.0625 Z M 4.21875 -6.140625 "/></g></g></g><g fill="#ffffff" fill-opacity="1"><g transform="translate(151.062115, 250.723951)"><g/></g></g><g fill="#ffffff" fill-opacity="1"><g transform="translate(158.309178, 250.723951)"><g><path d="M 11.34375 -10.875 L 13.859375 -10.875 L 7.828125 -3.984375 L 7.828125 0 L 5.984375 0 L 5.984375 -4 L 5.6875 -4.34375 L 5.671875 -4.34375 L -0.03125 -10.875 L 2.484375 -10.875 L 6.921875 -5.78125 Z M 11.34375 -10.875 "/></g></g></g><g fill="#ffffff" fill-opacity="1"><g transform="translate(172.151071, 250.723951)"><g><path d="M 8.8125 0.1875 C 7.40625 0.1875 6.226562 0.0390625 5.28125 -0.25 C 4.34375 -0.539062 3.59375 -0.9375 3.03125 -1.4375 C 2.46875 -1.9375 2.0625 -2.5 1.8125 -3.125 C 1.570312 -3.75 1.453125 -4.382812 1.453125 -5.03125 L 1.453125 -5.84375 C 1.453125 -6.507812 1.570312 -7.15625 1.8125 -7.78125 C 2.0625 -8.414062 2.46875 -8.976562 3.03125 -9.46875 C 3.59375 -9.96875 4.34375 -10.363281 5.28125 -10.65625 C 6.226562 -10.957031 7.40625 -11.109375 8.8125 -11.109375 C 10.1875 -11.109375 11.34375 -10.96875 12.28125 -10.6875 C 13.226562 -10.40625 13.984375 -10.019531 14.546875 -9.53125 C 15.117188 -9.039062 15.53125 -8.484375 15.78125 -7.859375 C 16.039062 -7.234375 16.171875 -6.582031 16.171875 -5.90625 L 16.171875 -5.109375 C 16.171875 -4.472656 16.050781 -3.835938 15.8125 -3.203125 C 15.570312 -2.578125 15.175781 -2.003906 14.625 -1.484375 C 14.070312 -0.972656 13.320312 -0.566406 12.375 -0.265625 C 11.425781 0.0351562 10.238281 0.1875 8.8125 0.1875 Z M 8.8125 -1.625 C 10.164062 -1.625 11.238281 -1.765625 12.03125 -2.046875 C 12.832031 -2.335938 13.40625 -2.726562 13.75 -3.21875 C 14.101562 -3.707031 14.28125 -4.253906 14.28125 -4.859375 L 14.28125 -5.65625 C 14.28125 -6.332031 14.085938 -6.941406 13.703125 -7.484375 C 13.328125 -8.035156 12.734375 -8.472656 11.921875 -8.796875 C 11.117188 -9.128906 10.082031 -9.296875 8.8125 -9.296875 C 7.5 -9.296875 6.441406 -9.144531 5.640625 -8.84375 C 4.835938 -8.539062 4.25 -8.128906 3.875 -7.609375 C 3.507812 -7.085938 3.328125 -6.5 3.328125 -5.84375 L 3.328125 -5.03125 C 3.328125 -4.394531 3.507812 -3.816406 3.875 -3.296875 C 4.25 -2.785156 4.835938 -2.378906 5.640625 -2.078125 C 6.441406 -1.773438 7.5 -1.625 8.8125 -1.625 Z M 8.8125 -1.625 "/></g></g></g><g fill="#ffffff" fill-opacity="1"><g transform="translate(189.761437, 250.723951)"><g><path d="M 8.1875 0.1875 C 6.789062 0.1875 5.648438 0.0390625 4.765625 -0.25 C 3.878906 -0.539062 3.195312 -0.9375 2.71875 -1.4375 C 2.25 -1.9375 1.921875 -2.5 1.734375 -3.125 C 1.554688 -3.75 1.46875 -4.382812 1.46875 -5.03125 L 1.5625 -10.84375 L 3.578125 -10.84375 L 3.578125 -5.03125 C 3.578125 -4.394531 3.734375 -3.828125 4.046875 -3.328125 C 4.359375 -2.835938 4.851562 -2.453125 5.53125 -2.171875 C 6.207031 -1.898438 7.09375 -1.765625 8.1875 -1.765625 C 9.320312 -1.765625 10.226562 -1.894531 10.90625 -2.15625 C 11.582031 -2.425781 12.066406 -2.804688 12.359375 -3.296875 C 12.660156 -3.796875 12.8125 -4.375 12.8125 -5.03125 L 12.90625 -10.84375 L 14.921875 -10.84375 L 14.921875 -5.296875 C 14.921875 -4.609375 14.832031 -3.9375 14.65625 -3.28125 C 14.476562 -2.625 14.15625 -2.035156 13.6875 -1.515625 C 13.21875 -1.003906 12.539062 -0.59375 11.65625 -0.28125 C 10.769531 0.03125 9.613281 0.1875 8.1875 0.1875 Z M 8.1875 0.1875 "/></g></g></g><g fill="#ffffff" fill-opacity="1"><g transform="translate(206.248506, 250.723951)"><g><path d="M 15.109375 -7.703125 C 15.109375 -6.921875 14.953125 -6.328125 14.640625 -5.921875 C 14.328125 -5.515625 13.910156 -5.226562 13.390625 -5.0625 C 13.921875 -4.769531 14.304688 -4.390625 14.546875 -3.921875 C 14.785156 -3.453125 14.90625 -2.9375 14.90625 -2.375 L 14.90625 -1.09375 C 14.90625 -0.894531 14.910156 -0.703125 14.921875 -0.515625 C 14.941406 -0.335938 14.960938 -0.164062 14.984375 0 L 12.875 0 C 12.84375 -0.164062 12.820312 -0.335938 12.8125 -0.515625 C 12.800781 -0.691406 12.796875 -0.859375 12.796875 -1.015625 L 12.796875 -2.234375 C 12.796875 -2.523438 12.769531 -2.820312 12.71875 -3.125 C 12.675781 -3.425781 12.523438 -3.679688 12.265625 -3.890625 C 12.015625 -4.097656 11.582031 -4.203125 10.96875 -4.203125 L 4.21875 -4.203125 L 4.21875 0 L 2.25 0 L 2.25 -10.875 L 11.734375 -10.875 C 12.796875 -10.875 13.625 -10.625 14.21875 -10.125 C 14.8125 -9.625 15.109375 -8.882812 15.109375 -7.90625 Z M 4.21875 -6.140625 L 11.734375 -6.140625 C 12.242188 -6.140625 12.617188 -6.289062 12.859375 -6.59375 C 13.109375 -6.90625 13.234375 -7.273438 13.234375 -7.703125 L 13.234375 -7.90625 C 13.234375 -8.082031 13.191406 -8.257812 13.109375 -8.4375 C 13.035156 -8.613281 12.890625 -8.757812 12.671875 -8.875 C 12.453125 -9 12.140625 -9.0625 11.734375 -9.0625 L 4.21875 -9.0625 Z M 4.21875 -6.140625 "/></g></g></g><g fill="#ffffff" fill-opacity="1"><g transform="translate(222.717458, 250.723951)"><g/></g></g><g fill="#ffffff" fill-opacity="1"><g transform="translate(229.964521, 250.723951)"><g><path d="M 13.703125 -9.21875 L 4.09375 -9.21875 L 4.09375 -6.125 L 12.578125 -6.125 L 12.578125 -4.484375 L 4.09375 -4.484375 L 4.09375 -1.65625 L 13.703125 -1.65625 L 13.703125 0 L 2.25 0 L 2.25 -10.875 L 13.703125 -10.875 Z M 13.703125 -9.21875 "/></g></g></g><g fill="#ffffff" fill-opacity="1"><g transform="translate(244.766645, 250.723951)"><g><path d="M 8.625 -10.875 C 9.96875 -10.875 11.085938 -10.78125 11.984375 -10.59375 C 12.878906 -10.40625 13.59375 -10.140625 14.125 -9.796875 C 14.664062 -9.460938 15.066406 -9.070312 15.328125 -8.625 C 15.597656 -8.1875 15.773438 -7.710938 15.859375 -7.203125 C 15.941406 -6.703125 15.984375 -6.1875 15.984375 -5.65625 L 15.984375 -4.859375 C 15.984375 -4.347656 15.941406 -3.851562 15.859375 -3.375 C 15.773438 -2.90625 15.597656 -2.460938 15.328125 -2.046875 C 15.066406 -1.640625 14.664062 -1.28125 14.125 -0.96875 C 13.59375 -0.65625 12.878906 -0.414062 11.984375 -0.25 C 11.085938 -0.0820312 9.96875 0 8.625 0 L 2.25 0 L 2.25 -10.875 Z M 14.09375 -4.859375 L 14.09375 -5.65625 C 14.09375 -6.132812 14.039062 -6.582031 13.9375 -7 C 13.832031 -7.414062 13.597656 -7.78125 13.234375 -8.09375 C 12.878906 -8.40625 12.335938 -8.644531 11.609375 -8.8125 C 10.878906 -8.976562 9.882812 -9.0625 8.625 -9.0625 L 4.09375 -9.0625 L 4.09375 -1.8125 L 8.625 -1.8125 C 9.925781 -1.8125 10.945312 -1.882812 11.6875 -2.03125 C 12.4375 -2.175781 12.984375 -2.382812 13.328125 -2.65625 C 13.671875 -2.925781 13.882812 -3.25 13.96875 -3.625 C 14.050781 -4 14.09375 -4.410156 14.09375 -4.859375 Z M 14.09375 -4.859375 "/></g></g></g><g fill="#ffffff" fill-opacity="1"><g transform="translate(262.195829, 250.723951)"><g><path d="M 8.1875 0.1875 C 6.789062 0.1875 5.648438 0.0390625 4.765625 -0.25 C 3.878906 -0.539062 3.195312 -0.9375 2.71875 -1.4375 C 2.25 -1.9375 1.921875 -2.5 1.734375 -3.125 C 1.554688 -3.75 1.46875 -4.382812 1.46875 -5.03125 L 1.5625 -10.84375 L 3.578125 -10.84375 L 3.578125 -5.03125 C 3.578125 -4.394531 3.734375 -3.828125 4.046875 -3.328125 C 4.359375 -2.835938 4.851562 -2.453125 5.53125 -2.171875 C 6.207031 -1.898438 7.09375 -1.765625 8.1875 -1.765625 C 9.320312 -1.765625 10.226562 -1.894531 10.90625 -2.15625 C 11.582031 -2.425781 12.066406 -2.804688 12.359375 -3.296875 C 12.660156 -3.796875 12.8125 -4.375 12.8125 -5.03125 L 12.90625 -10.84375 L 14.921875 -10.84375 L 14.921875 -5.296875 C 14.921875 -4.609375 14.832031 -3.9375 14.65625 -3.28125 C 14.476562 -2.625 14.15625 -2.035156 13.6875 -1.515625 C 13.21875 -1.003906 12.539062 -0.59375 11.65625 -0.28125 C 10.769531 0.03125 9.613281 0.1875 8.1875 0.1875 Z M 8.1875 0.1875 "/></g></g></g><g fill="#ffffff" fill-opacity="1"><g transform="translate(278.682914, 250.723951)"><g><path d="M 8.8125 0.1875 C 7.40625 0.1875 6.226562 0.0390625 5.28125 -0.25 C 4.34375 -0.550781 3.59375 -0.957031 3.03125 -1.46875 C 2.46875 -1.988281 2.0625 -2.570312 1.8125 -3.21875 C 1.570312 -3.875 1.453125 -4.5625 1.453125 -5.28125 L 1.453125 -5.65625 C 1.453125 -6.363281 1.570312 -7.046875 1.8125 -7.703125 C 2.0625 -8.359375 2.46875 -8.941406 3.03125 -9.453125 C 3.59375 -9.960938 4.34375 -10.363281 5.28125 -10.65625 C 6.226562 -10.957031 7.40625 -11.109375 8.8125 -11.109375 C 10.332031 -11.109375 11.625 -10.914062 12.6875 -10.53125 C 13.75 -10.144531 14.566406 -9.632812 15.140625 -9 C 15.710938 -8.363281 16.023438 -7.679688 16.078125 -6.953125 L 14.0625 -6.953125 C 13.988281 -7.378906 13.722656 -7.769531 13.265625 -8.125 C 12.816406 -8.476562 12.210938 -8.757812 11.453125 -8.96875 C 10.691406 -9.1875 9.8125 -9.296875 8.8125 -9.296875 C 7.5 -9.296875 6.441406 -9.140625 5.640625 -8.828125 C 4.835938 -8.523438 4.25 -8.101562 3.875 -7.5625 C 3.507812 -7.019531 3.328125 -6.382812 3.328125 -5.65625 L 3.328125 -5.28125 C 3.328125 -4.5625 3.507812 -3.925781 3.875 -3.375 C 4.25 -2.832031 4.835938 -2.40625 5.640625 -2.09375 C 6.441406 -1.78125 7.5 -1.625 8.8125 -1.625 C 9.9375 -1.625 10.859375 -1.726562 11.578125 -1.9375 C 12.296875 -2.15625 12.851562 -2.445312 13.25 -2.8125 C 13.644531 -3.1875 13.910156 -3.609375 14.046875 -4.078125 L 16.0625 -4.078125 C 15.9375 -3.316406 15.617188 -2.613281 15.109375 -1.96875 C 14.597656 -1.320312 13.832031 -0.800781 12.8125 -0.40625 C 11.789062 -0.0078125 10.457031 0.1875 8.8125 0.1875 Z M 8.8125 0.1875 "/></g></g></g><g fill="#ffffff" fill-opacity="1"><g transform="translate(296.257032, 250.723951)"><g><path d="M 12 0 L 10.921875 -1.9375 L 3.28125 -1.9375 L 2.21875 0 L 0.09375 0 L 6.046875 -10.828125 L 6.015625 -10.875 L 8.1875 -10.875 L 8.171875 -10.828125 L 14.125 0 Z M 4.28125 -3.75 L 9.9375 -3.75 L 7.109375 -8.90625 Z M 4.28125 -3.75 "/></g></g></g><g fill="#ffffff" fill-opacity="1"><g transform="translate(310.46126, 250.723951)"><g><path d="M 12.375 -10.875 L 12.375 -9.09375 L 7.09375 -9.09375 L 7.09375 0 L 5.234375 0 L 5.234375 -9.09375 L -0.046875 -9.09375 L -0.046875 -10.875 Z M 12.375 -10.875 "/></g></g></g><g fill="#ffffff" fill-opacity="1"><g transform="translate(322.763142, 250.723951)"><g><path d="M 2.25 0 L 2.25 -10.875 L 4.09375 -10.875 L 4.09375 0 Z M 2.25 0 "/></g></g></g><g fill="#ffffff" fill-opacity="1"><g transform="translate(329.104324, 250.723951)"><g><path d="M 8.8125 0.1875 C 7.40625 0.1875 6.226562 0.0390625 5.28125 -0.25 C 4.34375 -0.539062 3.59375 -0.9375 3.03125 -1.4375 C 2.46875 -1.9375 2.0625 -2.5 1.8125 -3.125 C 1.570312 -3.75 1.453125 -4.382812 1.453125 -5.03125 L 1.453125 -5.84375 C 1.453125 -6.507812 1.570312 -7.15625 1.8125 -7.78125 C 2.0625 -8.414062 2.46875 -8.976562 3.03125 -9.46875 C 3.59375 -9.96875 4.34375 -10.363281 5.28125 -10.65625 C 6.226562 -10.957031 7.40625 -11.109375 8.8125 -11.109375 C 10.1875 -11.109375 11.34375 -10.96875 12.28125 -10.6875 C 13.226562 -10.40625 13.984375 -10.019531 14.546875 -9.53125 C 15.117188 -9.039062 15.53125 -8.484375 15.78125 -7.859375 C 16.039062 -7.234375 16.171875 -6.582031 16.171875 -5.90625 L 16.171875 -5.109375 C 16.171875 -4.472656 16.050781 -3.835938 15.8125 -3.203125 C 15.570312 -2.578125 15.175781 -2.003906 14.625 -1.484375 C 14.070312 -0.972656 13.320312 -0.566406 12.375 -0.265625 C 11.425781 0.0351562 10.238281 0.1875 8.8125 0.1875 Z M 8.8125 -1.625 C 10.164062 -1.625 11.238281 -1.765625 12.03125 -2.046875 C 12.832031 -2.335938 13.40625 -2.726562 13.75 -3.21875 C 14.101562 -3.707031 14.28125 -4.253906 14.28125 -4.859375 L 14.28125 -5.65625 C 14.28125 -6.332031 14.085938 -6.941406 13.703125 -7.484375 C 13.328125 -8.035156 12.734375 -8.472656 11.921875 -8.796875 C 11.117188 -9.128906 10.082031 -9.296875 8.8125 -9.296875 C 7.5 -9.296875 6.441406 -9.144531 5.640625 -8.84375 C 4.835938 -8.539062 4.25 -8.128906 3.875 -7.609375 C 3.507812 -7.085938 3.328125 -6.5 3.328125 -5.84375 L 3.328125 -5.03125 C 3.328125 -4.394531 3.507812 -3.816406 3.875 -3.296875 C 4.25 -2.785156 4.835938 -2.378906 5.640625 -2.078125 C 6.441406 -1.773438 7.5 -1.625 8.8125 -1.625 Z M 8.8125 -1.625 "/></g></g></g><g fill="#ffffff" fill-opacity="1"><g transform="translate(346.714675, 250.723951)"><g><path d="M 12.65625 -10.875 L 14.5 -10.875 L 14.5 0 L 12.015625 0 L 4.09375 -8.8125 L 4.09375 0 L 2.25 0 L 2.25 -10.875 L 4.6875 -10.875 L 12.65625 -2.046875 Z M 12.65625 -10.875 "/></g></g></g></svg>