<svg xmlns="http://www.w3.org/2000/svg" xmlns:xlink="http://www.w3.org/1999/xlink" width="500" zoomAndPan="magnify" viewBox="0 0 375 374.999991" height="500" preserveAspectRatio="xMidYMid meet" version="1.0"><defs><g/><clipPath id="6dc1c1e5fc"><path d="M 24 180 L 72 180 L 72 225 L 24 225 Z M 24 180 " clip-rule="nonzero"/></clipPath><clipPath id="e6043d1f8d"><path d="M 3.304688 211.421875 L 38.90625 157.636719 L 92.691406 193.238281 L 57.089844 247.023438 Z M 3.304688 211.421875 " clip-rule="nonzero"/></clipPath><clipPath id="5f3ff360b2"><path d="M 3.304688 211.421875 L 38.90625 157.636719 L 92.691406 193.238281 L 57.089844 247.023438 Z M 3.304688 211.421875 " clip-rule="nonzero"/></clipPath><clipPath id="5fa166752b"><path d="M 53 193 L 57 193 L 57 197 L 53 197 Z M 53 193 " clip-rule="nonzero"/></clipPath><clipPath id="5b693f6318"><path d="M 3.304688 211.421875 L 38.90625 157.636719 L 92.691406 193.238281 L 57.089844 247.023438 Z M 3.304688 211.421875 " clip-rule="nonzero"/></clipPath><clipPath id="fe247a2385"><path d="M 3.304688 211.421875 L 38.90625 157.636719 L 92.691406 193.238281 L 57.089844 247.023438 Z M 3.304688 211.421875 " clip-rule="nonzero"/></clipPath><clipPath id="f6e2cd5d35"><path d="M 60 194 L 64 194 L 64 198 L 60 198 Z M 60 194 " clip-rule="nonzero"/></clipPath><clipPath id="4a51d43b86"><path d="M 3.304688 211.421875 L 38.90625 157.636719 L 92.691406 193.238281 L 57.089844 247.023438 Z M 3.304688 211.421875 " clip-rule="nonzero"/></clipPath><clipPath id="fad8cc96cf"><path d="M 3.304688 211.421875 L 38.90625 157.636719 L 92.691406 193.238281 L 57.089844 247.023438 Z M 3.304688 211.421875 " clip-rule="nonzero"/></clipPath><clipPath id="540008dbae"><path d="M 62 199 L 65 199 L 65 201 L 62 201 Z M 62 199 " clip-rule="nonzero"/></clipPath><clipPath id="6b619777a9"><path d="M 3.304688 211.421875 L 38.90625 157.636719 L 92.691406 193.238281 L 57.089844 247.023438 Z M 3.304688 211.421875 " clip-rule="nonzero"/></clipPath><clipPath id="9d89ff04f9"><path d="M 3.304688 211.421875 L 38.90625 157.636719 L 92.691406 193.238281 L 57.089844 247.023438 Z M 3.304688 211.421875 " clip-rule="nonzero"/></clipPath><clipPath id="36962cc6b9"><path d="M 55 200 L 58 200 L 58 202 L 55 202 Z M 55 200 " clip-rule="nonzero"/></clipPath><clipPath id="47c5986927"><path d="M 3.304688 211.421875 L 38.90625 157.636719 L 92.691406 193.238281 L 57.089844 247.023438 Z M 3.304688 211.421875 " clip-rule="nonzero"/></clipPath><clipPath id="35bfcbb16c"><path d="M 3.304688 211.421875 L 38.90625 157.636719 L 92.691406 193.238281 L 57.089844 247.023438 Z M 3.304688 211.421875 " clip-rule="nonzero"/></clipPath><clipPath id="9b429fbb76"><path d="M 32 205 L 35 205 L 35 207 L 32 207 Z M 32 205 " clip-rule="nonzero"/></clipPath><clipPath id="83e79e3735"><path d="M 3.304688 211.421875 L 38.90625 157.636719 L 92.691406 193.238281 L 57.089844 247.023438 Z M 3.304688 211.421875 " clip-rule="nonzero"/></clipPath><clipPath id="450fe2310e"><path d="M 3.304688 211.421875 L 38.90625 157.636719 L 92.691406 193.238281 L 57.089844 247.023438 Z M 3.304688 211.421875 " clip-rule="nonzero"/></clipPath><clipPath id="9619469dba"><path d="M 30 200 L 34 200 L 34 204 L 30 204 Z M 30 200 " clip-rule="nonzero"/></clipPath><clipPath id="849fb00190"><path d="M 3.304688 211.421875 L 38.90625 157.636719 L 92.691406 193.238281 L 57.089844 247.023438 Z M 3.304688 211.421875 " clip-rule="nonzero"/></clipPath><clipPath id="f7ae1d8d91"><path d="M 3.304688 211.421875 L 38.90625 157.636719 L 92.691406 193.238281 L 57.089844 247.023438 Z M 3.304688 211.421875 " clip-rule="nonzero"/></clipPath><clipPath id="8054f584b8"><path d="M 38 203 L 41 203 L 41 206 L 38 206 Z M 38 203 " clip-rule="nonzero"/></clipPath><clipPath id="19bf3201ba"><path d="M 3.304688 211.421875 L 38.90625 157.636719 L 92.691406 193.238281 L 57.089844 247.023438 Z M 3.304688 211.421875 " clip-rule="nonzero"/></clipPath><clipPath id="e6bf4022d2"><path d="M 3.304688 211.421875 L 38.90625 157.636719 L 92.691406 193.238281 L 57.089844 247.023438 Z M 3.304688 211.421875 " clip-rule="nonzero"/></clipPath><clipPath id="7b942490f9"><path d="M 36 196 L 41 196 L 41 200 L 36 200 Z M 36 196 " clip-rule="nonzero"/></clipPath><clipPath id="e9d2bdfa0a"><path d="M 3.304688 211.421875 L 38.90625 157.636719 L 92.691406 193.238281 L 57.089844 247.023438 Z M 3.304688 211.421875 " clip-rule="nonzero"/></clipPath><clipPath id="2de8f7fa06"><path d="M 3.304688 211.421875 L 38.90625 157.636719 L 92.691406 193.238281 L 57.089844 247.023438 Z M 3.304688 211.421875 " clip-rule="nonzero"/></clipPath><clipPath id="c168a60cdf"><path d="M 182.730469 130.425781 L 184.207031 130.425781 L 184.207031 131.648438 L 182.730469 131.648438 Z M 182.730469 130.425781 " clip-rule="nonzero"/></clipPath><clipPath id="a03d77c9b3"><path d="M 184.199219 130.875 C 183.523438 131.851562 182.925781 131.699219 182.773438 131.476562 C 182.699219 131.25 182.773438 130.648438 183 130.5 C 183.148438 130.351562 183.976562 130.574219 183.976562 130.574219 " clip-rule="nonzero"/></clipPath><clipPath id="9f0e4981b0"><path d="M 182.695312 123.734375 L 196.917969 123.734375 L 196.917969 131.960938 L 182.695312 131.960938 Z M 182.695312 123.734375 " clip-rule="nonzero"/></clipPath><clipPath id="0e14cc3baa"><path d="M 183.375 130.351562 C 194.773438 128.25 195.074219 127.800781 195.226562 127.199219 C 195.300781 126.675781 195.226562 125.699219 194.699219 125.398438 C 193.648438 124.800781 187.125 126.75 186.976562 127.648438 C 186.824219 128.398438 190.351562 129.375 190.726562 130.125 C 190.949219 130.5 190.875 131.101562 190.648438 131.25 C 190.5 131.324219 189.449219 130.875 189.449219 130.648438 C 189.449219 130.425781 190.199219 129.898438 190.5 129.976562 C 190.726562 129.976562 191.023438 130.5 190.949219 130.726562 C 190.875 131.023438 190.425781 131.398438 190.050781 131.398438 C 189.375 131.398438 187.875 130.351562 187.125 129.675781 C 186.523438 129.148438 185.925781 128.476562 185.773438 127.875 C 185.699219 127.425781 185.773438 126.898438 186.148438 126.449219 C 186.976562 125.476562 190.800781 124.273438 192.449219 123.976562 C 193.425781 123.75 194.175781 123.675781 194.851562 123.898438 C 195.523438 124.125 196.273438 124.726562 196.648438 125.324219 C 196.875 125.773438 196.949219 126.375 196.800781 126.976562 C 196.648438 127.800781 196.351562 129 195.375 129.75 C 193.425781 131.175781 185.175781 132.300781 183.523438 131.851562 C 183.074219 131.699219 182.699219 131.324219 182.699219 131.101562 C 182.699219 130.875 183.375 130.351562 183.375 130.351562 " clip-rule="nonzero"/></clipPath><clipPath id="83664c54c5"><path d="M 214 108 L 277 108 L 277 145 L 214 145 Z M 214 108 " clip-rule="nonzero"/></clipPath><clipPath id="fbf9c61918"><path d="M 210.722656 116.894531 L 272.933594 99.859375 L 281.253906 130.238281 L 219.042969 147.277344 Z M 210.722656 116.894531 " clip-rule="nonzero"/></clipPath><clipPath id="f480303689"><path d="M 272.761719 99.90625 L 210.554688 116.941406 L 218.875 147.324219 L 281.085938 130.285156 Z M 272.761719 99.90625 " clip-rule="nonzero"/></clipPath><clipPath id="fbafeecb93"><path d="M 267.933594 132.484375 L 271.984375 132.484375 L 271.984375 140.355469 L 267.933594 140.355469 Z M 267.933594 132.484375 " clip-rule="nonzero"/></clipPath><clipPath id="cefe2d90e5"><path d="M 270.449219 139.648438 C 268.800781 133.648438 269.398438 133.273438 269.625 133.351562 C 270 133.425781 270.375 134.398438 270.449219 134.851562 C 270.523438 135.148438 270.601562 135.449219 270.449219 135.675781 C 270.300781 135.898438 269.625 136.273438 269.324219 136.125 C 268.875 135.898438 268.5 134.476562 268.574219 133.949219 C 268.648438 133.574219 268.949219 133.199219 269.175781 133.125 C 269.398438 133.050781 269.773438 133.199219 270 133.425781 C 270.226562 133.875 270.226562 135.898438 269.851562 136.125 C 269.625 136.273438 269.023438 135.976562 268.800781 135.675781 C 268.5 135.226562 268.648438 133.875 268.800781 133.351562 C 268.875 133.050781 269.023438 132.75 269.25 132.675781 C 269.550781 132.601562 270.074219 132.75 270.226562 133.050781 C 270.523438 133.5 270.074219 136.050781 269.625 136.199219 C 269.476562 136.273438 269.023438 135.976562 268.800781 135.675781 C 268.5 135.148438 268.125 133.5 268.425781 133.050781 C 268.648438 132.75 269.550781 132.523438 269.773438 132.75 C 270.148438 133.125 269.925781 135.675781 269.550781 135.898438 C 269.324219 136.050781 268.875 135.824219 268.648438 135.523438 C 268.273438 135.148438 267.824219 133.726562 268.050781 133.273438 C 268.199219 132.898438 268.949219 132.523438 269.324219 132.675781 C 270 132.976562 270.824219 136.050781 270.75 136.875 C 270.675781 137.324219 270.375 137.851562 270.148438 137.851562 C 269.925781 137.851562 269.25 136.875 269.324219 136.726562 C 269.398438 136.574219 270.523438 136.648438 270.675781 136.800781 C 270.824219 137.023438 270.675781 137.550781 270.449219 137.699219 C 270.226562 137.851562 269.699219 137.773438 269.398438 137.550781 C 268.726562 136.949219 267.675781 134.023438 268.050781 133.273438 C 268.199219 132.898438 269.023438 132.523438 269.324219 132.675781 C 269.699219 132.976562 269.773438 135.824219 269.550781 135.898438 C 269.324219 135.976562 268.273438 134.625 268.199219 134.023438 C 268.125 133.5 268.425781 132.75 268.726562 132.601562 C 268.949219 132.449219 269.550781 132.523438 269.773438 132.75 C 270.226562 133.199219 270.449219 134.851562 270.300781 135.449219 C 270.226562 135.824219 269.925781 136.125 269.625 136.199219 C 269.398438 136.199219 269.023438 135.976562 268.800781 135.675781 C 268.574219 135.148438 268.5 133.574219 268.800781 133.199219 C 269.101562 132.898438 270 132.75 270.226562 133.050781 C 270.601562 133.351562 270.300781 135.898438 269.851562 136.125 C 269.625 136.273438 269.101562 136.125 268.875 135.898438 C 268.574219 135.523438 268.5 134.398438 268.574219 133.949219 C 268.648438 133.574219 268.949219 133.199219 269.175781 133.125 C 269.398438 133.050781 269.773438 133.199219 270 133.425781 C 270.148438 133.726562 270.226562 134.773438 270 135.074219 C 269.773438 135.226562 269.175781 135.300781 268.949219 135.148438 C 268.726562 134.925781 268.574219 133.949219 268.726562 133.726562 C 268.875 133.5 269.550781 133.351562 269.925781 133.574219 C 270.75 134.023438 271.949219 137.773438 271.949219 138.976562 C 271.949219 139.574219 271.726562 140.25 271.5 140.324219 C 271.199219 140.398438 270.449219 139.648438 270.449219 139.648438 " clip-rule="nonzero"/></clipPath><clipPath id="e059e5fff9"><path d="M 267.105469 127.269531 L 271.804688 127.269531 L 271.804688 141.414062 L 267.105469 141.414062 Z M 267.105469 127.269531 " clip-rule="nonzero"/></clipPath><clipPath id="c490067089"><path d="M 270.375 141.074219 C 269.023438 136.5 269.324219 136.125 269.550781 136.050781 C 269.851562 136.050781 270.226562 136.351562 270.449219 136.574219 C 270.601562 136.949219 270.675781 138 270.449219 138.300781 C 270.300781 138.523438 269.625 138.601562 269.324219 138.449219 C 268.875 138.074219 268.5 135.601562 268.648438 134.925781 C 268.800781 134.550781 269.101562 134.175781 269.324219 134.175781 C 269.625 134.101562 270.074219 134.476562 270.148438 134.699219 C 270.300781 135 270.148438 135.75 269.925781 135.976562 C 269.773438 136.125 269.324219 136.273438 269.101562 136.125 C 268.726562 135.898438 268.351562 134.550781 268.425781 134.023438 C 268.5 133.648438 268.726562 133.199219 268.949219 133.125 C 269.175781 133.050781 269.699219 133.273438 269.851562 133.574219 C 270.148438 134.101562 269.699219 136.5 269.476562 136.574219 C 269.175781 136.574219 268.050781 134.398438 268.125 133.800781 C 268.199219 133.425781 268.5 133.050781 268.800781 133.050781 C 269.023438 132.976562 269.476562 133.273438 269.625 133.574219 C 269.851562 134.101562 269.550781 136.199219 269.175781 136.351562 C 269.023438 136.425781 268.574219 136.125 268.351562 135.824219 C 268.125 135.375 267.976562 134.25 268.199219 133.875 C 268.425781 133.574219 269.25 133.425781 269.625 133.648438 C 270 133.875 270.226562 135 270.148438 135.523438 C 270.074219 135.824219 269.773438 136.273438 269.550781 136.273438 C 269.25 136.351562 268.875 136.125 268.648438 135.824219 C 268.425781 135.375 268.351562 134.175781 268.5 133.648438 C 268.648438 133.425781 268.875 133.125 269.101562 133.125 C 269.398438 133.050781 269.773438 133.351562 270 133.648438 C 270.226562 134.023438 270.300781 134.925781 270.074219 135.300781 C 270 135.601562 269.550781 135.976562 269.324219 135.898438 C 268.875 135.75 268.050781 133.800781 268.273438 133.425781 C 268.425781 133.125 269.398438 133.050781 269.625 133.273438 C 269.925781 133.574219 269.550781 135.523438 269.25 135.601562 C 269.023438 135.675781 268.125 134.101562 268.050781 133.648438 C 268.050781 133.273438 268.273438 132.976562 268.5 132.824219 C 268.726562 132.75 269.175781 132.824219 269.398438 133.050781 C 270 133.648438 270.675781 136.648438 270.226562 137.175781 C 270 137.476562 269.175781 137.550781 268.800781 137.25 C 268.199219 136.648438 268.050781 133.574219 268.199219 132.375 C 268.273438 131.550781 268.574219 130.574219 268.949219 130.5 C 269.25 130.425781 269.925781 131.476562 270 131.398438 C 270.074219 131.324219 268.125 129.449219 268.273438 128.851562 C 268.351562 128.476562 269.25 127.949219 269.398438 128.023438 C 269.476562 128.101562 269.175781 129.449219 268.875 129.449219 C 268.574219 129.523438 267.601562 128.476562 267.601562 128.101562 C 267.675781 127.800781 268.425781 127.199219 268.800781 127.425781 C 269.625 127.800781 270.523438 135.898438 269.851562 136.574219 C 269.550781 136.800781 268.875 136.648438 268.5 136.273438 C 267.75 135.449219 267.226562 130.949219 267.449219 129.824219 C 267.523438 129.375 267.75 129 267.976562 128.925781 C 268.199219 128.925781 268.648438 129 268.875 129.375 C 269.476562 130.273438 270.148438 135.449219 269.550781 135.976562 C 269.25 136.199219 268.574219 136.050781 268.199219 135.675781 C 267.523438 134.925781 267.226562 131.175781 267.375 130.050781 C 267.375 129.523438 267.523438 129.074219 267.75 128.925781 C 267.976562 128.851562 268.5 129 268.800781 129.375 C 269.398438 130.273438 270.074219 135.226562 269.476562 135.824219 C 269.25 136.050781 268.648438 135.976562 268.273438 135.675781 C 267.601562 135.148438 267 131.851562 267.226562 130.949219 C 267.226562 130.5 267.449219 130.125 267.75 130.050781 C 267.976562 130.050781 268.351562 130.199219 268.648438 130.5 C 269.25 131.25 270.074219 134.699219 269.851562 135.601562 C 269.699219 136.050781 269.398438 136.351562 269.175781 136.351562 C 268.949219 136.425781 268.648438 136.273438 268.425781 135.976562 C 267.898438 135.226562 267.074219 131.925781 267.300781 131.023438 C 267.449219 130.648438 267.75 130.351562 267.976562 130.351562 C 268.199219 130.273438 268.5 130.425781 268.726562 130.800781 C 269.476562 131.773438 270.601562 137.550781 270.300781 138.75 C 270.226562 139.125 270 139.425781 269.773438 139.5 C 269.550781 139.5 268.875 139.125 268.800781 138.898438 C 268.800781 138.675781 269.699219 138 269.851562 138.074219 C 270.074219 138.148438 270.226562 139.125 270.074219 139.273438 C 269.851562 139.5 269.175781 139.351562 268.875 138.976562 C 268.125 138.300781 267.824219 135.300781 267.523438 133.875 C 267.375 132.75 267 131.324219 267.375 130.875 C 267.601562 130.574219 268.351562 130.5 268.726562 130.800781 C 269.476562 131.25 270.074219 134.773438 269.851562 135.601562 C 269.699219 136.050781 269.398438 136.351562 269.175781 136.351562 C 268.949219 136.425781 268.648438 136.273438 268.425781 135.976562 C 267.824219 135.226562 267 131.625 267.148438 130.726562 C 267.300781 130.425781 267.523438 130.125 267.75 130.050781 C 267.976562 130.050781 268.351562 130.199219 268.648438 130.5 C 269.175781 131.25 269.851562 135.523438 269.398438 135.898438 C 269.175781 136.125 268.5 135.898438 268.199219 135.523438 C 267.601562 134.773438 267.300781 131.625 267.300781 130.5 C 267.300781 129.824219 267.300781 129.226562 267.601562 129.074219 C 267.824219 128.925781 268.5 129 268.800781 129.375 C 269.476562 130.273438 270 135.675781 269.398438 136.125 C 269.175781 136.273438 268.5 136.050781 268.199219 135.675781 C 267.601562 135 267.449219 132.148438 267.375 130.949219 C 267.375 130.199219 267.300781 129.375 267.675781 129.148438 C 267.898438 129 268.5 129 268.875 129.375 C 269.625 130.199219 270.300781 136.199219 269.699219 136.726562 C 269.476562 136.875 268.875 136.648438 268.5 136.273438 C 267.675781 135.300781 267.074219 129.675781 267.375 128.398438 C 267.449219 127.949219 267.75 127.5 267.898438 127.5 C 267.976562 127.5 268.050781 128.699219 267.976562 128.699219 C 267.976562 128.699219 267.601562 127.949219 267.675781 127.726562 C 267.75 127.5 268.199219 127.273438 268.425781 127.273438 C 268.726562 127.351562 269.25 127.949219 269.175781 128.175781 C 269.101562 128.324219 268.425781 128.175781 268.273438 128.324219 C 268.199219 128.550781 268.351562 129.148438 268.425781 129.148438 C 268.5 129.148438 268.5 128.023438 268.648438 127.949219 C 268.875 127.875 269.550781 128.175781 269.773438 128.476562 C 270.148438 129.074219 270.148438 131.476562 269.773438 131.625 C 269.550781 131.773438 268.648438 130.800781 268.648438 130.726562 C 268.726562 130.648438 269.699219 130.648438 270 131.023438 C 270.675781 131.851562 270.824219 136.425781 270.226562 137.175781 C 269.925781 137.550781 269.25 137.625 268.949219 137.398438 C 268.351562 136.949219 267.976562 134.398438 268.050781 133.648438 C 268.125 133.273438 268.273438 132.976562 268.5 132.824219 C 268.726562 132.75 269.25 132.824219 269.398438 133.050781 C 269.699219 133.5 269.550781 135.449219 269.25 135.601562 C 269.101562 135.75 268.574219 135.375 268.425781 135.148438 C 268.125 134.773438 267.976562 133.726562 268.273438 133.425781 C 268.5 133.125 269.324219 133.050781 269.625 133.273438 C 270 133.5 270.300781 134.851562 270.074219 135.300781 C 270 135.601562 269.550781 135.976562 269.324219 135.898438 C 268.949219 135.75 268.425781 134.175781 268.5 133.648438 C 268.574219 133.425781 268.875 133.125 269.101562 133.125 C 269.398438 133.050781 269.851562 133.351562 270 133.648438 C 270.226562 134.175781 269.773438 136.273438 269.550781 136.273438 C 269.25 136.351562 268.125 134.398438 268.199219 133.875 C 268.273438 133.574219 268.726562 133.273438 269.023438 133.273438 C 269.25 133.273438 269.550781 133.5 269.699219 133.800781 C 269.851562 134.324219 269.550781 136.199219 269.175781 136.351562 C 269.023438 136.425781 268.648438 136.199219 268.425781 135.976562 C 268.125 135.601562 267.976562 134.324219 268.125 133.800781 C 268.273438 133.425781 268.5 133.050781 268.800781 133.050781 C 269.023438 132.976562 269.550781 133.351562 269.699219 133.648438 C 270 134.175781 270.226562 135.300781 270.074219 135.824219 C 270 136.125 269.699219 136.5 269.476562 136.574219 C 269.175781 136.574219 268.726562 136.125 268.5 135.75 C 268.273438 135.300781 268.273438 134.25 268.425781 133.800781 C 268.574219 133.5 268.875 133.125 269.175781 133.125 C 269.398438 133.125 269.773438 133.425781 270 133.726562 C 270.226562 134.175781 270.375 135.523438 270.074219 135.824219 C 269.851562 136.050781 268.875 135.824219 268.648438 135.601562 C 268.5 135.375 268.648438 134.625 268.875 134.398438 C 269.101562 134.25 269.699219 134.175781 270 134.398438 C 270.523438 134.851562 270.75 137.25 270.601562 137.925781 C 270.523438 138.300781 270.226562 138.523438 270 138.601562 C 269.773438 138.601562 269.324219 138.375 269.175781 138.148438 C 268.875 137.773438 268.800781 136.800781 269.023438 136.5 C 269.25 136.273438 269.851562 136.050781 270.226562 136.273438 C 270.898438 136.726562 271.875 139.875 271.800781 140.699219 C 271.726562 141.074219 271.574219 141.300781 271.351562 141.375 C 271.125 141.449219 270.375 141.074219 270.375 141.074219 " clip-rule="nonzero"/></clipPath></defs><rect x="-37.5" width="450" fill="#ffffff" y="-37.499999" height="449.999989" fill-opacity="1"/><rect x="-37.5" width="450" fill="#0400b8" y="-37.499999" height="449.999989" fill-opacity="1"/><g fill="#ffffff" fill-opacity="1"><g transform="translate(15.074832, 236.753435)"><g><path d="M -2.640625 0 L 19.796875 -82 L 27.21875 -42.890625 L 35.796875 -42.890625 L 24.78125 -99.890625 L 60.453125 -99.890625 L 79.828125 0 L 44.234375 0 L 37.625 -33.90625 L 29.046875 -33.90625 L 35.65625 0 Z M -2.640625 0 "/></g></g></g><g clip-path="url(#6dc1c1e5fc)"><g clip-path="url(#e6043d1f8d)"><g clip-path="url(#5f3ff360b2)"><path fill="#0400b8" d="M 43.667969 180.546875 C 43.667969 180.546875 43.664062 180.546875 43.664062 180.546875 C 41.992188 181.332031 40.484375 182.367188 41.171875 188.960938 C 41.386719 191.042969 41.824219 193.65625 42.398438 196.492188 C 42.398438 196.492188 42.394531 196.492188 42.394531 196.492188 C 42.394531 196.492188 33.78125 200.746094 33.78125 200.746094 C 33.78125 200.746094 24.707031 205.222656 24.707031 205.222656 C 24.910156 206.160156 25.117188 207.09375 25.320312 208.027344 C 31.542969 206.558594 37.769531 205.089844 43.992188 203.617188 C 45.242188 208.746094 46.683594 213.808594 47.886719 217.269531 C 48.046875 217.734375 48.203125 218.167969 48.355469 218.578125 C 48.355469 218.578125 44.300781 220.691406 44.300781 220.691406 C 44.300781 220.691406 39.441406 223.222656 39.441406 223.222656 C 39.5625 223.769531 39.679688 224.320312 39.800781 224.867188 C 43.226562 224.046875 46.652344 223.226562 50.082031 222.410156 C 51.015625 223.589844 51.4375 223.851562 52.503906 224.078125 C 53.453125 223.4375 53.675781 223.15625 54.117188 221.585938 C 54.117188 221.585938 54.121094 221.585938 54.121094 221.585938 C 57.59375 221.003906 61.070312 220.417969 64.542969 219.835938 C 64.441406 219.28125 64.335938 218.730469 64.230469 218.179688 C 64.230469 218.179688 58.769531 217.746094 58.769531 217.746094 C 58.769531 217.746094 54.210938 217.386719 54.210938 217.386719 C 54.191406 216.953125 54.164062 216.492188 54.132812 216 C 53.886719 212.34375 53.234375 207.121094 52.382812 201.910156 C 58.6875 200.832031 64.992188 199.753906 71.292969 198.675781 C 71.117188 197.734375 70.941406 196.796875 70.761719 195.855469 C 70.761719 195.855469 60.660156 195.277344 60.660156 195.277344 C 60.660156 195.277344 51.070312 194.730469 51.070312 194.730469 C 50.488281 191.894531 49.867188 189.320312 49.253906 187.316406 C 47.3125 180.980469 45.519531 180.617188 43.675781 180.546875 C 43.671875 180.546875 43.671875 180.546875 43.667969 180.546875 " fill-opacity="1" fill-rule="nonzero"/></g></g></g><g clip-path="url(#5fa166752b)"><g clip-path="url(#5b693f6318)"><g clip-path="url(#fe247a2385)"><path fill="#0400b8" d="M 56.863281 194.523438 C 56.722656 193.84375 56.386719 193.339844 56.109375 193.394531 C 56.109375 193.394531 54.089844 193.808594 54.089844 193.808594 C 53.8125 193.863281 53.699219 194.460938 53.835938 195.136719 C 53.835938 195.136719 53.871094 195.3125 53.871094 195.3125 C 54.007812 195.992188 54.347656 196.496094 54.625 196.4375 C 54.625 196.4375 56.644531 196.027344 56.644531 196.027344 C 56.921875 195.972656 57.035156 195.375 56.898438 194.695312 C 56.898438 194.695312 56.863281 194.523438 56.863281 194.523438 " fill-opacity="1" fill-rule="nonzero"/></g></g></g><g clip-path="url(#f6e2cd5d35)"><g clip-path="url(#4a51d43b86)"><g clip-path="url(#fad8cc96cf)"><path fill="#0400b8" d="M 63.816406 195.269531 C 63.679688 194.589844 63.34375 194.085938 63.066406 194.144531 C 63.066406 194.144531 61.042969 194.554688 61.042969 194.554688 C 60.765625 194.609375 60.652344 195.207031 60.792969 195.886719 C 60.792969 195.886719 60.828125 196.058594 60.828125 196.058594 C 60.964844 196.738281 61.300781 197.242188 61.578125 197.1875 C 61.578125 197.1875 63.601562 196.777344 63.601562 196.777344 C 63.878906 196.71875 63.992188 196.121094 63.851562 195.445312 C 63.851562 195.445312 63.816406 195.269531 63.816406 195.269531 " fill-opacity="1" fill-rule="nonzero"/></g></g></g><g clip-path="url(#540008dbae)"><g clip-path="url(#6b619777a9)"><g clip-path="url(#9d89ff04f9)"><path fill="#0400b8" d="M 63.972656 199.839844 C 64.042969 200.1875 63.988281 200.492188 63.84375 200.519531 C 63.84375 200.519531 62.816406 200.730469 62.816406 200.730469 C 62.675781 200.757812 62.503906 200.5 62.433594 200.15625 C 62.433594 200.15625 62.414062 200.066406 62.414062 200.066406 C 62.34375 199.722656 62.402344 199.417969 62.542969 199.386719 C 62.542969 199.386719 63.574219 199.179688 63.574219 199.179688 C 63.714844 199.148438 63.886719 199.40625 63.957031 199.753906 C 63.957031 199.753906 63.972656 199.839844 63.972656 199.839844 " fill-opacity="1" fill-rule="nonzero"/></g></g></g><g clip-path="url(#36962cc6b9)"><g clip-path="url(#47c5986927)"><g clip-path="url(#35bfcbb16c)"><path fill="#0400b8" d="M 57.445312 200.808594 C 57.519531 201.1875 57.457031 201.519531 57.304688 201.550781 C 57.304688 201.550781 56.175781 201.78125 56.175781 201.78125 C 56.019531 201.8125 55.832031 201.53125 55.757812 201.152344 C 55.757812 201.152344 55.734375 201.054688 55.734375 201.054688 C 55.660156 200.675781 55.722656 200.34375 55.875 200.3125 C 55.875 200.3125 57.003906 200.082031 57.003906 200.082031 C 57.160156 200.050781 57.347656 200.332031 57.425781 200.710938 C 57.425781 200.710938 57.445312 200.808594 57.445312 200.808594 " fill-opacity="1" fill-rule="nonzero"/></g></g></g><g clip-path="url(#9b429fbb76)"><g clip-path="url(#83e79e3735)"><g clip-path="url(#450fe2310e)"><path fill="#0400b8" d="M 32.515625 206.242188 C 32.585938 206.585938 32.757812 206.84375 32.898438 206.816406 C 32.898438 206.816406 33.925781 206.605469 33.925781 206.605469 C 34.070312 206.578125 34.125 206.273438 34.054688 205.925781 C 34.054688 205.925781 34.039062 205.839844 34.039062 205.839844 C 33.96875 205.492188 33.796875 205.234375 33.65625 205.265625 C 33.65625 205.265625 32.625 205.472656 32.625 205.472656 C 32.484375 205.503906 32.425781 205.804688 32.496094 206.152344 C 32.496094 206.152344 32.515625 206.242188 32.515625 206.242188 " fill-opacity="1" fill-rule="nonzero"/></g></g></g><g clip-path="url(#9619469dba)"><g clip-path="url(#849fb00190)"><g clip-path="url(#f7ae1d8d91)"><path fill="#0400b8" d="M 30.871094 201.972656 C 30.734375 201.292969 30.847656 200.695312 31.125 200.640625 C 31.125 200.640625 33.148438 200.230469 33.148438 200.230469 C 33.425781 200.171875 33.761719 200.675781 33.898438 201.355469 C 33.898438 201.355469 33.933594 201.53125 33.933594 201.53125 C 34.074219 202.207031 33.960938 202.804688 33.683594 202.859375 C 33.683594 202.859375 31.660156 203.273438 31.660156 203.273438 C 31.382812 203.328125 31.046875 202.824219 30.90625 202.144531 C 30.90625 202.144531 30.871094 201.972656 30.871094 201.972656 " fill-opacity="1" fill-rule="nonzero"/></g></g></g><g clip-path="url(#8054f584b8)"><g clip-path="url(#19bf3201ba)"><g clip-path="url(#e6bf4022d2)"><path fill="#0400b8" d="M 38.867188 204.585938 C 38.945312 204.964844 39.132812 205.246094 39.285156 205.214844 C 39.285156 205.214844 40.414062 204.988281 40.414062 204.988281 C 40.570312 204.957031 40.632812 204.621094 40.554688 204.242188 C 40.554688 204.242188 40.535156 204.148438 40.535156 204.148438 C 40.457031 203.769531 40.269531 203.488281 40.117188 203.519531 C 40.117188 203.519531 38.988281 203.75 38.988281 203.75 C 38.832031 203.78125 38.769531 204.113281 38.847656 204.492188 C 38.847656 204.492188 38.867188 204.585938 38.867188 204.585938 " fill-opacity="1" fill-rule="nonzero"/></g></g></g><g clip-path="url(#7b942490f9)"><g clip-path="url(#e9d2bdfa0a)"><g clip-path="url(#2de8f7fa06)"><path fill="#0400b8" d="M 36.945312 198.574219 C 36.808594 197.894531 36.921875 197.296875 37.199219 197.242188 C 37.199219 197.242188 39.222656 196.832031 39.222656 196.832031 C 39.5 196.773438 39.835938 197.277344 39.972656 197.957031 C 39.972656 197.957031 40.007812 198.132812 40.007812 198.132812 C 40.148438 198.808594 40.035156 199.40625 39.757812 199.464844 C 39.757812 199.464844 37.734375 199.875 37.734375 199.875 C 37.457031 199.929688 37.121094 199.425781 36.980469 198.746094 C 36.980469 198.746094 36.945312 198.574219 36.945312 198.574219 " fill-opacity="1" fill-rule="nonzero"/></g></g></g><g fill="#ffffff" fill-opacity="1"><g transform="translate(96.256148, 235.722156)"><g><path d="M 3.375 0 L 3.375 -75.765625 L 30.328125 -75.765625 L 30.328125 0 Z M 3.375 0 "/></g></g></g><g fill="#ffffff" fill-opacity="1"><g transform="translate(132.836451, 236.559946)"><g><path d="M 61.484375 0 L 45.859375 -61.0625 L 49.75 -75.765625 L 67.171875 -75.765625 L 86.375 0 Z M -2 0 L 10.609375 -48.671875 L 23.109375 0 Z M 29.609375 0 L 13.9375 -61.0625 L 17.828125 -75.765625 L 35.25 -75.765625 L 54.5625 0 Z M 29.609375 0 "/></g></g></g><g fill="#ffffff" fill-opacity="1"><g transform="translate(309.627992, 235.310213)"><g><path d="M 30.84375 -75.3125 L 51.75 -75.3125 L 51.75 0 L 30.84375 0 Z M 24.953125 -53.953125 L 24.953125 0 C 17.472656 -0.75 11.691406 -3.472656 7.609375 -8.171875 C 3.523438 -12.867188 1.484375 -19.160156 1.484375 -27.046875 C 1.484375 -34.835938 3.539062 -41.097656 7.65625 -45.828125 C 11.769531 -50.554688 17.535156 -53.265625 24.953125 -53.953125 Z M 24.953125 -53.953125 "/></g></g></g><g fill="#ffffff" fill-opacity="1"><g transform="translate(11.519916, 253.723951)"><g><path d="M 18.625 -10.875 L 20.53125 -10.875 L 16.734375 0 L 14.546875 0 L 10.390625 -8.9375 L 6.21875 0 L 4.046875 0 L 0.234375 -10.875 L 2.140625 -10.875 L 5.1875 -2.1875 L 9.21875 -10.875 L 11.546875 -10.875 L 15.59375 -2.1875 Z M 18.625 -10.875 "/></g></g></g><g fill="#ffffff" fill-opacity="1"><g transform="translate(32.282755, 253.723951)"><g><path d="M 13.703125 -9.21875 L 4.09375 -9.21875 L 4.09375 -6.125 L 12.578125 -6.125 L 12.578125 -4.484375 L 4.09375 -4.484375 L 4.09375 -1.65625 L 13.703125 -1.65625 L 13.703125 0 L 2.25 0 L 2.25 -10.875 L 13.703125 -10.875 Z M 13.703125 -9.21875 "/></g></g></g><g fill="#ffffff" fill-opacity="1"><g transform="translate(47.08488, 253.723951)"><g/></g></g><g fill="#ffffff" fill-opacity="1"><g transform="translate(54.331943, 253.723951)"><g><path d="M 12 0 L 10.921875 -1.9375 L 3.28125 -1.9375 L 2.21875 0 L 0.09375 0 L 6.046875 -10.828125 L 6.015625 -10.875 L 8.1875 -10.875 L 8.171875 -10.828125 L 14.125 0 Z M 4.28125 -3.75 L 9.9375 -3.75 L 7.109375 -8.90625 Z M 4.28125 -3.75 "/></g></g></g><g fill="#ffffff" fill-opacity="1"><g transform="translate(68.536185, 253.723951)"><g><path d="M 2.25 0 L 2.25 -10.875 L 4.09375 -10.875 L 4.09375 0 Z M 2.25 0 "/></g></g></g><g fill="#ffffff" fill-opacity="1"><g transform="translate(74.877367, 253.723951)"><g><path d="M 18.59375 -10.875 L 18.59375 0 L 16.75 0 L 16.75 -8.609375 L 11.46875 -0.03125 L 11.484375 0 L 9.265625 0 L 9.296875 -0.03125 L 4.09375 -8.578125 L 4.09375 0 L 2.25 0 L 2.25 -10.875 L 4.875 -10.875 L 10.390625 -1.8125 L 15.96875 -10.875 Z M 18.59375 -10.875 "/></g></g></g><g fill="#ffffff" fill-opacity="1"><g transform="translate(95.712674, 253.723951)"><g/></g></g><g fill="#ffffff" fill-opacity="1"><g transform="translate(102.959737, 253.723951)"><g><path d="M 13.703125 -9.21875 L 4.09375 -9.21875 L 4.09375 -6.046875 L 12.578125 -6.046875 L 12.578125 -4.40625 L 4.09375 -4.40625 L 4.09375 0 L 2.25 0 L 2.25 -10.875 L 13.703125 -10.875 Z M 13.703125 -9.21875 "/></g></g></g><g fill="#ffffff" fill-opacity="1"><g transform="translate(116.982797, 253.723951)"><g><path d="M 8.8125 0.1875 C 7.40625 0.1875 6.226562 0.0390625 5.28125 -0.25 C 4.34375 -0.539062 3.59375 -0.9375 3.03125 -1.4375 C 2.46875 -1.9375 2.0625 -2.5 1.8125 -3.125 C 1.570312 -3.75 1.453125 -4.382812 1.453125 -5.03125 L 1.453125 -5.84375 C 1.453125 -6.507812 1.570312 -7.15625 1.8125 -7.78125 C 2.0625 -8.414062 2.46875 -8.976562 3.03125 -9.46875 C 3.59375 -9.96875 4.34375 -10.363281 5.28125 -10.65625 C 6.226562 -10.957031 7.40625 -11.109375 8.8125 -11.109375 C 10.1875 -11.109375 11.34375 -10.96875 12.28125 -10.6875 C 13.226562 -10.40625 13.984375 -10.019531 14.546875 -9.53125 C 15.117188 -9.039062 15.53125 -8.484375 15.78125 -7.859375 C 16.039062 -7.234375 16.171875 -6.582031 16.171875 -5.90625 L 16.171875 -5.109375 C 16.171875 -4.472656 16.050781 -3.835938 15.8125 -3.203125 C 15.570312 -2.578125 15.175781 -2.003906 14.625 -1.484375 C 14.070312 -0.972656 13.320312 -0.566406 12.375 -0.265625 C 11.425781 0.0351562 10.238281 0.1875 8.8125 0.1875 Z M 8.8125 -1.625 C 10.164062 -1.625 11.238281 -1.765625 12.03125 -2.046875 C 12.832031 -2.335938 13.40625 -2.726562 13.75 -3.21875 C 14.101562 -3.707031 14.28125 -4.253906 14.28125 -4.859375 L 14.28125 -5.65625 C 14.28125 -6.332031 14.085938 -6.941406 13.703125 -7.484375 C 13.328125 -8.035156 12.734375 -8.472656 11.921875 -8.796875 C 11.117188 -9.128906 10.082031 -9.296875 8.8125 -9.296875 C 7.5 -9.296875 6.441406 -9.144531 5.640625 -8.84375 C 4.835938 -8.539062 4.25 -8.128906 3.875 -7.609375 C 3.507812 -7.085938 3.328125 -6.5 3.328125 -5.84375 L 3.328125 -5.03125 C 3.328125 -4.394531 3.507812 -3.816406 3.875 -3.296875 C 4.25 -2.785156 4.835938 -2.378906 5.640625 -2.078125 C 6.441406 -1.773438 7.5 -1.625 8.8125 -1.625 Z M 8.8125 -1.625 "/></g></g></g><g fill="#ffffff" fill-opacity="1"><g transform="translate(134.593163, 253.723951)"><g><path d="M 15.109375 -7.703125 C 15.109375 -6.921875 14.953125 -6.328125 14.640625 -5.921875 C 14.328125 -5.515625 13.910156 -5.226562 13.390625 -5.0625 C 13.921875 -4.769531 14.304688 -4.390625 14.546875 -3.921875 C 14.785156 -3.453125 14.90625 -2.9375 14.90625 -2.375 L 14.90625 -1.09375 C 14.90625 -0.894531 14.910156 -0.703125 14.921875 -0.515625 C 14.941406 -0.335938 14.960938 -0.164062 14.984375 0 L 12.875 0 C 12.84375 -0.164062 12.820312 -0.335938 12.8125 -0.515625 C 12.800781 -0.691406 12.796875 -0.859375 12.796875 -1.015625 L 12.796875 -2.234375 C 12.796875 -2.523438 12.769531 -2.820312 12.71875 -3.125 C 12.675781 -3.425781 12.523438 -3.679688 12.265625 -3.890625 C 12.015625 -4.097656 11.582031 -4.203125 10.96875 -4.203125 L 4.21875 -4.203125 L 4.21875 0 L 2.25 0 L 2.25 -10.875 L 11.734375 -10.875 C 12.796875 -10.875 13.625 -10.625 14.21875 -10.125 C 14.8125 -9.625 15.109375 -8.882812 15.109375 -7.90625 Z M 4.21875 -6.140625 L 11.734375 -6.140625 C 12.242188 -6.140625 12.617188 -6.289062 12.859375 -6.59375 C 13.109375 -6.90625 13.234375 -7.273438 13.234375 -7.703125 L 13.234375 -7.90625 C 13.234375 -8.082031 13.191406 -8.257812 13.109375 -8.4375 C 13.035156 -8.613281 12.890625 -8.757812 12.671875 -8.875 C 12.453125 -9 12.140625 -9.0625 11.734375 -9.0625 L 4.21875 -9.0625 Z M 4.21875 -6.140625 "/></g></g></g><g fill="#ffffff" fill-opacity="1"><g transform="translate(151.062115, 253.723951)"><g/></g></g><g fill="#ffffff" fill-opacity="1"><g transform="translate(158.309178, 253.723951)"><g><path d="M 11.34375 -10.875 L 13.859375 -10.875 L 7.828125 -3.984375 L 7.828125 0 L 5.984375 0 L 5.984375 -4 L 5.6875 -4.34375 L 5.671875 -4.34375 L -0.03125 -10.875 L 2.484375 -10.875 L 6.921875 -5.78125 Z M 11.34375 -10.875 "/></g></g></g><g fill="#ffffff" fill-opacity="1"><g transform="translate(172.151071, 253.723951)"><g><path d="M 8.8125 0.1875 C 7.40625 0.1875 6.226562 0.0390625 5.28125 -0.25 C 4.34375 -0.539062 3.59375 -0.9375 3.03125 -1.4375 C 2.46875 -1.9375 2.0625 -2.5 1.8125 -3.125 C 1.570312 -3.75 1.453125 -4.382812 1.453125 -5.03125 L 1.453125 -5.84375 C 1.453125 -6.507812 1.570312 -7.15625 1.8125 -7.78125 C 2.0625 -8.414062 2.46875 -8.976562 3.03125 -9.46875 C 3.59375 -9.96875 4.34375 -10.363281 5.28125 -10.65625 C 6.226562 -10.957031 7.40625 -11.109375 8.8125 -11.109375 C 10.1875 -11.109375 11.34375 -10.96875 12.28125 -10.6875 C 13.226562 -10.40625 13.984375 -10.019531 14.546875 -9.53125 C 15.117188 -9.039062 15.53125 -8.484375 15.78125 -7.859375 C 16.039062 -7.234375 16.171875 -6.582031 16.171875 -5.90625 L 16.171875 -5.109375 C 16.171875 -4.472656 16.050781 -3.835938 15.8125 -3.203125 C 15.570312 -2.578125 15.175781 -2.003906 14.625 -1.484375 C 14.070312 -0.972656 13.320312 -0.566406 12.375 -0.265625 C 11.425781 0.0351562 10.238281 0.1875 8.8125 0.1875 Z M 8.8125 -1.625 C 10.164062 -1.625 11.238281 -1.765625 12.03125 -2.046875 C 12.832031 -2.335938 13.40625 -2.726562 13.75 -3.21875 C 14.101562 -3.707031 14.28125 -4.253906 14.28125 -4.859375 L 14.28125 -5.65625 C 14.28125 -6.332031 14.085938 -6.941406 13.703125 -7.484375 C 13.328125 -8.035156 12.734375 -8.472656 11.921875 -8.796875 C 11.117188 -9.128906 10.082031 -9.296875 8.8125 -9.296875 C 7.5 -9.296875 6.441406 -9.144531 5.640625 -8.84375 C 4.835938 -8.539062 4.25 -8.128906 3.875 -7.609375 C 3.507812 -7.085938 3.328125 -6.5 3.328125 -5.84375 L 3.328125 -5.03125 C 3.328125 -4.394531 3.507812 -3.816406 3.875 -3.296875 C 4.25 -2.785156 4.835938 -2.378906 5.640625 -2.078125 C 6.441406 -1.773438 7.5 -1.625 8.8125 -1.625 Z M 8.8125 -1.625 "/></g></g></g><g fill="#ffffff" fill-opacity="1"><g transform="translate(189.761437, 253.723951)"><g><path d="M 8.1875 0.1875 C 6.789062 0.1875 5.648438 0.0390625 4.765625 -0.25 C 3.878906 -0.539062 3.195312 -0.9375 2.71875 -1.4375 C 2.25 -1.9375 1.921875 -2.5 1.734375 -3.125 C 1.554688 -3.75 1.46875 -4.382812 1.46875 -5.03125 L 1.5625 -10.84375 L 3.578125 -10.84375 L 3.578125 -5.03125 C 3.578125 -4.394531 3.734375 -3.828125 4.046875 -3.328125 C 4.359375 -2.835938 4.851562 -2.453125 5.53125 -2.171875 C 6.207031 -1.898438 7.09375 -1.765625 8.1875 -1.765625 C 9.320312 -1.765625 10.226562 -1.894531 10.90625 -2.15625 C 11.582031 -2.425781 12.066406 -2.804688 12.359375 -3.296875 C 12.660156 -3.796875 12.8125 -4.375 12.8125 -5.03125 L 12.90625 -10.84375 L 14.921875 -10.84375 L 14.921875 -5.296875 C 14.921875 -4.609375 14.832031 -3.9375 14.65625 -3.28125 C 14.476562 -2.625 14.15625 -2.035156 13.6875 -1.515625 C 13.21875 -1.003906 12.539062 -0.59375 11.65625 -0.28125 C 10.769531 0.03125 9.613281 0.1875 8.1875 0.1875 Z M 8.1875 0.1875 "/></g></g></g><g fill="#ffffff" fill-opacity="1"><g transform="translate(206.248506, 253.723951)"><g><path d="M 15.109375 -7.703125 C 15.109375 -6.921875 14.953125 -6.328125 14.640625 -5.921875 C 14.328125 -5.515625 13.910156 -5.226562 13.390625 -5.0625 C 13.921875 -4.769531 14.304688 -4.390625 14.546875 -3.921875 C 14.785156 -3.453125 14.90625 -2.9375 14.90625 -2.375 L 14.90625 -1.09375 C 14.90625 -0.894531 14.910156 -0.703125 14.921875 -0.515625 C 14.941406 -0.335938 14.960938 -0.164062 14.984375 0 L 12.875 0 C 12.84375 -0.164062 12.820312 -0.335938 12.8125 -0.515625 C 12.800781 -0.691406 12.796875 -0.859375 12.796875 -1.015625 L 12.796875 -2.234375 C 12.796875 -2.523438 12.769531 -2.820312 12.71875 -3.125 C 12.675781 -3.425781 12.523438 -3.679688 12.265625 -3.890625 C 12.015625 -4.097656 11.582031 -4.203125 10.96875 -4.203125 L 4.21875 -4.203125 L 4.21875 0 L 2.25 0 L 2.25 -10.875 L 11.734375 -10.875 C 12.796875 -10.875 13.625 -10.625 14.21875 -10.125 C 14.8125 -9.625 15.109375 -8.882812 15.109375 -7.90625 Z M 4.21875 -6.140625 L 11.734375 -6.140625 C 12.242188 -6.140625 12.617188 -6.289062 12.859375 -6.59375 C 13.109375 -6.90625 13.234375 -7.273438 13.234375 -7.703125 L 13.234375 -7.90625 C 13.234375 -8.082031 13.191406 -8.257812 13.109375 -8.4375 C 13.035156 -8.613281 12.890625 -8.757812 12.671875 -8.875 C 12.453125 -9 12.140625 -9.0625 11.734375 -9.0625 L 4.21875 -9.0625 Z M 4.21875 -6.140625 "/></g></g></g><g fill="#ffffff" fill-opacity="1"><g transform="translate(222.717458, 253.723951)"><g/></g></g><g fill="#ffffff" fill-opacity="1"><g transform="translate(229.964521, 253.723951)"><g><path d="M 13.703125 -9.21875 L 4.09375 -9.21875 L 4.09375 -6.125 L 12.578125 -6.125 L 12.578125 -4.484375 L 4.09375 -4.484375 L 4.09375 -1.65625 L 13.703125 -1.65625 L 13.703125 0 L 2.25 0 L 2.25 -10.875 L 13.703125 -10.875 Z M 13.703125 -9.21875 "/></g></g></g><g fill="#ffffff" fill-opacity="1"><g transform="translate(244.766645, 253.723951)"><g><path d="M 8.625 -10.875 C 9.96875 -10.875 11.085938 -10.78125 11.984375 -10.59375 C 12.878906 -10.40625 13.59375 -10.140625 14.125 -9.796875 C 14.664062 -9.460938 15.066406 -9.070312 15.328125 -8.625 C 15.597656 -8.1875 15.773438 -7.710938 15.859375 -7.203125 C 15.941406 -6.703125 15.984375 -6.1875 15.984375 -5.65625 L 15.984375 -4.859375 C 15.984375 -4.347656 15.941406 -3.851562 15.859375 -3.375 C 15.773438 -2.90625 15.597656 -2.460938 15.328125 -2.046875 C 15.066406 -1.640625 14.664062 -1.28125 14.125 -0.96875 C 13.59375 -0.65625 12.878906 -0.414062 11.984375 -0.25 C 11.085938 -0.0820312 9.96875 0 8.625 0 L 2.25 0 L 2.25 -10.875 Z M 14.09375 -4.859375 L 14.09375 -5.65625 C 14.09375 -6.132812 14.039062 -6.582031 13.9375 -7 C 13.832031 -7.414062 13.597656 -7.78125 13.234375 -8.09375 C 12.878906 -8.40625 12.335938 -8.644531 11.609375 -8.8125 C 10.878906 -8.976562 9.882812 -9.0625 8.625 -9.0625 L 4.09375 -9.0625 L 4.09375 -1.8125 L 8.625 -1.8125 C 9.925781 -1.8125 10.945312 -1.882812 11.6875 -2.03125 C 12.4375 -2.175781 12.984375 -2.382812 13.328125 -2.65625 C 13.671875 -2.925781 13.882812 -3.25 13.96875 -3.625 C 14.050781 -4 14.09375 -4.410156 14.09375 -4.859375 Z M 14.09375 -4.859375 "/></g></g></g><g fill="#ffffff" fill-opacity="1"><g transform="translate(262.195829, 253.723951)"><g><path d="M 8.1875 0.1875 C 6.789062 0.1875 5.648438 0.0390625 4.765625 -0.25 C 3.878906 -0.539062 3.195312 -0.9375 2.71875 -1.4375 C 2.25 -1.9375 1.921875 -2.5 1.734375 -3.125 C 1.554688 -3.75 1.46875 -4.382812 1.46875 -5.03125 L 1.5625 -10.84375 L 3.578125 -10.84375 L 3.578125 -5.03125 C 3.578125 -4.394531 3.734375 -3.828125 4.046875 -3.328125 C 4.359375 -2.835938 4.851562 -2.453125 5.53125 -2.171875 C 6.207031 -1.898438 7.09375 -1.765625 8.1875 -1.765625 C 9.320312 -1.765625 10.226562 -1.894531 10.90625 -2.15625 C 11.582031 -2.425781 12.066406 -2.804688 12.359375 -3.296875 C 12.660156 -3.796875 12.8125 -4.375 12.8125 -5.03125 L 12.90625 -10.84375 L 14.921875 -10.84375 L 14.921875 -5.296875 C 14.921875 -4.609375 14.832031 -3.9375 14.65625 -3.28125 C 14.476562 -2.625 14.15625 -2.035156 13.6875 -1.515625 C 13.21875 -1.003906 12.539062 -0.59375 11.65625 -0.28125 C 10.769531 0.03125 9.613281 0.1875 8.1875 0.1875 Z M 8.1875 0.1875 "/></g></g></g><g fill="#ffffff" fill-opacity="1"><g transform="translate(278.682914, 253.723951)"><g><path d="M 8.8125 0.1875 C 7.40625 0.1875 6.226562 0.0390625 5.28125 -0.25 C 4.34375 -0.550781 3.59375 -0.957031 3.03125 -1.46875 C 2.46875 -1.988281 2.0625 -2.570312 1.8125 -3.21875 C 1.570312 -3.875 1.453125 -4.5625 1.453125 -5.28125 L 1.453125 -5.65625 C 1.453125 -6.363281 1.570312 -7.046875 1.8125 -7.703125 C 2.0625 -8.359375 2.46875 -8.941406 3.03125 -9.453125 C 3.59375 -9.960938 4.34375 -10.363281 5.28125 -10.65625 C 6.226562 -10.957031 7.40625 -11.109375 8.8125 -11.109375 C 10.332031 -11.109375 11.625 -10.914062 12.6875 -10.53125 C 13.75 -10.144531 14.566406 -9.632812 15.140625 -9 C 15.710938 -8.363281 16.023438 -7.679688 16.078125 -6.953125 L 14.0625 -6.953125 C 13.988281 -7.378906 13.722656 -7.769531 13.265625 -8.125 C 12.816406 -8.476562 12.210938 -8.757812 11.453125 -8.96875 C 10.691406 -9.1875 9.8125 -9.296875 8.8125 -9.296875 C 7.5 -9.296875 6.441406 -9.140625 5.640625 -8.828125 C 4.835938 -8.523438 4.25 -8.101562 3.875 -7.5625 C 3.507812 -7.019531 3.328125 -6.382812 3.328125 -5.65625 L 3.328125 -5.28125 C 3.328125 -4.5625 3.507812 -3.925781 3.875 -3.375 C 4.25 -2.832031 4.835938 -2.40625 5.640625 -2.09375 C 6.441406 -1.78125 7.5 -1.625 8.8125 -1.625 C 9.9375 -1.625 10.859375 -1.726562 11.578125 -1.9375 C 12.296875 -2.15625 12.851562 -2.445312 13.25 -2.8125 C 13.644531 -3.1875 13.910156 -3.609375 14.046875 -4.078125 L 16.0625 -4.078125 C 15.9375 -3.316406 15.617188 -2.613281 15.109375 -1.96875 C 14.597656 -1.320312 13.832031 -0.800781 12.8125 -0.40625 C 11.789062 -0.0078125 10.457031 0.1875 8.8125 0.1875 Z M 8.8125 0.1875 "/></g></g></g><g fill="#ffffff" fill-opacity="1"><g transform="translate(296.257032, 253.723951)"><g><path d="M 12 0 L 10.921875 -1.9375 L 3.28125 -1.9375 L 2.21875 0 L 0.09375 0 L 6.046875 -10.828125 L 6.015625 -10.875 L 8.1875 -10.875 L 8.171875 -10.828125 L 14.125 0 Z M 4.28125 -3.75 L 9.9375 -3.75 L 7.109375 -8.90625 Z M 4.28125 -3.75 "/></g></g></g><g fill="#ffffff" fill-opacity="1"><g transform="translate(310.46126, 253.723951)"><g><path d="M 12.375 -10.875 L 12.375 -9.09375 L 7.09375 -9.09375 L 7.09375 0 L 5.234375 0 L 5.234375 -9.09375 L -0.046875 -9.09375 L -0.046875 -10.875 Z M 12.375 -10.875 "/></g></g></g><g fill="#ffffff" fill-opacity="1"><g transform="translate(322.763142, 253.723951)"><g><path d="M 2.25 0 L 2.25 -10.875 L 4.09375 -10.875 L 4.09375 0 Z M 2.25 0 "/></g></g></g><g fill="#ffffff" fill-opacity="1"><g transform="translate(329.104324, 253.723951)"><g><path d="M 8.8125 0.1875 C 7.40625 0.1875 6.226562 0.0390625 5.28125 -0.25 C 4.34375 -0.539062 3.59375 -0.9375 3.03125 -1.4375 C 2.46875 -1.9375 2.0625 -2.5 1.8125 -3.125 C 1.570312 -3.75 1.453125 -4.382812 1.453125 -5.03125 L 1.453125 -5.84375 C 1.453125 -6.507812 1.570312 -7.15625 1.8125 -7.78125 C 2.0625 -8.414062 2.46875 -8.976562 3.03125 -9.46875 C 3.59375 -9.96875 4.34375 -10.363281 5.28125 -10.65625 C 6.226562 -10.957031 7.40625 -11.109375 8.8125 -11.109375 C 10.1875 -11.109375 11.34375 -10.96875 12.28125 -10.6875 C 13.226562 -10.40625 13.984375 -10.019531 14.546875 -9.53125 C 15.117188 -9.039062 15.53125 -8.484375 15.78125 -7.859375 C 16.039062 -7.234375 16.171875 -6.582031 16.171875 -5.90625 L 16.171875 -5.109375 C 16.171875 -4.472656 16.050781 -3.835938 15.8125 -3.203125 C 15.570312 -2.578125 15.175781 -2.003906 14.625 -1.484375 C 14.070312 -0.972656 13.320312 -0.566406 12.375 -0.265625 C 11.425781 0.0351562 10.238281 0.1875 8.8125 0.1875 Z M 8.8125 -1.625 C 10.164062 -1.625 11.238281 -1.765625 12.03125 -2.046875 C 12.832031 -2.335938 13.40625 -2.726562 13.75 -3.21875 C 14.101562 -3.707031 14.28125 -4.253906 14.28125 -4.859375 L 14.28125 -5.65625 C 14.28125 -6.332031 14.085938 -6.941406 13.703125 -7.484375 C 13.328125 -8.035156 12.734375 -8.472656 11.921875 -8.796875 C 11.117188 -9.128906 10.082031 -9.296875 8.8125 -9.296875 C 7.5 -9.296875 6.441406 -9.144531 5.640625 -8.84375 C 4.835938 -8.539062 4.25 -8.128906 3.875 -7.609375 C 3.507812 -7.085938 3.328125 -6.5 3.328125 -5.84375 L 3.328125 -5.03125 C 3.328125 -4.394531 3.507812 -3.816406 3.875 -3.296875 C 4.25 -2.785156 4.835938 -2.378906 5.640625 -2.078125 C 6.441406 -1.773438 7.5 -1.625 8.8125 -1.625 Z M 8.8125 -1.625 "/></g></g></g><g fill="#ffffff" fill-opacity="1"><g transform="translate(346.714675, 253.723951)"><g><path d="M 12.65625 -10.875 L 14.5 -10.875 L 14.5 0 L 12.015625 0 L 4.09375 -8.8125 L 4.09375 0 L 2.25 0 L 2.25 -10.875 L 4.6875 -10.875 L 12.65625 -2.046875 Z M 12.65625 -10.875 "/></g></g></g><g clip-path="url(#c168a60cdf)"><g clip-path="url(#a03d77c9b3)"><path fill="#0400b8" d="M 179.773438 127.5 L 187.191406 127.5 L 187.191406 134.773438 L 179.773438 134.773438 Z M 179.773438 127.5 " fill-opacity="1" fill-rule="nonzero"/></g></g><g clip-path="url(#9f0e4981b0)"><g clip-path="url(#0e14cc3baa)"><path fill="#0400b8" d="M 179.699219 120.898438 L 199.863281 120.898438 L 199.863281 134.851562 L 179.699219 134.851562 Z M 179.699219 120.898438 " fill-opacity="1" fill-rule="nonzero"/></g></g><g fill="#ffffff" fill-opacity="1"><g transform="translate(225.860409, 235.36586)"><g><path d="M 41.578125 0 L 4.703125 0 L 4.703125 -105.296875 L 41.578125 -105.296875 Z M 44.640625 -105.296875 L 81.078125 -105.296875 L 81.078125 -64.71875 Z M 67.203125 -33.109375 L 44.203125 -54.8125 L 67.203125 -76.53125 Z M 44.640625 0 L 81.65625 -47.40625 L 81.65625 0 Z M 44.640625 0 "/></g></g></g><g clip-path="url(#83664c54c5)"><g clip-path="url(#fbf9c61918)"><g clip-path="url(#f480303689)"><path fill="#ffffff" d="M 217.90625 138.9375 C 217.542969 140.847656 218.617188 144.808594 218.617188 144.808594 C 218.734375 144.851562 218.84375 144.875 218.953125 144.894531 L 218.867188 142.203125 C 218.867188 142.203125 219.496094 143.832031 219.71875 144.820312 C 220.992188 144.886719 221.511719 144.097656 221.511719 144.097656 C 220.976562 140.882812 220.152344 139.21875 219.632812 138.425781 C 219.78125 138.152344 219.828125 137.835938 219.75 137.511719 C 219.621094 136.988281 219.175781 136.613281 218.671875 136.550781 L 217.179688 130.820312 L 225.722656 132.179688 C 226.367188 132.28125 226.914062 131.703125 226.761719 131.0625 L 226.234375 128.78125 C 226.167969 128.488281 226.246094 128.1875 226.441406 127.964844 C 236.195312 116.859375 246.113281 114.789062 252.707031 115.007812 C 259.886719 115.25 264.691406 118.121094 264.890625 118.242188 L 264.902344 118.246094 C 265.109375 118.375 265.253906 118.574219 265.316406 118.804688 L 265.972656 121.339844 C 266.140625 121.980469 266.898438 122.246094 267.429688 121.835938 L 276.132812 115.132812 C 276.773438 114.636719 276.507812 113.621094 275.714844 113.492188 L 242.558594 108.289062 C 242.308594 108.253906 242.058594 108.3125 241.859375 108.464844 L 214.824219 128.882812 C 214.175781 129.371094 214.433594 130.398438 215.234375 130.53125 L 216.371094 130.707031 L 217.933594 136.699219 C 217.421875 136.957031 217.140625 137.546875 217.285156 138.125 C 217.367188 138.484375 217.605469 138.773438 217.90625 138.9375 Z M 263.972656 119.773438 C 264.027344 119.800781 264.074219 119.851562 264.09375 119.917969 L 267.84375 133.609375 C 267.886719 133.773438 267.738281 133.925781 267.570312 133.875 C 265 133.128906 249.410156 129.445312 231.996094 143.691406 C 231.871094 143.789062 231.691406 143.734375 231.648438 143.585938 L 227.71875 129.238281 C 227.703125 129.171875 227.710938 129.097656 227.761719 129.042969 C 228.894531 127.660156 243.628906 110.355469 263.972656 119.773438 Z M 263.972656 119.773438 " fill-opacity="1" fill-rule="nonzero"/></g></g></g><g clip-path="url(#fbafeecb93)"><g clip-path="url(#cefe2d90e5)"><path fill="#0400b8" d="M 265.050781 129.601562 L 275.023438 129.601562 L 275.023438 143.394531 L 265.050781 143.394531 Z M 265.050781 129.601562 " fill-opacity="1" fill-rule="nonzero"/></g></g><g clip-path="url(#e059e5fff9)"><g clip-path="url(#c490067089)"><path fill="#0400b8" d="M 264.148438 124.273438 L 274.800781 124.273438 L 274.800781 144.453125 L 264.148438 144.453125 Z M 264.148438 124.273438 " fill-opacity="1" fill-rule="nonzero"/></g></g></svg>