<svg xmlns="http://www.w3.org/2000/svg" xmlns:xlink="http://www.w3.org/1999/xlink" width="150" zoomAndPan="magnify" viewBox="0 0 112.5 112.499997" height="150" preserveAspectRatio="xMidYMid meet" version="1.0"><defs><clipPath id="ec24ecfe57"><path d="M 0 0 L 112.003906 0 L 112.003906 112.003906 L 0 112.003906 Z M 0 0 " clip-rule="nonzero"/></clipPath><clipPath id="fce2c56f69"><path d="M 7.167969 53 L 21.503906 53 L 21.503906 66.304688 L 7.167969 66.304688 Z M 7.167969 53 " clip-rule="nonzero"/></clipPath><clipPath id="879fe837c8"><path d="M 0.988281 62.25 L 11.71875 46.039062 L 27.929688 56.769531 L 17.199219 72.980469 Z M 0.988281 62.25 " clip-rule="nonzero"/></clipPath><clipPath id="2a1593f231"><path d="M 0.988281 62.25 L 11.71875 46.039062 L 27.929688 56.769531 L 17.199219 72.980469 Z M 0.988281 62.25 " clip-rule="nonzero"/></clipPath><clipPath id="a4c8b00f61"><path d="M 16 56.746094 L 17.023438 56.746094 L 17.023438 57.941406 L 16 57.941406 Z M 16 56.746094 " clip-rule="nonzero"/></clipPath><clipPath id="92d4dda9c2"><path d="M 0.988281 62.25 L 11.71875 46.039062 L 27.929688 56.769531 L 17.199219 72.980469 Z M 0.988281 62.25 " clip-rule="nonzero"/></clipPath><clipPath id="ad3de44e5e"><path d="M 0.988281 62.25 L 11.71875 46.039062 L 27.929688 56.769531 L 17.199219 72.980469 Z M 0.988281 62.25 " clip-rule="nonzero"/></clipPath><clipPath id="e2dc0f3c7c"><path d="M 18 57.046875 L 19.113281 57.046875 L 19.113281 58 L 18 58 Z M 18 57.046875 " clip-rule="nonzero"/></clipPath><clipPath id="34d3a83c36"><path d="M 0.988281 62.25 L 11.71875 46.039062 L 27.929688 56.769531 L 17.199219 72.980469 Z M 0.988281 62.25 " clip-rule="nonzero"/></clipPath><clipPath id="a56dc781ea"><path d="M 0.988281 62.25 L 11.71875 46.039062 L 27.929688 56.769531 L 17.199219 72.980469 Z M 0.988281 62.25 " clip-rule="nonzero"/></clipPath><clipPath id="42688435de"><path d="M 18.519531 58.539062 L 19.414062 58.539062 L 19.414062 59.136719 L 18.519531 59.136719 Z M 18.519531 58.539062 " clip-rule="nonzero"/></clipPath><clipPath id="f2ca0c525a"><path d="M 0.988281 62.25 L 11.71875 46.039062 L 27.929688 56.769531 L 17.199219 72.980469 Z M 0.988281 62.25 " clip-rule="nonzero"/></clipPath><clipPath id="31b5c46486"><path d="M 0.988281 62.25 L 11.71875 46.039062 L 27.929688 56.769531 L 17.199219 72.980469 Z M 0.988281 62.25 " clip-rule="nonzero"/></clipPath><clipPath id="e3fb54333c"><path d="M 16.425781 58.839844 L 17.324219 58.839844 L 17.324219 59.4375 L 16.425781 59.4375 Z M 16.425781 58.839844 " clip-rule="nonzero"/></clipPath><clipPath id="e4ad5edea3"><path d="M 0.988281 62.25 L 11.71875 46.039062 L 27.929688 56.769531 L 17.199219 72.980469 Z M 0.988281 62.25 " clip-rule="nonzero"/></clipPath><clipPath id="08a050bd52"><path d="M 0.988281 62.25 L 11.71875 46.039062 L 27.929688 56.769531 L 17.199219 72.980469 Z M 0.988281 62.25 " clip-rule="nonzero"/></clipPath><clipPath id="0db1212aa8"><path d="M 9.558594 60.332031 L 10.453125 60.332031 L 10.453125 60.929688 L 9.558594 60.929688 Z M 9.558594 60.332031 " clip-rule="nonzero"/></clipPath><clipPath id="a4c74f4d05"><path d="M 0.988281 62.25 L 11.71875 46.039062 L 27.929688 56.769531 L 17.199219 72.980469 Z M 0.988281 62.25 " clip-rule="nonzero"/></clipPath><clipPath id="d02466d047"><path d="M 0.988281 62.25 L 11.71875 46.039062 L 27.929688 56.769531 L 17.199219 72.980469 Z M 0.988281 62.25 " clip-rule="nonzero"/></clipPath><clipPath id="1712d66838"><path d="M 9 58.839844 L 10.15625 58.839844 L 10.15625 60 L 9 60 Z M 9 58.839844 " clip-rule="nonzero"/></clipPath><clipPath id="7c66a6239c"><path d="M 0.988281 62.25 L 11.71875 46.039062 L 27.929688 56.769531 L 17.199219 72.980469 Z M 0.988281 62.25 " clip-rule="nonzero"/></clipPath><clipPath id="1b50a09073"><path d="M 0.988281 62.25 L 11.71875 46.039062 L 27.929688 56.769531 L 17.199219 72.980469 Z M 0.988281 62.25 " clip-rule="nonzero"/></clipPath><clipPath id="2c2b88da45"><path d="M 11.347656 59.734375 L 12.246094 59.734375 L 12.246094 60.628906 L 11.347656 60.628906 Z M 11.347656 59.734375 " clip-rule="nonzero"/></clipPath><clipPath id="717f6b69c5"><path d="M 0.988281 62.25 L 11.71875 46.039062 L 27.929688 56.769531 L 17.199219 72.980469 Z M 0.988281 62.25 " clip-rule="nonzero"/></clipPath><clipPath id="00bee28d40"><path d="M 0.988281 62.25 L 11.71875 46.039062 L 27.929688 56.769531 L 17.199219 72.980469 Z M 0.988281 62.25 " clip-rule="nonzero"/></clipPath><clipPath id="7016d8e4ed"><path d="M 11 57.644531 L 12 57.644531 L 12 58.839844 L 11 58.839844 Z M 11 57.644531 " clip-rule="nonzero"/></clipPath><clipPath id="113d8ba783"><path d="M 0.988281 62.25 L 11.71875 46.039062 L 27.929688 56.769531 L 17.199219 72.980469 Z M 0.988281 62.25 " clip-rule="nonzero"/></clipPath><clipPath id="6b4e0c133f"><path d="M 0.988281 62.25 L 11.71875 46.039062 L 27.929688 56.769531 L 17.199219 72.980469 Z M 0.988281 62.25 " clip-rule="nonzero"/></clipPath><clipPath id="dc7ce1c151"><path d="M 30.015625 61.542969 L 37.625 61.542969 L 37.625 69.429688 L 30.015625 69.429688 Z M 30.015625 61.542969 " clip-rule="nonzero"/></clipPath><clipPath id="d6c8ec785f"><path d="M 42.871094 50.460938 L 61.75 50.460938 L 61.75 69.339844 L 42.871094 69.339844 Z M 42.871094 50.460938 " clip-rule="nonzero"/></clipPath><clipPath id="0c44de6c1b"><path d="M 105.199219 33.875 L 111.398438 33.875 L 111.398438 40 L 105.199219 40 Z M 105.199219 33.875 " clip-rule="nonzero"/></clipPath></defs><g clip-path="url(#ec24ecfe57)"><path fill="#ffffff" d="M 0 0 L 112.003906 0 L 112.003906 112.003906 L 0 112.003906 Z M 0 0 " fill-opacity="1" fill-rule="nonzero"/><path fill="#ffffff" d="M 0 0 L 112.003906 0 L 112.003906 112.003906 L 0 112.003906 Z M 0 0 " fill-opacity="1" fill-rule="nonzero"/><rect x="-11.25" width="135" fill="#ffffff" y="-11.25" height="134.999996" fill-opacity="1"/><rect x="-11.25" width="135" fill="#0400b8" y="-11.25" height="134.999996" fill-opacity="1"/></g><path fill="#ffffff" d="M 3.714844 69.816406 L 10.414062 45.324219 L 12.632812 57.003906 L 15.195312 57.003906 L 11.902344 39.980469 L 22.558594 39.980469 L 28.34375 69.816406 L 17.714844 69.816406 L 15.738281 59.6875 L 13.179688 59.6875 L 15.152344 69.816406 Z M 3.714844 69.816406 " fill-opacity="1" fill-rule="nonzero"/><g clip-path="url(#fce2c56f69)"><g clip-path="url(#879fe837c8)"><g clip-path="url(#2a1593f231)"><path fill="#0400b8" d="M 13.042969 53.027344 C 13.042969 53.027344 13.042969 53.03125 13.042969 53.03125 C 12.542969 53.265625 12.089844 53.570312 12.296875 55.542969 C 12.363281 56.164062 12.492188 56.945312 12.664062 57.792969 C 12.664062 57.792969 10.089844 59.0625 10.089844 59.0625 C 10.089844 59.0625 7.378906 60.398438 7.378906 60.398438 C 7.441406 60.679688 7.5 60.957031 7.5625 61.238281 C 9.421875 60.796875 11.28125 60.359375 13.140625 59.921875 C 13.515625 61.453125 13.945312 62.964844 14.304688 63.996094 C 14.351562 64.136719 14.398438 64.265625 14.445312 64.386719 C 14.445312 64.386719 13.234375 65.019531 13.234375 65.019531 C 13.234375 65.019531 11.78125 65.777344 11.78125 65.777344 C 11.816406 65.941406 11.851562 66.101562 11.886719 66.269531 C 12.910156 66.023438 13.933594 65.777344 14.960938 65.53125 C 15.238281 65.886719 15.363281 65.964844 15.683594 66.03125 C 15.964844 65.839844 16.03125 65.757812 16.164062 65.289062 C 17.203125 65.113281 18.242188 64.9375 19.28125 64.765625 C 19.25 64.597656 19.214844 64.433594 19.1875 64.269531 C 19.1875 64.269531 17.554688 64.140625 17.554688 64.140625 C 17.554688 64.140625 16.191406 64.03125 16.191406 64.03125 C 16.1875 63.902344 16.179688 63.765625 16.167969 63.617188 C 16.09375 62.527344 15.902344 60.964844 15.644531 59.410156 C 15.644531 59.410156 15.648438 59.410156 15.648438 59.410156 C 17.53125 59.089844 19.414062 58.765625 21.296875 58.445312 C 21.242188 58.164062 21.1875 57.882812 21.136719 57.601562 C 21.136719 57.601562 18.121094 57.429688 18.121094 57.429688 C 18.121094 57.429688 15.253906 57.265625 15.253906 57.265625 C 15.082031 56.417969 14.894531 55.648438 14.710938 55.050781 C 14.132812 53.160156 13.597656 53.050781 13.046875 53.027344 C 13.042969 53.027344 13.042969 53.027344 13.042969 53.027344 " fill-opacity="1" fill-rule="nonzero"/></g></g></g><g clip-path="url(#a4c8b00f61)"><g clip-path="url(#92d4dda9c2)"><g clip-path="url(#ad3de44e5e)"><path fill="#0400b8" d="M 16.984375 57.203125 C 16.945312 57 16.84375 56.851562 16.757812 56.867188 C 16.757812 56.867188 16.15625 56.988281 16.15625 56.988281 C 16.074219 57.007812 16.039062 57.183594 16.082031 57.386719 C 16.082031 57.386719 16.089844 57.441406 16.089844 57.441406 C 16.132812 57.640625 16.234375 57.792969 16.316406 57.777344 C 16.316406 57.777344 16.917969 57.652344 16.917969 57.652344 C 17.003906 57.636719 17.035156 57.457031 16.996094 57.253906 C 16.996094 57.253906 16.984375 57.203125 16.984375 57.203125 " fill-opacity="1" fill-rule="nonzero"/></g></g></g><g clip-path="url(#e2dc0f3c7c)"><g clip-path="url(#34d3a83c36)"><g clip-path="url(#a56dc781ea)"><path fill="#0400b8" d="M 19.0625 57.425781 C 19.019531 57.222656 18.921875 57.074219 18.835938 57.089844 C 18.835938 57.089844 18.234375 57.214844 18.234375 57.214844 C 18.152344 57.230469 18.117188 57.40625 18.160156 57.609375 C 18.160156 57.609375 18.167969 57.664062 18.167969 57.664062 C 18.210938 57.867188 18.3125 58.015625 18.394531 58 C 18.394531 58 18.996094 57.875 18.996094 57.875 C 19.078125 57.859375 19.113281 57.679688 19.074219 57.476562 C 19.074219 57.476562 19.0625 57.425781 19.0625 57.425781 " fill-opacity="1" fill-rule="nonzero"/></g></g></g><g clip-path="url(#42688435de)"><g clip-path="url(#f2ca0c525a)"><g clip-path="url(#31b5c46486)"><path fill="#0400b8" d="M 19.109375 58.792969 C 19.128906 58.894531 19.113281 58.988281 19.070312 58.996094 C 19.070312 58.996094 18.761719 59.058594 18.761719 59.058594 C 18.722656 59.066406 18.667969 58.988281 18.648438 58.886719 C 18.648438 58.886719 18.644531 58.859375 18.644531 58.859375 C 18.621094 58.753906 18.640625 58.664062 18.683594 58.65625 C 18.683594 58.65625 18.988281 58.59375 18.988281 58.59375 C 19.03125 58.585938 19.082031 58.664062 19.101562 58.765625 C 19.101562 58.765625 19.109375 58.792969 19.109375 58.792969 " fill-opacity="1" fill-rule="nonzero"/></g></g></g><g clip-path="url(#e3fb54333c)"><g clip-path="url(#e4ad5edea3)"><g clip-path="url(#08a050bd52)"><path fill="#0400b8" d="M 17.160156 59.082031 C 17.183594 59.195312 17.160156 59.292969 17.117188 59.304688 C 17.117188 59.304688 16.78125 59.371094 16.78125 59.371094 C 16.734375 59.382812 16.675781 59.296875 16.65625 59.183594 C 16.65625 59.183594 16.648438 59.15625 16.648438 59.15625 C 16.625 59.042969 16.644531 58.941406 16.691406 58.933594 C 16.691406 58.933594 17.027344 58.863281 17.027344 58.863281 C 17.074219 58.855469 17.128906 58.9375 17.152344 59.050781 C 17.152344 59.050781 17.160156 59.082031 17.160156 59.082031 " fill-opacity="1" fill-rule="nonzero"/></g></g></g><g clip-path="url(#0db1212aa8)"><g clip-path="url(#a4c74f4d05)"><g clip-path="url(#d02466d047)"><path fill="#0400b8" d="M 9.710938 60.703125 C 9.734375 60.808594 9.785156 60.882812 9.824219 60.875 C 9.824219 60.875 10.132812 60.8125 10.132812 60.8125 C 10.175781 60.804688 10.195312 60.714844 10.171875 60.609375 C 10.171875 60.609375 10.167969 60.582031 10.167969 60.582031 C 10.144531 60.480469 10.09375 60.402344 10.050781 60.414062 C 10.050781 60.414062 9.746094 60.472656 9.746094 60.472656 C 9.703125 60.484375 9.6875 60.574219 9.707031 60.675781 C 9.707031 60.675781 9.710938 60.703125 9.710938 60.703125 " fill-opacity="1" fill-rule="nonzero"/></g></g></g><g clip-path="url(#1712d66838)"><g clip-path="url(#7c66a6239c)"><g clip-path="url(#1b50a09073)"><path fill="#0400b8" d="M 9.222656 59.429688 C 9.179688 59.226562 9.214844 59.046875 9.296875 59.03125 C 9.296875 59.03125 9.902344 58.910156 9.902344 58.910156 C 9.984375 58.890625 10.082031 59.042969 10.125 59.246094 C 10.125 59.246094 10.136719 59.296875 10.136719 59.296875 C 10.175781 59.5 10.144531 59.675781 10.058594 59.695312 C 10.058594 59.695312 9.457031 59.816406 9.457031 59.816406 C 9.375 59.832031 9.273438 59.683594 9.230469 59.480469 C 9.230469 59.480469 9.222656 59.429688 9.222656 59.429688 " fill-opacity="1" fill-rule="nonzero"/></g></g></g><g clip-path="url(#2c2b88da45)"><g clip-path="url(#717f6b69c5)"><g clip-path="url(#00bee28d40)"><path fill="#0400b8" d="M 11.609375 60.210938 C 11.632812 60.324219 11.6875 60.40625 11.734375 60.398438 C 11.734375 60.398438 12.070312 60.328125 12.070312 60.328125 C 12.117188 60.320312 12.136719 60.222656 12.113281 60.109375 C 12.113281 60.109375 12.109375 60.078125 12.109375 60.078125 C 12.085938 59.964844 12.027344 59.882812 11.980469 59.890625 C 11.980469 59.890625 11.644531 59.960938 11.644531 59.960938 C 11.597656 59.96875 11.582031 60.066406 11.605469 60.179688 C 11.605469 60.179688 11.609375 60.210938 11.609375 60.210938 " fill-opacity="1" fill-rule="nonzero"/></g></g></g><g clip-path="url(#7016d8e4ed)"><g clip-path="url(#113d8ba783)"><g clip-path="url(#6b4e0c133f)"><path fill="#0400b8" d="M 11.035156 58.414062 C 10.996094 58.210938 11.027344 58.03125 11.113281 58.015625 C 11.113281 58.015625 11.714844 57.894531 11.714844 57.894531 C 11.796875 57.875 11.898438 58.027344 11.941406 58.230469 C 11.941406 58.230469 11.949219 58.28125 11.949219 58.28125 C 11.992188 58.484375 11.957031 58.664062 11.875 58.679688 C 11.875 58.679688 11.269531 58.800781 11.269531 58.800781 C 11.1875 58.820312 11.089844 58.667969 11.046875 58.464844 C 11.046875 58.464844 11.035156 58.414062 11.035156 58.414062 " fill-opacity="1" fill-rule="nonzero"/></g></g></g><path fill="#ffffff" d="M 29.757812 46.878906 L 37.808594 46.878906 L 37.808594 69.507812 L 29.757812 69.507812 Z M 29.757812 46.878906 " fill-opacity="1" fill-rule="nonzero"/><g clip-path="url(#dc7ce1c151)"><path fill="#0400b8" d="M 37.007812 65.785156 L 36.230469 65.785156 L 36.230469 65.597656 C 36.230469 65.382812 36.050781 65.203125 35.835938 65.203125 L 34.925781 65.203125 C 34.707031 65.203125 34.53125 65.382812 34.53125 65.597656 L 34.53125 65.785156 L 34.308594 65.785156 L 34.308594 63.660156 C 34.308594 63.191406 33.925781 62.808594 33.457031 62.808594 L 33.214844 62.808594 L 33.214844 62.085938 C 33.335938 62.066406 33.425781 61.964844 33.425781 61.839844 L 33.425781 61.792969 C 33.425781 61.65625 33.3125 61.546875 33.175781 61.546875 L 31.148438 61.546875 C 31.011719 61.546875 30.898438 61.65625 30.898438 61.792969 L 30.898438 61.839844 C 30.898438 61.964844 30.992188 62.066406 31.109375 62.085938 L 31.109375 62.808594 L 30.871094 62.808594 C 30.398438 62.808594 30.015625 63.191406 30.015625 63.660156 L 30.015625 67.96875 C 30.015625 68.324219 30.234375 68.628906 30.546875 68.757812 L 30.546875 69.058594 C 30.546875 69.210938 30.667969 69.332031 30.816406 69.332031 C 30.964844 69.332031 31.085938 69.210938 31.085938 69.058594 L 31.085938 68.824219 L 33.195312 68.824219 C 33.226562 69.101562 33.464844 69.324219 33.753906 69.324219 L 37.007812 69.324219 C 37.316406 69.324219 37.566406 69.070312 37.566406 68.761719 L 37.566406 66.347656 C 37.566406 66.035156 37.316406 65.785156 37.007812 65.785156 Z M 36.605469 65.910156 L 36.605469 69.199219 L 34.15625 69.199219 L 34.15625 65.910156 Z M 35.824219 65.785156 L 34.933594 65.785156 L 34.933594 65.710938 C 34.933594 65.636719 34.996094 65.574219 35.066406 65.574219 L 35.691406 65.574219 C 35.765625 65.574219 35.824219 65.636719 35.824219 65.710938 Z M 34.652344 65.597656 C 34.652344 65.449219 34.777344 65.328125 34.925781 65.328125 L 35.835938 65.328125 C 35.984375 65.328125 36.105469 65.449219 36.105469 65.597656 L 36.105469 65.785156 L 35.949219 65.785156 L 35.949219 65.710938 C 35.949219 65.566406 35.832031 65.453125 35.691406 65.453125 L 35.066406 65.453125 C 34.925781 65.453125 34.8125 65.566406 34.8125 65.710938 L 34.8125 65.785156 L 34.652344 65.785156 Z M 32.929688 62.808594 L 32.929688 62.089844 L 33.09375 62.089844 L 33.09375 62.808594 Z M 32.792969 62.808594 L 32.683594 62.664062 C 32.632812 62.59375 32.554688 62.554688 32.472656 62.554688 L 31.855469 62.554688 C 31.769531 62.554688 31.695312 62.59375 31.640625 62.664062 L 31.53125 62.808594 L 31.519531 62.808594 L 31.519531 62.089844 L 32.804688 62.089844 L 32.804688 62.808594 Z M 32.636719 62.808594 L 31.6875 62.808594 L 31.742188 62.738281 C 31.769531 62.699219 31.8125 62.675781 31.855469 62.675781 L 32.472656 62.675781 C 32.515625 62.675781 32.554688 62.699219 32.585938 62.738281 Z M 31.023438 61.839844 L 31.023438 61.792969 C 31.023438 61.726562 31.078125 61.671875 31.148438 61.671875 L 33.175781 61.671875 C 33.246094 61.671875 33.300781 61.726562 33.300781 61.792969 L 33.300781 61.839844 C 33.300781 61.910156 33.246094 61.964844 33.175781 61.964844 L 31.148438 61.964844 C 31.078125 61.964844 31.023438 61.910156 31.023438 61.839844 Z M 31.234375 62.089844 L 31.398438 62.089844 L 31.398438 62.808594 L 31.234375 62.808594 Z M 30.140625 67.96875 L 30.140625 63.660156 C 30.140625 63.257812 30.46875 62.929688 30.871094 62.929688 L 33.457031 62.929688 C 33.859375 62.929688 34.1875 63.257812 34.1875 63.660156 L 34.1875 65.785156 L 33.808594 65.785156 L 33.808594 63.574219 C 33.808594 63.445312 33.699219 63.335938 33.566406 63.335938 C 33.433594 63.335938 33.328125 63.445312 33.328125 63.574219 L 33.328125 65.980469 C 33.242188 66.082031 33.191406 66.207031 33.191406 66.347656 L 33.191406 68.699219 L 30.871094 68.699219 C 30.46875 68.699219 30.140625 68.371094 30.140625 67.96875 Z M 33.453125 65.875 L 33.453125 63.574219 C 33.453125 63.511719 33.503906 63.457031 33.566406 63.457031 C 33.632812 63.457031 33.683594 63.511719 33.683594 63.574219 L 33.683594 65.789062 C 33.597656 65.800781 33.519531 65.832031 33.453125 65.875 Z M 30.960938 69.058594 C 30.960938 69.140625 30.894531 69.207031 30.816406 69.207031 C 30.734375 69.207031 30.667969 69.140625 30.667969 69.058594 L 30.667969 68.796875 C 30.734375 68.8125 30.800781 68.824219 30.871094 68.824219 L 30.960938 68.824219 Z M 33.316406 68.773438 C 33.316406 68.769531 33.320312 68.765625 33.320312 68.761719 C 33.320312 68.753906 33.316406 68.75 33.316406 68.742188 L 33.316406 66.347656 C 33.316406 66.257812 33.34375 66.175781 33.386719 66.105469 C 33.386719 66.105469 33.390625 66.105469 33.390625 66.105469 C 33.421875 66.105469 33.453125 66.078125 33.453125 66.042969 L 33.453125 66.03125 C 33.523438 65.960938 33.621094 65.917969 33.730469 65.910156 C 33.734375 65.914062 33.738281 65.914062 33.746094 65.914062 C 33.753906 65.914062 33.757812 65.914062 33.765625 65.910156 L 34.03125 65.910156 L 34.03125 69.199219 L 33.753906 69.199219 C 33.515625 69.199219 33.324219 69.007812 33.316406 68.773438 Z M 37.445312 68.761719 C 37.445312 69.003906 37.246094 69.199219 37.007812 69.199219 L 36.730469 69.199219 L 36.730469 65.910156 L 37.007812 65.910156 C 37.246094 65.910156 37.445312 66.105469 37.445312 66.347656 Z M 37.445312 68.761719 " fill-opacity="1" fill-rule="nonzero"/></g><path fill="#0400b8" d="M 32.144531 68.21875 L 32.183594 68.21875 C 32.304688 68.21875 32.402344 68.121094 32.402344 68 L 32.402344 63.554688 C 32.402344 63.433594 32.304688 63.335938 32.183594 63.335938 L 32.144531 63.335938 C 32.023438 63.335938 31.921875 63.433594 31.921875 63.554688 L 31.921875 68 C 31.921875 68.121094 32.023438 68.21875 32.144531 68.21875 Z M 32.046875 63.554688 C 32.046875 63.503906 32.089844 63.457031 32.144531 63.457031 L 32.183594 63.457031 C 32.234375 63.457031 32.277344 63.5 32.277344 63.554688 L 32.277344 68 C 32.277344 68.054688 32.234375 68.097656 32.183594 68.097656 L 32.144531 68.097656 C 32.089844 68.097656 32.046875 68.054688 32.046875 68 Z M 32.046875 63.554688 " fill-opacity="1" fill-rule="nonzero"/><path fill="#0400b8" d="M 31.421875 68.21875 L 31.460938 68.21875 C 31.582031 68.21875 31.679688 68.121094 31.679688 68 L 31.679688 63.554688 C 31.679688 63.433594 31.582031 63.335938 31.460938 63.335938 L 31.421875 63.335938 C 31.300781 63.335938 31.203125 63.433594 31.203125 63.554688 L 31.203125 68 C 31.203125 68.121094 31.300781 68.21875 31.421875 68.21875 Z M 31.324219 63.554688 C 31.324219 63.503906 31.367188 63.457031 31.421875 63.457031 L 31.460938 63.457031 C 31.515625 63.457031 31.558594 63.5 31.558594 63.554688 L 31.558594 68 C 31.558594 68.054688 31.515625 68.097656 31.460938 68.097656 L 31.421875 68.097656 C 31.367188 68.097656 31.324219 68.054688 31.324219 68 Z M 31.324219 63.554688 " fill-opacity="1" fill-rule="nonzero"/><path fill="#0400b8" d="M 30.960938 68 L 30.960938 63.554688 C 30.960938 63.433594 30.863281 63.335938 30.742188 63.335938 L 30.703125 63.335938 C 30.582031 63.335938 30.480469 63.433594 30.480469 63.554688 L 30.480469 68 C 30.480469 68.121094 30.582031 68.21875 30.703125 68.21875 L 30.742188 68.21875 C 30.863281 68.21875 30.960938 68.121094 30.960938 68 Z M 30.835938 68 C 30.835938 68.054688 30.792969 68.097656 30.742188 68.097656 L 30.703125 68.097656 C 30.648438 68.097656 30.605469 68.054688 30.605469 68 L 30.605469 63.554688 C 30.605469 63.503906 30.648438 63.457031 30.703125 63.457031 L 30.742188 63.457031 C 30.792969 63.457031 30.835938 63.5 30.835938 63.554688 Z M 30.835938 68 " fill-opacity="1" fill-rule="nonzero"/><path fill="#0400b8" d="M 32.824219 68.21875 L 32.867188 68.21875 C 32.988281 68.21875 33.085938 68.121094 33.085938 68 L 33.085938 63.554688 C 33.085938 63.433594 32.988281 63.335938 32.867188 63.335938 L 32.824219 63.335938 C 32.707031 63.335938 32.605469 63.433594 32.605469 63.554688 L 32.605469 68 C 32.605469 68.121094 32.703125 68.21875 32.824219 68.21875 Z M 32.730469 63.554688 C 32.730469 63.503906 32.773438 63.457031 32.824219 63.457031 L 32.867188 63.457031 C 32.917969 63.457031 32.960938 63.5 32.960938 63.554688 L 32.960938 68 C 32.960938 68.054688 32.917969 68.097656 32.867188 68.097656 L 32.824219 68.097656 C 32.773438 68.097656 32.730469 68.054688 32.730469 68 Z M 32.730469 63.554688 " fill-opacity="1" fill-rule="nonzero"/><path fill="#ffffff" d="M 58.039062 69.882812 L 53.371094 51.644531 L 54.535156 47.25 L 59.738281 47.25 L 65.472656 69.882812 Z M 39.078125 69.882812 L 42.84375 55.34375 L 46.578125 69.882812 Z M 48.519531 69.882812 L 43.835938 51.644531 L 45 47.25 L 50.203125 47.25 L 55.972656 69.882812 Z M 48.519531 69.882812 " fill-opacity="1" fill-rule="nonzero"/><g clip-path="url(#d6c8ec785f)"><path fill="#0400b8" d="M 52.304688 50.460938 C 49.785156 50.460938 47.414062 51.445312 45.632812 53.226562 C 43.851562 55.007812 42.871094 57.378906 42.871094 59.898438 C 42.871094 62.417969 43.851562 64.785156 45.632812 66.570312 C 47.414062 68.351562 49.785156 69.332031 52.304688 69.332031 C 54.824219 69.332031 57.195312 68.351562 58.976562 66.570312 C 60.757812 64.785156 61.738281 62.417969 61.738281 59.898438 C 61.738281 57.378906 60.757812 55.007812 58.976562 53.226562 C 57.195312 51.445312 54.824219 50.460938 52.304688 50.460938 Z M 46.902344 52.613281 C 46.894531 52.628906 46.886719 52.648438 46.878906 52.660156 C 46.855469 52.699219 46.777344 52.777344 46.777344 52.777344 L 46.675781 52.785156 C 46.75 52.726562 46.828125 52.667969 46.902344 52.613281 Z M 43.28125 60.832031 C 43.300781 60.863281 43.320312 60.886719 43.34375 60.902344 C 43.433594 60.976562 43.433594 60.953125 43.546875 61.027344 C 43.660156 61.097656 44.070312 61.160156 44.070312 61.160156 L 44.273438 61.160156 L 44.640625 61.433594 C 44.640625 61.433594 44.785156 61.425781 44.816406 61.433594 C 44.847656 61.445312 45.03125 61.703125 45.03125 61.703125 L 45.195312 61.703125 L 45.367188 61.875 L 45.511719 61.882812 L 45.605469 61.808594 L 45.714844 61.917969 L 45.75 62.050781 L 45.75 62.132812 L 45.757812 62.277344 L 45.621094 62.453125 L 45.527344 62.5625 L 45.527344 63.0625 L 45.757812 63.335938 L 45.878906 63.691406 L 45.890625 63.722656 L 45.957031 63.882812 L 46.1875 64.058594 L 46.386719 64.210938 C 46.386719 64.210938 46.425781 64.328125 46.425781 64.394531 C 46.425781 64.464844 46.417969 64.601562 46.417969 64.601562 L 46.394531 64.816406 L 46.320312 65.269531 C 46.320312 65.269531 46.265625 65.660156 46.25 65.785156 C 46.234375 65.90625 46.164062 66.144531 46.164062 66.144531 C 46.164062 66.144531 46.105469 66.359375 46.082031 66.449219 C 46.078125 66.460938 46.074219 66.472656 46.074219 66.484375 C 44.539062 65.03125 43.507812 63.050781 43.28125 60.832031 Z M 52.304688 68.972656 C 50.191406 68.972656 48.246094 68.246094 46.703125 67.03125 L 46.726562 66.988281 L 46.757812 66.917969 L 46.839844 66.757812 L 46.925781 66.632812 L 46.925781 66.519531 L 47.164062 66.296875 L 47.375 66.144531 C 47.375 66.144531 47.503906 66.074219 47.558594 66 C 47.570312 65.984375 47.578125 65.96875 47.582031 65.953125 C 47.589844 65.867188 47.582031 65.816406 47.582031 65.8125 L 47.792969 65.699219 C 47.792969 65.699219 47.9375 65.699219 48.042969 65.613281 C 48.070312 65.59375 48.09375 65.566406 48.109375 65.542969 C 48.164062 65.464844 48.175781 65.375 48.175781 65.375 L 48.40625 64.910156 C 48.40625 64.90625 48.535156 64.808594 48.648438 64.71875 C 48.765625 64.625 48.757812 64.671875 48.804688 64.640625 C 48.847656 64.609375 48.996094 64.527344 48.996094 64.527344 L 48.996094 64.523438 C 48.996094 64.523438 49.140625 64.308594 49.140625 64.308594 L 49.226562 64.019531 C 49.226562 64.019531 49.210938 63.78125 49.21875 63.71875 C 49.21875 63.714844 49.21875 63.714844 49.222656 63.710938 C 49.246094 63.667969 49.386719 63.71875 49.386719 63.71875 L 49.632812 63.023438 L 49.503906 62.945312 C 49.503906 62.945312 49.105469 62.851562 48.988281 62.816406 C 48.875 62.777344 48.589844 62.683594 48.589844 62.683594 L 48.359375 62.613281 L 48.25 62.449219 L 48.152344 62.238281 C 48.152344 62.238281 47.882812 62.09375 47.769531 62.0625 C 47.652344 62.03125 47.492188 61.980469 47.492188 61.980469 C 47.492188 61.980469 47.394531 61.871094 47.378906 61.832031 C 47.363281 61.792969 47.125 61.703125 47.125 61.703125 L 46.65625 61.636719 L 46.40625 61.558594 L 46.3125 61.503906 L 46.089844 61.582031 L 45.914062 61.726562 L 45.816406 61.8125 L 45.765625 61.851562 L 45.75 61.863281 L 45.691406 61.769531 L 45.527344 61.722656 C 45.527344 61.722656 45.515625 61.773438 45.5 61.792969 C 45.496094 61.796875 45.492188 61.800781 45.492188 61.800781 C 45.476562 61.804688 45.414062 61.789062 45.414062 61.789062 C 45.414062 61.789062 45.339844 61.738281 45.308594 61.71875 C 45.277344 61.699219 45.257812 61.679688 45.257812 61.679688 L 45.1875 61.570312 L 45.183594 61.460938 L 45.195312 61.296875 C 45.195312 61.257812 45.199219 61.179688 45.199219 61.179688 C 45.199219 61.179688 45.03125 61.152344 44.988281 61.152344 C 44.941406 61.152344 44.816406 61.148438 44.808594 61.148438 C 44.800781 61.148438 44.777344 61.179688 44.777344 61.113281 C 44.777344 61.046875 44.800781 60.917969 44.800781 60.917969 L 44.832031 60.773438 L 44.878906 60.679688 L 44.835938 60.617188 L 44.683594 60.648438 L 44.59375 60.808594 L 44.492188 60.875 L 44.285156 60.894531 L 44.203125 60.875 C 44.203125 60.875 44.117188 60.824219 44.097656 60.796875 C 44.078125 60.769531 44.039062 60.628906 44.039062 60.628906 C 44.039062 60.628906 43.984375 60.453125 43.984375 60.390625 C 43.984375 60.328125 43.976562 60.246094 43.988281 60.203125 C 44 60.160156 44.003906 60.117188 44.042969 60.046875 C 44.078125 59.980469 44.121094 59.910156 44.125 59.910156 C 44.125 59.910156 44.195312 59.847656 44.234375 59.84375 C 44.269531 59.839844 44.375 59.828125 44.375 59.828125 C 44.375 59.828125 44.546875 59.832031 44.574219 59.839844 C 44.601562 59.847656 44.71875 59.847656 44.71875 59.847656 L 44.769531 59.832031 L 44.886719 59.796875 C 44.886719 59.796875 44.992188 59.757812 45.085938 59.804688 C 45.175781 59.851562 45.214844 59.839844 45.246094 59.921875 C 45.277344 60 45.316406 60.070312 45.316406 60.070312 C 45.316406 60.070312 45.359375 60.105469 45.390625 60.160156 C 45.421875 60.21875 45.527344 60.214844 45.527344 60.214844 L 45.421875 59.9375 L 45.40625 59.773438 L 45.523438 59.515625 L 45.703125 59.445312 L 45.964844 59.28125 L 45.8125 58.957031 L 46.058594 58.765625 L 46.230469 58.644531 L 46.355469 58.746094 L 46.417969 58.503906 L 46.585938 58.320312 C 46.585938 58.320312 46.699219 58.28125 46.714844 58.28125 C 46.71875 58.28125 46.738281 58.308594 46.753906 58.34375 L 46.796875 58.46875 L 46.933594 58.480469 L 46.96875 58.378906 L 47.121094 58.359375 L 47.308594 58.390625 L 47.324219 58.296875 L 47.394531 58.238281 L 47.375 58.183594 L 47.285156 58.175781 L 46.972656 58.050781 L 46.960938 57.984375 L 47.039062 57.777344 L 47.214844 57.679688 L 47.347656 57.609375 L 47.589844 57.566406 C 47.589844 57.566406 47.554688 57.761719 47.558594 57.808594 C 47.558594 57.816406 47.558594 57.820312 47.554688 57.824219 C 47.523438 57.859375 47.386719 57.878906 47.386719 57.878906 L 47.445312 58.015625 L 47.785156 58.082031 C 47.785156 58.082031 48 58.15625 48.011719 58.140625 C 48.023438 58.125 48.03125 57.949219 48.03125 57.949219 L 47.796875 57.660156 L 47.683594 57.507812 L 47.59375 57.191406 L 47.246094 56.761719 L 47.179688 56.667969 L 46.988281 56.332031 L 46.765625 56.417969 C 46.765625 56.417969 46.542969 56.496094 46.511719 56.480469 C 46.480469 56.464844 46.359375 56.09375 46.359375 56.09375 L 46.019531 55.972656 C 46.019531 55.972656 45.84375 55.902344 45.789062 55.988281 C 45.738281 56.074219 45.683594 56.203125 45.683594 56.265625 C 45.683594 56.328125 45.730469 56.496094 45.730469 56.496094 L 45.746094 56.664062 L 45.714844 56.804688 L 45.746094 56.894531 C 45.746094 56.894531 45.628906 57.085938 45.621094 57.132812 C 45.613281 57.175781 45.539062 57.285156 45.523438 57.316406 C 45.503906 57.34375 45.207031 57.101562 45.207031 57.101562 L 44.976562 56.871094 L 44.554688 56.71875 C 44.554688 56.71875 44.488281 56.664062 44.410156 56.578125 C 44.335938 56.496094 44.171875 56.332031 44.171875 56.332031 L 44.449219 55.933594 C 44.449219 55.933594 44.578125 55.792969 44.628906 55.71875 C 44.640625 55.707031 44.644531 55.695312 44.648438 55.691406 C 44.664062 55.65625 44.664062 55.589844 44.683594 55.5625 C 44.699219 55.535156 44.730469 55.539062 44.800781 55.613281 C 44.953125 55.773438 45.015625 55.789062 45.070312 55.804688 C 45.125 55.820312 45.222656 55.84375 45.222656 55.84375 L 45.316406 55.714844 L 45.292969 55.351562 C 45.292969 55.351562 45.292969 55.351562 45.296875 55.347656 C 45.300781 55.339844 45.316406 55.296875 45.324219 55.121094 C 45.332031 54.894531 45.359375 54.714844 45.363281 54.707031 C 45.363281 54.707031 45.585938 54.746094 45.714844 54.777344 C 45.84375 54.808594 46.011719 54.753906 46.089844 54.859375 C 46.164062 54.964844 46.242188 55.421875 46.214844 55.476562 C 46.214844 55.480469 46.210938 55.480469 46.210938 55.480469 C 46.210938 55.484375 46.207031 55.488281 46.207031 55.488281 C 46.179688 55.523438 46.210938 55.597656 46.210938 55.597656 L 46.367188 55.75 L 46.726562 55.820312 L 46.910156 55.773438 L 46.671875 55.488281 L 46.78125 55.445312 L 46.917969 55.453125 L 46.957031 55.144531 C 46.957031 55.144531 46.835938 54.945312 46.742188 54.914062 C 46.648438 54.882812 46.535156 54.730469 46.535156 54.730469 C 46.535156 54.730469 46.234375 54.421875 46.175781 54.386719 C 46.113281 54.347656 45.960938 54.222656 45.960938 54.222656 L 45.761719 53.871094 L 45.53125 53.917969 L 45.496094 53.910156 C 45.742188 53.628906 46.007812 53.363281 46.285156 53.113281 C 46.347656 53.144531 46.378906 53.164062 46.398438 53.199219 C 46.421875 53.234375 46.457031 53.3125 46.457031 53.3125 C 46.457031 53.3125 46.457031 53.417969 46.542969 53.425781 C 46.625 53.4375 46.734375 53.417969 46.734375 53.417969 L 46.980469 53.402344 C 46.980469 53.402344 47.050781 53.378906 47.132812 53.425781 C 47.21875 53.472656 47.332031 53.503906 47.332031 53.503906 L 47.46875 53.632812 C 47.46875 53.632812 47.515625 53.648438 47.546875 53.710938 C 47.578125 53.773438 47.585938 53.671875 47.617188 53.847656 C 47.648438 54.027344 47.679688 54.125 47.679688 54.125 C 47.679688 54.125 47.703125 54.246094 47.714844 54.300781 C 47.730469 54.355469 47.769531 54.402344 47.769531 54.402344 L 47.953125 54.417969 C 47.953125 54.417969 48.023438 54.421875 48.03125 54.457031 C 48.039062 54.484375 48.054688 54.554688 48.054688 54.578125 C 48.054688 54.582031 48.050781 54.589844 48.050781 54.589844 C 48.042969 54.601562 48.03125 54.609375 48.007812 54.609375 C 47.976562 54.609375 47.839844 54.613281 47.839844 54.613281 L 47.839844 54.617188 L 47.847656 54.769531 L 47.898438 54.816406 L 48.039062 54.824219 C 48.039062 54.824219 48.070312 54.871094 48.070312 54.898438 C 48.070312 54.914062 48.066406 54.925781 48.0625 54.933594 C 48.054688 54.945312 48.046875 54.953125 48.03125 54.96875 C 48 55 47.90625 55.128906 47.90625 55.128906 C 47.90625 55.128906 47.90625 55.117188 47.902344 55.121094 C 47.902344 55.125 47.898438 55.136719 47.898438 55.175781 C 47.898438 55.261719 47.882812 55.285156 47.929688 55.414062 C 47.976562 55.542969 48 55.652344 48 55.652344 C 48 55.652344 48.0625 55.773438 48.078125 55.804688 C 48.09375 55.835938 48.121094 55.851562 48.175781 55.949219 C 48.230469 56.050781 48.320312 56.171875 48.320312 56.171875 L 48.414062 56.242188 C 48.414062 56.242188 48.445312 56.257812 48.476562 56.242188 C 48.507812 56.226562 48.574219 56.1875 48.574219 56.1875 C 48.574219 56.1875 48.613281 56.394531 48.757812 56.3125 L 48.757812 56.308594 L 48.882812 56.003906 L 48.882812 55.859375 C 48.882812 55.855469 49.003906 55.78125 49.039062 55.734375 C 49.046875 55.726562 49.050781 55.71875 49.050781 55.714844 C 49.058594 55.667969 49.105469 55.523438 49.105469 55.523438 L 49.28125 55.429688 L 49.402344 55.429688 L 49.496094 55.34375 L 49.703125 55.191406 L 49.894531 55.09375 L 50.101562 55.015625 L 50.546875 54.816406 L 50.738281 54.648438 L 50.445312 54.601562 L 50.445312 54.441406 L 50.585938 54.53125 L 50.699219 54.441406 L 50.738281 54.203125 L 50.785156 54.019531 L 50.90625 53.816406 L 50.984375 53.457031 L 50.953125 53.265625 L 50.867188 53.136719 L 50.84375 52.945312 C 50.84375 52.945312 50.839844 52.785156 50.859375 52.738281 C 50.882812 52.691406 50.976562 52.550781 50.984375 52.53125 C 50.984375 52.527344 50.988281 52.523438 50.992188 52.515625 C 51.027344 52.46875 51.140625 52.335938 51.160156 52.332031 C 51.183594 52.324219 51.398438 52.167969 51.398438 52.167969 C 51.398438 52.167969 51.320312 52.070312 51.28125 52.070312 C 51.246094 52.070312 50.953125 52.167969 50.953125 52.167969 L 50.808594 52.222656 C 50.808594 52.222656 50.753906 52.246094 50.675781 52.199219 C 50.601562 52.15625 50.492188 52.015625 50.492188 52.015625 L 50.484375 51.878906 L 50.554688 51.824219 L 50.171875 51.824219 C 50.171875 51.824219 49.839844 51.894531 49.792969 51.824219 C 49.75 51.753906 49.695312 51.601562 49.695312 51.601562 C 49.695312 51.601562 49.488281 51.554688 49.417969 51.585938 C 49.351562 51.617188 49.042969 51.824219 49.042969 51.824219 L 48.980469 51.808594 L 48.667969 51.886719 L 48.421875 51.871094 L 48.105469 51.871094 L 48.046875 51.886719 C 49.316406 51.207031 50.769531 50.824219 52.308594 50.824219 C 54.726562 50.824219 56.929688 51.777344 58.558594 53.328125 C 58.527344 53.351562 58.496094 53.371094 58.453125 53.394531 C 58.40625 53.417969 58.347656 53.425781 58.347656 53.425781 C 58.347656 53.425781 58.164062 53.425781 58.132812 53.433594 C 58.105469 53.441406 58.0625 53.453125 58.0625 53.453125 C 58.0625 53.453125 57.976562 53.484375 57.941406 53.511719 C 57.910156 53.539062 57.84375 53.589844 57.84375 53.589844 C 57.84375 53.589844 57.828125 53.675781 57.792969 53.726562 C 57.753906 53.777344 57.722656 53.800781 57.722656 53.800781 C 57.722656 53.800781 57.675781 53.84375 57.632812 53.882812 C 57.597656 53.914062 57.53125 53.933594 57.503906 53.96875 C 57.5 53.972656 57.496094 53.980469 57.496094 53.984375 C 57.476562 54.03125 57.46875 54.054688 57.441406 54.121094 C 57.414062 54.183594 57.394531 54.21875 57.386719 54.246094 C 57.382812 54.269531 57.375 54.3125 57.375 54.3125 C 57.375 54.3125 57.359375 54.355469 57.367188 54.390625 C 57.375 54.417969 57.386719 54.484375 57.417969 54.519531 C 57.445312 54.554688 57.570312 54.578125 57.570312 54.578125 L 57.621094 54.589844 C 57.621094 54.589844 57.699219 54.59375 57.726562 54.601562 C 57.753906 54.609375 57.816406 54.617188 57.816406 54.617188 C 57.816406 54.617188 57.816406 54.613281 57.816406 54.613281 C 57.816406 54.613281 57.707031 54.511719 57.699219 54.503906 C 57.6875 54.496094 57.667969 54.429688 57.667969 54.429688 L 57.644531 54.320312 L 57.644531 54.253906 L 57.65625 54.179688 L 57.722656 54.09375 L 57.832031 53.960938 C 57.832031 53.960938 57.917969 53.871094 57.949219 53.835938 C 57.980469 53.800781 58.046875 53.746094 58.046875 53.746094 L 58.199219 53.644531 C 58.199219 53.644531 58.25 53.605469 58.304688 53.589844 C 58.355469 53.570312 58.433594 53.535156 58.488281 53.523438 C 58.546875 53.511719 58.621094 53.5 58.671875 53.476562 C 58.679688 53.472656 58.6875 53.46875 58.699219 53.460938 C 58.945312 53.707031 59.175781 53.964844 59.390625 54.234375 L 59.375 54.242188 L 59.328125 54.339844 L 59.320312 54.433594 L 59.335938 54.585938 L 59.367188 54.632812 L 59.519531 54.847656 C 59.511719 54.84375 59.410156 54.832031 59.375 54.847656 C 59.371094 54.847656 59.371094 54.847656 59.367188 54.851562 C 59.339844 54.878906 59.375 55.007812 59.375 55.007812 L 59.304688 55.199219 L 59.207031 55.207031 L 59.207031 54.578125 L 59.167969 54.339844 L 59.207031 54.203125 C 59.207031 54.203125 59.078125 54.042969 59.058594 54.035156 C 59.035156 54.03125 58.914062 54.082031 58.914062 54.082031 L 58.84375 54.277344 C 58.84375 54.277344 58.746094 54.476562 58.746094 54.554688 L 58.746094 54.730469 C 58.746094 54.730469 58.816406 54.875 58.832031 54.890625 C 58.835938 54.894531 58.832031 54.898438 58.828125 54.90625 C 58.8125 54.929688 58.746094 54.980469 58.746094 54.980469 L 58.449219 54.816406 L 58.253906 54.753906 L 58.15625 54.683594 L 57.964844 54.664062 L 57.964844 54.667969 C 57.964844 54.667969 58.101562 54.777344 58.101562 54.777344 L 58.101562 54.929688 L 58.003906 54.921875 L 57.863281 54.914062 L 57.742188 54.96875 L 57.570312 55.023438 L 57.519531 54.875 L 57.296875 55 L 57.128906 55.136719 L 57.050781 55.191406 L 56.828125 55.304688 L 56.734375 55.199219 L 56.828125 55.039062 C 56.828125 55.039062 56.722656 54.945312 56.699219 54.945312 C 56.675781 54.945312 56.636719 54.992188 56.636719 54.992188 L 56.636719 55.199219 L 56.582031 55.359375 L 56.441406 55.367188 L 56.320312 55.445312 L 56.320312 55.605469 L 56.007812 55.527344 L 56.070312 55.667969 L 56.03125 55.773438 L 55.960938 55.765625 L 55.824219 55.558594 L 55.777344 55.5 L 55.761719 55.367188 C 55.765625 55.367188 55.9375 55.390625 55.960938 55.390625 L 56.074219 55.390625 C 56.074219 55.390625 56.207031 55.382812 56.238281 55.375 C 56.269531 55.367188 56.40625 55.3125 56.429688 55.296875 C 56.429688 55.296875 56.429688 55.296875 56.433594 55.292969 C 56.449219 55.265625 56.429688 55.136719 56.429688 55.136719 L 56.121094 54.96875 L 55.894531 54.882812 L 55.800781 54.839844 L 55.648438 54.746094 L 55.539062 54.699219 L 55.425781 54.613281 C 55.425781 54.613281 55.316406 54.601562 55.292969 54.601562 L 55.21875 54.601562 L 55.039062 54.554688 C 55.039062 54.554688 54.710938 54.613281 54.679688 54.625 C 54.648438 54.628906 54.464844 54.691406 54.464844 54.691406 L 54.3125 54.746094 L 54.167969 54.851562 L 54.007812 55.074219 L 53.9375 55.128906 L 53.75 55.613281 L 53.515625 55.796875 L 53.378906 55.859375 L 53.238281 55.910156 L 53.160156 56.1875 L 53.183594 56.324219 L 53.238281 56.585938 L 53.300781 56.632812 C 53.300781 56.632812 53.429688 56.546875 53.46875 56.511719 C 53.507812 56.480469 53.644531 56.511719 53.644531 56.511719 L 53.75 56.664062 C 53.75 56.664062 53.828125 56.792969 53.84375 56.800781 C 53.859375 56.808594 53.84375 56.933594 53.84375 56.9375 L 53.738281 56.9375 L 53.683594 56.925781 L 53.621094 56.714844 L 53.5 56.753906 L 53.40625 56.832031 L 53.460938 57.070312 L 53.4375 57.199219 L 53.300781 57.285156 L 53.046875 57.46875 L 52.902344 57.460938 L 52.769531 57.445312 L 52.746094 57.222656 L 52.480469 57.023438 L 52.390625 56.714844 L 52.433594 56.660156 L 52.347656 56.511719 L 52.230469 56.566406 C 52.230469 56.566406 52.140625 56.585938 52.128906 56.585938 C 52.128906 56.585938 52.128906 56.585938 52.128906 56.589844 C 52.117188 56.605469 52.101562 56.75 52.101562 56.761719 C 52.105469 56.777344 52.140625 56.941406 52.140625 56.941406 L 52.078125 56.972656 L 51.910156 57.113281 L 51.824219 57.199219 L 51.851562 57.3125 L 51.796875 57.492188 L 51.960938 57.503906 L 52.054688 57.460938 L 52.132812 57.425781 L 52.136719 57.296875 L 52.136719 57.183594 L 52.230469 57.183594 L 52.230469 57.113281 L 52.351562 57.113281 L 52.382812 57.160156 L 52.390625 57.300781 L 52.304688 57.300781 L 52.261719 57.441406 L 52.304688 57.503906 L 52.410156 57.542969 L 52.230469 57.636719 L 52.230469 57.714844 L 52.347656 57.675781 L 52.441406 57.664062 L 52.617188 57.632812 L 52.792969 57.578125 L 52.824219 57.714844 L 52.679688 57.808594 L 52.625 57.792969 L 52.523438 57.773438 L 52.511719 57.894531 L 52.3125 57.867188 L 52.3125 57.871094 L 52.296875 57.953125 L 52.492188 58.035156 L 52.625 58.195312 L 52.597656 58.339844 L 52.578125 58.449219 L 52.546875 58.507812 L 52.53125 58.511719 L 52.441406 58.523438 L 52.367188 58.523438 L 52.242188 58.527344 L 52.078125 58.496094 L 51.988281 58.488281 L 51.902344 58.527344 L 51.863281 58.566406 C 51.863281 58.566406 51.890625 58.628906 51.898438 58.632812 C 51.902344 58.632812 51.898438 58.707031 51.898438 58.707031 L 51.910156 58.808594 L 51.902344 58.890625 L 51.847656 58.980469 L 51.894531 59.023438 L 51.902344 59.101562 L 51.878906 59.164062 L 51.953125 59.183594 L 52.023438 59.160156 L 52.054688 59.167969 L 52.128906 59.222656 L 52.15625 59.292969 L 52.164062 59.320312 L 52.113281 59.316406 L 52.003906 59.453125 L 51.835938 59.585938 L 51.789062 59.722656 L 51.789062 59.851562 L 51.605469 59.976562 L 51.464844 60.09375 L 51.320312 60.214844 L 51.238281 60.398438 L 51.097656 60.605469 L 51.160156 60.796875 L 51.222656 60.957031 L 51.175781 61.066406 L 51.160156 61.1875 L 51.183594 61.296875 L 51.152344 61.433594 L 51.242188 61.535156 L 51.375 61.679688 L 51.457031 61.753906 C 51.457031 61.753906 51.527344 61.863281 51.527344 61.894531 C 51.527344 61.925781 51.628906 61.976562 51.652344 61.992188 C 51.671875 62.007812 51.871094 62.167969 51.871094 62.167969 L 51.980469 62.199219 L 52.054688 62.199219 L 52.199219 62.148438 L 52.71875 62.191406 L 52.921875 62.148438 L 53.238281 62.246094 L 53.515625 62.339844 L 53.488281 62.746094 L 53.742188 63.082031 L 53.882812 63.375 L 53.882812 63.664062 L 53.789062 63.878906 C 53.789062 63.878906 53.742188 64.164062 53.738281 64.203125 C 53.726562 64.242188 53.835938 64.476562 53.835938 64.476562 L 53.980469 64.832031 C 53.980469 64.832031 54.019531 64.984375 54.035156 65.023438 C 54.050781 65.0625 54.179688 65.269531 54.179688 65.269531 L 54.289062 65.453125 L 54.3125 65.636719 C 54.3125 65.636719 54.390625 65.78125 54.433594 65.78125 C 54.480469 65.78125 54.894531 65.734375 54.894531 65.734375 L 55.238281 65.589844 L 55.433594 65.382812 L 55.636719 65 L 55.675781 64.855469 L 55.792969 64.816406 L 55.859375 64.601562 L 55.816406 64.402344 L 55.976562 64.277344 L 56.238281 64.082031 L 56.328125 64.003906 L 56.328125 63.488281 L 56.238281 63.304688 L 56.230469 63.097656 L 56.328125 62.859375 L 56.566406 62.644531 L 56.84375 62.339844 L 57.058594 62.195312 L 57.058594 62.191406 L 57.171875 61.960938 L 57.257812 61.617188 L 57.257812 61.535156 L 56.859375 61.625 L 56.675781 61.625 L 56.511719 61.496094 C 56.511719 61.496094 56.445312 61.335938 56.421875 61.324219 C 56.398438 61.320312 56.328125 61.265625 56.328125 61.265625 L 56.113281 60.84375 L 55.984375 60.597656 L 55.777344 60.28125 L 55.699219 59.984375 L 55.808594 59.984375 L 55.90625 60.167969 L 56.074219 60.34375 L 56.175781 60.613281 L 56.351562 60.78125 C 56.351562 60.78125 56.484375 60.941406 56.511719 61.027344 C 56.542969 61.113281 56.550781 61.144531 56.566406 61.195312 C 56.582031 61.25 56.621094 61.433594 56.621094 61.433594 L 56.699219 61.457031 L 56.957031 61.367188 L 57.09375 61.28125 L 57.21875 61.195312 C 57.21875 61.195312 57.441406 61.109375 57.488281 61.097656 C 57.53125 61.082031 57.6875 61.019531 57.703125 60.996094 C 57.71875 60.972656 57.847656 60.828125 57.847656 60.828125 L 57.921875 60.71875 C 57.921875 60.71875 57.925781 60.71875 57.925781 60.71875 L 58.007812 60.597656 L 57.941406 60.414062 L 57.808594 60.34375 L 57.703125 60.292969 L 57.449219 60.414062 L 57.28125 60.367188 L 57.050781 60.09375 L 57.003906 59.914062 L 57.019531 59.863281 C 57.019531 59.863281 57.136719 59.851562 57.136719 59.851562 L 57.238281 59.933594 L 57.378906 60.066406 L 57.488281 60.148438 L 57.675781 60.09375 L 57.777344 60.214844 L 57.953125 60.304688 L 58.253906 60.253906 L 58.445312 60.230469 L 58.738281 60.460938 L 58.816406 60.628906 L 59.066406 60.714844 L 59.183594 60.636719 L 59.214844 60.804688 L 59.273438 61.058594 L 59.34375 61.210938 L 59.382812 61.386719 L 59.636719 61.871094 C 59.636719 61.871094 59.679688 61.816406 59.714844 61.773438 C 59.726562 61.761719 59.734375 61.75 59.742188 61.742188 C 59.773438 61.703125 59.847656 61.660156 59.851562 61.65625 L 59.820312 61.523438 L 59.8125 61.496094 L 59.882812 61.355469 L 60.035156 61.058594 C 60.035156 61.058594 60.234375 60.964844 60.234375 60.964844 L 60.324219 60.890625 L 60.472656 60.683594 L 60.65625 60.597656 C 60.65625 60.597656 60.863281 60.730469 60.886719 60.730469 C 60.90625 60.730469 61 60.804688 61 60.804688 L 61.0625 60.867188 L 61.109375 61.011719 L 61.15625 61.1875 L 61.191406 61.167969 L 61.300781 61.097656 C 60.710938 65.535156 56.902344 68.972656 52.308594 68.972656 Z M 52.304688 68.972656 " fill-opacity="1" fill-rule="nonzero"/></g><path fill="#0400b8" d="M 57.085938 63.644531 C 57.085938 63.644531 56.972656 63.828125 56.972656 63.828125 L 56.921875 63.886719 C 56.921875 63.886719 56.875 63.925781 56.820312 63.949219 C 56.761719 63.972656 56.703125 64.011719 56.703125 64.011719 C 56.703125 64.011719 56.675781 64.027344 56.648438 64.0625 C 56.640625 64.074219 56.632812 64.085938 56.625 64.105469 C 56.601562 64.167969 56.601562 64.304688 56.601562 64.304688 L 56.632812 64.371094 L 56.5625 64.554688 L 56.5625 64.628906 L 56.597656 64.765625 L 56.632812 64.839844 L 56.921875 64.796875 L 56.9375 64.605469 L 57 64.476562 C 57 64.476562 57.03125 64.394531 57.035156 64.371094 C 57.039062 64.347656 57.0625 64.300781 57.074219 64.234375 C 57.085938 64.167969 57.121094 64.03125 57.121094 64.03125 L 57.152344 63.933594 C 57.152344 63.933594 57.171875 63.886719 57.171875 63.855469 C 57.171875 63.824219 57.148438 63.71875 57.148438 63.71875 Z M 57.085938 63.644531 " fill-opacity="1" fill-rule="nonzero"/><path fill="#0400b8" d="M 59.816406 61.523438 C 59.839844 61.46875 59.859375 61.414062 59.882812 61.355469 L 59.808594 61.496094 Z M 59.816406 61.523438 " fill-opacity="1" fill-rule="nonzero"/><path fill="#0400b8" d="M 57.097656 54.929688 C 57.136719 54.914062 57.210938 54.871094 57.210938 54.871094 C 57.210938 54.871094 57.183594 54.8125 57.167969 54.804688 C 57.152344 54.800781 57.101562 54.789062 57.101562 54.789062 L 57.035156 54.785156 L 56.988281 54.859375 L 57.019531 54.957031 C 57.019531 54.957031 57.058594 54.949219 57.097656 54.929688 Z M 57.097656 54.929688 " fill-opacity="1" fill-rule="nonzero"/><path fill="#0400b8" d="M 51.355469 55.679688 L 51.550781 55.625 L 51.664062 55.546875 L 51.59375 55.441406 L 51.457031 55.316406 L 51.359375 55.296875 L 51.167969 55.386719 L 51.023438 55.402344 L 50.886719 55.320312 L 50.816406 55.285156 L 50.675781 55.363281 L 50.792969 55.457031 L 50.855469 55.65625 L 50.886719 55.734375 C 50.886719 55.734375 50.957031 55.785156 50.980469 55.789062 C 51.003906 55.792969 51.074219 55.792969 51.074219 55.792969 C 51.074219 55.792969 51.238281 55.769531 51.257812 55.75 C 51.277344 55.730469 51.355469 55.679688 51.355469 55.679688 Z M 51.355469 55.679688 " fill-opacity="1" fill-rule="nonzero"/><path fill="#ffffff" d="M 108.285156 36.917969 C 108.632812 36.917969 108.863281 36.726562 108.863281 36.378906 C 108.863281 36.03125 108.632812 35.863281 108.277344 35.863281 L 107.722656 35.863281 L 107.722656 36.917969 Z M 107.226562 35.410156 L 108.304688 35.410156 C 108.953125 35.410156 109.363281 35.753906 109.363281 36.371094 C 109.363281 36.835938 109.105469 37.125 108.742188 37.257812 L 109.445312 38.421875 L 108.871094 38.421875 L 108.234375 37.359375 C 108.230469 37.355469 108.074219 37.359375 108.070312 37.359375 L 107.722656 37.359375 L 107.722656 38.421875 L 107.226562 38.421875 L 107.226562 35.410156 " fill-opacity="1" fill-rule="nonzero"/><g clip-path="url(#0c44de6c1b)"><path fill="#ffffff" d="M 108.238281 34.394531 C 107.898438 34.394531 107.570312 34.460938 107.257812 34.59375 C 106.960938 34.71875 106.691406 34.902344 106.460938 35.132812 C 106.226562 35.363281 106.046875 35.632812 105.917969 35.933594 C 105.789062 36.246094 105.722656 36.574219 105.722656 36.914062 C 105.722656 37.253906 105.789062 37.582031 105.917969 37.894531 C 106.046875 38.195312 106.226562 38.464844 106.460938 38.695312 C 106.691406 38.925781 106.960938 39.109375 107.257812 39.234375 C 107.570312 39.367188 107.898438 39.433594 108.238281 39.433594 C 108.582031 39.433594 108.910156 39.367188 109.21875 39.234375 C 109.519531 39.109375 109.789062 38.925781 110.019531 38.695312 C 110.25 38.464844 110.433594 38.195312 110.558594 37.894531 C 110.691406 37.582031 110.757812 37.253906 110.757812 36.914062 C 110.757812 36.574219 110.691406 36.246094 110.558594 35.933594 C 110.433594 35.632812 110.25 35.363281 110.019531 35.132812 C 109.789062 34.902344 109.519531 34.71875 109.21875 34.59375 C 108.910156 34.460938 108.582031 34.394531 108.238281 34.394531 Z M 108.238281 39.953125 C 107.828125 39.953125 107.429688 39.875 107.054688 39.714844 C 106.695312 39.5625 106.371094 39.34375 106.089844 39.0625 C 105.8125 38.785156 105.59375 38.460938 105.441406 38.097656 C 105.28125 37.722656 105.199219 37.324219 105.199219 36.914062 C 105.199219 36.503906 105.28125 36.105469 105.441406 35.730469 C 105.59375 35.371094 105.8125 35.042969 106.089844 34.765625 C 106.371094 34.484375 106.695312 34.265625 107.054688 34.113281 C 107.429688 33.957031 107.828125 33.875 108.238281 33.875 C 108.648438 33.875 109.046875 33.957031 109.421875 34.113281 C 109.785156 34.265625 110.109375 34.484375 110.390625 34.765625 C 110.667969 35.042969 110.886719 35.371094 111.039062 35.730469 C 111.199219 36.105469 111.277344 36.503906 111.277344 36.914062 C 111.277344 37.324219 111.199219 37.722656 111.039062 38.097656 C 110.886719 38.460938 110.667969 38.785156 110.390625 39.0625 C 110.109375 39.34375 109.785156 39.5625 109.421875 39.714844 C 109.046875 39.875 108.648438 39.953125 108.238281 39.953125 " fill-opacity="1" fill-rule="nonzero"/></g><path fill="#ffffff" d="M 101.691406 47.074219 L 107.933594 47.074219 L 107.933594 69.570312 L 101.691406 69.570312 Z M 99.929688 53.453125 L 99.929688 69.570312 C 97.695312 69.34375 95.96875 68.53125 94.75 67.128906 C 93.53125 65.726562 92.921875 63.847656 92.921875 61.492188 C 92.921875 59.164062 93.535156 57.292969 94.765625 55.882812 C 95.992188 54.46875 97.714844 53.660156 99.929688 53.453125 Z M 99.929688 53.453125 " fill-opacity="1" fill-rule="nonzero"/><path fill="#ffffff" d="M 79.894531 69.558594 L 69.257812 69.558594 L 69.257812 39.191406 L 79.894531 39.191406 Z M 80.777344 39.191406 L 91.292969 39.191406 L 91.292969 50.894531 Z M 87.289062 60.011719 L 80.65625 53.746094 L 87.289062 47.488281 Z M 80.777344 69.558594 L 91.453125 55.886719 L 91.453125 69.558594 Z M 80.777344 69.558594 " fill-opacity="1" fill-rule="nonzero"/><path fill="#ffffff" d="M 9.003906 71.636719 L 9.574219 71.636719 L 8.4375 74.882812 L 7.785156 74.882812 L 6.542969 72.214844 L 5.296875 74.882812 L 4.648438 74.882812 L 3.511719 71.636719 L 4.078125 71.636719 L 4.988281 74.230469 L 6.195312 71.636719 L 6.890625 71.636719 L 8.097656 74.230469 Z M 9.003906 71.636719 " fill-opacity="1" fill-rule="nonzero"/><path fill="#ffffff" d="M 13.734375 72.132812 L 10.863281 72.132812 L 10.863281 73.054688 L 13.398438 73.054688 L 13.398438 73.546875 L 10.863281 73.546875 L 10.863281 74.390625 L 13.734375 74.390625 L 13.734375 74.882812 L 10.3125 74.882812 L 10.3125 71.636719 L 13.734375 71.636719 Z M 13.734375 72.132812 " fill-opacity="1" fill-rule="nonzero"/><path fill="#ffffff" d="M 19.8125 74.882812 L 19.488281 74.304688 L 17.207031 74.304688 L 16.890625 74.882812 L 16.253906 74.882812 L 18.035156 71.648438 L 18.023438 71.636719 L 18.671875 71.636719 L 18.667969 71.648438 L 20.445312 74.882812 Z M 17.507812 73.765625 L 19.195312 73.765625 L 18.351562 72.222656 Z M 17.507812 73.765625 " fill-opacity="1" fill-rule="nonzero"/><path fill="#ffffff" d="M 21.140625 71.636719 L 21.691406 71.636719 L 21.691406 74.882812 L 21.140625 74.882812 Z M 21.140625 71.636719 " fill-opacity="1" fill-rule="nonzero"/><path fill="#ffffff" d="M 27.917969 71.636719 L 27.917969 74.882812 L 27.367188 74.882812 L 27.367188 72.3125 L 25.789062 74.875 L 25.792969 74.882812 L 25.132812 74.882812 L 25.140625 74.875 L 23.585938 72.324219 L 23.585938 74.882812 L 23.035156 74.882812 L 23.035156 71.636719 L 23.820312 71.636719 L 25.46875 74.34375 L 27.132812 71.636719 Z M 27.917969 71.636719 " fill-opacity="1" fill-rule="nonzero"/><path fill="#ffffff" d="M 34.84375 72.132812 L 31.972656 72.132812 L 31.972656 73.078125 L 34.507812 73.078125 L 34.507812 73.566406 L 31.972656 73.566406 L 31.972656 74.882812 L 31.421875 74.882812 L 31.421875 71.636719 L 34.84375 71.636719 Z M 34.84375 72.132812 " fill-opacity="1" fill-rule="nonzero"/><path fill="#ffffff" d="M 37.570312 74.941406 C 37.152344 74.941406 36.800781 74.894531 36.515625 74.808594 C 36.238281 74.722656 36.011719 74.605469 35.84375 74.453125 C 35.675781 74.304688 35.554688 74.136719 35.480469 73.949219 C 35.410156 73.765625 35.375 73.574219 35.375 73.382812 L 35.375 73.140625 C 35.375 72.941406 35.410156 72.746094 35.480469 72.558594 C 35.554688 72.371094 35.675781 72.203125 35.84375 72.054688 C 36.011719 71.90625 36.238281 71.789062 36.515625 71.703125 C 36.800781 71.613281 37.152344 71.566406 37.570312 71.566406 C 37.980469 71.566406 38.328125 71.609375 38.609375 71.691406 C 38.890625 71.777344 39.117188 71.890625 39.285156 72.039062 C 39.453125 72.183594 39.578125 72.351562 39.652344 72.535156 C 39.730469 72.722656 39.769531 72.917969 39.769531 73.121094 L 39.769531 73.359375 C 39.769531 73.546875 39.734375 73.738281 39.664062 73.925781 C 39.589844 74.113281 39.472656 74.285156 39.308594 74.441406 C 39.140625 74.59375 38.917969 74.714844 38.636719 74.804688 C 38.351562 74.894531 37.996094 74.941406 37.570312 74.941406 Z M 37.570312 74.398438 C 37.976562 74.398438 38.296875 74.355469 38.53125 74.273438 C 38.773438 74.1875 38.945312 74.070312 39.046875 73.921875 C 39.152344 73.777344 39.203125 73.613281 39.203125 73.433594 L 39.203125 73.195312 C 39.203125 72.992188 39.148438 72.8125 39.03125 72.648438 C 38.921875 72.484375 38.742188 72.355469 38.5 72.257812 C 38.261719 72.15625 37.949219 72.109375 37.570312 72.109375 C 37.179688 72.109375 36.863281 72.152344 36.625 72.242188 C 36.382812 72.335938 36.207031 72.457031 36.097656 72.613281 C 35.988281 72.769531 35.933594 72.941406 35.933594 73.140625 L 35.933594 73.382812 C 35.933594 73.570312 35.988281 73.746094 36.097656 73.898438 C 36.207031 74.050781 36.382812 74.175781 36.625 74.265625 C 36.863281 74.355469 37.179688 74.398438 37.570312 74.398438 Z M 37.570312 74.398438 " fill-opacity="1" fill-rule="nonzero"/><path fill="#ffffff" d="M 44.710938 72.582031 C 44.710938 72.816406 44.664062 72.996094 44.570312 73.117188 C 44.480469 73.238281 44.355469 73.324219 44.199219 73.371094 C 44.355469 73.460938 44.472656 73.574219 44.542969 73.714844 C 44.613281 73.851562 44.652344 74.007812 44.652344 74.175781 L 44.652344 74.558594 C 44.652344 74.617188 44.652344 74.675781 44.65625 74.730469 C 44.660156 74.785156 44.667969 74.835938 44.675781 74.882812 L 44.042969 74.882812 C 44.035156 74.835938 44.027344 74.785156 44.027344 74.730469 C 44.023438 74.679688 44.019531 74.628906 44.019531 74.582031 L 44.019531 74.21875 C 44.019531 74.128906 44.011719 74.042969 43.996094 73.949219 C 43.984375 73.859375 43.941406 73.785156 43.863281 73.722656 C 43.789062 73.660156 43.660156 73.628906 43.476562 73.628906 L 41.460938 73.628906 L 41.460938 74.882812 L 40.871094 74.882812 L 40.871094 71.636719 L 43.703125 71.636719 C 44.019531 71.636719 44.269531 71.710938 44.445312 71.859375 C 44.625 72.007812 44.710938 72.230469 44.710938 72.523438 Z M 41.460938 73.050781 L 43.703125 73.050781 C 43.855469 73.050781 43.96875 73.007812 44.039062 72.914062 C 44.113281 72.820312 44.152344 72.710938 44.152344 72.582031 L 44.152344 72.523438 C 44.152344 72.46875 44.140625 72.417969 44.113281 72.363281 C 44.09375 72.3125 44.050781 72.269531 43.984375 72.234375 C 43.917969 72.195312 43.824219 72.175781 43.703125 72.175781 L 41.460938 72.175781 Z M 41.460938 73.050781 " fill-opacity="1" fill-rule="nonzero"/><path fill="#ffffff" d="M 50.671875 71.636719 L 51.421875 71.636719 L 49.621094 73.695312 L 49.621094 74.882812 L 49.070312 74.882812 L 49.070312 73.691406 L 48.980469 73.585938 L 48.976562 73.585938 L 47.273438 71.636719 L 48.023438 71.636719 L 49.351562 73.15625 Z M 50.671875 71.636719 " fill-opacity="1" fill-rule="nonzero"/><path fill="#ffffff" d="M 54.050781 74.941406 C 53.628906 74.941406 53.277344 74.894531 52.996094 74.808594 C 52.714844 74.722656 52.488281 74.605469 52.320312 74.453125 C 52.152344 74.304688 52.03125 74.136719 51.957031 73.949219 C 51.886719 73.765625 51.851562 73.574219 51.851562 73.382812 L 51.851562 73.140625 C 51.851562 72.941406 51.886719 72.746094 51.957031 72.558594 C 52.03125 72.371094 52.152344 72.203125 52.320312 72.054688 C 52.488281 71.90625 52.714844 71.789062 52.996094 71.703125 C 53.277344 71.613281 53.628906 71.566406 54.050781 71.566406 C 54.460938 71.566406 54.804688 71.609375 55.085938 71.691406 C 55.367188 71.777344 55.59375 71.890625 55.761719 72.039062 C 55.933594 72.183594 56.054688 72.351562 56.128906 72.535156 C 56.207031 72.722656 56.246094 72.917969 56.246094 73.121094 L 56.246094 73.359375 C 56.246094 73.546875 56.210938 73.738281 56.140625 73.925781 C 56.066406 74.113281 55.949219 74.285156 55.785156 74.441406 C 55.621094 74.59375 55.394531 74.714844 55.113281 74.804688 C 54.828125 74.894531 54.476562 74.941406 54.050781 74.941406 Z M 54.050781 74.398438 C 54.453125 74.398438 54.773438 74.355469 55.011719 74.273438 C 55.25 74.1875 55.421875 74.070312 55.523438 73.921875 C 55.628906 73.777344 55.683594 73.613281 55.683594 73.433594 L 55.683594 73.195312 C 55.683594 72.992188 55.625 72.8125 55.507812 72.648438 C 55.398438 72.484375 55.21875 72.355469 54.976562 72.257812 C 54.738281 72.15625 54.429688 72.109375 54.050781 72.109375 C 53.65625 72.109375 53.339844 72.152344 53.101562 72.242188 C 52.859375 72.335938 52.6875 72.457031 52.574219 72.613281 C 52.464844 72.769531 52.410156 72.941406 52.410156 73.140625 L 52.410156 73.382812 C 52.410156 73.570312 52.464844 73.746094 52.574219 73.898438 C 52.6875 74.050781 52.859375 74.175781 53.101562 74.265625 C 53.339844 74.355469 53.65625 74.398438 54.050781 74.398438 Z M 54.050781 74.398438 " fill-opacity="1" fill-rule="nonzero"/><path fill="#ffffff" d="M 59.121094 74.941406 C 58.703125 74.941406 58.363281 74.894531 58.101562 74.808594 C 57.835938 74.722656 57.628906 74.605469 57.488281 74.453125 C 57.347656 74.304688 57.25 74.136719 57.195312 73.949219 C 57.140625 73.765625 57.113281 73.574219 57.113281 73.382812 L 57.144531 71.644531 L 57.746094 71.644531 L 57.746094 73.382812 C 57.746094 73.570312 57.792969 73.742188 57.886719 73.890625 C 57.976562 74.039062 58.125 74.152344 58.328125 74.234375 C 58.53125 74.316406 58.796875 74.355469 59.121094 74.355469 C 59.460938 74.355469 59.730469 74.320312 59.933594 74.242188 C 60.136719 74.160156 60.28125 74.046875 60.367188 73.898438 C 60.457031 73.75 60.503906 73.578125 60.503906 73.382812 L 60.53125 71.644531 L 61.132812 71.644531 L 61.132812 73.300781 C 61.132812 73.507812 61.105469 73.707031 61.054688 73.90625 C 61 74.101562 60.90625 74.277344 60.765625 74.433594 C 60.625 74.585938 60.421875 74.707031 60.15625 74.800781 C 59.894531 74.894531 59.546875 74.941406 59.121094 74.941406 Z M 59.121094 74.941406 " fill-opacity="1" fill-rule="nonzero"/><path fill="#ffffff" d="M 66.113281 72.582031 C 66.113281 72.816406 66.066406 72.996094 65.972656 73.117188 C 65.878906 73.238281 65.753906 73.324219 65.601562 73.371094 C 65.757812 73.460938 65.875 73.574219 65.945312 73.714844 C 66.015625 73.851562 66.054688 74.007812 66.054688 74.175781 L 66.054688 74.558594 C 66.054688 74.617188 66.054688 74.675781 66.058594 74.730469 C 66.0625 74.785156 66.070312 74.835938 66.078125 74.882812 L 65.445312 74.882812 C 65.4375 74.835938 65.429688 74.785156 65.425781 74.730469 C 65.425781 74.679688 65.421875 74.628906 65.421875 74.582031 L 65.421875 74.21875 C 65.421875 74.128906 65.414062 74.042969 65.398438 73.949219 C 65.386719 73.859375 65.339844 73.785156 65.265625 73.722656 C 65.191406 73.660156 65.058594 73.628906 64.878906 73.628906 L 62.859375 73.628906 L 62.859375 74.882812 L 62.273438 74.882812 L 62.273438 71.636719 L 65.105469 71.636719 C 65.421875 71.636719 65.671875 71.710938 65.847656 71.859375 C 66.023438 72.007812 66.113281 72.230469 66.113281 72.523438 Z M 62.859375 73.050781 L 65.105469 73.050781 C 65.257812 73.050781 65.371094 73.007812 65.441406 72.914062 C 65.515625 72.820312 65.554688 72.710938 65.554688 72.582031 L 65.554688 72.523438 C 65.554688 72.46875 65.539062 72.417969 65.515625 72.363281 C 65.496094 72.3125 65.449219 72.269531 65.386719 72.234375 C 65.320312 72.195312 65.226562 72.175781 65.105469 72.175781 L 62.859375 72.175781 Z M 62.859375 73.050781 " fill-opacity="1" fill-rule="nonzero"/><path fill="#ffffff" d="M 72.777344 72.132812 L 69.90625 72.132812 L 69.90625 73.054688 L 72.441406 73.054688 L 72.441406 73.546875 L 69.90625 73.546875 L 69.90625 74.390625 L 72.777344 74.390625 L 72.777344 74.882812 L 69.355469 74.882812 L 69.355469 71.636719 L 72.777344 71.636719 Z M 72.777344 72.132812 " fill-opacity="1" fill-rule="nonzero"/><path fill="#ffffff" d="M 75.679688 71.636719 C 76.082031 71.636719 76.417969 71.664062 76.683594 71.71875 C 76.953125 71.777344 77.164062 71.855469 77.324219 71.957031 C 77.484375 72.058594 77.605469 72.175781 77.683594 72.308594 C 77.765625 72.4375 77.816406 72.582031 77.84375 72.734375 C 77.867188 72.882812 77.878906 73.035156 77.878906 73.195312 L 77.878906 73.433594 C 77.878906 73.585938 77.867188 73.734375 77.84375 73.875 C 77.816406 74.015625 77.765625 74.148438 77.683594 74.273438 C 77.605469 74.394531 77.484375 74.5 77.324219 74.59375 C 77.164062 74.6875 76.953125 74.761719 76.683594 74.808594 C 76.417969 74.859375 76.082031 74.882812 75.679688 74.882812 L 73.777344 74.882812 L 73.777344 71.636719 Z M 77.316406 73.433594 L 77.316406 73.195312 C 77.316406 73.050781 77.296875 72.917969 77.269531 72.792969 C 77.238281 72.671875 77.167969 72.558594 77.058594 72.46875 C 76.953125 72.375 76.789062 72.300781 76.574219 72.253906 C 76.355469 72.203125 76.058594 72.175781 75.679688 72.175781 L 74.328125 72.175781 L 74.328125 74.34375 L 75.679688 74.34375 C 76.070312 74.34375 76.375 74.320312 76.597656 74.277344 C 76.820312 74.234375 76.984375 74.171875 77.085938 74.089844 C 77.1875 74.011719 77.25 73.914062 77.277344 73.800781 C 77.300781 73.691406 77.316406 73.566406 77.316406 73.433594 Z M 77.316406 73.433594 " fill-opacity="1" fill-rule="nonzero"/><path fill="#ffffff" d="M 80.757812 74.941406 C 80.339844 74.941406 79.996094 74.894531 79.734375 74.808594 C 79.46875 74.722656 79.265625 74.605469 79.121094 74.453125 C 78.984375 74.304688 78.882812 74.136719 78.828125 73.949219 C 78.773438 73.765625 78.75 73.574219 78.75 73.382812 L 78.777344 71.644531 L 79.378906 71.644531 L 79.378906 73.382812 C 79.378906 73.570312 79.425781 73.742188 79.519531 73.890625 C 79.613281 74.039062 79.761719 74.152344 79.960938 74.234375 C 80.164062 74.316406 80.429688 74.355469 80.757812 74.355469 C 81.09375 74.355469 81.363281 74.320312 81.566406 74.242188 C 81.769531 74.160156 81.914062 74.046875 82.003906 73.898438 C 82.09375 73.75 82.136719 73.578125 82.136719 73.382812 L 82.164062 71.644531 L 82.765625 71.644531 L 82.765625 73.300781 C 82.765625 73.507812 82.742188 73.707031 82.6875 73.90625 C 82.632812 74.101562 82.539062 74.277344 82.398438 74.433594 C 82.257812 74.585938 82.054688 74.707031 81.792969 74.800781 C 81.527344 74.894531 81.183594 74.941406 80.757812 74.941406 Z M 80.757812 74.941406 " fill-opacity="1" fill-rule="nonzero"/><path fill="#ffffff" d="M 85.867188 74.941406 C 85.445312 74.941406 85.09375 74.894531 84.8125 74.808594 C 84.53125 74.71875 84.308594 74.597656 84.140625 74.445312 C 83.972656 74.289062 83.851562 74.117188 83.777344 73.921875 C 83.703125 73.726562 83.667969 73.523438 83.667969 73.308594 L 83.667969 73.195312 C 83.667969 72.984375 83.703125 72.78125 83.777344 72.582031 C 83.851562 72.386719 83.972656 72.214844 84.140625 72.0625 C 84.308594 71.910156 84.53125 71.789062 84.8125 71.703125 C 85.09375 71.613281 85.445312 71.566406 85.867188 71.566406 C 86.320312 71.566406 86.707031 71.625 87.023438 71.738281 C 87.339844 71.855469 87.585938 72.007812 87.757812 72.195312 C 87.925781 72.386719 88.019531 72.589844 88.035156 72.808594 L 87.433594 72.808594 C 87.414062 72.679688 87.332031 72.5625 87.195312 72.457031 C 87.0625 72.351562 86.882812 72.269531 86.65625 72.207031 C 86.429688 72.140625 86.164062 72.109375 85.867188 72.109375 C 85.476562 72.109375 85.160156 72.15625 84.917969 72.246094 C 84.679688 72.339844 84.503906 72.464844 84.390625 72.625 C 84.28125 72.789062 84.230469 72.976562 84.230469 73.195312 L 84.230469 73.308594 C 84.230469 73.523438 84.28125 73.710938 84.390625 73.875 C 84.503906 74.039062 84.679688 74.164062 84.917969 74.257812 C 85.160156 74.351562 85.476562 74.398438 85.867188 74.398438 C 86.203125 74.398438 86.476562 74.367188 86.691406 74.304688 C 86.90625 74.242188 87.074219 74.152344 87.191406 74.042969 C 87.308594 73.933594 87.390625 73.804688 87.429688 73.667969 L 88.03125 73.667969 C 87.996094 73.894531 87.898438 74.105469 87.746094 74.296875 C 87.59375 74.488281 87.367188 74.644531 87.0625 74.761719 C 86.757812 74.882812 86.359375 74.941406 85.867188 74.941406 Z M 85.867188 74.941406 " fill-opacity="1" fill-rule="nonzero"/><path fill="#ffffff" d="M 92.066406 74.882812 L 91.746094 74.304688 L 89.464844 74.304688 L 89.148438 74.882812 L 88.511719 74.882812 L 90.289062 71.648438 L 90.28125 71.636719 L 90.929688 71.636719 L 90.925781 71.648438 L 92.703125 74.882812 Z M 89.761719 73.765625 L 91.453125 73.765625 L 90.605469 72.222656 Z M 89.761719 73.765625 " fill-opacity="1" fill-rule="nonzero"/><path fill="#ffffff" d="M 96.421875 71.636719 L 96.421875 72.167969 L 94.84375 72.167969 L 94.84375 74.882812 L 94.289062 74.882812 L 94.289062 72.167969 L 92.710938 72.167969 L 92.710938 71.636719 Z M 96.421875 71.636719 " fill-opacity="1" fill-rule="nonzero"/><path fill="#ffffff" d="M 97.074219 71.636719 L 97.625 71.636719 L 97.625 74.882812 L 97.074219 74.882812 Z M 97.074219 71.636719 " fill-opacity="1" fill-rule="nonzero"/><path fill="#ffffff" d="M 100.925781 74.941406 C 100.507812 74.941406 100.152344 74.894531 99.871094 74.808594 C 99.589844 74.722656 99.367188 74.605469 99.199219 74.453125 C 99.03125 74.304688 98.910156 74.136719 98.835938 73.949219 C 98.761719 73.765625 98.726562 73.574219 98.726562 73.382812 L 98.726562 73.140625 C 98.726562 72.941406 98.761719 72.746094 98.835938 72.558594 C 98.910156 72.371094 99.03125 72.203125 99.199219 72.054688 C 99.367188 71.90625 99.589844 71.789062 99.871094 71.703125 C 100.152344 71.613281 100.507812 71.566406 100.925781 71.566406 C 101.335938 71.566406 101.683594 71.609375 101.960938 71.691406 C 102.246094 71.777344 102.472656 71.890625 102.640625 72.039062 C 102.808594 72.183594 102.933594 72.351562 103.007812 72.535156 C 103.085938 72.722656 103.125 72.917969 103.125 73.121094 L 103.125 73.359375 C 103.125 73.546875 103.089844 73.738281 103.015625 73.925781 C 102.945312 74.113281 102.828125 74.285156 102.664062 74.441406 C 102.496094 74.59375 102.273438 74.714844 101.992188 74.804688 C 101.707031 74.894531 101.351562 74.941406 100.925781 74.941406 Z M 100.925781 74.398438 C 101.328125 74.398438 101.652344 74.355469 101.886719 74.273438 C 102.125 74.1875 102.296875 74.070312 102.402344 73.921875 C 102.507812 73.777344 102.558594 73.613281 102.558594 73.433594 L 102.558594 73.195312 C 102.558594 72.992188 102.5 72.8125 102.386719 72.648438 C 102.273438 72.484375 102.097656 72.355469 101.855469 72.257812 C 101.613281 72.15625 101.304688 72.109375 100.925781 72.109375 C 100.535156 72.109375 100.21875 72.152344 99.980469 72.242188 C 99.738281 72.335938 99.5625 72.457031 99.453125 72.613281 C 99.34375 72.769531 99.289062 72.941406 99.289062 73.140625 L 99.289062 73.382812 C 99.289062 73.570312 99.34375 73.746094 99.453125 73.898438 C 99.5625 74.050781 99.738281 74.175781 99.980469 74.265625 C 100.21875 74.355469 100.535156 74.398438 100.925781 74.398438 Z M 100.925781 74.398438 " fill-opacity="1" fill-rule="nonzero"/><path fill="#ffffff" d="M 107.335938 71.636719 L 107.886719 71.636719 L 107.886719 74.882812 L 107.144531 74.882812 L 104.777344 72.253906 L 104.777344 74.882812 L 104.226562 74.882812 L 104.226562 71.636719 L 104.953125 71.636719 L 107.335938 74.273438 Z M 107.335938 71.636719 " fill-opacity="1" fill-rule="nonzero"/></svg>